<svg xmlns="http://www.w3.org/2000/svg" xmlns:xlink="http://www.w3.org/1999/xlink" viewBox="0 0 435 115" height="26" role="img" aria-labelledby="logos-item-ahrefs-title-691ad99f4d490">
			<path fill="#f80" d="m7.08,41.97l40.79,0l0,11.47l-15.34,1.18c-24.77,1.85 -32.53,8.42 -32.53,26.8l0,3.71c0,13.48 9.44,21.57 23.94,21.57c11.46,0 18,-2.7 26.13,-11l1.31,0l0,8.77l16.35,0l0,-80.4l-60.65,0l0,17.9zm40.79,38.77c-5,5.06 -12.64,8.43 -18.88,8.43c-6.74,0 -9.6,-2.53 -9.44,-8.09c0.17,-7.76 3,-9.61 16,-10.79l12.3,-1.18l0.02,11.63z"/>
			<path fill="#054ada" d="m390.23,56.47l-12.14,-1.2c-6.74,-0.67 -8.43,-2.36 -8.43,-7.75c0,-6.07 2.36,-7.59 11.8,-7.59c8.43,0 10.79,1.35 12,7.08l18.88,0c-0.51,-19.22 -6.41,-24.1 -29.84,-24.1c-25.62,0 -32,4.88 -32,24.61c0,18 4.72,22.92 23.77,24.77l9.95,1c8.93,0.85 11.12,2.53 11.12,7.93c0,6.57 -2.7,8.26 -13.65,8.26c-9.61,0 -12.14,-1.52 -12.64,-7.76l-19.11,0c0.5,19.89 6.57,24.95 30.85,24.95c27,0 33.71,-5.39 33.71,-27.31c0,-16.32 -4.89,-21.04 -24.27,-22.89z"/>
			<path fill="#054ada" d="m289.09,57.99c0,-26 -8.94,-35.06 -34.56,-35.06c-25.28,0 -35.23,11.79 -35.23,41.12c0,32 8.77,42.65 37.09,42.65c20.39,0 29,-6.23 31.85,-23.77l-19.38,0c-2.19,5.4 -4.55,6.58 -12.81,6.58c-12.47,0 -15.68,-3.54 -16.35,-18.54l48,0a77.59,77.59 0 0 0 1.39,-12.98zm-49.22,-2.87c0.17,-11.29 4.72,-15.51 15.5,-15.51c10.29,0 14.5,4.22 14.84,15.51l-30.34,0z"/>
			<polygon fill="#054ada" points="134.17999267578125,24.110000610351562 102.66000366210938,24.110000610351562 102.66000366210938,0 82.60000610351562,0 82.60000610351562,104.50999450683594 102.66000366210938,104.50999450683594 102.66000366210938,42.13999938964844 131.30999755859375,42.13999938964844 131.30999755859375,104.50999450683594 151.37002563476562,104.50999450683594 151.37002563476562,40.46000671386719 134.17999267578125,40.46000671386719 134.17999267578125,24.110000610351562 "/>
			<path fill="#054ada" d="m300.38,27.64l0,76.87l20.06,0l0,-63.24l24.1,0l0,-17.16l-24.1,0l0,-2.2c0.17,-4.72 1.35,-6.06 5.23,-6.06l21.91,0l0,-15.85l-23.6,0c-16.01,0 -23.6,4.89 -23.6,27.64z"/>
			<polygon fill="#054ada" points="166.20001220703125,104.50999450683594 186.260009765625,104.50999450683594 186.260009765625,42.98002624511719 216.10000610351562,42.98002624511719 216.10000610351562,24.110000610351562 166.20001220703125,24.110000610351562 166.20001220703125,104.50999450683594 "/>
		</svg>