<svg xmlns="http://www.w3.org/2000/svg" viewBox="0 0 64 64" fill="none">
  <defs>
    <linearGradient id="g8" x1="0%" y1="0%" x2="100%" y2="100%">
      <stop offset="0%" stop-color="#a8e063"/>
      <stop offset="100%" stop-color="#2bc0b4"/>
    </linearGradient>
  </defs>
  <!-- Background circle -->
  <circle cx="32" cy="32" r="26" fill="url(#g8)"/>
  <!-- Circuit board pattern in white -->
  <!-- Nodes -->
  <circle cx="20" cy="20" r="3" fill="white" opacity="0.9"/>
  <circle cx="44" cy="20" r="3" fill="white" opacity="0.9"/>
  <circle cx="20" cy="44" r="3" fill="white" opacity="0.9"/>
  <circle cx="44" cy="44" r="3" fill="white" opacity="0.9"/>
  <circle cx="32" cy="32" r="5" fill="white"/>
  <circle cx="32" cy="18" r="3" fill="white" opacity="0.9"/>
  <circle cx="32" cy="46" r="3" fill="white" opacity="0.9"/>
  <!-- Circuit lines -->
  <line x1="20" y1="20" x2="32" y2="18" stroke="white" stroke-width="1.8" stroke-linecap="round"/>
  <line x1="44" y1="20" x2="32" y2="18" stroke="white" stroke-width="1.8" stroke-linecap="round"/>
  <line x1="20" y1="44" x2="32" y2="46" stroke="white" stroke-width="1.8" stroke-linecap="round"/>
  <line x1="44" y1="44" x2="32" y2="46" stroke="white" stroke-width="1.8" stroke-linecap="round"/>
  <line x1="20" y1="20" x2="27" y2="29" stroke="white" stroke-width="1.8" stroke-linecap="round"/>
  <line x1="44" y1="20" x2="37" y2="29" stroke="white" stroke-width="1.8" stroke-linecap="round"/>
  <line x1="20" y1="44" x2="27" y2="35" stroke="white" stroke-width="1.8" stroke-linecap="round"/>
  <line x1="44" y1="44" x2="37" y2="35" stroke="white" stroke-width="1.8" stroke-linecap="round"/>
  <!-- Sparkle/AI indicator -->
  <line x1="32" y1="7" x2="32" y2="11" stroke="white" stroke-width="2" stroke-linecap="round"/>
  <line x1="39" y1="9" x2="37" y2="12" stroke="white" stroke-width="2" stroke-linecap="round"/>
  <line x1="25" y1="9" x2="27" y2="12" stroke="white" stroke-width="2" stroke-linecap="round"/>
</svg>
