<svg viewBox="0 0 188 25" version="1.1" xmlns="http://www.w3.org/2000/svg" xmlns:xlink="http://www.w3.org/1999/xlink" height="18" role="img" aria-labelledby="logos-item-backlinko-title-691ad99f4d490">
			<title id="logos-item-backlinko-title-691ad99f4d490">Backlinko</title>
			<g stroke="none" stroke-width="1" fill-rule="evenodd" fill="#00d07e">
				<path d="M10.17,24.34 L0,24.34 L0,1.11 L9,1.11 C10.3783688,1.08197384 11.7523602,1.27440016 13.07,1.68 C14.0500306,1.95319545 14.9402153,2.48109566 15.65,3.21 C16.6571444,4.31804772 17.2135787,5.76263672 17.21,7.26 C17.3227907,8.81975499 16.6654815,10.3360477 15.45,11.32 C15.1864185,11.5360938 14.9054665,11.7300845 14.61,11.9 C14.46,11.98 14.18,12.1 13.79,12.28 C15.11595,12.5308221 16.3218215,13.2128602 17.22,14.22 C18.0906092,15.2441469 18.5471285,16.5566399 18.5,17.9 C18.511627,19.4859548 17.9179507,21.0166384 16.84,22.18 C15.6133333,23.62 13.39,24.34 10.17,24.34 Z M5.17,10.52 L7.64,10.52 C8.73044967,10.5749628 9.82108054,10.4152754 10.85,10.05 C11.5978365,9.65701078 12.0180913,8.83651323 11.9,8 C11.9889778,7.19468879 11.5976356,6.4120045 10.9,6 C9.86596648,5.59879009 8.75681182,5.42815091 7.65,5.5 L5.19,5.5 L5.17,10.52 Z M5.17,19.96 L8.74,19.96 C9.87981903,20.0169999 11.0186415,19.8294692 12.08,19.41 C12.8539136,18.9818365 13.2924303,18.1285069 13.19,17.25 C13.2983837,16.3568344 12.8174127,15.4959366 12,15.12 C10.7866543,14.7141428 9.50756875,14.54111 8.23,14.61 L5.23,14.61 L5.17,19.96 Z"/>
				<path d="M38.82,24.34 L36.66,19.34 L26.93,19.34 L24.76,24.34 L19.25,24.34 L29.25,1.11 L34.25,1.11 L44.25,24.34 L38.82,24.34 Z M31.81,8 L28.89,14.74 L34.7,14.74 L31.81,8 Z"/>
				<path d="M55.91,19.76 C58.3528943,19.8155621 60.6753512,18.7007828 62.16,16.76 L65.48,20.19 C63.2616782,22.8183455 60.0611883,24.420201 56.6276791,24.620615 C53.1941699,24.8210291 49.8290486,23.6024086 47.32,21.25 C45.0148089,19.0090612 43.7559132,15.9035433 43.85,12.69 C43.7471843,9.42291446 45.0335059,6.26524931 47.39,4 C49.6923674,1.73114446 52.8186487,0.496516039 56.05,0.58 C59.7332959,0.520478172 63.2478279,2.1216652 65.62,4.94 L62.39,8.59 C60.9589695,6.65266784 58.688505,5.51557761 56.28,5.53 C54.4285377,5.49320035 52.6353906,6.17818256 51.28,7.44 C49.8681947,8.77494217 49.1086717,10.6591435 49.2,12.6 C49.1184489,14.5353987 49.8425506,16.418063 51.2,17.8 C52.4373011,19.0678869 54.1385032,19.7758181 55.91,19.76 L55.91,19.76 Z"/>
				<path d="M68.86,1.11 L74,1.11 L74,10.65 L82.77,1.11 L89.19,1.11 L80,11.38 C80.8,12.4866667 82.2733333,14.5533333 84.42,17.58 C86.57,20.58 88.17,22.86 89.24,24.34 L83.24,24.34 L76.43,15.17 L74,17.76 L74,24.34 L68.86,24.34 L68.86,1.11 Z"/>
				<polygon points="92.09 24.34 92.09 1.11 97.28 1.11 97.28 19.72 107.18 19.72 107.18 24.34"/>
				<polygon points="110.5 1.11 115.68 1.11 115.68 24.34 110.5 24.34"/>
				<polygon points="135.62 1.11 140.8 1.11 140.8 24.34 135.62 24.34 124.55 9.79 124.55 24.34 119.37 24.34 119.37 1.11 124.22 1.11 135.62 16.11"/>
				<path d="M144.38,1.11 L149.56,1.11 L149.56,10.65 L158.33,1.11 L164.75,1.11 L155.51,11.38 C156.31,12.4866667 157.783333,14.5533333 159.93,17.58 C162.076667,20.6066667 163.683333,22.86 164.75,24.34 L158.7,24.34 L151.89,15.17 L149.56,17.76 L149.56,24.34 L144.38,24.34 L144.38,1.11 Z"/>
				<path d="M184.07,12.05 L187.61,12.05 C187.50024,9.0524788 186.314553,6.19476235 184.27,4 L181.77,6.51 C183.153921,8.03533641 183.966673,9.9930087 184.07,12.05 L184.07,12.05 Z"/>
				<path d="M175.56,21.46 L175.56,25 C178.564872,24.8967919 181.431083,23.7105287 183.63,21.66 L181.13,19.16 C179.595465,20.5481819 177.626895,21.3610564 175.56,21.46 L175.56,21.46 Z"/>
				<path d="M174.66,3.54 L174.66,0 C171.655517,0.10499853 168.789908,1.29101243 166.59,3.34 L169.1,5.84 C170.634582,4.4581686 172.597685,3.64609396 174.66,3.54 Z"/>
				<path d="M169.1,19.16 L166.59,21.66 C168.789908,23.7089876 171.655517,24.8950015 174.66,25 L174.66,21.46 C172.596589,21.3587759 170.631917,20.5460518 169.1,19.16 L169.1,19.16 Z"/>
				<path d="M168.46,6.49 L166,4 C163.949471,6.19891747 162.763208,9.06512831 162.66,12.07 L166.2,12.07 C166.283927,10.0043006 167.082787,8.03189537 168.46,6.49 L168.46,6.49 Z"/>
				<path d="M166.15,13 L162.61,13 C162.743519,15.9870369 163.946725,18.8264596 166,21 L168.51,18.5 C167.118941,16.9895714 166.286205,15.048875 166.15,13 Z"/>
				<path d="M184.07,13 C183.971056,15.0668953 183.158182,17.0354652 181.77,18.57 L184.27,21.07 C186.320529,18.8710825 187.506792,16.0048717 187.61,13 L184.07,13 Z"/>
				<path d="M181.13,5.84 L183.63,3.34 C181.431083,1.28947134 178.564872,0.103208118 175.56,0 L175.56,3.54 C177.625801,3.64383108 179.592792,4.45605387 181.13,5.84 Z"/>
			</g>
		</svg>