<?xml version="1.0" encoding="UTF-8"?>
<svg version="1.1" xmlns="http://www.w3.org/2000/svg" width="512" height="512">
<path d="M0 0 C6.7078421 5.92786046 8.25997434 14.14064381 10.40722656 22.50073242 C10.9396237 24.57075721 11.48809461 26.63602092 12.0390625 28.70117188 C14.6875 38.78264345 14.6875 38.78264345 14.6875 43.375 C15.945625 43.58125 17.20375 43.7875 18.5 44 C31.00330573 46.84166039 41.50719513 55.22708785 48.5625 65.75 C56.41268124 78.93237981 58.90301978 93.592661 55.5625 108.625 C53.24944064 116.66666432 49.6679341 123.56301847 43.6875 129.4375 C41.20494608 132.08242755 41.20494608 132.08242755 40.72216797 135.54272461 C40.91439941 136.32139893 41.10663086 137.10007324 41.3046875 137.90234375 C41.51448242 138.78204834 41.72427734 139.66175293 41.94042969 140.56811523 C42.18696289 141.49438721 42.43349609 142.42065918 42.6875 143.375 C43.05343262 144.76344116 43.05343262 144.76344116 43.42675781 146.17993164 C44.47376908 150.06431684 45.54509158 153.94093615 46.65234375 157.80859375 C48.63727339 165.09318775 50.66800773 173.17894991 47.0625 180.25 C42.35515952 186.44386905 36.55604032 188.33675267 29.3125 190.1875 C28.50039062 190.41630859 27.68828125 190.64511719 26.8515625 190.88085938 C20.20999656 192.62107737 14.72662775 193.04354073 8.5 189.625 C5.6875 187.375 5.6875 187.375 3.40625 184.98046875 C-3.46744687 178.39317591 -12.7356513 174.35029822 -21.5625 171 C-22.18680908 170.761604 -22.81111816 170.52320801 -23.4543457 170.27758789 C-32.46171015 167.0278951 -41.33350695 165.98762051 -50.875 166 C-51.91624023 165.99871094 -52.95748047 165.99742187 -54.03027344 165.99609375 C-62.05980057 166.10470094 -69.34861662 167.29207147 -77.046875 169.5 C-80.3125 170.375 -80.3125 170.375 -84.3125 170.375 C-84.06860031 171.2754303 -83.82470062 172.1758606 -83.57341003 173.10357666 C-81.26269875 181.63487687 -78.95321803 190.1665094 -76.64490795 198.69845963 C-75.45845976 203.08364311 -74.27159478 207.46871286 -73.08374023 211.85351562 C-71.93507002 216.09373797 -70.78754303 220.33426825 -69.64077187 224.57500458 C-69.20545549 226.18402627 -68.76974357 227.79294102 -68.33360863 229.40174103 C-66.37457527 236.6290526 -64.4217035 243.85840221 -62.5480957 251.10839844 C-62.31685501 252.00024841 -62.08561432 252.89209839 -61.84736633 253.81097412 C-59.78780743 263.68402466 -61.79502163 271.72190977 -67.0625 280.1875 C-72.97768172 285.93837112 -79.83817187 289.38105335 -88.125 289.6875 C-97.46724742 289.40821009 -103.02793721 286.28773787 -110.05078125 280.21484375 C-116.78017251 271.76533176 -118.59347343 259.51777748 -121.296875 249.2578125 C-121.76157924 247.51038039 -122.22669451 245.76305753 -122.69219971 244.01583862 C-123.66093843 240.37423538 -124.62531025 236.73151303 -125.58642578 233.08789062 C-126.81837486 228.41862879 -128.06041133 223.7521213 -129.3055687 219.08636665 C-130.26492567 215.48773207 -131.21943762 211.88782655 -132.17243195 208.28750229 C-132.62875981 206.56554232 -133.08648823 204.84395287 -133.54564667 203.12274551 C-134.18470989 200.72387235 -134.81734095 198.32339397 -135.44824219 195.92236328 C-135.73336418 194.8594381 -135.73336418 194.8594381 -136.02424622 193.77503967 C-136.88264357 190.4815787 -137.3125 187.81267562 -137.3125 184.375 C-137.89257812 184.36082031 -138.47265625 184.34664062 -139.0703125 184.33203125 C-145.13846445 183.96153352 -148.10048735 182.8030133 -152.3125 178.375 C-152.3125 177.715 -152.3125 177.055 -152.3125 176.375 C-152.88742188 176.53355469 -153.46234375 176.69210937 -154.0546875 176.85546875 C-161.68280158 178.61072683 -168.5647404 177.26922942 -175.3125 173.375 C-182.5425265 168.04022316 -184.50390869 159.96240988 -186.69775391 151.68554688 C-187.3495536 149.23573263 -188.03831646 146.79807543 -188.73046875 144.359375 C-189.19723853 142.67761671 -189.66211837 140.9953326 -190.125 139.3125 C-190.45395264 138.13530396 -190.45395264 138.13530396 -190.78955078 136.93432617 C-192.92957153 128.86218171 -192.89070575 122.00400471 -189.3125 114.375 C-185.87044206 108.91703274 -181.42291542 105.47260529 -175.3125 103.375 C-174.3225 103.375 -173.3325 103.375 -172.3125 103.375 C-172.27125 102.199375 -172.23 101.02375 -172.1875 99.8125 C-171.48754474 94.60888522 -169.36878451 91.62841633 -165.3125 88.375 C-158.30153702 85.17197803 -150.6968805 83.25403769 -143.265625 81.28125 C-142.25135437 81.0078479 -141.23708374 80.7344458 -140.19207764 80.45275879 C-136.98341289 79.58898474 -133.77301203 78.73187927 -130.5625 77.875 C-128.42696514 77.30122097 -126.29154753 76.72700537 -124.15625 76.15234375 C-122.06773862 75.59103315 -119.97919738 75.02983361 -117.890625 74.46875 C-116.877155 74.19637512 -115.863685 73.92400024 -114.81950378 73.64337158 C-110.46751823 72.47661225 -106.11475309 71.31762031 -101.74731445 70.20996094 C-95.20127414 68.54191075 -88.98903329 66.80097806 -83 63.625 C-82.33468262 63.28065918 -81.66936523 62.93631836 -80.98388672 62.58154297 C-75.18551738 59.48598235 -70.15465924 55.82879493 -65.3125 51.375 C-64.08660156 50.28638672 -64.08660156 50.28638672 -62.8359375 49.17578125 C-53.46939988 40.40371428 -42.93820864 27.18756066 -40.375 14.25 C-39.37138337 9.80790553 -37.57523623 7.56358314 -34.3125 4.375 C-24.33671446 -1.30263049 -10.72444621 -5.26104908 0 0 Z M-20.125 13.375 C-21.86716797 13.931875 -21.86716797 13.931875 -23.64453125 14.5 C-24.52496094 14.78875 -25.40539062 15.0775 -26.3125 15.375 C-27.62210077 19.86429413 -26.90731903 22.97772139 -25.70800781 27.45092773 C-25.52372097 28.15012896 -25.33943413 28.84933018 -25.14956284 29.56971931 C-24.53193141 31.90223631 -23.89883065 34.23026066 -23.265625 36.55859375 C-22.82159359 38.22232554 -22.3784998 39.88630781 -21.9362793 41.55052185 C-20.73981737 46.04183819 -19.52978111 50.52939402 -18.31697083 55.01631927 C-17.05782318 59.68290711 -15.81048168 64.35264967 -14.56152344 69.02197266 C-11.99666491 78.60136627 -9.41573173 88.17637484 -6.83056641 97.75030518 C-5.36173068 103.19059329 -3.8971692 108.63202522 -2.43359375 114.07373047 C-0.02190025 123.0390244 2.39588742 132.00265688 4.81959534 140.96471024 C5.43691436 143.24783402 6.05360824 145.53112611 6.67028809 147.81442261 C7.63457838 151.38297905 8.60228563 154.95059208 9.57275391 158.51747322 C10.0923962 160.42970714 10.60923395 162.3427025 11.12597656 164.25572205 C11.43599609 165.39191483 11.74601562 166.5281076 12.06542969 167.69873047 C12.33216492 168.68082489 12.59890015 169.66291931 12.87371826 170.67477417 C13.66980186 173.31627545 14.62207906 175.83157255 15.6875 178.375 C25.4886045 177.59525505 25.4886045 177.59525505 34.6875 174.375 C36.3730463 170.56666731 35.13783709 167.35559039 34.09887695 163.47607422 C33.91617374 162.78336205 33.73347054 162.09064989 33.54523087 161.37694645 C32.93124409 159.0586476 32.30352665 156.74429543 31.67578125 154.4296875 C31.23461208 152.7754096 30.7942779 151.12090883 30.35472107 149.46620178 C29.16266067 144.98884143 27.95854927 140.51480406 26.75187683 136.04136276 C25.49740774 131.38411286 24.25277447 126.72423501 23.00683594 122.06469727 C20.94478891 114.35892806 18.87533117 106.65518018 16.80126953 98.95263672 C14.51788624 90.47210296 12.24624885 81.98850352 9.98268795 73.50265884 C7.91071484 65.73529716 5.83161499 57.96986326 3.74887085 50.2053833 C2.87419995 46.94411278 2.00217368 43.68215199 1.13223267 40.4196167 C0.1125617 36.5970263 -0.91380732 32.77629811 -1.94550896 28.95693779 C-2.32168977 27.56001139 -2.69553664 26.16245411 -3.06689644 24.76423836 C-3.57116845 22.86709824 -4.08463924 20.97241022 -4.59863281 19.07788086 C-4.88313293 18.01806503 -5.16763306 16.95824921 -5.46075439 15.86631775 C-6.15471049 13.23923364 -6.15471049 13.23923364 -8.3125 11.375 C-12.56928134 10.89110301 -16.09517654 12.0724308 -20.125 13.375 Z M-37.3125 39.375 C-38.77178542 41.15824084 -40.15478846 43.00420666 -41.5 44.875 C-55.32475106 63.70607464 -72.32211932 75.00634419 -94.3125 82.375 C-92.83180608 90.49814874 -90.79075067 98.43433197 -88.65234375 106.40625 C-88.29866469 107.7323254 -87.94519869 109.05845765 -87.5919342 110.38464355 C-86.85679248 113.14172402 -86.11952652 115.89822435 -85.38061523 118.65429688 C-84.43321177 122.18848182 -83.49058502 125.7239199 -82.54942989 129.25977325 C-81.82275723 131.98819854 -81.09393285 134.71604526 -80.36441231 137.44371033 C-79.8465447 139.38118008 -79.33023686 141.31906653 -78.81394958 143.25695801 C-78.50014847 144.42577515 -78.18634735 145.59459229 -77.86303711 146.79882812 C-77.58705185 147.83011841 -77.31106659 148.86140869 -77.02671814 149.9239502 C-76.39852905 152.35222008 -76.39852905 152.35222008 -75.3125 154.375 C-73.73275391 154.1584375 -73.73275391 154.1584375 -72.12109375 153.9375 C-47.32339839 150.67807632 -24.82739292 153.01707162 -2.3125 164.375 C-5.24851065 151.46381205 -8.57477195 138.67905866 -12.03125 125.8984375 C-12.5766968 123.87365068 -13.12189851 121.84879782 -13.66687012 119.82388306 C-15.08990731 114.53887231 -16.51610596 109.25472007 -17.9430542 103.97076416 C-19.38705371 98.62163042 -20.82822472 93.27173487 -22.26953125 87.921875 C-23.89549934 81.88690105 -25.52169759 75.85199065 -27.15026855 69.81771851 C-29.88749913 59.67449091 -32.61369185 49.5285263 -35.3125 39.375 C-35.9725 39.375 -36.6325 39.375 -37.3125 39.375 Z M19.6875 59.375 C22.62851556 72.31610873 25.96746995 85.12917316 29.4375 97.9375 C29.94946709 99.83521948 30.46118719 101.73300561 30.97265625 103.63085938 C32.20810293 108.21300986 33.44684853 112.79425614 34.6875 117.375 C35.3475 117.375 36.0075 117.375 36.6875 117.375 C42.69896316 107.41708011 45.16059215 96.44157746 42.51171875 84.96875 C38.85023781 73.44636448 32.31303233 65.17654065 21.6875 59.375 C21.0275 59.375 20.3675 59.375 19.6875 59.375 Z M-113.59106445 87.42895508 C-114.47570877 87.65952103 -115.36035309 87.89008698 -116.27180481 88.12763977 C-117.23011703 88.38071396 -118.18842926 88.63378815 -119.17578125 88.89453125 C-120.15991501 89.15376877 -121.14404877 89.41300629 -122.15800476 89.68009949 C-124.2439798 90.23102194 -126.32956632 90.78341719 -128.41479492 91.3371582 C-131.59950098 92.18074564 -134.786955 93.0133369 -137.97460938 93.84570312 C-140.00018032 94.38213206 -142.02557684 94.91922016 -144.05078125 95.45703125 C-145.47914055 95.82753349 -145.47914055 95.82753349 -146.93635559 96.20552063 C-151.49312595 97.42879109 -155.40823672 98.60719376 -159.3125 101.375 C-158.55848721 108.44991381 -156.63777114 115.21331006 -154.8203125 122.078125 C-154.47015206 123.4061344 -154.12004511 124.73415791 -153.76998901 126.06219482 C-153.03829629 128.83328246 -152.30309126 131.60341252 -151.56591797 134.37304688 C-150.6225385 137.92021082 -149.69246874 141.47072184 -148.76550484 145.02220535 C-148.0483763 147.76068476 -147.3220311 150.49665715 -146.59310532 153.23201752 C-146.07771273 155.17522362 -145.57188089 157.12095737 -145.06619263 159.06671143 C-144.59087601 160.83434845 -144.59087601 160.83434845 -144.10595703 162.63769531 C-143.83139679 163.6758136 -143.55683655 164.71393188 -143.2739563 165.7835083 C-142.30005388 168.40854706 -141.52846961 169.69633617 -139.3125 171.375 C-129.17749274 171.64854607 -117.34812579 166.47045118 -107.625 163.75 C-105.74817046 163.2287215 -103.87121826 162.70788443 -101.99414062 162.1875 C-97.43216293 160.92175402 -92.87188909 159.65003753 -88.3125 158.375 C-91.35124144 144.83000972 -94.91086246 131.43766519 -98.54077148 118.04052734 C-99.51116865 114.45877633 -100.47758159 110.87596781 -101.44335938 107.29296875 C-102.05966954 105.01035555 -102.67619776 102.72780122 -103.29296875 100.4453125 C-103.72575386 98.84237839 -103.72575386 98.84237839 -104.1672821 97.20706177 C-104.43458633 96.22108002 -104.70189056 95.23509827 -104.97729492 94.21923828 C-105.32892952 92.92048264 -105.32892952 92.92048264 -105.68766785 91.5954895 C-106.18133585 89.84112297 -106.73617457 88.10397629 -107.3125 86.375 C-109.58677428 86.375 -111.38823618 86.85238789 -113.59106445 87.42895508 Z M-176.3125 119.375 C-178.83373104 122.73664139 -178.70835086 126.34100956 -178.3125 130.375 C-177.4123828 134.78058392 -176.24880979 139.10141667 -175.0625 143.4375 C-174.76214844 144.59572266 -174.46179688 145.75394531 -174.15234375 146.94726562 C-172.58464503 152.75442193 -171.21170306 157.72656991 -167.3125 162.375 C-165.02544169 163.51852916 -163.71985238 163.47834439 -161.1875 163.4375 C-159.269375 163.4065625 -159.269375 163.4065625 -157.3125 163.375 C-160.83178253 147.58453495 -165.09532753 131.98989442 -169.3125 116.375 C-172.29937233 116.375 -173.89826796 117.68503757 -176.3125 119.375 Z M-104.9765625 175.90625 C-106.09804687 176.22207031 -107.21953125 176.53789062 -108.375 176.86328125 C-110.1384375 177.36408203 -110.1384375 177.36408203 -111.9375 177.875 C-113.12085937 178.20886719 -114.30421875 178.54273438 -115.5234375 178.88671875 C-118.45378698 179.71383352 -121.38343229 180.54335963 -124.3125 181.375 C-122.82745581 190.89766695 -120.38238042 200.13287174 -117.8828125 209.42578125 C-117.44678036 211.05476589 -117.01081767 212.68376912 -116.57492065 214.31278992 C-115.66540937 217.70658035 -114.75202882 221.09930341 -113.83642578 224.49145508 C-112.66695455 228.827113 -111.51199082 233.16649607 -110.36042976 237.50693989 C-109.46714103 240.8642179 -108.56384138 244.21874284 -107.65777206 247.57259178 C-107.22756797 249.17152126 -106.80099087 250.77143143 -106.37820816 252.37233925 C-105.78624688 254.60969226 -105.18026617 256.84280085 -104.57080078 259.07543945 C-104.23041779 260.34353958 -103.89003479 261.61163971 -103.53933716 262.91816711 C-101.75315176 267.95106359 -99.19398602 272.86829096 -94.3125 275.375 C-89.80110672 276.5862301 -85.78824963 277.02617331 -81.5 274.9375 C-77.69344425 272.34655763 -75.27443639 268.88054029 -74.3125 264.375 C-74.60463417 258.49421841 -75.77553523 252.89764161 -77.33789062 247.24072266 C-77.6429377 246.10481186 -77.6429377 246.10481186 -77.95414734 244.94595337 C-78.61935298 242.47522987 -79.293915 240.00717154 -79.96875 237.5390625 C-80.43630625 235.81048353 -80.90329747 234.08175163 -81.36975098 232.35287476 C-82.59312187 227.82497286 -83.82459687 223.29931339 -85.05767822 218.77404785 C-86.06499795 215.07204398 -87.06665254 211.36851881 -88.06800079 207.66489601 C-90.13518775 200.01931655 -92.20602016 192.37471799 -94.28710938 184.73291016 C-94.47830856 184.02847778 -94.66950775 183.32404541 -94.86650085 182.5982666 C-95.62147149 179.83093773 -96.40515158 177.09704527 -97.3125 174.375 C-100.04430091 174.375 -102.34620472 175.16231043 -104.9765625 175.90625 Z " fill="#000000" transform="translate(223.3125,199.625)"/>
<path d="M0 0 C1.24338135 -0.02618408 2.4867627 -0.05236816 3.76782227 -0.0793457 C5.52823853 -0.08260864 5.52823853 -0.08260864 7.32421875 -0.0859375 C8.38084717 -0.09415527 9.43747559 -0.10237305 10.52612305 -0.11083984 C14.06834415 0.50679093 15.225305 1.47396504 17.3125 4.375 C17.81420898 6.86669922 17.81420898 6.86669922 17.80859375 9.6796875 C17.81165527 10.72680908 17.8147168 11.77393066 17.81787109 12.8527832 C17.79547363 13.97386475 17.77307617 15.09494629 17.75 16.25 C17.73533691 17.41168701 17.72067383 18.57337402 17.70556641 19.77026367 C16.79116439 62.44138727 1.2943502 99.87070587 -29.48828125 129.515625 C-41.9334577 141.15371754 -58.10762559 153.66059482 -74.6875 158.375 C-74.65269531 159.28378906 -74.61789063 160.19257813 -74.58203125 161.12890625 C-74.07245504 184.78780166 -81.86714807 204.85408907 -97.6875 222.375 C-104.73924604 229.64484128 -117.56235894 241.85680792 -128.125 242.625 C-131.6875 242.375 -131.6875 242.375 -133.625 241.3125 C-135.44016115 238.00250026 -135.28319378 236.1278708 -134.6875 232.375 C-133.1516271 229.8240387 -131.41860058 227.495537 -129.6328125 225.11328125 C-120.77698145 212.64754316 -117.46715086 199.00602189 -117.625 183.9375 C-117.62951172 183.11056641 -117.63402344 182.28363281 -117.63867188 181.43164062 C-117.65034189 179.41272854 -117.66827282 177.39385426 -117.6875 175.375 C-118.25597656 175.5915625 -118.82445312 175.808125 -119.41015625 176.03125 C-126.08788241 178.43924474 -126.08788241 178.43924474 -130.1875 178 C-135.1395849 178.53058052 -136.63880192 181.12646396 -139.94140625 184.6796875 C-150.39646952 194.94141389 -171.73763078 210.45441433 -186.8125 210.75 C-190.6875 210.375 -190.6875 210.375 -192.75 208.8125 C-194.56769379 204.08649615 -192.89314147 199.53834569 -190.97265625 195.0625 C-190.24569318 193.49347414 -189.50409218 191.93116915 -188.75 190.375 C-188.14937744 189.12759033 -188.14937744 189.12759033 -187.53662109 187.85498047 C-180.94028227 174.49605155 -172.25269412 161.94019412 -161.6875 151.375 C-161.1255482 148.85640772 -160.60773227 146.34626697 -160.125 143.8125 C-159.98642578 143.10158203 -159.84785156 142.39066406 -159.70507812 141.65820312 C-159.36244946 139.89780068 -159.02453447 138.13648203 -158.6875 136.375 C-176.76899323 132.24879654 -193.44280456 138.03207379 -208.6875 147.375 C-210.05748093 148.35322268 -211.41603915 149.34820119 -212.75 150.375 C-216.10168895 152.65700098 -217.71655189 153.09699057 -221.6875 152.375 C-224.03307869 150.83824155 -224.57089481 149.74561542 -225.41015625 147.078125 C-226.21456313 139.23799038 -217.77615194 130.29741946 -213.234375 124.4296875 C-205.76484389 115.4708327 -197.97721044 108.04577375 -187.6875 102.375 C-186.49060547 101.68664062 -186.49060547 101.68664062 -185.26953125 100.984375 C-176.14699282 96.04362009 -164.42177765 91.8044179 -153.953125 92.69140625 C-149.67138587 93.0340513 -145.66884765 93.18703017 -141.6875 91.375 C-137.47760741 87.12093366 -135.32494136 81.18697558 -132.875 75.81738281 C-131.03868639 72.04055687 -128.77634658 68.62502356 -126.375 65.1875 C-125.92213623 64.53821533 -125.46927246 63.88893066 -125.00268555 63.2199707 C-113.34283627 46.87825289 -99.37751295 33.48709887 -82.6875 22.375 C-81.74519531 21.74722656 -80.80289063 21.11945312 -79.83203125 20.47265625 C-64.51193069 10.94351048 -47.25865926 5.82357974 -29.6875 2.375 C-28.47578125 2.12878906 -27.2640625 1.88257812 -26.015625 1.62890625 C-17.39713235 0.1891811 -8.72125189 0.11309106 0 0 Z M-34.6875 17.375 C-33.58035926 26.82073236 -27.86405552 35.15465449 -20.9921875 41.55859375 C-14.46774538 46.70073881 -7.69932995 50.31452937 0.3125 52.375 C2.75021112 39.29721646 4.54485226 26.72234662 4.3125 13.375 C-8.45071465 12.84565008 -22.48086533 13.30612178 -34.6875 17.375 Z M-98.6875 53 C-119.29302233 73.65029262 -139.93242283 107.12248525 -143.6875 136.375 C-140.12407503 135.06571128 -136.87955141 133.41720895 -133.57373047 131.55639648 C-114.57628639 120.91674589 -114.57628639 120.91674589 -105.6875 123.375 C-104.02656082 136.66251345 -113.36338376 150.14921312 -119.6875 161.375 C-112.28169348 159.96951847 -105.5973198 157.58858179 -98.625 154.75 C-97.52099854 154.30269531 -96.41699707 153.85539063 -95.27954102 153.39453125 C-76.74663399 145.79128734 -58.87329535 136.62270516 -43.6875 123.375 C-42.73488281 122.55515625 -41.78226562 121.7353125 -40.80078125 120.890625 C-24.13975459 106.27196968 -9.35518178 87.11028451 -3.6875 65.375 C-4.81027344 64.87871094 -5.93304688 64.38242188 -7.08984375 63.87109375 C-15.35299127 60.14926284 -22.94446389 56.55969554 -29.6875 50.375 C-30.58275391 49.6325 -30.58275391 49.6325 -31.49609375 48.875 C-39.30440513 41.9188206 -44.53820658 31.21654192 -47.6875 21.375 C-65.26406993 21.375 -87.20329188 41.78848759 -98.6875 53 Z M-193.6875 123.375 C-191.10537606 124.66606197 -190.24290393 124.14713396 -187.4765625 123.4453125 C-180.68087647 121.99031675 -173.9827665 122.15734968 -167.0625 122.25 C-165.77214844 122.25902344 -164.48179687 122.26804687 -163.15234375 122.27734375 C-159.99719751 122.3007152 -156.84245074 122.33347909 -153.6875 122.375 C-152.86917278 120.48167466 -152.05807732 118.58522267 -151.25 116.6875 C-150.79753906 115.63175781 -150.34507812 114.57601562 -149.87890625 113.48828125 C-148.83302545 110.75527471 -148.15229252 108.25457663 -147.6875 105.375 C-163.88943305 104.87455419 -182.15703753 111.84453753 -193.6875 123.375 Z M-153.6875 162.375 C-159.06999795 168.0851995 -163.50681829 174.39983195 -167.8125 180.9375 C-168.21573486 181.54577637 -168.61896973 182.15405273 -169.03442383 182.78076172 C-169.98498054 184.2719885 -170.84543501 185.81993024 -171.6875 187.375 C-171.3575 188.035 -171.0275 188.695 -170.6875 189.375 C-151.52545382 178.19460104 -135.47831743 164.0073259 -124.6875 144.375 C-124.6875 143.715 -124.6875 143.055 -124.6875 142.375 C-134.24375834 142.375 -147.20060128 156.06778245 -153.6875 162.375 Z M-92.50390625 165.90625 C-93.26767578 166.22207031 -94.03144531 166.53789062 -94.81835938 166.86328125 C-95.62080078 167.19714844 -96.42324219 167.53101563 -97.25 167.875 C-98.05630859 168.20886719 -98.86261719 168.54273438 -99.69335938 168.88671875 C-101.69205516 169.71458091 -103.68986057 170.54459209 -105.6875 171.375 C-105.52636719 172.34179688 -105.36523438 173.30859375 -105.19921875 174.3046875 C-104.57458982 178.70693952 -104.49640294 183.05897753 -104.5 187.5 C-104.49935547 188.32733643 -104.49871094 189.15467285 -104.49804688 190.00708008 C-104.5572285 196.94948846 -105.31703419 203.55937984 -106.6875 210.375 C-102.52278634 207.42710703 -100.04239446 204.23275812 -97.625 199.8125 C-97.10848877 198.87724487 -97.10848877 198.87724487 -96.58154297 197.9230957 C-90.64957514 186.94572369 -88.78312058 176.67189938 -87.6875 164.375 C-89.41985888 164.375 -90.91967656 165.24908806 -92.50390625 165.90625 Z " fill="#000000" transform="translate(254.6875,22.625)"/>
<path d="M0 0 C0.72408977 -0.00482883 1.44817954 -0.00965766 2.19421142 -0.01463282 C4.62120961 -0.02590723 7.04715492 -0.00858311 9.47410583 0.00863647 C11.21365138 0.0064907 12.95319553 0.00261314 14.69273376 -0.00286865 C19.41789525 -0.01256906 24.14267938 0.00274943 28.86779523 0.02303743 C33.80849616 0.04059152 38.74918514 0.03708369 43.68991089 0.03631592 C51.98636702 0.03818942 60.28267691 0.05556097 68.5790863 0.08285522 C78.17784065 0.1143169 87.77643486 0.12485109 97.37523705 0.12338412 C106.60167134 0.12216438 115.82805337 0.1323671 125.05447197 0.14896774 C128.98463791 0.15603773 132.91478536 0.15969485 136.84495735 0.16075516 C141.47015134 0.16276097 146.09521034 0.17494542 150.7203598 0.19508743 C152.42034262 0.20093985 154.12034098 0.20338768 155.82033348 0.20223236 C158.13573795 0.20125409 160.45076174 0.2125308 162.76611328 0.22705078 C164.7120606 0.23207831 164.7120606 0.23207831 166.69731998 0.23720741 C169.81956482 0.49447632 169.81956482 0.49447632 172.81956482 2.49447632 C173.78489146 5.39045624 173.94732431 7.22159792 173.95327759 10.23213196 C173.95967506 11.69370979 173.95967506 11.69370979 173.96620178 13.18481445 C173.9657486 14.25243011 173.96529541 15.32004578 173.96482849 16.42001343 C173.9681871 17.54544052 173.97154572 18.67086761 173.9750061 19.83039856 C173.98452653 23.56088354 173.98645971 27.29132369 173.98753357 31.02182007 C173.99074518 33.60869872 173.99410917 36.19557718 173.99761963 38.78245544 C174.00361348 44.20884703 174.00550199 49.63522075 174.00486755 55.06161499 C174.00426664 61.33333299 174.01482156 67.60496501 174.03061122 73.87666124 C174.04526112 79.91067304 174.04885568 85.94463815 174.04825783 91.97867012 C174.04944021 94.5459586 174.05387634 97.11324767 174.06159019 99.68052483 C174.07135776 103.26693795 174.06852483 106.85312818 174.06248474 110.43954468 C174.06810425 111.50513611 174.07372375 112.57072754 174.07951355 113.66860962 C174.07531906 114.64581467 174.07112457 115.62301971 174.06680298 116.62983704 C174.06734775 117.4776773 174.06789251 118.32551756 174.06845379 119.19904995 C173.79320343 121.73759931 173.17800692 123.3415573 171.81956482 125.49447632 C168.85633599 126.97609074 166.19451792 126.63075757 162.8863678 126.64164734 C162.16469244 126.64532403 161.44301709 126.64900072 160.69947278 126.65278882 C158.268956 126.66384669 155.83848193 126.66767302 153.40794373 126.67147827 C151.67031721 126.67774124 149.93269205 126.68438789 148.19506836 126.69139099 C143.46573487 126.70881404 138.7364115 126.71935591 134.00705385 126.72759652 C131.05448384 126.732743 128.10191699 126.73881883 125.14934921 126.74510765 C115.91759741 126.76416178 106.68585364 126.77839349 97.45408595 126.78671962 C86.78577684 126.79649946 76.1176748 126.82283752 65.44943869 126.86322051 C57.21076103 126.8933404 48.97214287 126.90818449 40.73341119 126.91150063 C35.80919173 126.91385549 30.88519344 126.92287249 25.96103287 126.94796181 C21.3300684 126.97117603 16.69947176 126.97550272 12.06846428 126.96520042 C10.36726981 126.96470336 8.66605765 126.97107392 6.96491814 126.98475647 C4.6450767 127.00237384 2.32657001 126.99542078 0.00672913 126.98222351 C-1.94173196 126.98580604 -1.94173196 126.98580604 -3.92955589 126.98946095 C-7.18043518 126.49447632 -7.18043518 126.49447632 -9.59788704 124.77235699 C-11.44817992 122.10909116 -11.68273669 120.77772954 -11.68836975 117.56063843 C-11.69964905 116.56805023 -11.71092834 115.57546204 -11.72254944 114.55279541 C-11.71445251 113.47007355 -11.70635559 112.38735168 -11.69801331 111.27182007 C-11.70502258 110.12673981 -11.71203186 108.98165955 -11.71925354 107.80187988 C-11.73687816 104.01166633 -11.7251941 100.22219764 -11.71168518 96.43197632 C-11.71437879 93.80168514 -11.71826011 91.17139494 -11.72328186 88.54110718 C-11.7305569 83.02645782 -11.72097455 77.51202281 -11.70191956 71.99740601 C-11.68015078 65.62384965 -11.68720227 59.25080512 -11.70922518 52.87726116 C-11.72957089 46.7433411 -11.72740918 40.60964778 -11.71569824 34.47570801 C-11.71302628 31.86655608 -11.7163171 29.25739112 -11.72561646 26.64825439 C-11.73575351 23.00419305 -11.72031892 19.36112012 -11.69801331 15.71713257 C-11.70611023 14.63441071 -11.71420715 13.55168884 -11.72254944 12.43615723 C-11.71127014 11.44356903 -11.69999084 10.45098083 -11.68836975 9.42831421 C-11.68686165 8.56702408 -11.68535355 7.70573395 -11.68379974 6.81834412 C-10.29383131 0.40131931 -5.81224874 -0.00487999 0 0 Z M14.81956482 13.49447632 C18.92851617 17.61699302 18.92851617 17.61699302 23.20237732 21.51010132 C23.80646423 22.03426636 24.41055115 22.5584314 25.03294373 23.09848022 C25.66377869 23.64165894 26.29461365 24.18483765 26.94456482 24.74447632 C27.60762634 25.31730347 28.27068787 25.89013062 28.95384216 26.48031616 C33.6008227 30.48091641 38.31266107 34.39244449 43.07737732 38.25228882 C46.18956845 40.7970149 49.25676224 43.39073548 52.31956482 45.99447632 C58.09490019 50.90011413 63.94126212 55.7125572 69.81956482 60.49447632 C71.88311361 62.18069793 73.94503152 63.86890053 76.00706482 65.55697632 C76.92874451 66.31107788 77.85042419 67.06517944 78.80003357 67.84213257 C79.46647888 68.38740601 80.13292419 68.93267944 80.81956482 69.49447632 C86.36292525 65.47282267 91.62001307 61.17735657 96.82810974 56.73544312 C100.29350374 53.78111628 103.78613424 50.86764542 107.31956482 47.99447632 C111.35939934 44.70623892 115.35039759 41.36716171 119.31956482 37.99447632 C126.11615388 32.22167472 133.00650091 26.56822942 139.94847107 20.97103882 C140.95780701 20.15377319 141.96714294 19.33650757 143.00706482 18.49447632 C143.92874451 17.75197632 144.85042419 17.00947632 145.80003357 16.24447632 C146.79970154 15.37822632 146.79970154 15.37822632 147.81956482 14.49447632 C147.81956482 14.16447632 147.81956482 13.83447632 147.81956482 13.49447632 C103.92956482 13.49447632 60.03956482 13.49447632 14.81956482 13.49447632 Z M2.81956482 22.49447632 C2.81956482 50.21447632 2.81956482 77.93447632 2.81956482 106.49447632 C11.97556942 100.68654908 11.97556942 100.68654908 20.75706482 94.43197632 C27.66254408 89.29282385 34.69358374 84.34697842 41.7665863 79.4414978 C46.86633479 75.89596816 51.87925698 72.259211 56.81956482 68.49447632 C54.97689052 64.41923791 52.29870788 62.08741687 48.88206482 59.30697632 C48.00808044 58.58187866 48.00808044 58.58187866 47.11643982 57.84213257 C45.3568461 56.38538832 43.5895808 54.93852996 41.81956482 53.49447632 C40.40997498 52.34012085 40.40997498 52.34012085 38.97190857 51.16244507 C37.19346315 49.70878202 35.4134962 48.2569786 33.63206482 46.80697632 C30.50155985 44.23300556 27.4081477 41.61843325 24.31956482 38.99447632 C20.14661479 35.45598818 15.96801615 31.92521557 11.75706482 28.43197632 C10.89983826 27.71912476 10.04261169 27.00627319 9.15940857 26.27182007 C6.66404731 24.26263529 6.66404731 24.26263529 2.81956482 22.49447632 Z M153.38206482 26.43197632 C149.85668917 29.66987499 146.2911672 32.7966135 142.56956482 35.80697632 C138.25505418 39.29880485 134.02249963 42.87027262 129.81956482 46.49447632 C124.66569624 50.93557584 119.45572302 55.29034115 114.17503357 59.58041382 C111.36892072 61.86067136 108.59108667 64.17239044 105.81956482 66.49447632 C107.19848786 69.77555878 108.57703577 71.32572494 111.53831482 73.27182007 C112.2966864 73.77866333 113.05505798 74.28550659 113.83641052 74.80770874 C114.65585144 75.34371704 115.47529236 75.87972534 116.31956482 76.43197632 C118.05399949 77.59140012 119.78703904 78.75291327 121.51878357 79.91635132 C122.84402039 80.80483765 122.84402039 80.80483765 124.19602966 81.71127319 C128.23293684 84.45513789 132.18566125 87.31007373 136.13206482 90.18197632 C136.86739441 90.71580933 137.602724 91.24964233 138.3603363 91.7996521 C139.80742629 92.85070488 141.25413089 93.90228849 142.70042419 94.95443726 C146.08696892 97.41553451 149.481817 99.86485572 152.88206482 102.30697632 C153.47221375 102.73389771 154.06236267 103.16081909 154.6703949 103.60067749 C157.02458669 105.62083689 157.02458669 105.62083689 159.81956482 106.49447632 C159.81956482 78.77447632 159.81956482 51.05447632 159.81956482 22.49447632 C156.73688909 22.49447632 155.59761835 24.35821822 153.38206482 26.43197632 Z M64.38206482 78.91635132 C63.29985657 79.70356567 63.29985657 79.70356567 62.19578552 80.50668335 C61.41163269 81.08015503 60.62747986 81.65362671 59.81956482 82.24447632 C53.62324815 86.75100078 47.40333145 91.21785883 41.13206482 95.61947632 C35.47673139 99.59891045 29.84712344 103.61125325 24.25706482 107.68197632 C23.60713562 108.15200073 22.95720642 108.62202515 22.2875824 109.10629272 C20.7793262 110.21029747 19.29635808 111.34872551 17.81956482 112.49447632 C17.81956482 112.82447632 17.81956482 113.15447632 17.81956482 113.49447632 C59.72956482 113.49447632 101.63956482 113.49447632 144.81956482 113.49447632 C141.5844156 110.2593271 139.17104877 107.85388586 135.55393982 105.36557007 C134.75447937 104.81127319 133.95501892 104.25697632 133.1313324 103.68588257 C132.2859491 103.10709351 131.4405658 102.52830444 130.56956482 101.93197632 C128.77632834 100.69147784 126.98336435 99.45058536 125.19065857 98.20932007 C124.29202087 97.58911987 123.39338318 96.96891968 122.46751404 96.32992554 C118.50146978 93.58082718 114.56732323 90.7873692 110.63206482 87.99447632 C105.08770445 84.06901021 99.51739433 80.19563053 93.81956482 76.49447632 C93.21628357 76.98818726 92.61300232 77.48189819 91.99143982 77.99057007 C91.19222107 78.63123413 90.39300232 79.27189819 89.56956482 79.93197632 C88.38620544 80.88910522 88.38620544 80.88910522 87.17893982 81.86557007 C84.92310683 83.42299119 83.52089884 84.19744166 80.81956482 84.49447632 C76.041449 82.62477882 72.65434975 79.79417498 68.81956482 76.49447632 C67.03833323 76.49447632 65.77820706 77.89593146 64.38206482 78.91635132 Z " fill="#000000" transform="translate(309.18043518066406,326.5055236816406)"/>
<path d="M0 0 C1.26722397 -0.00708481 2.53444794 -0.01416962 3.84007263 -0.02146912 C5.23181188 -0.01917562 6.62355079 -0.01666597 8.01528931 -0.01396179 C9.4908626 -0.01831223 10.96643364 -0.02349649 12.44200134 -0.02944946 C16.44001513 -0.0428157 20.43793424 -0.04342073 24.43596601 -0.04088616 C27.7782872 -0.03981474 31.12058937 -0.04470427 34.46290648 -0.04949158 C42.35098743 -0.06057878 50.23902075 -0.06102876 58.12710571 -0.05497742 C66.25347995 -0.04893893 74.37968098 -0.06124723 82.50602567 -0.08254749 C89.49306157 -0.10018527 96.48004245 -0.10616137 103.46709979 -0.10290974 C107.63569069 -0.10110005 111.80415806 -0.10370156 115.97272873 -0.11762428 C119.89459114 -0.13023335 123.81618438 -0.12822961 127.73804283 -0.11521339 C129.17308965 -0.11285466 130.60815559 -0.115557 132.04318047 -0.12383652 C140.96517817 -0.17157999 147.62721896 0.20936321 155.34976196 4.94819641 C161.08491124 10.84265539 162.19116595 17.0596127 162.11734009 25.03804016 C162.12434937 25.98220795 162.13135864 26.92637573 162.13858032 27.89915466 C162.15608814 30.99914044 162.14456299 34.09820245 162.13101196 37.19819641 C162.13370894 39.36478347 162.13759308 41.53136934 162.14260864 43.69795227 C162.14849394 48.23037788 162.13997175 52.76248735 162.12124634 57.2948761 C162.09845769 63.09194098 162.11158593 68.888265 162.13553619 74.68530273 C162.1500202 79.15670815 162.14537619 83.62793918 162.13502502 88.09934998 C162.13236495 90.23629342 162.13560208 92.37325293 162.14494324 94.51017761 C162.15515152 97.50165996 162.13954749 100.49195806 162.11734009 103.48335266 C162.12543701 104.35839447 162.13353394 105.23343628 162.14187622 106.13499451 C162.05409878 112.54768542 160.63511222 117.97610057 156.18796539 122.78842163 C151.06750126 127.31005542 146.73430764 128.52724942 140.01895142 128.34150696 C138.70179642 128.31296127 137.38464142 128.28441559 136.02757263 128.25500488 C135.32616465 128.23648153 134.62475666 128.21795818 133.90209389 128.19887352 C130.11757225 128.10991017 126.33239081 128.09027863 122.54702759 128.05952454 C117.76081182 128.01830221 112.97802793 127.95839853 108.1937561 127.8117218 C86.02278241 127.16182831 71.70475058 129.30925607 53.17999268 142.45506287 C49.8039179 144.81762441 46.29157394 146.83868319 42.68960571 148.83100891 C39.58053042 150.6272786 36.4715514 152.42370745 33.36343384 154.22163391 C31.35995928 155.37869392 29.35487284 156.53296969 27.34780884 157.68379211 C25.55300833 158.71369763 23.76242081 159.75098989 21.97671509 160.79658508 C21.18071899 161.25524963 20.3847229 161.71391418 19.56460571 162.18647766 C18.5319458 162.78842957 18.5319458 162.78842957 17.47842407 163.40254211 C15.59976196 164.26069641 15.59976196 164.26069641 12.22476196 164.32319641 C9.07189814 163.04703725 8.27214512 162.20206473 6.59976196 159.26069641 C6.25918579 155.96089172 6.25918579 155.96089172 6.30679321 152.08882141 C6.31103806 151.40640381 6.3152829 150.72398621 6.31965637 150.02088928 C6.33639224 147.85041637 6.37403238 145.68088662 6.41226196 143.51069641 C6.4273155 142.03544945 6.44100274 140.56018786 6.45327759 139.08491516 C6.4862782 135.47653797 6.53802429 131.86870931 6.59976196 128.26069641 C5.56988159 128.27809875 4.54000122 128.2955011 3.47891235 128.31343079 C2.11425174 128.3275055 0.74958668 128.34115496 -0.61508179 128.35444641 C-1.29228271 128.36701477 -1.96948364 128.37958313 -2.66720581 128.39253235 C-8.13554085 128.43245935 -12.19408057 127.84888761 -16.40023804 124.26069641 C-21.03963714 119.27385332 -23.50508323 115.06116781 -23.54740906 108.1889801 C-23.55456436 107.38728394 -23.56171967 106.58558777 -23.5690918 105.75959778 C-23.5717807 104.88887634 -23.5744696 104.01815491 -23.57723999 103.12104797 C-23.58381119 102.19697144 -23.59038239 101.2728949 -23.59715271 100.32081604 C-23.61685448 97.26431697 -23.6285413 94.20786696 -23.63851929 91.15132141 C-23.64259481 90.10584892 -23.64667034 89.06037643 -23.65086937 87.98322296 C-23.67171665 82.44973957 -23.68602428 76.91628088 -23.69540405 71.38276672 C-23.70646652 65.67534715 -23.74086868 59.96831765 -23.78057575 54.26103592 C-23.80675226 49.86516101 -23.81509682 45.46937892 -23.81868553 41.07343292 C-23.82354866 38.96995662 -23.83515479 36.86648438 -23.85372353 34.76308441 C-23.87813689 31.81438484 -23.87714578 28.8666932 -23.87020874 25.91792297 C-23.8830188 25.05529846 -23.89582886 24.19267395 -23.9090271 23.3039093 C-23.85161006 16.58157701 -22.05787993 11.40375235 -17.68930054 6.23725891 C-17.14015991 5.79124329 -16.59101929 5.34522766 -16.02523804 4.88569641 C-15.48125366 4.42421204 -14.93726929 3.96272766 -14.37680054 3.48725891 C-9.80630075 0.65101991 -5.2963975 0.00990595 0 0 Z M-8.21688747 15.59784698 C-11.03844085 19.56270622 -10.55491521 23.95565893 -10.56137085 28.60005188 C-10.56633575 29.45077271 -10.57130066 30.30149353 -10.57641602 31.17799377 C-10.59103102 33.99463202 -10.59783828 36.81121396 -10.60336304 39.62788391 C-10.6091147 41.58459983 -10.61487243 43.54131573 -10.62063599 45.49803162 C-10.63114386 49.60202802 -10.63698804 53.70600485 -10.64047241 57.81001282 C-10.64595897 63.06817194 -10.66999141 68.32607236 -10.69844437 73.58415031 C-10.717069 77.62647762 -10.72227624 81.66874257 -10.72380829 85.71110916 C-10.72683536 87.64958741 -10.73486571 89.58806454 -10.74799347 91.5265007 C-10.76505146 94.23871806 -10.76317443 96.95030262 -10.75668335 99.66255188 C-10.76589813 100.46272736 -10.77511292 101.26290283 -10.78460693 102.08732605 C-10.7503352 106.65953535 -10.27955613 109.65102165 -7.40023804 113.26069641 C-4.18123847 115.40669613 -3.32166045 115.50074286 0.38101196 115.49897766 C1.76739868 115.52314758 1.76739868 115.52314758 3.18179321 115.54780579 C5.12703904 115.56473229 7.07242213 115.56994119 9.01773071 115.56343079 C9.94198853 115.58341125 10.86624634 115.60339172 11.81851196 115.62397766 C12.66349243 115.62695862 13.5084729 115.62993958 14.37905884 115.63301086 C16.59976196 116.26069641 16.59976196 116.26069641 18.36660767 118.44184875 C19.70456255 121.50025839 20.02257972 123.67408061 20.11148071 126.99897766 C20.16465454 128.59902649 20.16465454 128.59902649 20.21890259 130.23139954 C20.24146118 131.3341925 20.26401978 132.43698547 20.28726196 133.57319641 C20.3385022 135.25638977 20.3385022 135.25638977 20.39077759 136.97358704 C20.47305797 139.73585703 20.54227477 142.49781754 20.59976196 145.26069641 C26.62735677 142.37227037 32.53973124 139.37421132 38.29716492 135.9788208 C39.70763742 135.14933515 41.12225337 134.32683901 42.54167175 133.51275635 C46.55464914 131.18206234 50.33334384 128.75481192 54.01577759 125.9276886 C70.43416585 113.95476674 86.34327518 114.55041358 105.79013062 115.02107239 C110.68847136 115.12594298 115.58781111 115.14392582 120.48709679 115.16993999 C124.28762046 115.19090964 128.08603075 115.22580254 131.88580322 115.30630493 C132.57821609 115.31755905 133.27062897 115.32881317 133.98402405 115.34040833 C135.84658268 115.37109331 137.70898225 115.41104285 139.5713501 115.45169067 C142.58601634 115.26156331 144.17189829 115.02433895 146.59976196 113.26069641 C149.44454982 109.5998248 148.89518081 105.04597978 148.89028931 100.6242218 C148.89700653 99.75384781 148.90372375 98.88347382 148.91064453 97.98672485 C148.92963717 95.11054268 148.93354919 92.23459364 148.93569946 89.35835266 C148.94212589 87.35822453 148.94885413 85.35809734 148.95587158 83.35797119 C148.96784707 79.16577474 148.97155206 74.97366072 148.97036743 70.78144836 C148.97016409 65.40999218 148.99748122 60.03906414 149.03191185 54.66773319 C149.05414863 50.53703381 149.05820598 46.40646226 149.05714798 42.27570915 C149.05950822 40.29536046 149.06835548 38.31500847 149.08381271 36.3347187 C149.10340993 33.56495767 149.09765969 30.79634509 149.08560181 28.02656555 C149.09684082 27.20925964 149.10807983 26.39195374 149.11965942 25.54988098 C149.11127045 24.79151443 149.10288147 24.03314789 149.09423828 23.25180054 C149.09532782 22.59791383 149.09641735 21.94402712 149.0975399 21.27032566 C148.32140551 18.13691563 146.89858526 16.49436157 144.59976196 14.26069641 C141.69709214 13.51705059 141.69709214 13.51705059 138.40638733 13.63923645 C137.13468689 13.62802765 135.86298645 13.61681885 134.55274963 13.60527039 C133.14580844 13.61818111 131.73887179 13.63159522 130.3319397 13.64546204 C128.84854498 13.64196069 127.365154 13.63630195 125.8817749 13.62864685 C121.8548301 13.61439206 117.82856754 13.63146582 113.80168796 13.65493202 C109.58969284 13.67502649 105.37772645 13.66916227 101.16569519 13.66682434 C94.09322849 13.66687792 87.02102886 13.68664176 79.94863892 13.71870422 C71.76765048 13.75561178 63.58701178 13.76437797 55.40595096 13.75740671 C47.53996006 13.75110584 39.6740893 13.76184733 31.80812263 13.78137207 C28.45848951 13.78955465 25.10891772 13.79225405 21.75927544 13.79067993 C17.81688633 13.78980224 13.87483062 13.8039857 9.93252945 13.82990646 C8.4841136 13.83708014 7.03566231 13.83914611 5.58723259 13.83578873 C3.61351667 13.83208579 1.6397934 13.84863355 -0.33384705 13.86628723 C-1.99219495 13.8718803 -1.99219495 13.8718803 -3.68404484 13.87758636 C-6.4043096 14.04219295 -6.4043096 14.04219295 -8.21688747 15.59784698 Z " fill="#000000" transform="translate(299.4002380371094,81.73930358886719)"/>
<path d="M0 0 C6.51355935 4.35774413 10.68598272 9.53952819 12.52734375 17.19140625 C13.66976341 24.57220744 12.63536302 31.08934227 8.3125 37.25 C3.37694663 43.24914719 -2.13846301 47.20676384 -10 48 C-18.22161385 48.10490097 -24.47156055 45.96709681 -30.75 40.6875 C-36.63075722 33.6632622 -38.78691173 27.07862977 -38 18 C-36.71830517 11.49376944 -34.05317194 6.35228456 -29 2 C-19.82942555 -3.8133314 -9.86397131 -4.85451991 0 0 Z M-23 16 C-24.72052464 18.91741135 -25.00946957 20.55493031 -24.9375 23.9375 C-23.69939974 27.98196086 -21.91497613 29.94282991 -19 33 C-15.78501861 34.6074907 -12.48701742 34.47314549 -9 34 C-5.86819191 32.37609951 -3.75660256 30.99733974 -1.625 28.1875 C-0.25697437 23.39941029 -0.41459808 20.06987247 -2.8125 15.6875 C-4.98892183 13.01361033 -6.57348733 11.25813086 -10.05078125 10.62890625 C-16.18238401 10.44887646 -18.8393867 11.4334732 -23 16 Z " fill="#000000" transform="translate(212,73)"/>
<path d="M0 0 C4.28034093 2.88991171 6.85509397 5.96559719 8.65234375 10.8671875 C9.64923029 17.64601597 8.75293692 22.34694476 4.96484375 27.9921875 C0.91125297 31.94184006 -2.78321731 33.78367463 -8.41015625 34.3046875 C-14.54531458 33.77579454 -19.73294144 31.41390828 -24.03515625 26.9921875 C-27.04488078 21.96431435 -27.49269074 17.12750921 -26.671875 11.390625 C-25.26741433 6.10020262 -22.58970274 2.94395066 -17.97265625 0.1171875 C-11.89755964 -2.20944524 -6.04887139 -2.9954104 0 0 Z M-11.03515625 11.9921875 C-11.69515625 12.6521875 -12.35515625 13.3121875 -13.03515625 13.9921875 C-12.71474228 16.59499318 -12.71474228 16.59499318 -12.03515625 18.9921875 C-9.63796193 19.67177353 -9.63796193 19.67177353 -7.03515625 19.9921875 C-6.37515625 19.3321875 -5.71515625 18.6721875 -5.03515625 17.9921875 C-5.35557022 15.38938182 -5.35557022 15.38938182 -6.03515625 12.9921875 C-8.43235057 12.31260147 -8.43235057 12.31260147 -11.03515625 11.9921875 Z " fill="#000000" transform="translate(426.03515625,136.0078125)"/>
<path d="M0 0 C4.91442096 4.22868781 7.45257169 8.54034591 8 15 C7.91164465 20.99711915 5.49693596 25.54945983 1.25 29.6875 C-3.71476761 32.83588922 -7.3805786 33.82387253 -13.3125 33.3125 C-19.17389901 31.39238653 -23.44512681 28.90736824 -26.35546875 23.3046875 C-29.12188663 16.37052216 -27.95329659 11.19859719 -25.125 4.5 C-18.70313093 -3.25053164 -8.66433768 -4.41390787 0 0 Z M-12.3125 11.3125 C-12.9725 11.9725 -13.6325 12.6325 -14.3125 13.3125 C-14.02266731 16.61933466 -14.02266731 16.61933466 -12.3125 19.3125 C-9.8125 19.47916667 -9.8125 19.47916667 -7.3125 19.3125 C-6.04246677 18.25939723 -6.04246677 18.25939723 -6.125 15.875 C-6.04410017 13.14515325 -6.04410017 13.14515325 -8.3125 11.3125 C-9.6325 11.3125 -10.9525 11.3125 -12.3125 11.3125 Z " fill="#000000" transform="translate(330.3125,136.6875)"/>
<path d="M0 0 C4.36338666 3.6530679 7.36814318 6.91507717 7.92578125 12.73828125 C8.08523933 18.80608083 7.93797063 22.55211141 3.6875 27.25 C0.73414952 30.14807387 -2.04377571 32.86193416 -6.3125 33.25 C-7.92125 33.4046875 -7.92125 33.4046875 -9.5625 33.5625 C-15.61922265 33.05777311 -20.2508091 30.80904337 -24.25 26.1875 C-27.82295734 21.09874258 -27.97374533 16.2930476 -27.3125 10.25 C-25.63074772 5.40582224 -22.60092915 2.00684731 -18.3125 -0.75 C-12.04964774 -3.73908858 -6.03431472 -3.18793985 0 0 Z M-11.3125 11.25 C-13.1479799 12.58378575 -13.1479799 12.58378575 -14.3125 14.25 C-13.6525 15.9 -12.9925 17.55 -12.3125 19.25 C-9.89604218 19.41687448 -9.89604218 19.41687448 -7.3125 19.25 C-6.6525 18.59 -5.9925 17.93 -5.3125 17.25 C-5.63291397 14.64719432 -5.63291397 14.64719432 -6.3125 12.25 C-8.65783951 11.48043864 -8.65783951 11.48043864 -11.3125 11.25 Z " fill="#000000" transform="translate(378.3125,136.75)"/>
<path d="M0 0 C3.5625 0.3125 3.5625 0.3125 5.5 1.3125 C8.09832351 6.20346191 6.6323021 11.58293553 5.1875 16.625 C4.23951843 19.67481948 3.36332461 21.61126308 1.5625 24.3125 C-1.60662098 25.20812115 -3.61452854 25.60165213 -6.75 24.5 C-8.4375 23.3125 -8.4375 23.3125 -9.4375 21.3125 C-9.38311296 14.11981375 -8.78320126 0.79847284 0 0 Z " fill="#000000" transform="translate(247.4375,211.6875)"/>
<path d="M0 0 C1.9375 1.6875 1.9375 1.6875 3 4 C2.73592255 9.28154903 1.02880961 11.65174061 -2.6875 15.3125 C-3.53699219 16.17488281 -4.38648438 17.03726563 -5.26171875 17.92578125 C-8.32858734 20.24890139 -10.1813591 20.85333066 -14 21 C-16.875 19.4375 -16.875 19.4375 -19 17 C-19.46875 14.2109375 -19.46875 14.2109375 -19 11 C-17.2477238 8.78181758 -15.68268278 7.06256343 -13.625 5.1875 C-13.11710937 4.69830078 -12.60921875 4.20910156 -12.0859375 3.70507812 C-7.72014113 -0.44817289 -5.96208104 -1.5817766 0 0 Z " fill="#000000" transform="translate(287,233)"/>
<path d="M0 0 C2.73828125 2.07421875 2.73828125 2.07421875 5.3125 4.6875 C6.17488281 5.53699219 7.03726562 6.38648438 7.92578125 7.26171875 C10.25136502 10.33183969 10.89508533 12.17061456 11 16 C8.9375 18.9375 8.9375 18.9375 6 21 C0.75740089 20.84918551 -1.6790096 19.02503133 -5.3125 15.375 C-6.17488281 14.53710938 -7.03726562 13.69921875 -7.92578125 12.8359375 C-10.40485838 9.44646481 -10.90185022 7.17136554 -11 3 C-7.50175498 -1.24029699 -5.11888746 -1.44167178 0 0 Z " fill="#000000" transform="translate(279,336)"/>
<path d="M0 0 C2.1015625 0.9140625 2.1015625 0.9140625 4.1015625 3.9140625 C4.64082456 9.0909783 4.64082456 9.0909783 2.9140625 11.7265625 C-0.5724676 14.01084084 -3.32211062 14.02531752 -7.37890625 13.2421875 C-8.60222656 12.88640625 -9.82554687 12.530625 -11.0859375 12.1640625 C-12.31699219 11.81859375 -13.54804688 11.473125 -14.81640625 11.1171875 C-17.8984375 9.9140625 -17.8984375 9.9140625 -19.8984375 6.9140625 C-20.5546875 0.7890625 -20.5546875 0.7890625 -18.3984375 -2.0859375 C-12.57399731 -4.41571358 -5.78165628 -1.62888768 0 0 Z " fill="#000000" transform="translate(305.8984375,308.0859375)"/>
<path d="M0 0 C2 2 2 2 2.375 4.875 C1.90794629 8.76711429 0.99093122 9.55242128 -2 12 C-4.8046875 13.08203125 -4.8046875 13.08203125 -7.875 13.8125 C-8.88304687 14.06644531 -9.89109375 14.32039063 -10.9296875 14.58203125 C-14.28566436 15.03888815 -16.73871346 14.90591293 -20 14 C-22.32749345 10.50875983 -22.50299316 9.10777749 -22 5 C-17.07729325 -1.16499359 -7.06891758 -3.90650709 0 0 Z " fill="#000000" transform="translate(308,269)"/>
</svg>
