<svg xmlns="http://www.w3.org/2000/svg" viewBox="0 0 64 64" fill="none" stroke="#222233" stroke-width="1.8" stroke-linecap="round" stroke-linejoin="round">
  <!-- Rocket body -->
  <path d="M32 8 C32 8 44 16 44 32 L32 44 L20 32 C20 16 32 8 32 8 Z"/>
  <!-- Rocket window -->
  <circle cx="32" cy="26" r="5"/>
  <!-- Rocket flames -->
  <path d="M26 44 C24 50 28 54 32 52 C36 54 40 50 38 44" fill="none" stroke-width="1.6"/>
  <!-- Left wing -->
  <path d="M20 32 L12 40 L20 40" fill="none"/>
  <!-- Right wing -->
  <path d="M44 32 L52 40 L44 40" fill="none"/>
  <!-- Refresh/circular arrow around rocket -->
  <path d="M14 20 C10 26 10 38 14 44" fill="none" stroke-width="1.5" stroke-dasharray="3,2"/>
  <path d="M50 20 C54 26 54 38 50 44" fill="none" stroke-width="1.5" stroke-dasharray="3,2"/>
  <!-- Small loop arrows at top -->
  <path d="M22 12 C26 8 32 6 38 8" fill="none" stroke-width="1.5"/>
  <polyline points="36,5 38,8 35,10" stroke-width="1.5"/>
</svg>
