<?xml version="1.0" encoding="UTF-8"?>
<svg version="1.1" xmlns="http://www.w3.org/2000/svg" width="512" height="512">
<path d="M0 0 C1.12816737 -0.00384115 2.25633475 -0.00768229 3.41868901 -0.01163983 C4.65835699 -0.01077335 5.89802496 -0.00990687 7.17525864 -0.00901413 C8.49201922 -0.01198525 9.80877981 -0.01495637 11.16544223 -0.01801753 C14.82367217 -0.02608686 18.48188248 -0.02787706 22.14012027 -0.028615 C26.08434879 -0.03046567 30.02856713 -0.03801307 33.97278976 -0.04475021 C42.5988466 -0.05833353 51.22489879 -0.06435824 59.85096455 -0.06876087 C65.23682186 -0.07152326 70.62267738 -0.07576061 76.00853348 -0.08026505 C90.91958249 -0.09245765 105.83063007 -0.10275702 120.74168396 -0.10614014 C121.69606941 -0.1063597 122.65045487 -0.10657927 123.63376109 -0.10680549 C125.06876928 -0.10713291 125.06876928 -0.10713291 126.53276753 -0.10746694 C128.47135751 -0.1079104 130.40994748 -0.10835697 132.34853745 -0.10880661 C133.31014553 -0.10902804 134.27175361 -0.10924947 135.26250133 -0.10947761 C150.84442614 -0.11342573 166.42630418 -0.13088021 182.00821093 -0.15416613 C198.0048336 -0.17787891 214.00143281 -0.19034195 229.99807334 -0.19150805 C238.98003546 -0.19242485 247.96193665 -0.19817831 256.94388199 -0.21632767 C264.59215333 -0.23172764 272.24034491 -0.23684972 279.88862881 -0.22858956 C283.79037121 -0.22468271 287.69195298 -0.22561433 291.59367561 -0.23964691 C295.16781201 -0.2523837 298.74166703 -0.25119045 302.31580302 -0.2390562 C304.21648868 -0.23617381 306.11717919 -0.2480367 308.01782632 -0.26047826 C316.70102788 -0.21022266 324.05603398 0.70171727 330.48574448 7.13142776 C336.32324063 15.30061502 337.41030785 22.07948878 336.48574448 32.13142776 C334.36961572 39.55765531 330.17238683 44.38285553 323.48574448 48.13142776 C318.68611092 50.71112112 313.97616151 50.35924346 308.67324448 50.25642776 C307.78959213 50.24740433 306.90593979 50.23838089 305.9955101 50.22908401 C303.82547088 50.20562413 301.655572 50.16975642 299.48574448 50.13142776 C299.23389389 50.95352737 298.9820433 51.77562698 298.72256088 52.6226387 C297.30140023 56.65440358 295.54965442 60.4245981 293.69668198 64.27205276 C293.32130798 65.0588945 292.94593399 65.84573624 292.55918503 66.65642166 C291.75092685 68.34976026 290.94110724 70.04235427 290.129879 71.734272 C288.40464407 75.33276019 286.68721532 78.93495479 284.9693718 82.53697586 C284.08934695 84.38210596 283.20894281 86.22705521 282.32816696 88.07182693 C278.24787463 96.61992302 274.20260585 105.18422533 270.17324448 113.75642776 C269.68528397 114.79422379 269.68528397 114.79422379 269.18746567 115.85298538 C265.71879938 123.23163178 262.25799653 130.61395628 258.80215073 137.99861526 C258.50381332 138.63554306 258.20547592 139.27247086 257.89809799 139.92869949 C256.42768636 143.07074805 254.96465064 146.21586521 253.5165062 149.36824417 C250.82026675 155.22506032 248.05416078 161.01750444 245.05215073 166.72517776 C237.05876573 182.2194866 229.73611665 201.32115077 234.21523666 219.01277542 C236.0830646 223.97413529 238.70036951 228.43700448 241.36465073 233.0030098 C249.85380135 249.11982494 248.76572326 273.20026103 243.80215073 290.18220901 C236.01485035 314.30909437 220.81448158 333.74860496 198.22793198 345.88142776 C177.26822554 355.98249111 152.36865471 359.1278109 129.84902573 352.32674026 C128.73914291 351.93228714 127.6292601 351.53783401 126.48574448 351.13142776 C125.42742416 350.75759964 124.36910385 350.38377151 123.27871323 349.99861526 C100.91568298 341.32899378 82.75314054 324.3494128 72.75527573 302.45564651 C63.80726627 281.78293829 61.60921557 256.59579097 69.48574448 235.13142776 C71.33160134 230.94233248 73.3836039 226.86004329 75.46767807 222.78523636 C78.42321748 216.83291746 79.7024668 211.81588993 78.48574448 205.13142776 C77.47511948 205.35830276 76.46449448 205.58517776 75.42324448 205.81892776 C70.95968331 206.17317865 68.1145259 205.6640148 64.48574448 203.13142776 C63.00669385 201.54634226 61.54982325 199.94038979 60.11074448 198.31892776 C57.10361948 194.94291882 57.10361948 194.94291882 52.91152573 193.99080276 C50.63605601 194.51948333 48.63989452 195.24621625 46.48574448 196.13142776 C46.59015854 197.95867386 46.59015854 197.95867386 46.69668198 199.82283401 C47.28474759 214.48496611 47.28474759 214.48496611 43.67324448 218.69392776 C38.48357499 223.42229329 31.75471536 222.35166419 25.17324448 222.38142776 C23.48038315 222.41236526 23.48038315 222.41236526 21.7533226 222.44392776 C11.33227853 222.49299684 11.33227853 222.49299684 6.48574448 219.13142776 C2.26657719 214.47579489 2.35497945 209.95650116 2.42324448 203.94392776 C2.4277562 203.19433792 2.43226791 202.44474808 2.43691635 201.67244339 C2.44868093 199.82540394 2.46661582 197.97840563 2.48574448 196.13142776 C-0.58005507 194.63555456 -3.08777025 193.85852186 -6.51425552 194.13142776 C-9.4690146 196.38889857 -11.74129317 198.85456331 -14.15488052 201.67830276 C-16.60174205 204.22239057 -18.1479071 205.19962252 -21.51425552 206.13142776 C-27.88134584 206.23580629 -30.81209356 204.66370798 -35.35800552 200.30720901 C-36.06956802 199.5892012 -36.78113052 198.87119339 -37.51425552 198.13142776 C-38.39081802 197.27935745 -39.26738052 196.42728714 -40.17050552 195.54939651 C-49.80158655 186.09820637 -49.80158655 186.09820637 -50.07675552 180.44392776 C-49.9666416 174.13990541 -46.85102822 171.32483608 -42.51425552 167.13142776 C-41.51897406 165.97847795 -40.53763618 164.81320052 -39.57675552 163.63142776 C-38.89613052 162.80642776 -38.21550552 161.98142776 -37.51425552 161.13142776 C-38.50425552 158.82142776 -39.49425552 156.51142776 -40.51425552 154.13142776 C-41.67183365 154.10564651 -42.82941177 154.07986526 -44.02206802 154.05330276 C-45.56116681 153.99699427 -47.10022785 153.93964756 -48.63925552 153.88142776 C-49.3998024 153.86724808 -50.16034927 153.85306839 -50.94394302 153.83845901 C-56.20826161 153.61154873 -59.33888996 152.60878389 -63.51425552 149.13142776 C-66.69088291 144.36648669 -65.88616549 138.93387403 -65.88486099 133.3623848 C-65.88922669 131.27024339 -65.92553174 129.18022615 -65.96347427 127.08845901 C-65.96934451 125.75122661 -65.97331252 124.41398423 -65.97519302 123.07674026 C-65.9834108 121.86518265 -65.99162857 120.65362503 -66.00009537 119.40535355 C-65.42366175 115.52094407 -64.24010262 113.90236406 -61.51425552 111.13142776 C-57.31679195 108.73497746 -52.92401331 108.7089911 -48.20175552 108.50642776 C-47.46118912 108.46775589 -46.72062271 108.42908401 -45.9576149 108.38924026 C-44.14354243 108.29561072 -42.32893436 108.21245925 -40.51425552 108.13142776 C-38.91147715 104.74382789 -38.91147715 104.74382789 -38.64316177 101.06892776 C-39.79883857 98.49845382 -41.38872526 97.0415028 -43.45175552 95.13142776 C-46.80270873 92.01765636 -49.12790581 89.60226898 -49.85019302 84.98299026 C-49.86308365 84.24822464 -49.87597427 83.51345901 -49.88925552 82.75642776 C-49.9176149 82.02681839 -49.94597427 81.29720901 -49.97519302 80.54549026 C-48.77536773 74.26165947 -43.40334968 69.71080635 -39.01425552 65.38142776 C-38.44577896 64.80521683 -37.8773024 64.22900589 -37.29159927 63.63533401 C-36.73601334 63.0823262 -36.1804274 62.52931839 -35.60800552 61.95955276 C-35.10978287 61.46358597 -34.61156021 60.96761917 -34.0982399 60.45662308 C-30.15746729 57.15968817 -26.29328482 56.4189601 -21.25644302 56.47127151 C-15.80269661 57.78421047 -12.24470687 62.15706229 -8.51425552 66.13142776 C-7.52425552 67.12142776 -7.52425552 67.12142776 -6.51425552 68.13142776 C-3.68467724 67.76866132 -1.22341262 67.03448013 1.48574448 66.13142776 C1.81574448 60.85142776 2.14574448 55.57142776 2.48574448 50.13142776 C0.56761948 50.28611526 0.56761948 50.28611526 -1.38925552 50.44392776 C-7.26490004 50.41616881 -11.74459998 48.50014883 -16.51425552 45.13142776 C-22.20620705 39.31038043 -24.79926531 33.48104029 -24.88925552 25.31892776 C-24.76735483 17.54978991 -23.14933818 13.1825761 -18.13925552 7.38142776 C-12.09158213 2.19770772 -7.88060965 0.01007151 0 0 Z M-9.51425552 17.13142776 C-12.23972601 21.10935434 -12.20468681 25.47309619 -11.51425552 30.13142776 C-9.45587028 33.46743144 -7.77492912 34.95764537 -4.51425552 37.13142776 C-2.00891261 37.43588593 -2.00891261 37.43588593 0.85130405 37.39148998 C2.53196845 37.40208837 2.53196845 37.40208837 4.24658567 37.41290087 C6.10083041 37.40927824 6.10083041 37.40927824 7.99253464 37.40558243 C9.95625992 37.41343745 9.95625992 37.41343745 11.95965642 37.42145115 C15.60122035 37.43566355 19.24269906 37.43729383 22.88428676 37.43685424 C26.80873888 37.43849961 30.7331556 37.45156085 34.65758896 37.46304703 C43.24225061 37.48591797 51.82688757 37.49381987 60.41157556 37.49887347 C65.77011055 37.50212803 71.12863834 37.50864904 76.48716927 37.51587486 C91.31840185 37.53544345 106.14962773 37.55184617 120.98087406 37.5547514 C121.93036254 37.55493897 122.87985101 37.55512654 123.85811187 37.55531979 C125.78302586 37.55568604 127.70793985 37.55604974 129.63285384 37.5564109 C131.06618339 37.55668512 131.06618339 37.55668512 132.52846909 37.55696487 C133.48518606 37.55714542 134.44190303 37.55732597 135.42761143 37.55751199 C150.93339334 37.5610544 166.43903644 37.58807974 181.94477019 37.62546276 C197.85773623 37.66352112 213.77063334 37.68290869 229.6836459 37.68321091 C238.62088954 37.68379603 247.5579676 37.69232344 256.49516869 37.72120857 C264.10477114 37.74568945 271.71414763 37.75302774 279.32377879 37.73796105 C283.2071443 37.73077855 287.09006333 37.73170653 290.97337914 37.75437164 C295.18191748 37.77869982 299.38943446 37.76436367 303.59800339 37.7461586 C304.82747438 37.75935857 306.05694538 37.77255854 307.32367307 37.7861585 C314.26050452 37.82723381 314.26050452 37.82723381 320.22872829 34.71800709 C323.60842328 30.84481857 323.82726071 28.45558239 323.77090073 23.45564651 C323.33228577 19.88063423 321.82739055 17.79830246 319.48574448 15.13142776 C316.29234604 13.10118941 313.77638049 12.87963487 310.02837181 12.87415886 C308.91290462 12.86770997 307.79743743 12.86126107 306.64816821 12.85461676 C305.42269978 12.85771397 304.19723136 12.86081117 302.93462753 12.86400223 C300.98187127 12.85720556 300.98187127 12.85720556 298.98966539 12.85027158 C295.373159 12.83802039 291.75674497 12.83830453 288.14022255 12.84066033 C284.24101328 12.84106796 280.34183383 12.83003452 276.4426384 12.8205452 C268.80235427 12.8039228 261.16210099 12.7984351 253.52180029 12.79732044 C247.31246454 12.79637059 241.10313899 12.79226344 234.89380646 12.78591919 C217.29515629 12.76830368 199.69653054 12.75908085 182.0978715 12.76058014 C180.67435104 12.76070001 180.67435104 12.76070001 179.2220726 12.7608223 C178.27190236 12.76090406 177.32173211 12.76098582 176.34276883 12.76107006 C160.94053523 12.76188313 145.53839939 12.74274099 130.13619407 12.71454556 C114.32715799 12.68583337 98.51816962 12.67200434 82.7091068 12.67373312 C73.83115027 12.67439758 64.95329623 12.66888075 56.07536316 12.64737701 C48.5170421 12.62918712 40.95886999 12.6247998 33.40053655 12.63839586 C29.54355364 12.64493656 25.68685665 12.64500332 21.82990074 12.62768936 C17.64999249 12.60911849 13.47074937 12.62148418 9.2908287 12.63695145 C8.06982173 12.62666432 6.84881475 12.61637719 5.59080756 12.60577834 C-0.71486337 12.65752981 -4.76986269 12.78535546 -9.51425552 17.13142776 Z M15.48574448 50.13142776 C15.44836166 51.58935745 15.41097885 53.04728714 15.37246323 54.54939651 C15.3067929 56.47259887 15.24034593 58.39577481 15.17324448 60.31892776 C15.15068588 61.2786348 15.12812729 62.23834183 15.1048851 63.22713089 C14.74621095 72.65047892 14.74621095 72.65047892 11.48574448 76.13142776 C9.04122201 77.49432878 6.88188689 78.52388001 4.29824448 79.50642776 C3.6633812 79.77841995 3.02851791 80.05041214 2.37441635 80.33064651 C-2.65967272 82.3157777 -6.22862238 82.35161016 -11.51425552 81.13142776 C-13.86972427 79.64314651 -13.86972427 79.64314651 -15.70175552 77.81892776 C-18.57431027 75.03103779 -21.34005702 72.67078657 -24.51425552 70.13142776 C-28.47425552 74.09142776 -32.43425552 78.05142776 -36.51425552 82.13142776 C-35.18394302 83.67830276 -35.18394302 83.67830276 -33.82675552 85.25642776 C-24.06451326 96.66113259 -24.06451326 96.66113259 -24.51425552 104.13142776 C-25.65097427 107.77205276 -25.65097427 107.77205276 -27.20175552 111.38142776 C-27.70062271 112.58283401 -28.1994899 113.78424026 -28.71347427 115.02205276 C-30.75285496 118.5434129 -31.74471382 119.66151137 -35.51425552 121.13142776 C-38.61920066 121.59994797 -41.69054437 121.73161456 -44.82675552 121.81892776 C-47.69363052 121.92205276 -50.56050552 122.02517776 -53.51425552 122.13142776 C-53.51425552 128.07142776 -53.51425552 134.01142776 -53.51425552 140.13142776 C-48.14526951 140.340776 -48.14526951 140.340776 -42.77524185 140.51936722 C-38.25633039 140.74012944 -35.20730704 141.27001762 -31.51425552 144.13142776 C-29.95175552 146.19392776 -29.95175552 146.19392776 -28.51425552 149.13142776 C-28.14945084 149.86748245 -27.78464615 150.60353714 -27.40878677 151.36189651 C-25.25317126 156.10719346 -23.59367293 160.50574493 -24.42050552 165.74861526 C-26.92267239 171.1997645 -32.07672433 175.22025941 -36.51425552 179.13142776 C-32.57231382 184.01192701 -28.39475477 188.18948607 -23.51425552 192.13142776 C-22.89937271 191.50494339 -22.2844899 190.87845901 -21.65097427 190.23299026 C-20.84273209 189.41572464 -20.0344899 188.59845901 -19.20175552 187.75642776 C-18.40124771 186.94431839 -17.6007399 186.13220901 -16.77597427 185.29549026 C-13.72598746 182.37719545 -11.0648251 180.49453254 -6.81113052 179.96736526 C0.58584116 180.49572039 8.04673803 184.23239488 13.48574448 189.13142776 C14.60398263 191.36790407 14.67970509 192.78034306 14.80215073 195.26424026 C14.84025864 195.99014359 14.87836655 196.71604691 14.91762924 197.4639473 C14.96073227 198.38546585 15.0038353 199.30698441 15.04824448 200.25642776 C15.26480698 204.64955276 15.26480698 204.64955276 15.48574448 209.13142776 C21.42574448 209.13142776 27.36574448 209.13142776 33.48574448 209.13142776 C33.65561939 203.80748574 33.65561939 203.80748574 33.78359604 198.48250198 C34.01707092 193.33253774 34.95666864 190.1179764 38.48574448 186.13142776 C41.29043198 184.48689651 41.29043198 184.48689651 44.36074448 183.31892776 C45.87281479 182.7214473 45.87281479 182.7214473 47.41543198 182.11189651 C52.55036689 180.4721145 56.48373301 179.43835171 61.54043198 181.83064651 C65.72704928 184.63013158 69.08264702 188.45052643 72.48574448 192.13142776 C77.36624372 188.18948607 81.54380278 184.01192701 85.48574448 179.13142776 C84.77547104 178.43275589 84.0651976 177.73408401 83.33340073 177.01424026 C82.41429916 176.10416214 81.4951976 175.19408401 80.54824448 174.25642776 C79.63172104 173.35150589 78.7151976 172.44658401 77.77090073 171.51424026 C74.163981 167.75317867 74.08316124 165.12858613 74.14199448 160.06892776 C74.90555327 153.54397077 77.1192803 147.20912697 82.11074448 142.82674026 C86.33188489 140.7063989 89.70944699 140.46961255 94.36074448 140.38142776 C98.38261948 140.25767776 98.38261948 140.25767776 102.48574448 140.13142776 C102.48574448 134.19142776 102.48574448 128.25142776 102.48574448 122.13142776 C96.78762616 121.96139364 96.78762616 121.96139364 91.08852768 121.8335762 C86.01908309 121.61754066 83.07918649 121.02655801 79.48574448 117.13142776 C75.66662878 111.31317002 73.43949205 104.83188986 73.72011948 97.84627151 C75.25487483 92.4041543 79.53225756 88.95646204 83.48574448 85.13142776 C84.14574448 84.14142776 84.80574448 83.15142776 85.48574448 82.13142776 C81.52574448 78.17142776 77.56574448 74.21142776 73.48574448 70.13142776 C72.43386948 71.01830276 71.38199448 71.90517776 70.29824448 72.81892776 C69.65242416 73.36291214 69.00660385 73.90689651 68.34121323 74.46736526 C66.29700388 76.22368239 66.29700388 76.22368239 64.11074448 78.94392776 C61.01686933 81.52215705 59.12870171 82.15426068 55.16152573 82.40095901 C47.89937169 81.66944277 40.22106004 78.81601404 35.48574448 73.13142776 C34.55565558 70.34116106 34.29875678 68.36613234 34.16933823 65.46345901 C34.1274437 64.57078323 34.08554916 63.67810745 34.0423851 62.75838089 C34.0030687 61.82961136 33.96375229 60.90084183 33.92324448 59.94392776 C33.88006088 59.00355667 33.83687729 58.06318558 33.7923851 57.09431839 C33.68635905 54.77352589 33.58555253 52.45249599 33.48574448 50.13142776 C27.54574448 50.13142776 21.60574448 50.13142776 15.48574448 50.13142776 Z M46.48574448 50.13142776 C46.48574448 55.41142776 46.48574448 60.69142776 46.48574448 66.13142776 C51.75272705 69.33742554 51.75272705 69.33742554 55.06777573 69.10017776 C58.20603873 67.84284461 59.87522183 66.09721776 62.17324448 63.63142776 C65.8781927 59.69608781 67.67012292 57.96830836 73.11074448 57.63142776 C78.39465631 57.70712851 80.73914399 59.2526983 84.39980698 62.92830276 C85.08816635 63.65533401 85.77652573 64.38236526 86.48574448 65.13142776 C87.79672104 66.37666214 87.79672104 66.37666214 89.13418198 67.64705276 C97.04143127 75.21444894 97.04143127 75.21444894 98.48574448 80.13142776 C98.59378839 86.7221067 96.78196001 89.65462223 92.27480698 94.36580276 C91.68441635 94.94845901 91.09402573 95.53111526 90.48574448 96.13142776 C89.68136948 96.95642776 88.87699448 97.78142776 88.04824448 98.63142776 C87.53261948 99.12642776 87.01699448 99.62142776 86.48574448 100.13142776 C87.47574448 103.10142776 88.46574448 106.07142776 89.48574448 109.13142776 C90.6433226 109.15720901 91.80090073 109.18299026 92.99355698 109.20955276 C94.53265576 109.26586126 96.07171681 109.32320797 97.61074448 109.38142776 C98.37129135 109.39560745 99.13183823 109.40978714 99.91543198 109.42439651 C105.16384815 109.65062135 108.36488654 110.59926382 112.48574448 114.13142776 C115.74861875 119.18584814 114.81401124 125.27621824 114.79824448 131.06892776 C114.81435776 132.24906448 114.83047104 133.4292012 114.8470726 134.64509964 C114.84771713 135.78398636 114.84836166 136.92287308 114.84902573 138.09627151 C114.85200668 139.13388626 114.85498764 140.17150101 114.85805893 141.24055862 C114.30683174 145.52061182 112.64814882 148.16877847 109.34902573 150.90095901 C105.44604904 152.5782273 101.88208238 152.6954497 97.67324448 152.81892776 C96.88498276 152.85308792 96.09672104 152.88724808 95.2845726 152.92244339 C93.35211329 153.00442651 91.41895413 153.06961621 89.48574448 153.13142776 C88.49574448 156.10142776 87.50574448 159.07142776 86.48574448 162.13142776 C87.53375229 163.12722855 87.53375229 163.12722855 88.60293198 164.14314651 C89.5130101 165.02615433 90.42308823 165.90916214 91.36074448 166.81892776 C92.26566635 167.68904495 93.17058823 168.55916214 94.10293198 169.45564651 C97.15512523 172.88310943 98.28506406 175.55943121 98.86074448 180.06892776 C98.27336637 184.86584898 95.90444858 187.94917434 92.23574448 191.00642776 C89.54005574 194.27976409 90.20898607 196.98005173 90.48574448 201.13142776 C90.97043198 200.76791214 91.45511948 200.40439651 91.95449448 200.02986526 C93.37824705 198.96205083 94.80422183 197.89719593 96.23183823 196.83455276 C97.59507868 195.80444386 98.94575519 194.75697703 100.27090073 193.67830276 C119.77591517 178.07429121 144.17631997 172.94451707 168.71230698 175.34968948 C187.07150115 177.87053444 203.48925149 186.3696594 217.37636948 198.34627151 C219.35828202 200.16620997 219.35828202 200.16620997 221.48574448 201.13142776 C221.59934311 199.84244583 221.71294174 198.5534639 221.82998276 197.22542191 C223.27240465 183.5064215 227.11343111 172.77250128 233.36074448 160.56892776 C234.23100058 158.81348715 235.09806034 157.05645865 235.96206284 155.29793167 C237.67399915 151.81869777 239.39805092 148.34596306 241.13271713 144.8780098 C244.23727507 138.64761173 247.15263678 132.33652562 250.04824448 126.00642776 C254.79112968 115.7236436 259.6254851 105.48644983 264.48479843 95.25831985 C272.63213069 78.10933906 272.63213069 78.10933906 280.61074448 60.88142776 C281.22212265 59.55232376 281.22212265 59.55232376 281.8458519 58.19636917 C283.77762837 54.32074351 283.77762837 54.32074351 284.48574448 50.13142776 C205.94574448 50.13142776 127.40574448 50.13142776 46.48574448 50.13142776 Z M94.83730698 216.12752151 C80.98246392 233.82581771 76.14571275 255.22197754 78.75381088 277.41218948 C81.0800185 291.49775501 87.86149704 305.59624333 97.48574448 316.13142776 C98.23597885 316.96158401 98.98621323 317.79174026 99.75918198 318.64705276 C105.42288292 324.6144853 111.33037866 329.0987794 118.48574448 333.13142776 C119.66910385 333.82365433 119.66910385 333.82365433 120.87636948 334.52986526 C138.05205496 343.91393183 158.08582286 344.90910807 176.81386948 340.31502151 C198.44920849 333.54689845 215.12179888 319.39456768 225.88418198 299.55330276 C234.70979196 281.68812861 236.40200507 261.10478748 230.87636948 241.97908401 C227.0453894 230.84351132 221.45667723 220.82993044 213.48574448 212.13142776 C212.64076401 211.18396683 212.64076401 211.18396683 211.77871323 210.21736526 C197.95834253 195.52310696 178.34608302 187.4288796 158.38808823 186.6604805 C132.83012348 186.35139536 111.62084635 196.9729742 94.83730698 216.12752151 Z " fill="#000000" transform="translate(120.51425552368164,141.86857223510742)"/>
<path d="M0 0 C0.9182959 0.00829834 1.8365918 0.01659668 2.78271484 0.02514648 C16.58997071 0.36782789 27.75459629 5.76362657 37.875 15.125 C48.26799854 26.15822433 52.60729283 39.51035393 52.625 54.4375 C51.78807541 66.41313001 47.54473642 77.39722533 39.625 86.4375 C39.09777344 87.09234375 38.57054687 87.7471875 38.02734375 88.421875 C29.87474867 97.66745536 16.83361024 103.55424042 4.625 104.4375 C3.90570313 104.50582031 3.18640625 104.57414062 2.4453125 104.64453125 C-11.10609242 105.31465567 -23.82768675 100.37036172 -34.3515625 92.09765625 C-44.24187403 83.03834886 -50.88352246 71.03580491 -52.26171875 57.5859375 C-52.8643009 40.8383095 -48.1630896 26.59354281 -36.6875 14.1875 C-26.38004443 4.47815597 -14.0083454 -0.1646363 0 0 Z M-25.95703125 22.48046875 C-34.22404549 30.22651028 -38.46691953 39.15135704 -39.375 50.4375 C-39.5090749 61.297567 -35.75091165 70.94579773 -28.69921875 79.14453125 C-20.74659799 86.99022602 -11.25409605 91.2227853 -0.078125 91.52734375 C11.9245768 90.9779243 21.09245037 86.94141691 29.625 78.4375 C36.73312702 69.85964747 40.17680623 59.91777227 39.5625 48.75 C37.96078319 36.8067638 31.75565317 27.11231246 22.625 19.4375 C7.19794232 8.96819761 -11.6831989 11.18664981 -25.95703125 22.48046875 Z " fill="#000000" transform="translate(276.375,14.5625)"/>
<path d="M0 0 C2.10827055 3.16240582 2.33817465 4.50657469 2.625 8.1875 C2.69976562 9.08855469 2.77453125 9.98960937 2.8515625 10.91796875 C2.90054688 11.60503906 2.94953125 12.29210937 3 13 C3.58007812 13.23074219 4.16015625 13.46148437 4.7578125 13.69921875 C13.74605896 17.45173749 18.99044397 22.07035131 23 31 C24.36840678 35.53553695 24.86912478 40.0061255 22.9375 44.4375 C21 46 21 46 17.5 46.4375 C14 46 14 46 12.33984375 44.74609375 C10.74172812 42.66341827 10.45446148 41.20578007 10.0625 38.625 C9.24679861 34.47907974 8.09936786 32.00820998 5 29 C0.30042874 26.10874203 -4.65489242 26.38027738 -10 27 C-13.85314485 28.78896011 -15.50837224 30.30220575 -17.9375 33.75 C-19.28006238 37.85666139 -19.489294 40.9129034 -18 45 C-13.59100046 49.9742559 -8.13010695 51.74970757 -2 54 C7.07583977 57.37237853 16.29908266 61.01311287 21.5 69.6875 C24.91309787 77.22475779 25.07064343 84.9491202 22.16796875 92.73046875 C18.34644378 100.15624134 12.68783233 105.00304841 5 108 C4.01 108 3.02 108 2 108 C2.05220703 109.13888672 2.05220703 109.13888672 2.10546875 110.30078125 C2.13253906 111.29464844 2.15960938 112.28851563 2.1875 113.3125 C2.23970703 114.79169922 2.23970703 114.79169922 2.29296875 116.30078125 C2 119 2 119 0.70703125 120.83203125 C-2.14800867 122.78547961 -4.66376235 122.35745403 -8 122 C-9.70703125 120.83203125 -9.70703125 120.83203125 -11 119 C-11.29296875 116.30078125 -11.29296875 116.30078125 -11.1875 113.3125 C-11.16042969 112.31863281 -11.13335937 111.32476562 -11.10546875 110.30078125 C-11.05326172 109.16189453 -11.05326172 109.16189453 -11 108 C-12.11568359 107.81824219 -12.11568359 107.81824219 -13.25390625 107.6328125 C-20.31115248 106.00653385 -26.1374509 101.01643163 -30 95 C-32.42422799 89.840511 -33.78496637 84.7190407 -33 79 C-31.4375 76.5 -31.4375 76.5 -29 75 C-25.375 75.0625 -25.375 75.0625 -22 76 C-20.0789822 78.8815267 -19.52961288 80.58663284 -18.75 83.875 C-17.26186903 89.07586588 -15.51403328 91.08468684 -11 94 C-6.29477445 95.56840852 -2.47351184 95.54895539 2.1875 93.8125 C5.84053709 91.45832054 8.24899157 89.34508439 9.60546875 85.109375 C10.33871207 81.30522153 10.15870327 79.35880738 8.5625 75.75 C4.46122893 71.34863592 -0.26471708 69.60780913 -5.796875 67.6328125 C-15.94627154 64.00342458 -25.69160896 60.46757374 -30.90234375 50.2265625 C-33.91770734 43.19534602 -33.95417345 36.97508613 -31.3125 29.8125 C-27.72134175 21.75733253 -22.8366555 17.68352159 -15 14 C-14.01 13.67 -13.02 13.34 -12 13 C-11.97421875 12.32453125 -11.9484375 11.6490625 -11.921875 10.953125 C-11.46509317 3.76919255 -11.46509317 3.76919255 -9.375 0.3125 C-5.91332177 -1.60053271 -3.7345784 -1.03738289 0 0 Z " fill="#000000" transform="translate(281,346)"/>
<path d="M0 0 C8.13502059 6.66047001 13.90140902 15.6398874 15.54296875 26.08203125 C16.49106404 39.54187585 14.22909887 50.44101802 5.54296875 61.08203125 C-1.62215451 68.89280298 -11.01852255 73.51555306 -21.5859375 74.3203125 C-35.04910467 74.61132521 -45.41714939 71.26812788 -55.45703125 62.08203125 C-60.48803025 56.37042178 -63.6099298 50.44088342 -65.45703125 43.08203125 C-65.68390625 42.27765625 -65.91078125 41.47328125 -66.14453125 40.64453125 C-67.67645899 28.08272381 -64.89578402 17.35208236 -57.45703125 7.08203125 C-51.35377484 -0.62734527 -42.41036612 -6.00035176 -32.69140625 -7.671875 C-20.73435533 -8.98882292 -10.02110004 -6.86871936 0 0 Z M-48.45703125 17.08203125 C-52.64956982 23.27154214 -54.05705866 29.64169132 -53.45703125 37.08203125 C-51.36089046 45.20307956 -48.31017033 51.84097837 -41.2109375 56.58203125 C-33.56451983 61.00163555 -25.78526919 62.7655048 -17.01953125 60.43359375 C-8.93254811 57.14825685 -2.71936024 51.88545948 0.8515625 43.87890625 C3.40156 37.25179412 3.73335734 30.61493453 1.44921875 23.8359375 C-2.64183137 15.12069508 -6.96921725 10.28208796 -15.89453125 6.70703125 C-29.30021702 2.33600956 -39.26706547 6.88381382 -48.45703125 17.08203125 Z " fill="#000000" transform="translate(170.45703125,239.91796875)"/>
<path d="M0 0 C8.42650214 9.31445613 11.48222148 20.12121571 11.16015625 32.48046875 C10.02967577 44.08074003 4.85461752 52.56058598 -3.62109375 60.3203125 C-12.46310761 67.42937042 -22.94759594 70.07067716 -34.18359375 69.0078125 C-45.05017949 67.15519975 -55.455917 61.95069989 -62.18359375 53.0078125 C-68.86906733 41.49730255 -71.03825245 30.73918437 -68.53515625 17.60546875 C-65.31825442 6.92370499 -58.68163333 -1.17860207 -49.18359375 -6.9921875 C-32.29674247 -14.91768546 -13.84064744 -12.91793761 0 0 Z M-48.91015625 9.609375 C-55.05332535 16.23673477 -56.86843241 23.01233671 -56.5859375 31.984375 C-55.47582954 40.32635133 -50.95896776 46.140901 -44.578125 51.37890625 C-37.91298078 55.912944 -30.83696255 57.03937532 -23 55.609375 C-15.74800235 53.67383317 -9.83987885 49.12029797 -5.765625 42.8125 C-2.09609992 35.63241844 -0.68805049 28.42595208 -2.8671875 20.53125 C-6.37419418 12.06204714 -11.30873971 6.73700648 -19.671875 2.94921875 C-30.4064486 -1.07415953 -40.68358568 1.97839325 -48.91015625 9.609375 Z " fill="#000000" transform="translate(411.18359375,64.9921875)"/>
<path d="M0 0 C4.19751985 3.94581672 6.87487912 7.99899023 9.1875 13.25 C9.50589844 13.92417969 9.82429688 14.59835938 10.15234375 15.29296875 C13.83491518 24.33817875 13.53944848 35.77045334 10.2890625 44.9140625 C5.33711309 55.41500486 -2.8525108 64.11140825 -13.8125 68.25 C-24.93635929 71.78298616 -35.86919535 70.92157193 -46.44921875 66.03125 C-55.43844826 61.07547263 -62.03065273 53.80414048 -65.8125 44.25 C-66.225 43.21875 -66.6375 42.1875 -67.0625 41.125 C-69.57794594 28.12852932 -67.61706229 16.67167872 -60.53515625 5.5703125 C-54.25330593 -2.89095528 -45.30466522 -8.03555571 -35.0625 -10.1875 C-21.76998645 -11.96439127 -10.2272371 -8.44419905 0 0 Z M-46.8125 10.25 C-53.06075982 16.95219322 -55.33173941 23.30081272 -55.12109375 32.4453125 C-54.2407948 40.44600419 -49.72665821 46.96907489 -43.8125 52.25 C-36.8736441 56.73755914 -29.83380608 58.23727721 -21.64453125 56.89453125 C-13.87693688 54.84608601 -7.5351698 49.59647286 -3.29296875 42.82421875 C-0.03822601 35.61318096 0.49288014 27.71919341 -1.8125 20.125 C-4.72305077 13.51505761 -9.7852459 7.8668203 -16.3125 4.75 C-27.66419922 0.51255063 -37.53587896 2.33348505 -46.8125 10.25 Z " fill="#000000" transform="translate(198.8125,63.75)"/>
<path d="M0 0 C3.375 0.9375 3.375 0.9375 5.375 3.9375 C5.6534729 7.06962585 5.6534729 7.06962585 5.69384766 10.97924805 C5.70389328 11.69169678 5.7139389 12.40414551 5.72428894 13.13818359 C5.75516687 15.49185381 5.77216862 17.84541005 5.7890625 20.19921875 C5.80777047 21.8316191 5.8273436 23.46400974 5.8477478 25.09638977 C5.89911433 29.39204185 5.93871577 33.6877253 5.97589111 37.98352051 C6.01590248 42.36734811 6.06700788 46.75104471 6.1171875 51.13476562 C6.2140003 59.73558766 6.29838785 68.33647443 6.375 76.9375 C6.97973145 76.29651367 7.58446289 75.65552734 8.20751953 74.99511719 C9.00786621 74.16657227 9.80821289 73.33802734 10.6328125 72.484375 C11.42316895 71.65776367 12.21352539 70.83115234 13.02783203 69.97949219 C15.375 67.9375 15.375 67.9375 19.25 67.1875 C22.375 67.9375 22.375 67.9375 24.3125 69.0625 C26.00762266 72.05389292 26.01907189 73.52391899 25.375 76.9375 C23.44557199 79.9725553 20.89207058 82.38541607 18.375 84.9375 C17.18776177 86.20736151 16.0016632 87.47828902 14.81640625 88.75 C13.5042941 90.12661273 12.19047063 91.50159623 10.875 92.875 C10.24650146 93.55038818 9.61800293 94.22577637 8.97045898 94.92163086 C5.85935638 98.1015363 3.97449391 99.76202314 -0.375 101.03515625 C-3.83467529 100.93119966 -4.74080757 100.82169243 -7.125 98.4375 C-7.77597656 97.80457031 -8.42695313 97.17164063 -9.09765625 96.51953125 C-9.93167969 95.66746094 -10.76570313 94.81539063 -11.625 93.9375 C-12.89277782 92.68962235 -14.1624822 91.44370043 -15.43359375 90.19921875 C-18.14173429 87.53226666 -20.84517611 84.86106172 -23.52734375 82.16796875 C-24.09960693 81.59457764 -24.67187012 81.02118652 -25.26147461 80.43041992 C-27.29021698 78.2091559 -27.61573134 77.04640674 -27.875 74 C-27.625 70.9375 -27.625 70.9375 -26.5625 69.0625 C-23.19620849 67.10787912 -21.47496132 67.1923462 -17.625 67.9375 C-15.27783203 69.97949219 -15.27783203 69.97949219 -12.8828125 72.484375 C-12.08246582 73.31291992 -11.28211914 74.14146484 -10.45751953 74.99511719 C-9.85278809 75.63610352 -9.24805664 76.27708984 -8.625 76.9375 C-8.62135437 76.03183289 -8.61770874 75.12616577 -8.61395264 74.1930542 C-8.57608885 65.65871665 -8.51925461 57.12476188 -8.44109726 48.59069443 C-8.40158478 44.2031886 -8.36941497 39.81588459 -8.35400391 35.42822266 C-8.3388619 31.19397976 -8.30446081 26.96029159 -8.25669098 22.72629547 C-8.24185167 21.11082022 -8.23395752 19.49526578 -8.23311615 17.8797226 C-8.23075226 15.61680435 -8.20372295 13.35542639 -8.17089844 11.09277344 C-8.16201599 9.80481873 -8.15313354 8.51686401 -8.14398193 7.18988037 C-7.625 3.9375 -7.625 3.9375 -5.81744385 1.48638916 C-3.625 -0.0625 -3.625 -0.0625 0 0 Z " fill="#000000" transform="translate(277.625,201.0625)"/>
</svg>
