<svg xmlns="http://www.w3.org/2000/svg" viewBox="0 0 64 64" fill="none" stroke="#1a1a2e" stroke-width="2" stroke-linecap="round" stroke-linejoin="round">
  <!-- Target/bullseye -->
  <circle cx="32" cy="28" r="18" stroke="#1a1a2e" stroke-width="1.5"/>
  <circle cx="32" cy="28" r="12" stroke="#1a1a2e" stroke-width="1.5"/>
  <circle cx="32" cy="28" r="6" stroke="#1a1a2e" stroke-width="1.5"/>
  <circle cx="32" cy="28" r="2" fill="#1a1a2e"/>
  <!-- Arrow hitting target -->
  <line x1="50" y1="10" x2="35" y2="25" stroke="#1a1a2e" stroke-width="2"/>
  <polyline points="43,10 50,10 50,17" stroke="#1a1a2e" stroke-width="2" fill="none"/>
  <!-- Base line -->
  <line x1="14" y1="52" x2="50" y2="52" stroke="#1a1a2e" stroke-width="2"/>
  <!-- Small gear -->
  <circle cx="18" cy="44" r="5" stroke="#1a1a2e" stroke-width="1.5"/>
  <line x1="18" y1="37" x2="18" y2="39" stroke="#1a1a2e" stroke-width="1.5"/>
  <line x1="18" y1="49" x2="18" y2="51" stroke="#1a1a2e" stroke-width="1.5"/>
  <line x1="11" y1="44" x2="13" y2="44" stroke="#1a1a2e" stroke-width="1.5"/>
  <line x1="23" y1="44" x2="25" y2="44" stroke="#1a1a2e" stroke-width="1.5"/>
  <line x1="13.2" y1="39.2" x2="14.6" y2="40.6" stroke="#1a1a2e" stroke-width="1.5"/>
  <line x1="21.4" y1="47.4" x2="22.8" y2="48.8" stroke="#1a1a2e" stroke-width="1.5"/>
  <line x1="22.8" y1="39.2" x2="21.4" y2="40.6" stroke="#1a1a2e" stroke-width="1.5"/>
  <line x1="14.6" y1="47.4" x2="13.2" y2="48.8" stroke="#1a1a2e" stroke-width="1.5"/>
  <circle cx="18" cy="44" r="2" stroke="#1a1a2e" stroke-width="1.5"/>
</svg>
