<svg xmlns="http://www.w3.org/2000/svg" viewBox="0 0 64 64" fill="none" stroke="#1a1a2e" stroke-width="2" stroke-linecap="round" stroke-linejoin="round">
  <!-- Central hexagon -->
  <polygon points="32,10 46,18 46,34 32,42 18,34 18,18" stroke="#1a1a2e" stroke-width="1.8" fill="none"/>
  <!-- Inner hexagon -->
  <polygon points="32,18 40,23 40,33 32,38 24,33 24,23" stroke="#1a1a2e" stroke-width="1.2" fill="none"/>
  <!-- Data nodes around -->
  <circle cx="32" cy="50" r="3.5" stroke="#1a1a2e" stroke-width="1.5"/>
  <line x1="32" y1="42" x2="32" y2="46.5" stroke="#1a1a2e" stroke-width="1.5"/>
  <circle cx="10" cy="40" r="3.5" stroke="#1a1a2e" stroke-width="1.5"/>
  <line x1="18" y1="34" x2="13.5" y2="37" stroke="#1a1a2e" stroke-width="1.5"/>
  <circle cx="10" cy="12" r="3.5" stroke="#1a1a2e" stroke-width="1.5"/>
  <line x1="18" y1="18" x2="13.5" y2="15" stroke="#1a1a2e" stroke-width="1.5"/>
  <circle cx="54" cy="40" r="3.5" stroke="#1a1a2e" stroke-width="1.5"/>
  <line x1="46" y1="34" x2="50.5" y2="37" stroke="#1a1a2e" stroke-width="1.5"/>
  <circle cx="54" cy="12" r="3.5" stroke="#1a1a2e" stroke-width="1.5"/>
  <line x1="46" y1="18" x2="50.5" y2="15" stroke="#1a1a2e" stroke-width="1.5"/>
  <!-- Center dot -->
  <circle cx="32" cy="28" r="3" stroke="#1a1a2e" stroke-width="1.5"/>
</svg>
