<svg xmlns="http://www.w3.org/2000/svg" viewBox="0 0 64 64" fill="none">
  <defs>
    <linearGradient id="g4" x1="0%" y1="0%" x2="100%" y2="100%">
      <stop offset="0%" stop-color="#a8e063"/>
      <stop offset="100%" stop-color="#2bc0b4"/>
    </linearGradient>
  </defs>
  <!-- Shield shape -->
  <path d="M32 6 L52 14 L52 32 C52 44 32 58 32 58 C32 58 12 44 12 32 L12 14 Z" fill="url(#g4)"/>
  <!-- Inner shield highlight -->
  <path d="M32 12 L46 18 L46 32 C46 40 32 50 32 50 C32 50 18 40 18 32 L18 18 Z" fill="white" opacity="0.2"/>
  <!-- Link/chain icon in white -->
  <path d="M26 34 C24 36 24 40 27 42 L30 45 C33 48 37 48 39 46 L41 44 C43 42 43 38 40 36" stroke="white" stroke-width="2.5" fill="none" stroke-linecap="round"/>
  <path d="M38 30 C40 28 40 24 37 22 L34 19 C31 16 27 16 25 18 L23 20 C21 22 21 26 24 28" stroke="white" stroke-width="2.5" fill="none" stroke-linecap="round"/>
  <line x1="29" y1="35" x2="35" y2="29" stroke="white" stroke-width="2.5" stroke-linecap="round"/>
</svg>
