<?xml version="1.0" encoding="UTF-8"?>
<svg version="1.1" xmlns="http://www.w3.org/2000/svg" width="512" height="512">
<path d="M0 0 C2.88003706 1.0716417 3.92734912 1.52063446 5.6875 4 C5.96792473 6.58217771 6.06681036 8.92018915 6.02807617 11.50073242 C6.02851425 12.26194901 6.02895233 13.02316559 6.02940369 13.80744934 C6.02731353 16.32371666 6.00397235 18.83931782 5.98046875 21.35546875 C5.97487359 23.09995662 5.97060311 24.84444921 5.96760559 26.58894348 C5.95615049 31.18070487 5.92667765 35.77218164 5.89349365 40.36383057 C5.86280707 45.04915517 5.84910328 49.73452575 5.83398438 54.41992188 C5.80180854 63.61340631 5.75060418 72.80667949 5.6875 82 C7.39679688 81.9685791 7.39679688 81.9685791 9.140625 81.93652344 C13.39716869 81.86373386 17.65365814 81.81805958 21.91064453 81.78027344 C23.74765293 81.76024627 25.58459829 81.73301618 27.42138672 81.69824219 C30.07275002 81.64932935 32.72326541 81.62694237 35.375 81.609375 C36.18678711 81.58872986 36.99857422 81.56808472 37.83496094 81.54681396 C44.78303023 81.54412342 49.90845799 83.57385222 55.1484375 88.1484375 C56.09589844 89.25058594 56.09589844 89.25058594 57.0625 90.375 C57.70960938 91.10460937 58.35671875 91.83421875 59.0234375 92.5859375 C62.25373637 97.27214572 62.93778696 101.83520251 62.94819641 107.4382019 C62.95528122 108.71384003 62.96236603 109.98947815 62.96966553 111.30377197 C62.96737203 112.70495641 62.96486237 114.10614051 62.9621582 115.50732422 C62.96650859 116.99274959 62.97169283 118.47817272 62.97764587 119.96359253 C62.99101267 123.98846479 62.99161708 128.01324302 62.98908257 132.03813314 C62.98801119 135.40282224 62.99290058 138.76749244 62.997688 142.13217747 C63.00877538 150.07299603 63.00922506 158.01376729 63.00317383 165.95458984 C62.9971353 174.1354952 63.0094437 182.31622852 63.0307439 190.49710453 C63.04838125 197.53084909 63.05435785 204.56453901 63.05110615 211.59830487 C63.04929639 215.79484113 63.05189865 219.99125468 63.06582069 224.18777084 C63.07842904 228.13589748 63.07642669 232.08375672 63.06340981 236.03187943 C63.06105092 237.47660158 63.06375397 238.92134273 63.07203293 240.36604309 C63.12649191 250.61222822 62.59062348 258.62826729 55.4375 266.4609375 C50.31519878 270.96581849 44.10589548 273.13490826 37.36328125 273.09765625 C36.33525391 273.09443359 35.30722656 273.09121094 34.24804688 273.08789062 C33.17619141 273.07951172 32.10433594 273.07113281 31 273.0625 C29.91654297 273.05798828 28.83308594 273.05347656 27.71679688 273.04882812 C25.04030915 273.03703743 22.36393223 273.02058063 19.6875 273 C20.0175 275.97 20.3475 278.94 20.6875 282 C22.0075 281.67 23.3275 281.34 24.6875 281 C32.58304447 280.46470885 39.31626305 281.77281066 45.5625 286.875 C48.18040415 289.32283149 50.1761446 291.71057941 51.6875 295 C51.6875 295.99 51.6875 296.98 51.6875 298 C52.6775 297.67 53.6675 297.34 54.6875 297 C62.09420084 294.93266784 68.79729803 295.68478613 75.6875 299 C80.01572076 301.91338651 83.48181438 305.19939011 85.6875 310 C85.6875 310.99 85.6875 311.98 85.6875 313 C86.656875 312.67 87.62625 312.34 88.625 312 C95.9614729 309.96700148 102.35674574 310.51812486 109.32421875 313.6171875 C116.07373879 317.56649344 119.07074356 322.90062718 121.12768555 330.25195312 C122.06594061 334.85770934 121.90790887 339.26596732 121.625 343.9375 C121.56828125 344.9797876 121.5115625 346.0220752 121.453125 347.09594727 C120.20282638 366.8987312 116.38745766 386.19858969 112.25 405.5625 C112.06308594 406.45476288 111.87617188 407.34702576 111.68359375 408.2663269 C106.30243239 433.77069159 106.30243239 433.77069159 95.6875 442 C89.3905352 445.93410372 83.71351663 447.10209947 76.30615234 447.20532227 C75.03226654 447.22526749 73.75838074 447.24521271 72.44589233 447.26576233 C71.05507587 447.28279214 69.66425752 447.29966908 68.2734375 447.31640625 C66.82068388 447.3370478 65.36793528 447.35804572 63.91519165 447.37937927 C60.85706655 447.42332792 57.79892137 447.46420504 54.74072266 447.50268555 C50.90753722 447.5509745 47.07445737 447.60479587 43.24137497 447.66060829 C35.82980891 447.76834319 28.41826926 447.85968693 21.00626755 447.93166542 C17.55947066 447.9659707 14.11308476 448.00691802 10.66662598 448.06658936 C6.97831048 448.12938482 3.29017571 448.17393631 -0.3984375 448.21484375 C-1.9998912 448.25007896 -1.9998912 448.25007896 -3.63369751 448.286026 C-12.70923516 448.35267817 -21.13406524 446.90226858 -28.3125 441 C-36.78520351 432.63685731 -39.31453587 424.86099412 -39.63671875 413.05859375 C-39.69581954 411.48887718 -39.75641581 409.91921634 -39.81835938 408.34960938 C-39.9127476 405.90356409 -39.99947553 403.45859963 -40.06030273 401.01147461 C-40.33931234 390.32117289 -41.40050558 382.24951455 -47.3125 373 C-47.88859009 372.0263147 -47.88859009 372.0263147 -48.47631836 371.03295898 C-49.55563654 369.28566856 -50.70888542 367.64549589 -51.9375 366 C-52.64169067 365.05350586 -52.64169067 365.05350586 -53.36010742 364.08789062 C-61.03053629 354.29249227 -70.28536497 345.763338 -79.15776062 337.07572937 C-102.11345431 314.58798957 -102.11345431 314.58798957 -103.34375 301.40625 C-103.27551467 296.15212976 -101.30932331 291.75440903 -98.75 287.25 C-92.30113383 281.29720045 -86.05116299 279.5359367 -77.4375 279.4375 C-76.36024658 279.41562622 -76.36024658 279.41562622 -75.26123047 279.39331055 C-63.37722093 279.61181529 -54.44470011 284.66670433 -45.4375 292 C-43.64952996 293.41804521 -41.86049674 294.8347511 -40.0703125 296.25 C-39.2983252 296.87390625 -38.52633789 297.4978125 -37.73095703 298.140625 C-35.02048998 300.22450518 -32.1572346 302.10351027 -29.3125 304 C-29.3125 293.77 -29.3125 283.54 -29.3125 273 C-34.34935059 273.02094727 -39.38620117 273.04189453 -44.57568359 273.06347656 C-61.21969423 273.12976343 -77.86371007 273.17414618 -94.50781822 273.20724869 C-104.59886795 273.22785267 -114.68979241 273.25593187 -124.78076172 273.30175781 C-133.57853488 273.34169186 -142.3762173 273.36744854 -151.17407858 273.37635398 C-155.8302615 273.38155761 -160.48618486 273.3937428 -165.14228439 273.42292023 C-169.53027925 273.45019321 -173.91790911 273.45842112 -178.30598068 273.45243073 C-179.91113269 273.45352567 -181.51629767 273.46140861 -183.12137604 273.4768219 C-193.8062666 273.57434152 -203.00132807 273.13739779 -211.25 265.6875 C-216.95762255 259.41583004 -218.42959532 252.2352811 -218.45294189 243.92329407 C-218.46150711 242.09196175 -218.46150711 242.09196175 -218.47024536 240.22363281 C-218.47149056 238.87866221 -218.47261569 237.5336915 -218.47363281 236.1887207 C-218.47826454 234.76580172 -218.48328968 233.34288397 -218.48867798 231.91996765 C-218.50177131 228.06021171 -218.50824114 224.20047315 -218.51268864 220.34069848 C-218.51562481 217.92593864 -218.51973068 215.51118348 -218.52419281 213.09642601 C-218.53786074 205.53161782 -218.54753039 197.96682041 -218.5513947 190.40200073 C-218.55587143 181.68759443 -218.57340433 172.9733453 -218.6023953 164.25898677 C-218.62405896 157.5114362 -218.6341015 150.76392969 -218.63543582 144.01634473 C-218.63648066 139.99186126 -218.64231948 135.96752566 -218.66025543 131.94307899 C-218.67681702 128.15338145 -218.67885276 124.36394165 -218.67011642 120.57422066 C-218.66935031 119.18999793 -218.67363213 117.80576087 -218.68357468 116.42157364 C-218.75708402 105.54208505 -218.16922523 95.8199104 -210.32421875 87.6953125 C-203.90506416 82.28577251 -197.49721956 81.3848645 -189.3125 82 C-189.21775391 80.83984375 -189.21775391 80.83984375 -189.12109375 79.65625 C-188.20819062 71.8917686 -186.39357945 67.05741077 -180.3125 62 C-175.86350276 58.77738311 -171.55262609 58.06754132 -166.25390625 57.203125 C-164.41975619 56.88478245 -162.58560918 56.56642236 -160.75146484 56.24804688 C-159.79246277 56.08554443 -158.83346069 55.92304199 -157.84539795 55.75561523 C-152.83318666 54.90244659 -147.82850178 54.00772777 -142.82421875 53.109375 C-141.33217926 52.84157227 -141.33217926 52.84157227 -139.80999756 52.56835938 C-93.69614138 44.21157515 -48.44551826 29.55482971 -9.14233398 3.56494141 C-8.43794189 3.10651855 -7.7335498 2.6480957 -7.0078125 2.17578125 C-6.06252686 1.54990112 -6.06252686 1.54990112 -5.09814453 0.91137695 C-3.3125 0 -3.3125 0 0 0 Z M-14.4453125 24.1875 C-15.65380859 24.86425781 -15.65380859 24.86425781 -16.88671875 25.5546875 C-17.72847656 26.03164063 -18.57023438 26.50859375 -19.4375 27 C-20.28699219 27.47695313 -21.13648438 27.95390625 -22.01171875 28.4453125 C-24.11413538 29.62644544 -26.21425404 30.81147864 -28.3125 32 C-28.75365758 45.49897976 -29.09076383 58.99623428 -29.29693127 72.50096607 C-29.39591447 78.773017 -29.5299984 85.04012265 -29.74584961 91.30932617 C-29.95305921 97.36578579 -30.06603472 103.41750832 -30.11516762 109.47723961 C-30.15015014 111.78271823 -30.21848334 114.08795016 -30.32137108 116.39139748 C-30.91408455 126.93129164 -30.91408455 126.93129164 -28.3125 137 C-23.24793426 142.45840281 -16.27107962 145.60885115 -9.3125 148 C-8.9825 148 -8.6525 148 -8.3125 148 C-8.3125 106.42 -8.3125 64.84 -8.3125 22 C-10.91141154 22 -12.18275633 22.91282047 -14.4453125 24.1875 Z M-47.859375 40.87109375 C-78.17105155 53.46691734 -109.65369575 62.3673821 -142 67.87890625 C-142.89288727 68.03224426 -143.78577454 68.18558228 -144.70571899 68.34356689 C-149.07317605 69.08900892 -153.44254686 69.80614433 -157.82177734 70.47900391 C-159.40990733 70.7394422 -160.99796457 71.00032459 -162.5859375 71.26171875 C-163.31039062 71.36360001 -164.03484375 71.46548126 -164.78125 71.57044983 C-168.35679684 72.17842031 -170.14189999 72.83287155 -172.76000977 75.39770508 C-174.76159035 78.75276836 -174.87919163 81.11016925 -174.875 85 C-174.89691406 86.19625 -174.91882813 87.3925 -174.94140625 88.625 C-174.12462465 93.0082255 -172.76124518 94.21515247 -169.3125 97 C-166.51719725 97.79515018 -164.1091052 98.3024117 -161.26171875 98.66796875 C-159.61732446 98.91804326 -157.97295719 99.16829559 -156.32861328 99.41870117 C-155.46173889 99.54296478 -154.5948645 99.66722839 -153.70172119 99.79525757 C-117.42171208 105.06247724 -79.20704099 113.4443464 -45.92944336 129.32275391 C-44.29722006 130.12877516 -44.29722006 130.12877516 -42.3125 130 C-42.3125 99.97 -42.3125 69.94 -42.3125 39 C-44.24941532 39 -46.10793822 40.1324429 -47.859375 40.87109375 Z M-201.3125 100 C-203.4770972 103.32974831 -203.56964229 106.09776068 -203.58665466 110.02133179 C-203.59662979 111.25504013 -203.60660492 112.48874847 -203.61688232 113.75984192 C-203.61777808 115.12423693 -203.61844167 116.48863211 -203.61889648 117.85302734 C-203.62651928 119.29214406 -203.63494699 120.73125671 -203.64411926 122.17036438 C-203.66605848 126.07743844 -203.67486229 129.98443424 -203.67994571 133.89156294 C-203.68358976 136.33326234 -203.68983005 138.77494125 -203.6969471 141.21663284 C-203.72143893 149.73687897 -203.73449305 158.25706423 -203.73803711 166.77734375 C-203.7416729 174.71636438 -203.77157178 182.65499854 -203.81344169 190.59390104 C-203.84814209 197.41271615 -203.8635855 204.23140315 -203.86428314 211.05030596 C-203.86507601 215.12172569 -203.87381858 219.19275164 -203.90228081 223.26408005 C-203.9284578 227.09411569 -203.93066941 230.92343097 -203.91462517 234.75351524 C-203.91281038 236.15716434 -203.9195044 237.56085483 -203.93544388 238.9644146 C-204.30604888 247.41661337 -204.30604888 247.41661337 -200.90003967 254.81948853 C-196.92084681 258.17274173 -194.8959931 258.12412556 -189.73202515 258.12025452 C-189.04836305 258.12110894 -188.36470096 258.12196337 -187.66032183 258.12284368 C-185.35864533 258.12449701 -183.05704094 258.11897952 -180.75537109 258.11352539 C-179.10977683 258.11324346 -177.46418244 258.11340137 -175.81858826 258.1139679 C-171.3415658 258.11425565 -166.86456995 258.10836253 -162.38755369 258.10139394 C-157.71236015 258.09515668 -153.03716605 258.0945563 -148.36196899 258.09336853 C-139.50449627 258.09025632 -130.64703584 258.0820444 -121.78956854 258.07201904 C-111.70749075 258.0608545 -101.62541238 258.05534659 -91.54332995 258.05032361 C-70.7997131 258.03986171 -50.05610732 258.02226438 -29.3125 258 C-29.29848145 256.12465576 -29.29848145 256.12465576 -29.28417969 254.21142578 C-29.2440377 249.53317808 -29.17821323 244.85557136 -29.10498047 240.17773438 C-29.07691047 238.1605661 -29.05562708 236.14329069 -29.04150391 234.12597656 C-29.01987972 231.21103614 -28.97313182 228.29736509 -28.921875 225.3828125 C-28.92064636 224.49385284 -28.91941772 223.60489319 -28.91815186 222.68899536 C-28.73739256 214.80417883 -26.95593176 207.19644235 -21.125 201.5625 C-15.31166499 197.16826604 -8.56031876 195.22344799 -1.3125 196 C4.75719638 197.37608231 9.31303441 199.42207089 13.6875 204 C16.91811004 209.19796872 18.76338043 214.17032905 18.89282227 220.30957031 C18.91276749 221.15013977 18.93271271 221.99070923 18.95326233 222.85675049 C18.97833107 224.20383087 18.97833107 224.20383087 19.00390625 225.578125 C19.0350779 226.96798615 19.0350779 226.96798615 19.06687927 228.38592529 C19.13216961 231.34054272 19.19116431 234.29524768 19.25 237.25 C19.29320473 239.25521732 19.33681965 241.26042585 19.38085938 243.265625 C19.48782999 248.17699404 19.58915518 253.08845097 19.6875 258 C23.2497231 258.11654436 26.81145342 258.1873639 30.375 258.25 C31.88610352 258.30027344 31.88610352 258.30027344 33.42773438 258.3515625 C39.33278087 258.43210701 39.33278087 258.43210701 44.76953125 256.359375 C48.31171863 252.00197952 48.93729083 247.42007018 48.94819641 241.92797852 C48.95528122 240.73359161 48.96236603 239.53920471 48.96966553 238.30862427 C48.96718811 237.01181732 48.96471069 235.71501038 48.9621582 234.37890625 C48.96650905 232.98875658 48.97169344 231.59860931 48.97764587 230.20846558 C48.99100536 226.4440481 48.99161808 222.6797312 48.98908257 218.91529465 C48.98801104 215.76912539 48.99290077 212.62297633 48.997688 209.47681141 C49.00877209 202.05386143 49.00922642 194.63096206 49.00317383 187.20800781 C48.99713074 179.5564688 49.009456 171.90511352 49.0307439 164.25360584 C49.04836733 157.67678819 49.05436019 151.10002899 49.05110615 144.52318859 C49.04929473 140.5983448 49.0519156 136.67363217 49.06582069 132.74880981 C49.07840698 129.05840656 49.07644758 125.36828969 49.06340981 121.67789078 C49.05992158 119.68237815 49.07121538 117.68685674 49.08297729 115.69137573 C49.07596298 114.49698883 49.06894867 113.30260193 49.0617218 112.07202148 C49.06188954 111.03818832 49.06205729 110.00435516 49.06223011 108.93919373 C48.46026164 104.21765709 46.4636516 99.98945335 42.6875 97 C39.05516898 95.78922299 35.73628013 95.87555836 31.95703125 95.90234375 C30.83140022 95.90446617 30.83140022 95.90446617 29.68302917 95.90663147 C27.2886454 95.9122244 24.89435547 95.92477556 22.5 95.9375 C20.87565239 95.94251592 19.25130332 95.94707866 17.62695312 95.95117188 C13.64709931 95.96219152 9.66731556 95.97945127 5.6875 96 C5.68163376 96.85777542 5.67576752 97.71555084 5.66972351 98.59931946 C5.6118522 106.67773303 5.53980779 114.75586848 5.45178509 122.83401203 C5.40703155 126.98722207 5.36778668 131.14033288 5.34106445 135.29370117 C5.3150808 139.30094276 5.27471416 143.30780352 5.22431374 147.3148098 C5.20761143 148.84458878 5.19611812 150.37443369 5.18988609 151.90429115 C5.18028108 154.04508133 5.15226779 156.18488987 5.11987305 158.32543945 C5.10321846 160.15411308 5.10321846 160.15411308 5.08622742 162.01972961 C4.6875 165 4.6875 165 3.34797668 166.87419128 C1.20086893 168.32993748 -0.63203566 168.72243143 -3.21484375 168.58984375 C-6.96362186 167.53571806 -9.68373822 164.89803138 -12.7265625 162.54296875 C-34.85790287 146.20731371 -77.48363295 124 -105.3125 124 C-105.51407715 125.1645874 -105.7156543 126.3291748 -105.92333984 127.52905273 C-106.67787015 131.88489509 -107.43520863 136.24024544 -108.19335938 140.59545898 C-108.51996203 142.47390837 -108.84582164 144.35248712 -109.17089844 146.23120117 C-109.64058222 148.94484968 -110.11301196 151.65800856 -110.5859375 154.37109375 C-110.72873138 155.19959335 -110.87152527 156.02809296 -111.01864624 156.88169861 C-111.43432997 159.25757888 -111.87279557 161.62846573 -112.3125 164 C-112.44843567 164.82339874 -112.58437134 165.64679749 -112.72442627 166.49514771 C-113.80953822 172.38114123 -113.80953822 172.38114123 -115.96850586 175.03759766 C-119.24393318 176.38242991 -122.33203984 176.42902459 -125.81640625 176.3984375 C-126.89594826 176.40274277 -126.89594826 176.40274277 -127.99729919 176.40713501 C-129.51440216 176.40917146 -131.03153163 176.40367086 -132.54858398 176.39111328 C-134.87087573 176.37502857 -137.19143349 176.39098654 -139.51367188 176.41015625 C-140.98958717 176.4081742 -142.46550139 176.40433132 -143.94140625 176.3984375 C-144.63520889 176.40451019 -145.32901154 176.41058289 -146.0438385 176.4168396 C-150.80915124 176.34724919 -150.80915124 176.34724919 -152.99212646 174.84126282 C-154.85641682 172.2415072 -154.71150651 170.33477924 -154.74487305 167.15161133 C-154.76466721 165.9505928 -154.78446136 164.74957428 -154.80485535 163.51216125 C-154.81124527 162.21521835 -154.81763519 160.91827545 -154.82421875 159.58203125 C-154.84106459 158.24108734 -154.85921471 156.90015924 -154.87861633 155.55924988 C-154.92613358 152.03297869 -154.95593133 148.50677156 -154.98205566 144.98028564 C-155.0118528 141.3806086 -155.05838594 137.78115232 -155.10351562 134.18164062 C-155.18956793 127.12122007 -155.25690444 120.06073136 -155.3125 113 C-156.5190625 112.82984375 -157.725625 112.6596875 -158.96875 112.484375 C-160.58344089 112.24029382 -162.19801843 111.99546193 -163.8125 111.75 C-164.60398438 111.64042969 -165.39546875 111.53085938 -166.2109375 111.41796875 C-172.48329476 110.44112623 -178.52862021 108.74841636 -183.15234375 104.18359375 C-183.51457031 103.60738281 -183.87679687 103.03117187 -184.25 102.4375 C-184.63027344 101.85871094 -185.01054687 101.27992188 -185.40234375 100.68359375 C-186.3125 99 -186.3125 99 -187.3125 96 C-193.37011794 95.58223325 -196.50275097 95.87735797 -201.3125 100 Z M-141.3125 116 C-141.3125 131.18 -141.3125 146.36 -141.3125 162 C-136.3625 162 -131.4125 162 -126.3125 162 C-125.31101596 156.66230317 -124.31423134 151.3237582 -123.32177734 145.984375 C-122.98354813 144.16837924 -122.64403959 142.35262126 -122.30322266 140.53710938 C-121.81335715 137.92639756 -121.32810985 135.31486313 -120.84375 132.703125 C-120.69063354 131.89256653 -120.53751709 131.08200806 -120.37976074 130.24688721 C-119.73566946 126.75178023 -119.3125 123.56671489 -119.3125 120 C-122.41561638 119.32838005 -125.52015168 118.66356325 -128.625 118 C-129.50607422 117.80921875 -130.38714844 117.6184375 -131.29492188 117.421875 C-132.14248047 117.24140625 -132.99003906 117.0609375 -133.86328125 116.875 C-135.03370972 116.62363281 -135.03370972 116.62363281 -136.2277832 116.3671875 C-138.45211908 115.91326853 -138.45211908 115.91326853 -141.3125 116 Z M-13.3125 214 C-14.8059147 216.9868294 -14.5327318 220.07125472 -14.59375 223.3515625 C-14.61170624 224.12998505 -14.62966248 224.90840759 -14.64816284 225.7104187 C-14.68687525 227.43262882 -14.72319896 229.15489379 -14.75750732 230.87719727 C-14.81319653 233.65980324 -14.87611706 236.44217904 -14.93994141 239.22460938 C-15.19418753 250.74591704 -15.35673726 262.26678937 -15.46985626 273.79017258 C-15.51435124 278.17768639 -15.56610259 282.56512332 -15.61738968 286.95256233 C-15.66711604 291.31092704 -15.70284383 295.6691458 -15.72903252 300.02771187 C-15.74382348 302.1101347 -15.76534188 304.19235895 -15.78982544 306.27468872 C-15.81993473 308.8499991 -15.83904351 311.42546819 -15.84567261 314.00094604 C-15.86227936 315.14467682 -15.87888611 316.28840759 -15.89599609 317.46679688 C-15.90408295 318.46739136 -15.9121698 319.46798584 -15.92050171 320.49890137 C-16.3125 323 -16.3125 323 -17.66690063 324.8145752 C-20.35100153 326.7480955 -22.08161781 326.49646209 -25.3125 326 C-27.87195064 324.42311559 -30.05447556 322.87419 -32.375 321 C-33.05328857 320.47470703 -33.73157715 319.94941406 -34.43041992 319.40820312 C-37.61563345 316.93854737 -40.76992722 314.43033031 -43.92773438 311.92578125 C-45.7467691 310.48784019 -47.57032353 309.05559952 -49.39819336 307.62890625 C-51.172436 306.24369756 -52.93690095 304.84584201 -54.68969727 303.43359375 C-62.23260209 297.54616305 -70.54403358 293.13786298 -80.3671875 293.68359375 C-83.35024782 294.16879031 -85.10343691 294.92900335 -87.3125 297 C-88.77017252 300.77279947 -88.51367991 302.50184023 -87 306.25 C-84.30746672 310.48513047 -80.6585434 313.83421304 -77.04296875 317.27734375 C-74.94042412 319.37387251 -73.02221366 321.46819154 -71.09765625 323.71875 C-67.64389784 327.71357695 -63.93100598 331.3764962 -60.14331055 335.05273438 C-51.18476475 343.76466804 -43.06131642 352.46780262 -36.3125 363 C-35.61769531 364.08023438 -34.92289063 365.16046875 -34.20703125 366.2734375 C-28.90568168 374.95234794 -25.93176226 382.78921415 -25.72265625 392.98046875 C-25.65975161 394.65560823 -25.59659313 396.33073819 -25.53320312 398.00585938 C-25.45074383 400.60591164 -25.37449831 403.20599359 -25.30395508 405.80639648 C-25.23025469 408.34440874 -25.1337505 410.8808195 -25.03515625 413.41796875 C-25.021465 414.18997116 -25.00777374 414.96197357 -24.9936676 415.75737 C-24.78186471 420.910649 -23.65872689 423.88112204 -20.3125 428 C-15.2506487 432.45924995 -12.26986017 433.1472361 -5.67260742 433.12939453 C-4.48917252 433.13202301 -4.48917252 433.13202301 -3.28182983 433.13470459 C-0.66052071 433.13912209 1.96072137 433.13618238 4.58203125 433.1328125 C6.40891025 433.13348631 8.23578916 433.13445698 10.06266785 433.13571167 C13.90368498 433.1371891 17.74467892 433.13503536 21.58569336 433.13037109 C26.47643068 433.124718 31.36711258 433.12792418 36.25784779 433.13394356 C40.03885807 433.13758593 43.81985561 433.13639308 47.60086632 433.13381577 C49.40153701 433.13315431 51.20220891 433.13394722 53.00287819 433.13629532 C72.08797425 434.49548469 72.08797425 434.49548469 88.6875 428 C91.85179118 424.47991984 93.34652323 421.71383878 94.43359375 417.1171875 C94.84992065 415.38625854 94.84992065 415.38625854 95.2746582 413.62036133 C95.69557739 411.76640747 95.69557739 411.76640747 96.125 409.875 C96.4243042 408.59197998 96.7236084 407.30895996 97.03198242 405.98706055 C107.97611849 368.07804372 107.97611849 368.07804372 105.35546875 330.17578125 C103.7020819 327.77654533 103.7020819 327.77654533 100.6875 326 C96.33793356 325.42552896 94.21908626 325.69910212 90.375 327.875 C86.58014959 331.36626237 86.24040663 336.09057041 85.6875 341 C78.42651809 342.45219638 78.42651809 342.45219638 75.453125 340.6328125 C72.37859529 336.04822616 73.17577758 330.80943332 73.19921875 325.44140625 C73.10430128 319.65144064 72.51196806 316.43809539 68.6875 312 C65.58701072 310.44975536 63.10855782 310.71007985 59.6875 311 C55.17206865 313.20521066 54.0386273 316.23028528 52.375 320.75 C51.79714355 322.49498945 51.22957219 324.24356498 50.6875 326 C44.41034524 327.44857417 44.41034524 327.44857417 41.484375 325.6328125 C38.36426699 321.06117598 39.17572939 315.82046994 39.19921875 310.44140625 C39.10430128 304.65144064 38.51196806 301.43809539 34.6875 297 C31.58701072 295.44975536 29.10855782 295.71007985 25.6875 296 C22.43980762 297.62384619 21.0415156 298.96953205 19.85546875 302.421875 C19.37795856 304.18891804 18.94357153 305.96832956 18.55859375 307.7578125 C17.6875 310 17.6875 310 15.79296875 311.31640625 C12.78002166 312.29463582 10.70352808 311.85235576 7.6875 311 C5.08545885 307.09693827 5.40994797 303.82015634 5.43212891 299.29345703 C5.42850845 298.40372192 5.424888 297.51398682 5.42115784 296.59729004 C5.41426115 294.66407421 5.41175891 292.7308389 5.41310501 290.79761124 C5.4140688 287.73781373 5.40114544 284.67836892 5.38412476 281.61862183 C5.33780722 272.91879007 5.3132437 264.21899373 5.30664062 255.51904297 C5.30162844 250.19863646 5.27739238 244.8785974 5.24131393 239.55831528 C5.23150824 237.53055908 5.22918817 235.50275238 5.23448563 233.4749794 C5.24154895 230.6380304 5.22428878 227.80217745 5.20166016 224.96533203 C5.20983261 224.1277536 5.21800507 223.29017517 5.22642517 222.42721558 C5.16957764 218.42176317 4.98307302 216.46461242 2.78036499 213.00216675 C0.0634648 210.40300854 -0.82992198 210.04552623 -4.625 209.6875 C-8.88786111 210.04875942 -10.33242054 211.01992054 -13.3125 214 Z " fill="#000000" transform="translate(265.3125,32)"/>
<path d="M0 0 C12.8468478 9.37695965 22.13313826 24.54589987 24.71484375 40.26171875 C26.60838339 58.44488709 23.12861598 75.70356666 11.48828125 90.2265625 C0.3034835 103.43224524 -14.75803594 111.34256153 -32 113 C-47.91724009 114.28624162 -63.33574597 109.27940581 -76.0234375 99.72265625 C-78.47022904 97.57344746 -80.75256574 95.3552766 -83 93 C-83.55816406 92.46117187 -84.11632812 91.92234375 -84.69140625 91.3671875 C-95.89212532 79.72779797 -99.51858745 63.49030734 -99.41992188 47.91210938 C-98.93609446 30.50672814 -91.62865141 15.96292378 -79 4 C-56.29655347 -15.16655946 -24.53332184 -16.98460743 0 0 Z M-73.25390625 18.8359375 C-81.65137858 29.24354302 -86.13056201 41.57714558 -85 55 C-82.62105236 68.88031657 -76.76798997 79.84433744 -65.76953125 88.8203125 C-54.46018545 96.78689592 -42.58671022 99.17234087 -29 98 C-16.46803506 95.56118853 -5.35741532 88.41629697 2 78 C9.31514612 65.50397089 12.15182981 52.82028056 9.3125 38.54296875 C7.27677146 31.93533321 4.17447733 26.47831671 0 21 C-0.7425 19.96875 -1.485 18.9375 -2.25 17.875 C-10.60820924 9.13687216 -21.57957627 3.71097538 -33.69140625 2.796875 C-49.07962229 2.54563882 -62.61309526 7.37660259 -73.25390625 18.8359375 Z " fill="#000000" transform="translate(446,204)"/>
<path d="M0 0 C0.85207031 0.33902344 1.70414062 0.67804687 2.58203125 1.02734375 C17.32525038 7.55150844 27.4812086 19.63588093 33.9375 34.125 C40.27213115 50.81347655 39.31254505 68.13728902 32.5625 84.48046875 C24.21919773 101.26735337 10.61666759 111.91380985 -7 118 C-22.47192688 122.66343793 -38.75881053 119.96421066 -53.25 113.4375 C-67.01219811 106.02276469 -77.45033441 93.47385312 -83 79 C-83.32097656 78.2059375 -83.64195312 77.411875 -83.97265625 76.59375 C-89.02731737 61.73539732 -87.13644102 43.79184887 -80.4921875 29.83203125 C-71.71368351 13.72449719 -58.41484856 3.03629654 -41.125 -2.875 C-27.87089229 -6.09220347 -12.51691497 -5.41030704 0 0 Z M-61 27 C-68.94381939 37.36280199 -73.07496551 48.88542079 -72 62 C-69.58651655 77.33607199 -62.66289824 88.4290872 -50.25 97.875 C-39.00957034 105.18992576 -25.69012929 107.02209029 -12.66796875 104.3046875 C1.61541036 99.94083098 11.34630719 92.02343523 18.48828125 79.0234375 C24.12495311 67.75009378 25.07385428 54.60252739 21.375 42.5 C19.30525471 37.14948823 16.48480746 32.53896172 13 28 C12.07380859 26.7625 12.07380859 26.7625 11.12890625 25.5 C3.68266773 16.7557933 -6.80977993 11.84776782 -18 10 C-34.89686363 8.74120787 -49.50712399 14.54295654 -61 27 Z " fill="#000000" transform="translate(433,50)"/>
<path d="M0 0 C0.83015625 0.63550781 1.6603125 1.27101563 2.515625 1.92578125 C3.79179687 2.89451172 3.79179687 2.89451172 5.09375 3.8828125 C15.51932632 12.50150212 22.24084511 23.84615442 25.515625 36.92578125 C25.70640625 37.66441406 25.8971875 38.40304687 26.09375 39.1640625 C28.93379215 57.7558199 24.8407441 74.07926126 14.703125 89.72265625 C4.452674 103.47534467 -10.71095696 111.45070254 -27.484375 113.92578125 C-45.0258691 115.48756465 -61.73495425 110.96115991 -75.3984375 99.71875 C-76.08679688 99.12707031 -76.77515625 98.53539062 -77.484375 97.92578125 C-78.09023437 97.42691406 -78.69609375 96.92804688 -79.3203125 96.4140625 C-90.28028705 86.56992246 -96.75799561 70.21259942 -97.6875 55.76953125 C-97.91914451 39.24555596 -94.14801232 24.16160037 -83.046875 11.48828125 C-81.54499461 9.94872828 -80.02534914 8.42620344 -78.484375 6.92578125 C-77.59878906 5.99185547 -77.59878906 5.99185547 -76.6953125 5.0390625 C-72.49914202 0.92607601 -67.73752464 -1.73528042 -62.546875 -4.38671875 C-61.56255493 -4.89356201 -61.56255493 -4.89356201 -60.55834961 -5.41064453 C-41.62031534 -14.65156304 -17.08376925 -11.94329377 0 0 Z M-71.2578125 20.28515625 C-80.92005407 31.74423573 -83.45790847 43.35152128 -82.65283203 57.984375 C-81.58469161 70.29430636 -74.27820199 80.69296395 -65.484375 88.92578125 C-62.30649075 91.32331267 -59.06047737 93.18664332 -55.484375 94.92578125 C-54.67742187 95.33828125 -53.87046875 95.75078125 -53.0390625 96.17578125 C-42.9167692 100.63330491 -30.41641428 100.49477147 -19.921875 97.30078125 C-14.5881692 95.21303749 -10.0269746 92.38724214 -5.484375 88.92578125 C-4.453125 88.18328125 -3.421875 87.44078125 -2.359375 86.67578125 C6.37875284 78.31757201 11.80464962 67.34620498 12.71875 55.234375 C12.95597418 40.70439387 8.77711479 28.27733718 -1.296875 17.55078125 C-11.4642817 8.10961788 -23.91016633 3.50787707 -37.71484375 3.71484375 C-51.20720195 4.74247047 -62.05801764 10.53045313 -71.2578125 20.28515625 Z " fill="#000000" transform="translate(138.484375,338.07421875)"/>
<path d="M0 0 C2.50963523 2.50963523 3 3.40643594 3 7 C4.7325 7.12375 4.7325 7.12375 6.5 7.25 C11.13431315 7.82722762 15.13311785 9.36761543 19 12 C21 15 21 15 20.875 18.5 C20 22 20 22 18.375 24 C14.18822044 25.76285455 10.41145014 24.55801517 6.3125 22.9375 C0.82772241 21.38520446 -6.02829336 20.72501035 -11.3671875 23.015625 C-11.90601563 23.34046875 -12.44484375 23.6653125 -13 24 C-12.67 24.99 -12.34 25.98 -12 27 C-11.43603516 27.09498779 -10.87207031 27.18997559 -10.29101562 27.2878418 C-7.69054838 27.73642772 -5.09563047 28.21175593 -2.5 28.6875 C-1.613125 28.83638672 -0.72625 28.98527344 0.1875 29.13867188 C7.60892218 30.53018853 13.25433282 33.04312765 18.4375 38.625 C21.24749845 42.89619765 21.50311736 47.01629033 21 52 C18.83931175 58.35496544 14.14497896 62.42751052 8.25 65.375 C6 66 6 66 3 66 C2.896875 66.763125 2.79375 67.52625 2.6875 68.3125 C1.9318384 71.26644989 1.53785617 72.33726664 -1 74 C-4.35958291 74.42888292 -6.3347031 74.33264845 -9.375 72.8125 C-11 71 -11 71 -11.25 68.3125 C-11.1675 67.549375 -11.085 66.78625 -11 66 C-11.556875 65.97421875 -12.11375 65.9484375 -12.6875 65.921875 C-18.49594537 65.49016622 -24.69876122 64.30123878 -29 60 C-29.45714286 52.91428571 -29.45714286 52.91428571 -28 50 C-24.77919465 48.38959732 -21.48764565 48.52968701 -18 49 C-17.06027344 49.33128906 -16.12054688 49.66257812 -15.15234375 50.00390625 C-11.72986538 51.08535852 -8.95524145 51.26676928 -5.375 51.25 C-3.71597656 51.25773437 -3.71597656 51.25773437 -2.0234375 51.265625 C0.88066911 51.01048385 2.54484843 50.50901999 5 49 C5 48.34 5 47.68 5 47 C1.05010002 45.19985726 -2.50968669 44.58991257 -6.8125 44.125 C-15.83179972 42.89038321 -21.1475747 40.72863975 -26.87109375 33.5859375 C-29.8500868 29.40091612 -29.54364357 24.96936169 -29 20 C-26.44879217 14.79946097 -22.44482318 10.20009183 -16.8359375 8.24609375 C-14.90737476 7.75884203 -12.9543256 7.37064796 -11 7 C-10.9175 6.05125 -10.835 5.1025 -10.75 4.125 C-10 1 -10 1 -8.3125 -0.4375 C-5.16687556 -1.20265189 -3.09743641 -0.92264063 0 0 Z " fill="#000000" transform="translate(413,218)"/>
<path d="M0 0 C2.50963523 2.50963523 3 3.40643594 3 7 C4.7325 7.12375 4.7325 7.12375 6.5 7.25 C11.13431315 7.82722762 15.13311785 9.36761543 19 12 C21 15 21 15 20.875 18.5 C20 22 20 22 18.375 24 C14.02891011 25.82993259 10.07488159 24.3514036 5.75 22.9375 C-0.49102472 21.37724382 -7.28314452 20.62611808 -13 24 C-12.67 24.99 -12.34 25.98 -12 27 C-10.54166667 27.29166667 -9.08333333 27.58333333 -7.625 27.875 C-6.71234375 28.06191406 -5.7996875 28.24882813 -4.859375 28.44140625 C-3.04286824 28.79627027 -1.21985222 29.12029225 0.609375 29.40234375 C7.99216692 30.60605982 13.31161956 33.10482107 18.4375 38.625 C21.24749845 42.89619765 21.50311736 47.01629033 21 52 C18.83931175 58.35496544 14.14497896 62.42751052 8.25 65.375 C6 66 6 66 3 66 C2.896875 66.763125 2.79375 67.52625 2.6875 68.3125 C1.9318384 71.26644989 1.53785617 72.33726664 -1 74 C-4.35958291 74.42888292 -6.3347031 74.33264845 -9.375 72.8125 C-11 71 -11 71 -11.25 68.3125 C-11.1675 67.549375 -11.085 66.78625 -11 66 C-11.556875 65.97421875 -12.11375 65.9484375 -12.6875 65.921875 C-18.49594537 65.49016622 -24.69876122 64.30123878 -29 60 C-29.45714286 52.91428571 -29.45714286 52.91428571 -28 50 C-22.77812391 47.38906195 -17.41409851 49.10021484 -12.125 50.625 C-6.22291956 52.23943676 -1.79643825 51.782533 4 50 C4.33 49.01 4.66 48.02 5 47 C1.05010002 45.19985726 -2.50968669 44.58991257 -6.8125 44.125 C-16.1904361 42.85109018 -21.78662682 40.12264731 -28 33 C-29.7097368 27.8707896 -29.64617595 22.93852784 -27.9375 17.8125 C-24.43024683 12.72132604 -20.65511487 9.15895623 -14.5625 7.625 C-13.386875 7.41875 -12.21125 7.2125 -11 7 C-10.9175 6.05125 -10.835 5.1025 -10.75 4.125 C-10 1 -10 1 -8.3125 -0.4375 C-5.16687556 -1.20265189 -3.09743641 -0.92264063 0 0 Z " fill="#000000" transform="translate(413,71)"/>
<path d="M0 0 C2.72931695 2.04698771 3.27625863 3.74986515 4 7 C4.97839844 7.14695312 4.97839844 7.14695312 5.9765625 7.296875 C12.02841263 8.33229479 16.55198665 9.55198665 21 14 C21.36395977 17.85797355 21.56007535 20.15988698 19.375 23.4375 C16.191927 25.53162698 14.79123019 25.49145576 11 25 C9.38975273 24.51994332 7.78596099 24.01795093 6.1875 23.5 C-0.40331978 21.40562805 -6.67248499 20.7341858 -13 24 C-12.67 24.99 -12.34 25.98 -12 27 C-8.35345569 28.16964629 -4.8750912 28.88285258 -1.08203125 29.390625 C7.17413982 30.52074728 12.76976814 32.43846231 18.4375 38.6875 C21.75846413 43.60252691 21.57687523 48.18180124 21 54 C18.64506602 59.08665741 14.90085336 62.38621154 10 65 C6.5625 65.8125 6.5625 65.8125 4 66 C3.71125 66.94875 3.4225 67.8975 3.125 68.875 C2 72 2 72 0 74 C-3.98144156 74.4423824 -6.13116678 74.66305693 -9.375 72.1875 C-11 70 -11 70 -12 67 C-15.22028721 65.81877889 -18.48116973 65.01886875 -21.80078125 64.16015625 C-25.20092819 62.92713593 -26.78543552 61.82584862 -29 59 C-29.60605429 55.36367425 -29.47161336 53.71685231 -27.4375 50.625 C-23.98498516 48.32332344 -22.13031144 48.54107651 -18 49 C-16.20250843 49.50036074 -14.41111031 50.02291982 -12.625 50.5625 C-5.85203162 52.53756093 -0.24237618 52.39350651 6 49 C4.02393915 46.18040329 2.71544831 45.9383223 -0.73046875 45.19140625 C-2.21510536 44.97452485 -3.70086492 44.76523019 -5.1875 44.5625 C-14.11135268 43.14456051 -21.06021156 41.39772869 -26.8671875 33.98828125 C-28.89488583 30.42932108 -29.30871751 27.04922496 -29 23 C-27.42499175 17.74997251 -25.26559032 14.4310183 -21 11 C-19.47214125 10.32214718 -17.92900684 9.67804816 -16.375 9.0625 C-12.84968972 7.63489501 -12.18712527 7.32262977 -10.1875 3.875 C-9.795625 2.92625 -9.40375 1.9775 -9 1 C-5.87920959 -1.39260598 -3.66563335 -1.22187778 0 0 Z " fill="#000000" transform="translate(107,353)"/>
<path d="M0 0 C0.94065811 -0.01134979 1.88131622 -0.02269958 2.85047913 -0.03439331 C4.38804871 -0.02999741 4.38804871 -0.02999741 5.9566803 -0.0255127 C7.04163284 -0.03398224 8.12658539 -0.04245178 9.24441528 -0.05117798 C12.83490178 -0.07459881 16.42496104 -0.07556891 20.01551819 -0.07434082 C22.50889254 -0.08143917 25.00226526 -0.08913768 27.49563599 -0.09741211 C32.72357045 -0.11086851 37.95139463 -0.11260124 43.17933655 -0.10656738 C48.55030189 -0.10066031 53.92077431 -0.11475609 59.29164124 -0.14758301 C65.77375022 -0.18667234 72.25543519 -0.20138681 78.73765755 -0.1967926 C81.20923749 -0.19848776 83.68082519 -0.20816807 86.15234184 -0.22593689 C89.60714715 -0.24804148 93.06047433 -0.23846634 96.51527405 -0.2208252 C98.04980728 -0.24072006 98.04980728 -0.24072006 99.61534119 -0.26101685 C104.316189 -0.20516936 106.58485593 -0.12760936 110.47085571 2.70629883 C112.30067444 5.39440918 112.30067444 5.39440918 112.36317444 9.01940918 C111.18341426 12.76688268 110.5825288 13.45869693 107.30067444 15.39440918 C105.07330418 15.77751923 105.07330418 15.77751923 102.60134888 15.78881836 C101.19036171 15.80584305 101.19036171 15.80584305 99.75086975 15.82321167 C98.72582336 15.82028107 97.70077698 15.81735046 96.64466858 15.81433105 C95.55971603 15.8228006 94.47476349 15.83127014 93.35693359 15.83999634 C89.76644709 15.86341717 86.17638784 15.86438727 82.58583069 15.86315918 C80.09245633 15.87025752 77.59908362 15.87795604 75.10571289 15.88623047 C69.87777843 15.89968687 64.64995424 15.9014196 59.42201233 15.89538574 C54.05104699 15.88947867 48.68057457 15.90357445 43.30970764 15.93640137 C36.82759866 15.9754907 30.34591369 15.99020517 23.86369133 15.98561096 C21.39211139 15.98730612 18.92052369 15.99698643 16.44900703 16.01475525 C12.99420173 16.03685984 9.54087455 16.0272847 6.08607483 16.00964355 C4.5515416 16.02953842 4.5515416 16.02953842 2.98600769 16.04983521 C-1.71484013 15.99398772 -3.98350705 15.91642772 -7.86950684 13.08251953 C-9.69932556 10.39440918 -9.69932556 10.39440918 -9.76182556 6.76940918 C-8.10899591 1.5192444 -5.3784326 0.02458444 0 0 Z " fill="#000000" transform="translate(104.69932556152344,256.6055908203125)"/>
<path d="M0 0 C0.94065811 -0.01134979 1.88131622 -0.02269958 2.85047913 -0.03439331 C4.38804871 -0.02999741 4.38804871 -0.02999741 5.9566803 -0.0255127 C7.04163284 -0.03398224 8.12658539 -0.04245178 9.24441528 -0.05117798 C12.83490178 -0.07459881 16.42496104 -0.07556891 20.01551819 -0.07434082 C22.50889254 -0.08143917 25.00226526 -0.08913768 27.49563599 -0.09741211 C32.72357045 -0.11086851 37.95139463 -0.11260124 43.17933655 -0.10656738 C48.55030189 -0.10066031 53.92077431 -0.11475609 59.29164124 -0.14758301 C65.77375022 -0.18667234 72.25543519 -0.20138681 78.73765755 -0.1967926 C81.20923749 -0.19848776 83.68082519 -0.20816807 86.15234184 -0.22593689 C89.60714715 -0.24804148 93.06047433 -0.23846634 96.51527405 -0.2208252 C98.04980728 -0.24072006 98.04980728 -0.24072006 99.61534119 -0.26101685 C104.316189 -0.20516936 106.58485593 -0.12760936 110.47085571 2.70629883 C112.30067444 5.39440918 112.30067444 5.39440918 112.36317444 9.01940918 C111.18341426 12.76688268 110.5825288 13.45869693 107.30067444 15.39440918 C105.07330418 15.77751923 105.07330418 15.77751923 102.60134888 15.78881836 C101.19036171 15.80584305 101.19036171 15.80584305 99.75086975 15.82321167 C98.72582336 15.82028107 97.70077698 15.81735046 96.64466858 15.81433105 C95.55971603 15.8228006 94.47476349 15.83127014 93.35693359 15.83999634 C89.76644709 15.86341717 86.17638784 15.86438727 82.58583069 15.86315918 C80.09245633 15.87025752 77.59908362 15.87795604 75.10571289 15.88623047 C69.87777843 15.89968687 64.64995424 15.9014196 59.42201233 15.89538574 C54.05104699 15.88947867 48.68057457 15.90357445 43.30970764 15.93640137 C36.82759866 15.9754907 30.34591369 15.99020517 23.86369133 15.98561096 C21.39211139 15.98730612 18.92052369 15.99698643 16.44900703 16.01475525 C12.99420173 16.03685984 9.54087455 16.0272847 6.08607483 16.00964355 C4.5515416 16.02953842 4.5515416 16.02953842 2.98600769 16.04983521 C-1.71484013 15.99398772 -3.98350705 15.91642772 -7.86950684 13.08251953 C-9.69932556 10.39440918 -9.69932556 10.39440918 -9.76182556 6.76940918 C-8.10899591 1.5192444 -5.3784326 0.02458444 0 0 Z " fill="#000000" transform="translate(104.69932556152344,229.6055908203125)"/>
</svg>
