<svg xmlns="http://www.w3.org/2000/svg" viewBox="0 0 64 64" fill="none" stroke="#222233" stroke-width="1.8" stroke-linecap="round" stroke-linejoin="round">
  <!-- Podium: 1st place center (tallest) -->
  <rect x="23" y="30" width="18" height="18" rx="2"/>
  <!-- 2nd place left -->
  <rect x="6" y="37" width="17" height="11" rx="2"/>
  <!-- 3rd place right -->
  <rect x="41" y="41" width="17" height="7" rx="2"/>
  <!-- Base platform -->
  <line x1="4" y1="48" x2="60" y2="48" stroke-width="2"/>
  <!-- Trophy cup on top of 1st place -->
  <path d="M27 22 L37 22 L35 28 L29 28 Z"/>
  <line x1="32" y1="28" x2="32" y2="30"/>
  <line x1="28" y1="30" x2="36" y2="30"/>
  <!-- Cup handles -->
  <path d="M27 22 C24 22 24 27 27 27" fill="none"/>
  <path d="M37 22 C40 22 40 27 37 27" fill="none"/>
  <!-- Upward arrow indicating assured returns -->
  <line x1="52" y1="20" x2="52" y2="10"/>
  <polyline points="48,14 52,9 56,14"/>
</svg>
