<svg xmlns="http://www.w3.org/2000/svg" viewBox="0 0 314.22668 65.493332" height="26" role="img" aria-labelledby="logos-item-sej-title-691ad99f4d490">
			<title id="logos-item-sej-title-691ad99f4d490">Search Engine Journal</title>
			<g xmlns="http://www.w3.org/2000/svg" id="g10" xmlns:inkscape="http://www.inkscape.org/namespaces/inkscape" inkscape:groupmode="layer" inkscape:label="ink_ext_XXXXXX" transform="matrix(1.3333333,0,0,-1.3333333,0,65.493333)">
				<g id="g12" transform="scale(0.1)">
					<path d="m 61.1523,156.191 c 0,0 53.8397,-49.187 113.6637,-49.187 23.926,0 49.848,9.312 49.848,37.898 0,56.493 -214.0234,54.493 -214.0234,200.723 0,87.742 73.7735,145.574 168.1604,145.574 102.359,0 152.879,-53.836 152.879,-53.836 l -49.188,-95.058 c 0,0 -47.859,41.875 -105.019,41.875 -23.926,0 -50.52,-10.633 -50.52,-37.215 0,-59.828 214.027,-49.192 214.027,-199.406 C 340.98,68.457 280.496,0 173.48,0 61.8164,0 0,67.793 0,67.793 l 61.1523,88.398" style="fill:#272626;fill-opacity:1;fill-rule:nonzero;stroke:none" id="path14"/>
					<path d="m 1060.87,292.02 c 0,0 17.72,-17.254 40.73,-17.254 12.42,0 23.7,6.445 23.7,19.793 0,29.218 -77.09,24.16 -77.09,74.32 0,27.144 23.47,47.398 54.77,47.398 32.22,0 48.78,-17.48 48.78,-17.48 l -12.88,-24.16 c 0,0 -15.65,14.258 -36.13,14.258 -13.81,0 -24.62,-8.047 -24.62,-19.551 0,-29 76.85,-21.864 76.85,-74.102 0,-25.996 -19.78,-47.851 -53.84,-47.851 -36.36,0 -56.38,22.316 -56.38,22.316 l 16.11,22.313" style="fill:#272626;fill-opacity:1;fill-rule:nonzero;stroke:none" id="path16"/>
					<path d="m 1239.6,323.32 c -0.46,15.868 -10.36,24.383 -23.24,24.383 -14.96,0 -25.31,-9.195 -28.07,-24.383 z m -22.55,46.942 c 33.82,0 52,-24.625 52,-55.684 0,-3.457 -0.69,-11.277 -0.69,-11.277 h -80.99 c 1.83,-20.481 17.71,-31.067 35.2,-31.067 18.87,0 33.83,12.895 33.83,12.895 l 11.27,-20.941 c 0,0 -17.95,-16.797 -47.17,-16.797 -38.89,0 -63.05,28.07 -63.05,61.425 0,36.133 24.63,61.446 59.6,61.446" style="fill:#272626;fill-opacity:1;fill-rule:nonzero;stroke:none" id="path18"/>
					<path d="m 1316.97,270.164 c 15.41,0 26.46,16.563 26.46,30.844 v 2.754 h -5.06 c -14.96,0 -39.12,-2.074 -39.12,-18.41 0,-7.825 5.76,-15.188 17.72,-15.188 z m 22.32,53.613 h 3.91 v 1.614 c 0,15.418 -9.66,20.711 -22.55,20.711 -16.8,0 -32.22,-11.278 -32.22,-11.278 l -11.04,20.938 c 0,0 18.18,14.5 46.02,14.5 30.83,0 48.78,-17.032 48.78,-46.715 v -73.402 h -26.92 v 9.668 c 0,4.601 0.46,8.281 0.46,8.281 h -0.46 c 0.23,0 -8.98,-20.703 -35.67,-20.703 -20.93,0 -39.8,13.105 -39.8,36.582 0,37.277 50.39,39.804 69.49,39.804" style="fill:#272626;fill-opacity:1;fill-rule:nonzero;stroke:none" id="path20"/>
					<path d="m 1378.76,367.723 h 28.07 v -20.254 c 0,-4.375 -0.46,-8.281 -0.46,-8.281 h 0.46 c 5.29,16.796 19.33,30.148 37.28,30.148 2.76,0 5.29,-0.457 5.29,-0.457 v -28.774 c 0,0 -2.99,0.469 -6.9,0.469 -12.43,0 -26.46,-7.136 -31.99,-24.629 -1.84,-5.742 -2.53,-12.183 -2.53,-19.101 v -46.473 h -29.22 v 117.352" style="fill:#272626;fill-opacity:1;fill-rule:nonzero;stroke:none" id="path22"/>
					<path d="m 1510.62,370.262 c 30.6,0 45.1,-17.489 45.1,-17.489 l -12.89,-20.019 c 0,0 -12.19,12.656 -30.6,12.656 -21.63,0 -35.67,-16.34 -35.67,-36.359 0,-19.785 14.27,-36.817 36.59,-36.817 19.79,0 34.52,14.961 34.52,14.961 l 11.27,-20.711 c 0,0 -16.8,-19.093 -48.32,-19.093 -38.89,0 -63.74,27.375 -63.74,61.425 0,33.372 24.85,61.446 63.74,61.446" style="fill:#272626;fill-opacity:1;fill-rule:nonzero;stroke:none" id="path24"/>
					<path d="m 1561.95,413.066 h 29.23 v -56.613 c 0,-5.738 -0.47,-9.883 -0.47,-9.883 h 0.47 c 5.75,11.274 20.02,23.235 40.5,23.235 26,0 40.72,-13.575 40.72,-44.641 v -75.469 h -28.99 v 69.493 c 0,14.257 -3.68,23.925 -18.64,23.925 -15.42,0 -27.38,-10.125 -31.75,-24.394 -1.38,-4.598 -1.84,-9.668 -1.84,-15.184 v -53.84 h -29.23 v 163.371" style="fill:#272626;fill-opacity:1;fill-rule:nonzero;stroke:none" id="path26"/>
					<path d="m 1703.66,413.523 h 97.79 v -25.546 h -68.11 v -42.793 h 55 v -25.547 h -55 v -43.946 h 71.79 v -25.546 h -101.47 v 163.378" style="fill:#272626;fill-opacity:1;fill-rule:nonzero;stroke:none" id="path28"/>
					<path d="m 1814.12,367.5 h 28.07 v -13.586 c 0,-4.363 -0.46,-8.047 -0.46,-8.047 h 0.46 c 5.06,9.895 17.95,24.395 41.65,24.395 26,0 40.73,-13.574 40.73,-44.649 v -75.468 h -29 v 69.492 c 0,14.258 -3.68,23.926 -18.64,23.926 -15.65,0 -27.15,-9.891 -31.52,-23.926 -1.61,-4.832 -2.07,-10.125 -2.07,-15.645 v -53.847 h -29.22 V 367.5" style="fill:#272626;fill-opacity:1;fill-rule:nonzero;stroke:none" id="path30"/>
					<path d="m 2017.57,311.805 c 0,26.703 -13.11,33.832 -28.99,33.832 -17.72,0 -27.61,-12.895 -27.61,-32.676 0,-20.481 10.58,-35.664 29.46,-35.664 14.03,0 27.14,8.047 27.14,34.508 z m -33.82,-84.903 c 17.95,0 33.14,7.59 33.14,28.536 v 6.898 c 0,2.762 0.45,6.211 0.45,6.211 h -0.45 c -6.91,-10.356 -17.03,-15.883 -32.68,-15.883 -33.59,0 -52.69,27.16 -52.69,59.375 0,32.207 18.17,58.438 52,58.438 25.54,0 34.75,-14.95 34.75,-14.95 h 0.69 c 0,0 -0.23,1.375 -0.23,3.223 v 8.973 h 27.38 V 257.512 c 0,-40.278 -31.3,-55.461 -61.9,-55.461 -14.73,0 -30.37,4.14 -41.65,10.125 l 8.74,22.316 c 0,0 14.73,-7.59 32.45,-7.59" style="fill:#272626;fill-opacity:1;fill-rule:nonzero;stroke:none" id="path32"/>
					<path d="m 2088.23,367.723 h 28.07 v -13.582 c 0,-4.368 -0.45,-8.055 -0.45,-8.055 h 0.45 c 5.07,9.898 17.95,24.391 41.65,24.391 26.01,0 40.73,-13.575 40.73,-44.637 v -75.481 h -28.99 v 69.493 c 0,14.281 -3.68,23.937 -18.64,23.937 -15.65,0 -27.15,-9.894 -31.52,-23.937 -1.61,-4.825 -2.07,-10.118 -2.07,-15.641 v -53.852 h -29.23 v 117.364" style="fill:#272626;fill-opacity:1;fill-rule:nonzero;stroke:none" id="path34"/>
					<path d="m 2285.01,323.547 c -0.46,15.867 -10.36,24.383 -23.24,24.383 -14.96,0 -25.31,-9.211 -28.07,-24.383 z m -22.55,46.93 c 33.82,0 52,-24.618 52,-55.68 0,-3.457 -0.69,-11.274 -0.69,-11.274 h -80.99 c 1.83,-20.488 17.71,-31.074 35.2,-31.074 18.87,0 33.83,12.895 33.83,12.895 l 11.27,-20.942 c 0,0 -17.95,-16.797 -47.17,-16.797 -38.89,0 -63.05,28.071 -63.05,61.438 0,36.121 24.63,61.434 59.6,61.434" style="fill:#272626;fill-opacity:1;fill-rule:nonzero;stroke:none" id="path36"/>
					<path d="m 2053.06,367.5 h 29.23 V 250.145 h -29.23 z m 0,46.023 h 29 V 387.52 h -29 v 26.003" style="fill:#272626;fill-opacity:1;fill-rule:nonzero;stroke:none" id="path38"/>
					<path d="m 1031.1,126.301 h 29.45 v -7.602 c 0,-19.3123 10.59,-25.7615 21.63,-25.7615 11.05,0 20.94,6.6719 20.94,24.3985 v 89.043 h -42.11 v 25.547 h 71.79 V 116.863 c 0,-35.6638 -25.77,-51.0739 -51.08,-51.0739 -25.08,0 -50.62,15.8711 -50.62,51.0739 v 9.438" style="fill:#67c530;fill-opacity:1;fill-rule:nonzero;stroke:none" id="path40"/>
					<path d="m 1203.83,90.6367 c 18.87,0 34.75,14.7223 34.75,36.5823 0,21.636 -15.88,36.59 -34.75,36.59 -19.09,0 -34.97,-14.954 -34.97,-36.59 0,-21.86 15.88,-36.5823 34.97,-36.5823 z m -0.23,98.0233 c 35.9,0 64.66,-25.547 64.66,-61.441 0,-36.1252 -28.76,-61.4299 -64.43,-61.4299 -35.89,0 -64.65,25.3047 -64.65,61.4299 0,35.894 28.76,61.441 64.42,61.441" style="fill:#67c530;fill-opacity:1;fill-rule:nonzero;stroke:none" id="path42"/>
					<path d="m 1273.55,185.898 h 29.23 v -69.492 c 0,-14.269 3.68,-23.9372 18.18,-23.9372 21.16,0 32.9,18.6442 32.9,39.5902 v 53.839 h 29.22 V 68.5469 h -28.07 v 13.3398 c 0,4.6055 0.46,8.2891 0.46,8.2891 h -0.46 c -5.75,-12.1992 -20.71,-24.3867 -40.73,-24.3867 -25.08,0 -40.73,12.6484 -40.73,44.6329 v 75.476" style="fill:#67c530;fill-opacity:1;fill-rule:nonzero;stroke:none" id="path44"/>
					<path d="m 1390.47,185.898 h 28.07 v -20.246 c 0,-4.375 -0.46,-8.289 -0.46,-8.289 h 0.46 c 5.29,16.797 19.33,30.149 37.28,30.149 2.76,0 5.29,-0.473 5.29,-0.473 v -28.75 c 0,0 -2.99,0.449 -6.91,0.449 -12.42,0 -26.46,-7.129 -31.98,-24.605 -1.84,-5.766 -2.53,-12.207 -2.53,-19.106 V 68.5469 h -29.22 V 185.898" style="fill:#67c530;fill-opacity:1;fill-rule:nonzero;stroke:none" id="path46"/>
					<path d="m 1469.46,185.898 h 28.07 v -13.585 c 0,-4.364 -0.45,-8.047 -0.45,-8.047 h 0.45 c 5.07,9.894 17.95,24.394 41.65,24.394 26.01,0 40.73,-13.57 40.73,-44.648 V 68.5469 h -28.99 v 69.4881 c 0,14.262 -3.68,23.93 -18.64,23.93 -15.65,0 -27.15,-9.895 -31.52,-23.93 -1.61,-4.832 -2.07,-10.125 -2.07,-15.644 V 68.5469 h -29.23 V 185.898" style="fill:#67c530;fill-opacity:1;fill-rule:nonzero;stroke:none" id="path48"/>
					<path d="m 1632.04,89.4727 c 15.42,0 26.46,16.5743 26.46,30.8283 v 2.765 h -5.06 c -14.96,0 -39.12,-2.07 -39.12,-18.41 0,-7.8201 5.75,-15.1833 17.72,-15.1833 z m 22.32,53.6133 h 3.91 v 1.609 c 0,15.41 -9.66,20.703 -22.55,20.703 -16.79,0 -32.21,-11.265 -32.21,-11.265 l -11.04,20.933 c 0,0 18.17,14.493 46.01,14.493 30.84,0 48.79,-17.02 48.79,-46.7 V 69.4531 h -26.93 v 9.6563 c 0,4.6094 0.47,8.2929 0.47,8.2929 h -0.47 c 0.23,0 -8.97,-20.7148 -35.66,-20.7148 -20.94,0 -39.81,13.125 -39.81,36.5825 0,37.285 50.39,39.816 69.49,39.816" style="fill:#67c530;fill-opacity:1;fill-rule:nonzero;stroke:none" id="path50"/>
					<path d="m 1694.73,232.82 h 29 V 110.41 c 0,-12.8827 4.37,-16.1053 11.96,-16.1053 2.3,0 4.37,0.2344 4.37,0.2344 V 68.9922 c 0,0 -4.37,-0.6914 -9.21,-0.6914 -16.1,0 -36.12,4.1484 -36.12,37.7462 V 232.82" style="fill:#67c530;fill-opacity:1;fill-rule:nonzero;stroke:none" id="path52"/>
					<path d="m 767.891,483.223 v -99.707 h 98.812 V 156.863 c 0,-34.566 -17.277,-50.515 -41.867,-50.515 -13.297,0 -26.594,4.648 -34.566,17.273 -5.985,8.645 -9.309,21.934 -9.309,39.887 v 25.254 H 664.641 V 154.199 C 664.641,51.1797 743.734,0 823.5,0 903.266,0 983.027,49.8438 983.027,154.199 V 483.223 H 767.891" style="fill:#67c530;fill-opacity:1;fill-rule:nonzero;stroke:none" id="path54"/>
					<path d="M 652.164,107.676 H 471.586 v 89.734 h 144.906 v 99.707 H 471.586 v 86.399 H 672.25 v 99.707 H 355.273 V 7.96875 H 721.484 C 680.508,35.3828 661.211,75.4922 652.164,107.676" style="fill:#272626;fill-opacity:1;fill-rule:nonzero;stroke:none" id="path56"/>
					<path d="m 2328.73,406.949 c 2.99,0 4.86,1.778 4.86,4.856 0,2.957 -1.26,4.777 -5.64,4.777 h -4.25 v -9.633 z m -10.63,14.446 h 9.94 c 3.34,0 4.86,-0.258 6.2,-0.864 3.08,-1.39 5.04,-4.34 5.04,-8.418 0,-3.691 -1.96,-7.117 -5.21,-8.422 v -0.082 c 0,0 0.43,-0.437 1.04,-1.519 l 6.34,-11.504 h -6.25 l -6.12,11.504 h -5.38 v -11.504 h -5.6 v 30.809" style="fill:#272626;fill-opacity:1;fill-rule:nonzero;stroke:none" id="path58"/>
					<path d="m 2327.79,428.418 c -12.91,0 -23.42,-10.508 -23.42,-23.422 0,-12.922 10.51,-23.426 23.42,-23.426 12.92,0 23.43,10.504 23.43,23.426 0,12.914 -10.51,23.422 -23.43,23.422 z m 0,-52.301 c -15.92,0 -28.87,12.953 -28.87,28.879 0,15.918 12.95,28.871 28.87,28.871 15.93,0 28.88,-12.953 28.88,-28.871 0,-15.926 -12.95,-28.879 -28.88,-28.879" style="fill:#272626;fill-opacity:1;fill-rule:nonzero;stroke:none" id="path60"/>
				</g>
			</g>
		</svg>