<?xml version="1.0" encoding="UTF-8"?>
<svg version="1.1" xmlns="http://www.w3.org/2000/svg" width="512" height="512">
<path d="M0 0 C1.82032776 1.22782898 1.82032776 1.22782898 3.63891602 2.9050293 C4.33373077 3.54346771 5.02854553 4.18190613 5.74441528 4.83969116 C9.93139746 8.84981525 14.05748336 12.91542131 18.15234375 17.01953125 C19.10243935 17.96895157 20.0526832 18.91822354 21.00306702 19.86735535 C22.97705877 21.83988497 24.94926086 23.81418139 26.92016602 25.78979492 C29.447604 28.32297661 31.9795695 30.85157828 34.51285458 33.37891102 C36.46799755 35.33044808 38.42076218 37.28435093 40.37280464 39.23898888 C41.75914415 40.62631865 43.14749591 42.01163665 44.53587341 43.39692688 C45.78836632 44.65414803 45.78836632 44.65414803 47.06616211 45.93676758 C48.17247231 47.04427116 48.17247231 47.04427116 49.3011322 48.17414856 C52.1935229 51.28273401 52.19506297 53.74493521 52.42578125 57.9296875 C51.7556583 61.18808349 50.775913 62.13835939 48 64 C44.57012432 64.48862525 41.20539958 64.37582688 37.75 64.25 C36.81414062 64.23195313 35.87828125 64.21390625 34.9140625 64.1953125 C32.60893562 64.14826909 30.30433646 64.07652778 28 64 C28 69.28 28 74.56 28 80 C29.77661011 79.9685791 29.77661011 79.9685791 31.58911133 79.93652344 C36.03022931 79.8635133 40.47129549 79.81798077 44.9128418 79.78027344 C46.82634434 79.76029581 48.73978692 79.73310401 50.65307617 79.69824219 C65.68823228 79.43136915 77.58041144 80.09850241 89 91 C99.3465127 101.83822816 100.59105873 113.44758765 100.45410156 127.76245117 C100.45297123 129.42907687 100.45361057 131.09570455 100.45587158 132.7623291 C100.45701242 137.25551373 100.43360609 141.74826534 100.40557575 146.24134994 C100.38045619 150.94850031 100.37821181 155.6556622 100.37347412 160.36286926 C100.36107522 169.26263055 100.32829564 178.1621937 100.28807616 187.06186801 C100.24326207 197.19974982 100.22134723 207.33764143 100.20129442 217.47559774 C100.15956008 238.31717845 100.08845627 259.15856972 100 280 C94.72 280 89.44 280 84 280 C83.99191315 278.01549332 83.98382629 276.03098663 83.97549438 273.98634338 C83.89835342 255.28486584 83.81038402 236.58346154 83.71247292 217.88208103 C83.66239552 208.26751349 83.61595208 198.65295427 83.578125 189.03833008 C83.54513766 180.65619719 83.50526931 172.27412979 83.45720994 163.89206928 C83.43201191 159.45568859 83.41021099 155.01935097 83.39665604 150.58291817 C83.38377474 146.40260208 83.36165555 142.22243419 83.33261681 138.04220009 C83.32358828 136.51245481 83.31786191 134.9826857 83.31578636 133.45291519 C83.53573166 118.2805683 83.53573166 118.2805683 77 105 C64.17662979 92.28260805 44.73374108 96.52292941 28 96 C28 143.52 28 191.04 28 240 C22.72 240 17.44 240 12 240 C11.90746915 215.5569593 11.83605494 191.11396066 11.79275131 166.67078018 C11.77211173 155.32180068 11.74396441 143.97293189 11.69824219 132.62402344 C11.65841722 122.73419807 11.63257735 112.84445287 11.62364602 102.95454955 C11.61842393 97.71618336 11.60612107 92.47804652 11.57707977 87.23975372 C11.54997928 82.31171753 11.54154414 77.38400573 11.54756927 72.4559021 C11.54646663 70.64504993 11.53848087 68.83418719 11.5231781 67.02339935 C11.50333375 64.55460653 11.5080399 62.08704524 11.51898193 59.6182251 C11.50733057 58.89837818 11.4956792 58.17853127 11.48367476 57.43687081 C11.5226023 54.19701696 11.80582197 52.28317683 13.65506363 49.58636093 C16 48 16 48 22 47 C13.75 38.75 5.5 30.5 -3 22 C-6.92322863 23.96161431 -9.41692858 26.15732204 -12.421875 29.2265625 C-13.17914886 29.98808121 -13.17914886 29.98808121 -13.95172119 30.76498413 C-15.55592096 32.38033842 -17.15300856 34.00252209 -18.75 35.625 C-19.83938107 36.72441698 -20.9292199 37.82338059 -22.01953125 38.921875 C-24.68501885 41.6093602 -27.34415143 44.30299021 -30 47 C-28.72125 47.268125 -27.4425 47.53625 -26.125 47.8125 C-22.50324145 48.57190099 -22.19948132 48.70077803 -20 52 C-19.81086439 54.63622357 -19.73912116 57.16567527 -19.75949097 59.80168152 C-19.75692769 61.00609082 -19.75692769 61.00609082 -19.75431263 62.23483163 C-19.75100971 64.93423215 -19.76203459 67.63338592 -19.77294922 70.33276367 C-19.77351316 72.26421605 -19.77319711 74.19566885 -19.77206421 76.12712097 C-19.77148903 81.3788793 -19.7832701 86.63054676 -19.79721212 91.88228393 C-19.80969193 97.36758832 -19.81088781 102.85289466 -19.81326294 108.33821106 C-19.81948581 118.72917611 -19.83590753 129.1200992 -19.85596192 139.51104575 C-19.87829584 151.33917946 -19.88930804 163.16731515 -19.89935279 174.99546468 C-19.92027306 199.33033386 -19.95586629 223.66516281 -20 248 C-25.28 248 -30.56 248 -36 248 C-36 197.84 -36 147.68 -36 96 C-84.1240542 96.11961946 -84.1240542 96.11961946 -132.24804688 96.2578125 C-138.73754837 96.27782009 -145.22705023 96.29770446 -151.71655273 96.31738281 C-152.52988931 96.31985425 -153.34322589 96.32232569 -154.18120903 96.32487202 C-167.3063601 96.36457505 -180.43151977 96.39732445 -193.55669581 96.42749982 C-207.0299029 96.4586303 -220.50307359 96.49724654 -233.97623974 96.54279006 C-242.28772789 96.5706502 -250.59918946 96.59269396 -258.91071171 96.60726251 C-264.6127282 96.61781681 -270.31469317 96.63565217 -276.01667082 96.65916704 C-279.30481248 96.6725137 -282.59286855 96.68161361 -285.88103867 96.68421364 C-289.45130502 96.68754226 -293.02132205 96.70303655 -296.59153748 96.7215271 C-297.62365984 96.71959237 -298.6557822 96.71765763 -299.719181 96.71566427 C-309.04521241 96.78778277 -317.51479498 97.46908494 -324.40625 104.41796875 C-330.52487651 111.33699698 -331.06618314 118.64939803 -331.31640625 127.5859375 C-331.33718735 128.28772125 -331.35796844 128.989505 -331.37937927 129.71255493 C-331.44426324 131.93327958 -331.5034723 134.15411276 -331.5625 136.375 C-331.60574354 137.88933371 -331.6493596 139.40365683 -331.69335938 140.91796875 C-331.80057557 144.61187007 -331.90010106 148.30586469 -332 152 C-337.28 152 -342.56 152 -348 152 C-348.09970521 146.36243711 -348.17185967 140.7254 -348.21972656 135.0871582 C-348.23970419 133.17365566 -348.26689599 131.26021308 -348.30175781 129.34692383 C-348.56863085 114.31176772 -347.90149759 102.41958856 -337 91 C-327.70284134 82.12464059 -317.6320465 79.38040707 -305.00935364 79.51898193 C-303.85247675 79.51556423 -302.69559986 79.51214653 -301.5036661 79.50862527 C-297.65428595 79.50207345 -293.80561398 79.52397893 -289.95629883 79.54589844 C-287.18623417 79.54925992 -284.41618299 79.54656775 -281.64611816 79.54412842 C-275.6963102 79.54203813 -269.74667865 79.55451321 -263.79691505 79.57707977 C-255.19474691 79.60968515 -246.59266345 79.62001548 -237.99044021 79.62503174 C-224.0315831 79.63377105 -210.07281986 79.66034948 -196.11401367 79.69824219 C-182.55998197 79.73499767 -169.00597582 79.76329209 -155.4519043 79.78027344 C-154.6154485 79.78132433 -153.7789927 79.78237523 -152.91718975 79.78345796 C-148.72064287 79.78867838 -144.52409581 79.79373315 -140.32754862 79.79870558 C-105.55163153 79.84012512 -70.77582599 79.91083506 -36 80 C-36 74.72 -36 69.44 -36 64 C-37.39734375 64.04640625 -38.7946875 64.0928125 -40.234375 64.140625 C-42.07289529 64.17814582 -43.9114387 64.21454565 -45.75 64.25 C-46.67039062 64.28351563 -47.59078125 64.31703125 -48.5390625 64.3515625 C-55.34349128 64.45017741 -55.34349128 64.45017741 -58.59765625 62.21875 C-60.29259287 59.53706754 -60.74509337 57.28653966 -60.5690155 54.11756897 C-59.87828014 51.5470243 -58.87792379 50.32725826 -57.08325195 48.36889648 C-56.44650543 47.6729538 -55.80975891 46.97701111 -55.15371704 46.25997925 C-51.1542641 42.06319737 -47.08431751 37.94225604 -42.98046875 33.84765625 C-42.03104843 32.89756065 -41.08177646 31.9473168 -40.13264465 30.99693298 C-38.16011503 29.02294123 -36.18581861 27.05073914 -34.21020508 25.07983398 C-31.67702339 22.552396 -29.14842172 20.0204305 -26.62108898 17.48714542 C-24.66955192 15.53200245 -22.71564907 13.57923782 -20.76101112 11.62719536 C-19.37368135 10.24085585 -17.98836335 8.85250409 -16.60307312 7.46412659 C-15.76492569 6.62913132 -14.92677826 5.79413605 -14.06323242 4.93383789 C-12.95572884 3.82752769 -12.95572884 3.82752769 -11.82585144 2.6988678 C-8.34204271 -0.54265029 -4.57612305 -0.96779593 0 0 Z " fill="#000000" transform="translate(364,16)"/>
<path d="M0 0 C1.10794922 -0.01260864 2.21589844 -0.02521729 3.35742188 -0.03820801 C4.54916016 -0.03011108 5.74089844 -0.02201416 6.96875 -0.01367188 C8.19658203 -0.01749878 9.42441406 -0.02132568 10.68945312 -0.02526855 C13.28516459 -0.02799029 15.88090336 -0.02061099 18.4765625 -0.00390625 C22.45374599 0.01749738 26.42912282 -0.0037015 30.40625 -0.02929688 C32.92708733 -0.02665365 35.44792353 -0.02152878 37.96875 -0.01367188 C39.16048828 -0.0217688 40.35222656 -0.02986572 41.58007812 -0.03820801 C43.24200195 -0.01929504 43.24200195 -0.01929504 44.9375 0 C45.91138672 0.00318237 46.88527344 0.00636475 47.88867188 0.00964355 C51.28171797 0.67762542 52.3198504 1.83778872 54.46875 4.51757812 C54.96094131 7.19620132 54.96094131 7.19620132 54.94976807 10.3135376 C54.95801605 12.08875793 54.95801605 12.08875793 54.96643066 13.89984131 C54.94485901 15.84192474 54.94485901 15.84192474 54.92285156 17.82324219 C54.92172303 19.20312466 54.92235706 20.58300954 54.92462158 21.96289062 C54.92576945 25.70654654 54.9022489 29.44969001 54.87432575 33.19322681 C54.84932399 37.10631018 54.84697108 41.01940524 54.84222412 44.93255615 C54.8297907 52.34155663 54.79696427 59.75032107 54.75682616 67.1592176 C54.71211974 75.59442485 54.69012428 84.02964336 54.67004442 92.46493959 C54.62823184 109.81595949 54.55706729 127.16673484 54.46875 144.51757812 C49.18875 144.51757812 43.90875 144.51757812 38.46875 144.51757812 C38.46875 102.27757812 38.46875 60.03757812 38.46875 16.51757812 C27.90875 16.51757812 17.34875 16.51757812 6.46875 16.51757812 C6.46875 77.23757812 6.46875 137.95757812 6.46875 200.51757812 C-62.17125 200.51757812 -130.81125 200.51757812 -201.53125 200.51757812 C-201.53125 195.23757813 -201.53125 189.95757812 -201.53125 184.51757812 C-190.97125 184.51757812 -180.41125 184.51757812 -169.53125 184.51757812 C-169.57765625 179.65523437 -169.6240625 174.79289063 -169.671875 169.78320312 C-169.69231369 166.7024526 -169.71156932 163.62178569 -169.7265625 160.54101562 C-169.75047256 155.65119055 -169.77875501 150.76166513 -169.83300781 145.87207031 C-169.8764753 141.92983467 -169.90038895 137.98792035 -169.91075897 134.04546356 C-169.91814882 132.54153128 -169.93257967 131.03761656 -169.95417023 129.53382111 C-169.98321812 127.42678353 -169.98720571 125.32107284 -169.98535156 123.21386719 C-169.99423401 122.01473694 -170.00311646 120.81560669 -170.01226807 119.58013916 C-169.53125 116.51757812 -169.53125 116.51757812 -167.84857178 114.13140869 C-165.00767088 112.15294685 -163.44348412 112.01125229 -160 112 C-158.89205078 111.98739136 -157.78410156 111.97478271 -156.64257812 111.96179199 C-155.45083984 111.96988892 -154.25910156 111.97798584 -153.03125 111.98632812 C-151.80341797 111.98250122 -150.57558594 111.97867432 -149.31054688 111.97473145 C-146.71483541 111.97200971 -144.11909664 111.97938901 -141.5234375 111.99609375 C-137.54625401 112.01749738 -133.57087718 111.9962985 -129.59375 111.97070312 C-127.07291267 111.97334635 -124.55207647 111.97847122 -122.03125 111.98632812 C-120.83951172 111.9782312 -119.64777344 111.97013428 -118.41992188 111.96179199 C-117.31197266 111.97440063 -116.20402344 111.98700928 -115.0625 112 C-114.08861328 112.00318237 -113.11472656 112.00636475 -112.11132812 112.00964355 C-108.68275582 112.68461939 -107.5392023 113.67014458 -105.53125 116.51757812 C-105.05023193 119.58013916 -105.05023193 119.58013916 -105.07714844 123.21386719 C-105.07656433 123.87769409 -105.07598022 124.541521 -105.07537842 125.22546387 C-105.07815735 127.41191551 -105.10923672 129.59699075 -105.140625 131.78320312 C-105.14808816 133.30205541 -105.15378074 134.82091735 -105.15777588 136.33978271 C-105.17302659 140.33161138 -105.21230277 144.3228551 -105.2565918 148.31445312 C-105.29755711 152.38989347 -105.31578954 156.46542861 -105.3359375 160.54101562 C-105.37879841 168.53350108 -105.4491429 176.52539938 -105.53125 184.51757812 C-100.25125 184.51757812 -94.97125 184.51757812 -89.53125 184.51757812 C-89.54013245 182.97297913 -89.54901489 181.42838013 -89.5581665 179.8369751 C-89.63916364 165.29869507 -89.69941298 150.76049773 -89.73849869 136.22204971 C-89.75912821 128.74722485 -89.78725601 121.27256836 -89.83300781 113.79785156 C-89.87286394 107.28323942 -89.89867999 100.76874922 -89.90760398 94.25401855 C-89.9128209 90.80412309 -89.92508994 87.35457648 -89.95417023 83.90479279 C-89.98636264 80.05462583 -89.98721019 76.20480086 -89.98535156 72.35449219 C-89.99973267 71.20938171 -90.01411377 70.06427124 -90.02893066 68.88446045 C-90.02343201 67.83560669 -90.01793335 66.78675293 -90.01226807 65.70611572 C-90.01595524 64.79538425 -90.01964241 63.88465279 -90.02344131 62.94632339 C-89.37305219 59.73694229 -88.05336785 58.538242 -85.53125 56.51757812 C-82.95117187 56.00964355 -82.95117187 56.00964355 -80 56 C-78.89205078 55.98739136 -77.78410156 55.97478271 -76.64257812 55.96179199 C-75.45083984 55.96988892 -74.25910156 55.97798584 -73.03125 55.98632812 C-71.80341797 55.98250122 -70.57558594 55.97867432 -69.31054688 55.97473145 C-66.71483541 55.97200971 -64.11909664 55.97938901 -61.5234375 55.99609375 C-57.54625401 56.01749738 -53.57087718 55.9962985 -49.59375 55.97070312 C-47.07291267 55.97334635 -44.55207647 55.97847122 -42.03125 55.98632812 C-40.83951172 55.9782312 -39.64777344 55.97013428 -38.41992188 55.96179199 C-36.75799805 55.98070496 -36.75799805 55.98070496 -35.0625 56 C-34.08861328 56.00318237 -33.11472656 56.00636475 -32.11132812 56.00964355 C-28.73536248 56.67426283 -27.68751978 57.87240121 -25.53125 60.51757812 C-25.03905869 62.94632339 -25.03905869 62.94632339 -25.05023193 65.70611572 C-25.04473328 66.75496948 -25.03923462 67.80382324 -25.03356934 68.88446045 C-25.05514099 70.60212616 -25.05514099 70.60212616 -25.07714844 72.35449219 C-25.07656433 73.56451904 -25.07598022 74.7745459 -25.07537842 76.02124023 C-25.07768698 79.33533879 -25.09773922 82.64843942 -25.12567425 85.96236134 C-25.15068777 89.42700571 -25.15302984 92.89166354 -25.15777588 96.35638428 C-25.17020588 102.91541631 -25.20302755 109.47418151 -25.24317384 116.03309608 C-25.28789101 123.50096548 -25.30987841 130.96884767 -25.32995558 138.43681765 C-25.37176038 153.79722987 -25.44291878 169.1573591 -25.53125 184.51757812 C-20.25125 184.51757812 -14.97125 184.51757812 -9.53125 184.51757812 C-9.54013245 182.27140686 -9.54901489 180.0252356 -9.5581665 177.71099854 C-9.63982466 156.57988944 -9.69939562 135.44880109 -9.73849869 114.31756973 C-9.7591374 103.4528608 -9.78728304 92.58826752 -9.83300781 81.72363281 C-9.87283546 72.25570912 -9.89867328 62.78786917 -9.90760398 53.31986403 C-9.91282563 48.30505874 -9.92512559 43.29049307 -9.95417023 38.27576447 C-9.98127499 33.55784308 -9.98970501 28.84026053 -9.98368073 24.12226868 C-9.98478318 22.38881846 -9.99276648 20.65535718 -10.0080719 18.92197418 C-10.02792314 16.55826124 -10.02320785 14.19583389 -10.01226807 11.83209229 C-10.02391943 11.14337296 -10.0355708 10.45465363 -10.04757524 9.74506402 C-10.0058349 6.41715871 -9.7188392 4.76103854 -7.66244125 2.0921669 C-4.94516809 0.08456303 -3.36043128 0.01098089 0 0 Z M-73.53125 72.51757812 C-73.53125 109.47757813 -73.53125 146.43757813 -73.53125 184.51757812 C-62.97125 184.51757812 -52.41125 184.51757812 -41.53125 184.51757812 C-41.53125 147.55757812 -41.53125 110.59757812 -41.53125 72.51757812 C-52.09125 72.51757812 -62.65125 72.51757812 -73.53125 72.51757812 Z M-153.53125 128.51757812 C-153.53125 146.99757813 -153.53125 165.47757813 -153.53125 184.51757812 C-142.97125 184.51757812 -132.41125 184.51757812 -121.53125 184.51757812 C-121.53125 166.03757812 -121.53125 147.55757812 -121.53125 128.51757812 C-132.09125 128.51757812 -142.65125 128.51757812 -153.53125 128.51757812 Z " fill="#000000" transform="translate(257.53125,135.482421875)"/>
<path d="M0 0 C5.28 0 10.56 0 16 0 C16 55.44 16 110.88 16 168 C89.92 168 163.84 168 240 168 C240 173.28 240 178.56 240 184 C166.08 184 92.16 184 16 184 C18.54014579 201.06875994 18.54014579 201.06875994 29 212 C35.20903222 215.10451611 41.80043909 215.1497971 48.61801147 215.15821838 C49.47251691 215.16315636 50.32702235 215.16809434 51.2074219 215.17318195 C54.06324682 215.18850816 56.91904934 215.19690433 59.77490234 215.20532227 C61.82502437 215.21490462 63.87514444 215.22491492 65.92526245 215.23532104 C71.4867007 215.26233739 77.0481474 215.28336467 82.60961485 215.30332303 C88.42324073 215.32520274 94.23684064 215.35258172 100.05044556 215.37937927 C111.05751416 215.42927929 122.0645972 215.47422812 133.07169402 215.51740164 C145.60365542 215.56679699 158.13559077 215.62170661 170.66752696 215.67708123 C196.44499383 215.79085998 222.22248598 215.89751238 248 216 C248 221.28 248 226.56 248 232 C228.86 232 209.72 232 190 232 C189.67 234.31 189.34 236.62 189 239 C188.48530564 241.02056799 187.92629816 243.03031203 187.32592773 245.02709961 C186.9809021 246.18350952 186.63587646 247.33991943 186.28039551 248.53137207 C185.73747864 250.32375305 185.73747864 250.32375305 185.18359375 252.15234375 C184.85041138 253.26581177 184.517229 254.37927979 184.1739502 255.52648926 C182.93394708 259.66513877 181.68520889 263.80116708 180.4375 267.9375 C177.653125 277.198125 174.86875 286.45875 172 296 C206.32 296 240.64 296 276 296 C273.36 287.09 270.72 278.18 268 269 C268.33 267.68 268.66 266.36 269 265 C271.8359375 263.69921875 271.8359375 263.69921875 275.375 262.6875 C276.53773438 262.34074219 277.70046875 261.99398438 278.8984375 261.63671875 C282 261 282 261 285 262 C286.16674805 264.80395508 286.16674805 264.80395508 287.26171875 268.51953125 C287.45723831 269.17451096 287.65275787 269.82949066 287.85420227 270.50431824 C288.26582457 271.89219047 288.67144507 273.28185463 289.0715332 274.6730957 C289.68315242 276.79739977 290.31348331 278.91541865 290.94726562 281.03320312 C294 291.3927191 294 291.3927191 294 296 C299.94 296 305.88 296 312 296 C312 301.28 312 306.56 312 312 C253.92 312 195.84 312 136 312 C136 306.72 136 301.44 136 296 C141.94 296 147.88 296 154 296 C154.33 293.69 154.66 291.38 155 289 C155.51469436 286.97943201 156.07370184 284.96968797 156.67407227 282.97290039 C157.18448814 281.26191917 157.18448814 281.26191917 157.70521545 279.51637268 C158.07190842 278.30569626 158.43860138 277.09501984 158.81640625 275.84765625 C159.19232407 274.59238632 159.56824188 273.33711639 159.95555115 272.04380798 C160.94901237 268.72663336 161.94846254 265.41129341 162.94921875 262.09631348 C163.97175917 258.70528125 164.98855894 255.31252898 166.00585938 251.91992188 C167.99832685 245.27826412 169.99713374 238.63852905 172 232 C171.28346347 232.00368717 170.56692694 232.00737434 169.82867718 232.01117325 C152.35835155 232.09967986 134.88808319 232.16578507 117.41758251 232.20724869 C108.96881727 232.22783542 100.5202021 232.2558812 92.0715332 232.30175781 C84.70389444 232.34174517 77.3363644 232.36746106 69.96862012 232.37635398 C66.07082832 232.3815487 62.17334746 232.39367594 58.27565575 232.42292023 C54.59925189 232.45027803 50.92328402 232.45840446 47.24678802 232.45243073 C45.27002367 232.45403823 43.29330569 232.47545365 41.31666565 232.49768066 C29.24543144 232.44243752 19.81617342 229.4161958 11 221 C-0.25181571 209.21344454 -0.57751926 196.70657044 -0.45410156 181.30004883 C-0.45297174 179.31815616 -0.45360957 177.33626182 -0.45587158 175.35437012 C-0.45701439 170.00173784 -0.43357527 164.64946761 -0.40557575 159.29691911 C-0.38048976 153.69289398 -0.37821443 148.08885961 -0.37347412 142.48478699 C-0.36106547 131.88507468 -0.32827242 121.28552833 -0.28807616 110.68588895 C-0.24329272 98.61333561 -0.22135489 86.54077415 -0.20129442 74.46815836 C-0.15953793 49.64534394 -0.0884167 24.8226883 0 0 Z " fill="#000000" transform="translate(16,184)"/>
<path d="M0 0 C1.71042707 1.49500151 3.39846939 3.01602258 5.0625 4.5625 C5.93519531 5.366875 6.80789063 6.17125 7.70703125 7 C23.09542176 21.76547215 34.95530249 43.91118519 36.23950195 65.54418945 C36.61779352 84.87624514 35.83369409 100.91917298 27.26147461 118.38964844 C25.53683463 121.7996016 25.53683463 121.7996016 25.2538147 125.52311707 C26.29095096 128.13861901 27.69181101 129.52432126 29.70849609 131.4855957 C30.47954681 132.24350906 31.25059753 133.00142242 32.04501343 133.78230286 C33.30277084 134.99801216 33.30277084 134.99801216 34.5859375 136.23828125 C36.34645825 137.97059735 38.10687156 139.70302265 39.8671875 141.43554688 C42.65118454 144.15743181 45.4384321 146.87590723 48.22851562 149.59155273 C50.9186956 152.21524084 53.5964701 154.85112362 56.2734375 157.48828125 C57.10789398 158.29268143 57.94235046 159.0970816 58.80209351 159.92585754 C64.20515598 165.25951717 67.53003654 169.3075893 68.49609375 177.02734375 C68.50556872 185.4505902 68.11292625 191.30912963 62.19140625 197.52734375 C56.51301653 202.77636563 52.09149273 204.85104473 44.25 204.9375 C43.08855469 204.96585938 41.92710937 204.99421875 40.73046875 205.0234375 C31.44279839 203.85629682 26.09941551 198.08516651 19.92578125 191.60546875 C18.19748753 189.83637173 16.46896522 188.067498 14.74023438 186.29882812 C12.04273771 183.51398912 9.35037112 180.7243912 6.6628418 177.92993164 C4.05484237 175.22576949 1.42900076 172.5399603 -1.19921875 169.85546875 C-2.00139328 169.00977829 -2.80356781 168.16408783 -3.63005066 167.29277039 C-4.3846608 166.5247963 -5.13927094 165.7568222 -5.91674805 164.96557617 C-6.57434616 164.28258957 -7.23194427 163.59960297 -7.9094696 162.8959198 C-9.89291926 161.29404228 -9.89291926 161.29404228 -12.50422668 161.77046204 C-15.52116213 162.75248382 -18.31360193 164.02998846 -21.1875 165.375 C-44.39664352 175.50874198 -71.47823778 176.07139265 -95.1328125 166.984375 C-108.68572971 161.50563653 -119.55691045 153.78645514 -129.9375 143.5625 C-130.74316406 142.78132812 -131.54882812 142.00015625 -132.37890625 141.1953125 C-144.84368876 128.31865022 -153.60610969 109.30528857 -155.9375 91.5625 C-156.04707031 90.74523437 -156.15664063 89.92796875 -156.26953125 89.0859375 C-159.28142962 63.14345287 -152.76278032 37.20340142 -136.50390625 16.5703125 C-102.41841935 -23.37767062 -42.52918361 -33.79604605 0 0 Z M-117.9375 21.5625 C-134.12807829 38.38210413 -139.50681035 59.73223135 -139.20703125 82.4609375 C-138.58522931 102.45049137 -128.21248902 121.41437443 -114.16015625 135.30859375 C-98.28957085 149.30453282 -78.027286 157.04666124 -56.78125 156.5078125 C-34.42695775 155.08981635 -13.9743784 145.26686322 0.84765625 128.49609375 C16.2178402 110.11504984 20.93169968 88.09438883 19.0625 64.5625 C17.35271152 50.67046861 10.14385997 36.16952844 1.0625 25.5625 C0.58941406 24.93601562 0.11632812 24.30953125 -0.37109375 23.6640625 C-11.67532743 9.39986739 -30.30219188 0.45241501 -47.9375 -2.4375 C-48.80246094 -2.59089844 -49.66742188 -2.74429687 -50.55859375 -2.90234375 C-75.4967383 -6.28057033 -100.30652625 4.37718452 -117.9375 21.5625 Z M10.77734375 141.75 C9.86082031 142.678125 8.94429687 143.60625 8 144.5625 C6.62134766 145.9546875 6.62134766 145.9546875 5.21484375 147.375 C4.50457031 148.096875 3.79429687 148.81875 3.0625 149.5625 C7.20001217 154.48209328 11.48307237 159.16633225 16 163.73828125 C16.64316162 164.38951462 17.28632324 165.04074799 17.94897461 165.7117157 C19.2988264 167.07529573 20.65016474 168.43740567 22.00292969 169.7980957 C23.38045947 171.1872192 24.75349133 172.58081701 26.12207031 173.97875977 C28.11333068 176.01263558 30.11746493 178.0329828 32.125 180.05078125 C32.73142334 180.67471268 33.33784668 181.2986441 33.96264648 181.94148254 C37.4110671 185.37253309 40.12744276 187.60637666 45.0625 188.5625 C48.6423237 187.26074593 49.77609578 186.07802759 51.625 182.75 C52.11999065 179.14363957 51.49844613 178.15773296 49.4493103 175.28265381 C46.63892319 171.79674223 43.44814683 168.68595262 40.26953125 165.5390625 C39.52289719 164.79288666 38.77626312 164.04671082 38.00700378 163.27792358 C36.43680787 161.71073647 34.86419455 160.14596808 33.28930664 158.58349609 C30.86737617 156.17993399 28.45365512 153.76835331 26.04101562 151.35546875 C24.51349399 149.8328585 22.98551537 148.31070654 21.45703125 146.7890625 C20.73103226 146.06417633 20.00503326 145.33929016 19.2570343 144.59243774 C18.58931503 143.93109833 17.92159576 143.26975891 17.23364258 142.58837891 C16.64392166 142.00246979 16.05420074 141.41656067 15.4466095 140.81289673 C13.1074404 138.69970453 13.2345673 139.397786 10.77734375 141.75 Z " fill="#000000" transform="translate(427.9375,291.4375)"/>
<path d="M0 0 C11.80928024 10.01406676 20.21295133 24.03757587 22.625 39.41796875 C24.21831318 59.57081679 21.03591923 77.65005193 7.69335938 93.38452148 C-2.61035178 104.82681458 -17.41932536 113.39367446 -32.96582031 114.62280273 C-53.1864446 115.34707409 -70.47751763 111.97080234 -85.875 98.10546875 C-97.40937764 87.19349725 -105.05326421 71.89142881 -105.7109375 55.96484375 C-105.87889452 45.10702571 -105.80390386 35.49554016 -101.375 25.41796875 C-100.83166016 24.10699219 -100.83166016 24.10699219 -100.27734375 22.76953125 C-92.57504006 5.79835363 -78.3307337 -4.88153347 -61.515625 -11.75 C-40.72526515 -18.14934487 -16.86893895 -13.4143956 0 0 Z M-71.75 13.79296875 C-73.31152461 15.31451833 -74.85523651 16.85470577 -76.375 18.41796875 C-77.25478516 19.26681641 -77.25478516 19.26681641 -78.15234375 20.1328125 C-87.25530609 29.6063789 -88.85521896 42.28468589 -88.65234375 54.7890625 C-88.11183536 67.99521535 -81.20739539 78.3831205 -71.9375 87.33984375 C-60.30360539 96.77464853 -46.81054796 98.68322301 -32.375 97.41796875 C-19.98085243 95.10013824 -9.01985303 87.29946166 -1.71875 77.10546875 C5.9839118 65.022862 7.61259709 51.94750094 4.96875 37.94140625 C1.59789649 26.69554153 -6.16058466 15.74661795 -16.3046875 9.66015625 C-34.54482441 0.24442473 -55.56916809 -0.42581618 -71.75 13.79296875 Z " fill="#000000" transform="translate(409.375,317.58203125)"/>
<path d="M0 0 C13.69815875 -0.80577404 23.63787012 3.95120662 33.96484375 12.65625 C41.8448571 19.96724707 47.50755872 30.01150814 48.17578125 40.8515625 C48.18585243 43.23507403 48.10205772 45.61865314 48 48 C42.39 48 36.78 48 31 48 C30.79375 46.39125 30.5875 44.7825 30.375 43.125 C28.89631021 35.14623633 25.52160293 28.67474565 19.125 23.5625 C12.91078404 19.37234295 7.43447496 18.06206785 0 17 C0 11.39 0 5.78 0 0 Z " fill="#000000" transform="translate(408,16)"/>
<path d="M0 0 C0 5.61 0 11.22 0 17 C-1.4025 17.391875 -2.805 17.78375 -4.25 18.1875 C-8.53410508 19.63346953 -10.70282758 20.95697654 -13 25 C-13.66 27.31 -14.32 29.62 -15 32 C-20.61 32 -26.22 32 -32 32 C-32 22.47783923 -30.27856327 15.57161825 -23.703125 8.53125 C-16.41287513 1.97671342 -9.8214775 0 0 0 Z " fill="#000000" transform="translate(368,336)"/>
<path d="M0 0 C5.28 0 10.56 0 16 0 C16 5.28 16 10.56 16 16 C10.72 16 5.44 16 0 16 C0 10.72 0 5.44 0 0 Z " fill="#000000" transform="translate(120,128)"/>
<path d="M0 0 C5.28 0 10.56 0 16 0 C16 5.28 16 10.56 16 16 C10.72 16 5.44 16 0 16 C0 10.72 0 5.44 0 0 Z " fill="#000000" transform="translate(88,128)"/>
<path d="M0 0 C5.28 0 10.56 0 16 0 C16 5.28 16 10.56 16 16 C10.72 16 5.44 16 0 16 C0 10.72 0 5.44 0 0 Z " fill="#000000" transform="translate(56,128)"/>
</svg>
