<svg width="1080" height="1080" viewBox="0 0 1080 1080" fill="none" xmlns="http://www.w3.org/2000/svg">
<g clip-path="url(#clip0_23_148)">
<path d="M609.609 6.32813C610.982 6.67889 612.356 7.02966 613.77 7.39105C647.058 16.0497 675.807 31.0075 702.422 52.7344C703.749 53.716 705.076 54.6976 706.443 55.7089C744.469 85.0355 767.389 137.809 773.564 184.29C775.178 205.737 775.611 227.654 772.031 248.906C773.431 249.265 774.832 249.624 776.275 249.994C789.62 253.657 799.273 256.821 807.055 268.941C810.981 278.789 810.909 287.379 810.84 297.883C810.846 299.942 810.852 302.001 810.859 304.123C810.863 308.463 810.851 312.803 810.825 317.143C810.791 323.767 810.825 330.389 810.865 337.014C810.861 341.241 810.853 345.468 810.84 349.695C810.853 351.666 810.866 353.637 810.879 355.668C810.745 368.19 809.302 377.733 800.508 387.375C789.722 395.774 781.968 396.912 768.678 396.991C767.115 397.003 765.552 397.015 763.941 397.027C760.638 397.047 757.335 397.061 754.032 397.069C748.985 397.09 743.941 397.155 738.895 397.222C735.683 397.235 732.471 397.247 729.259 397.255C727.753 397.281 726.248 397.307 724.697 397.334C715.769 397.294 711.207 396.131 704.531 390.234C699.484 390.369 699.484 390.369 694.512 391.948C692.826 392.397 691.14 392.846 689.403 393.308C688.13 393.686 686.858 394.064 685.547 394.453C685.359 396.202 685.171 397.95 684.978 399.751C683.131 408.574 679.771 415.624 675.659 423.589C674.909 425.068 674.158 426.547 673.385 428.071C667.648 439.196 661.316 449.74 653.906 459.844C675.77 474.42 699.945 485.145 723.647 496.362C725.294 497.144 726.94 497.925 728.636 498.73C738.029 503.176 747.449 507.553 756.903 511.869C811.579 537.056 811.579 537.056 827.913 556.949C836.078 566.565 841.815 572.76 854.668 574.827C865.35 575.599 875.927 575.789 886.634 575.551C911.312 575.038 930.742 580.06 949.219 596.953C964.567 611.768 972.43 630.184 973.476 651.401C973.513 668.812 968.255 684.178 962.538 700.505C961.857 702.51 961.176 704.516 960.474 706.583C959.833 708.372 959.193 710.162 958.533 712.005C957.203 719.867 960.022 724.87 964.242 731.394C965.106 732.497 965.97 733.601 966.86 734.738C967.848 736.021 968.836 737.304 969.854 738.626C970.919 739.992 971.984 741.357 973.081 742.764C987.68 761.857 1001.31 781.548 1014.61 801.563C1015.99 803.629 1017.36 805.696 1018.78 807.825C1027.2 821.121 1032.86 835.168 1037.81 850.078C1038.49 852.104 1039.17 854.13 1039.87 856.217C1044.2 871.566 1044.72 886.574 1044.8 902.417C1044.81 904.482 1044.82 906.547 1044.84 908.674C1044.65 927.584 1040.52 942.867 1032.33 959.741C1031.59 961.296 1030.86 962.851 1030.09 964.453C1027.72 969.446 1025.32 974.428 1022.91 979.409C1020.45 984.549 1017.99 989.691 1015.53 994.833C1013.91 998.201 1012.3 1001.57 1010.68 1004.94C1006.34 1013.97 1002.12 1023.04 998.064 1032.21C988.41 1053.96 980.182 1069.03 957.473 1078.62C951.185 1080.77 945.335 1080.8 938.721 1080.8C937.309 1080.81 935.898 1080.82 934.443 1080.83C929.73 1080.86 925.017 1080.84 920.304 1080.82C916.884 1080.83 913.464 1080.84 910.043 1080.85C900.658 1080.88 891.272 1080.87 881.886 1080.86C871.759 1080.85 861.632 1080.87 851.505 1080.9C831.67 1080.93 811.835 1080.93 792 1080.92C775.88 1080.91 759.759 1080.92 743.639 1080.93C741.345 1080.93 739.051 1080.93 736.687 1080.93C732.028 1080.94 727.368 1080.94 722.708 1080.94C679.004 1080.97 635.3 1080.96 591.596 1080.94C551.608 1080.92 511.62 1080.94 471.632 1080.99C430.576 1081.04 389.52 1081.07 348.464 1081.05C325.413 1081.04 302.362 1081.05 279.31 1081.09C259.688 1081.12 240.066 1081.12 220.444 1081.08C210.432 1081.06 200.421 1081.06 190.409 1081.09C181.242 1081.12 172.076 1081.11 162.91 1081.07C159.595 1081.06 156.281 1081.07 152.967 1081.09C133.211 1081.21 118.832 1080.49 102.827 1067.8C89.5298 1053.03 82.0232 1036.1 73.9598 1018.17C72.486 1014.95 71.0096 1011.74 69.5304 1008.53C65.9456 1000.72 62.3988 992.899 58.8625 985.071C56.1473 979.083 53.3865 973.116 50.6248 967.148C48.9087 963.414 47.1946 959.679 45.4832 955.942C44.7261 954.298 43.969 952.653 43.189 950.959C27.8617 916.909 33.0528 871.419 45.9107 837.366C55.3972 813.316 69.3629 793.212 84.9032 772.713C91.2632 764.267 97.4354 755.687 103.623 747.114C104.771 745.539 105.919 743.963 107.102 742.34C109.208 739.437 111.288 736.516 113.337 733.573C116.015 729.844 116.015 729.844 120.391 724.916C123.831 715.015 118.793 706.011 115.356 696.489C106.708 670.386 101.641 645.566 112.959 619.159C125.41 597.445 144.795 582.693 168.75 575.859C175.694 575.488 175.694 575.488 183.161 575.653C187.254 575.66 187.254 575.66 191.43 575.666C195.709 575.683 199.98 575.727 204.257 575.852C222.019 576.515 222.019 576.515 237.879 569.693C242.592 564.923 246.813 559.985 251.015 554.766C279.043 531.207 312.933 516.308 345.784 500.861C356.572 495.787 367.34 490.674 378.105 485.552C380.036 484.641 381.966 483.731 383.955 482.793C397.57 476.32 410.815 469.29 423.984 461.953C423.984 455.551 420.489 451.952 416.997 446.66C412.886 440.42 409.323 434.79 406.516 427.849C401.746 419.989 396.093 418.143 387.729 415.415C378.73 412.336 371.298 409.37 363.645 403.64C351.735 395.883 338.331 397.268 324.58 397.354C319.345 397.354 314.11 397.327 308.875 397.271C306.574 397.283 304.274 397.295 301.903 397.307C291.131 396.09 284.443 392.021 276.855 384.434C268.257 372.014 267.238 359.585 267.256 344.965C267.247 343.299 267.238 341.632 267.229 339.915C267.217 336.409 267.215 332.903 267.225 329.396C267.231 324.082 267.182 318.77 267.128 313.456C266.97 274.182 266.97 274.182 277.058 262.491C284.934 255.394 292.784 251.222 303.354 250.752C304.877 250.839 306.4 250.926 307.969 251.016C307.634 249.071 307.3 247.127 306.955 245.124C298.873 187.89 312.626 131.429 345.937 84.375C375.452 46.8372 416.282 21.2688 461.953 8.4375C463.458 7.997 464.962 7.55651 466.513 7.10266C510.426 -5.25126 565.508 -5.4576 609.609 6.32813ZM388.125 94.9219C359.12 128.654 343.465 168.381 343.432 212.783C343.407 214.597 343.381 216.411 343.354 218.279C343.328 229.918 344.767 239.842 348.047 251.016C349.344 251.143 350.641 251.271 351.977 251.403C354.534 251.668 354.534 251.668 357.143 251.938C359.676 252.195 359.676 252.195 362.26 252.458C367.031 253.125 367.031 253.125 373.359 255.234C373.315 253.483 373.271 251.732 373.225 249.927C372.109 199.011 373.835 155.224 411.328 116.016C455.634 75.7431 512.34 71.562 569.531 73.8281C609.272 76.8897 647.066 94.3729 674.538 123.192C700.159 153.188 707.395 187.551 706.904 225.835C706.883 228.696 706.864 231.556 706.846 234.417C706.797 241.356 706.721 248.295 706.64 255.234C714.994 253.842 723.347 252.45 731.953 251.016C742.491 202.934 733.018 155.409 706.64 113.906C677.765 72.0243 632.174 48.9713 583.003 39.8392C514.402 29.0094 437.457 42.628 388.125 94.9219ZM428.203 154.38C419.72 166.309 412.497 179.253 411.328 194.063C412.785 193.478 414.243 192.893 415.744 192.291C422.351 189.654 428.962 187.031 435.586 184.438C437.913 183.522 440.241 182.606 442.639 181.662C464.724 173.817 488.717 175.181 510.996 181.406C531.881 187.165 548.119 187.151 569.004 181.406C597.948 173.49 627.235 174.603 654.656 188.064C657.972 189.978 661.222 192.007 664.453 194.063C665.845 194.063 667.237 194.063 668.672 194.063C663.607 167.218 649.083 146.655 627.003 130.839C566.218 92.7168 476.578 101.469 428.203 154.38ZM413.734 239.2C410.223 244.13 411.072 247.34 411.855 253.257C412.218 256.332 412.218 256.332 412.589 259.47C412.869 261.552 413.149 263.635 413.437 265.781C413.943 269.602 414.428 273.425 414.888 277.251C415.113 278.901 415.339 280.552 415.571 282.252C415.542 287.753 414.289 290.715 411.328 295.312C404.914 298.519 398.197 298.017 391.099 298.32C385.784 299.127 385.784 299.127 382.242 303.214C377.133 312.722 378.065 323.576 381.072 333.743C385.836 344.422 392.867 352.525 402.89 358.594C406.164 359.512 409.462 360.346 412.778 361.099C417.607 362.417 417.607 362.417 421.875 364.922C426.004 372.342 428.315 379.897 430.312 388.125C451.47 392.101 472.192 395.206 493.745 395.763C502.243 396.044 509.353 396.475 516.797 400.781C521.4 407.081 521.336 411.682 520.224 419.238C519.991 420.924 519.757 422.61 519.516 424.347C519.315 425.619 519.113 426.892 518.906 428.203C511.824 430.564 506.499 430.552 499.04 430.518C495.074 430.508 495.074 430.508 491.027 430.498C488.263 430.48 485.499 430.463 482.651 430.444C479.835 430.434 477.018 430.424 474.201 430.415C467.306 430.391 460.411 430.356 453.515 430.312C462.982 449.989 482.536 457.03 502.006 464.31C514.132 467.624 526.873 466.95 539.341 466.963C541.879 467.015 544.417 467.066 547.032 467.119C574.161 467.207 598.351 459.583 619.464 442.169C636.862 424.257 646.295 396.33 653.272 372.923C656.61 365.754 659.462 363.961 666.562 360.703C669.349 359.706 672.162 358.776 675 357.935C686.838 353.632 691.977 345.456 697.807 334.6C701.18 324.305 702.225 315.407 698.467 304.937C696.24 301.305 696.24 301.305 691.875 299.531C688.802 299.264 685.725 299.051 682.646 298.872C676.112 298.167 673.146 297.584 667.485 293.994C660.756 282.877 665.002 270.19 667.749 258.25C668.738 252.759 669.275 248.137 668.672 242.578C657.77 229.103 630.721 215.874 613.828 213.047C596.623 211.422 582.368 214.397 565.972 219.449C543.38 226.029 523.082 222.599 500.845 215.947C468.34 206.854 439.882 219.534 413.734 239.2ZM305.859 288.984C305.859 311.955 305.859 334.927 305.859 358.594C317.693 358.594 329.526 358.594 341.719 358.594C341.719 335.623 341.719 312.652 341.719 288.984C329.885 288.984 318.051 288.984 305.859 288.984ZM738.281 288.984C738.281 311.955 738.281 334.927 738.281 358.594C749.419 358.594 760.556 358.594 772.031 358.594C772.031 335.623 772.031 312.652 772.031 288.984C760.894 288.984 749.756 288.984 738.281 288.984ZM436.64 499.922C434 504.05 434 504.05 435.652 508.499C447.033 537.825 466.023 553.561 493.857 566.886C501.515 570.226 508.541 572.538 516.797 573.75C518.651 574.03 520.506 574.31 522.416 574.599C554.872 578.409 587.73 570.699 613.828 550.547C628.172 538.359 641.225 524.282 644.2 505.031C643.811 499.611 643.811 499.611 639.412 495.901C629.221 489.249 629.221 489.249 617.528 487.579C612.978 489.046 612.978 489.046 608.559 491.171C587.154 500.996 568.226 503.381 545.005 503.131C540.006 503.086 535.013 503.131 530.013 503.185C506.67 503.227 488.268 498.919 466.963 489.111C454.95 484.953 445.765 492.445 436.64 499.922ZM679.219 518.906C678.221 521.098 677.223 523.289 676.195 525.547C668.171 542.644 660.287 556.59 646.919 570.116C643.113 573.153 643.113 573.153 643.359 575.859C691.39 575.859 739.42 575.859 788.906 575.859C782.255 569.208 778.684 565.981 770.812 561.877C768.907 560.879 767.003 559.882 765.041 558.855C762.997 557.81 760.953 556.765 758.848 555.688C756.736 554.597 754.624 553.506 752.448 552.382C717.091 530.818 717.091 530.818 679.219 518.906ZM382.135 526.306C380.455 527.071 378.776 527.837 377.046 528.626C373.471 530.259 369.898 531.894 366.326 533.532C360.929 536.002 355.524 538.454 350.119 540.906C318.348 554.892 318.348 554.892 291.094 575.859C339.124 575.859 387.155 575.859 436.64 575.859C432.464 570.987 428.287 566.114 423.984 561.094C413.612 547.872 406.231 534.816 400.781 518.906C394.815 518.906 387.619 523.8 382.135 526.306ZM153.061 629.78C152.063 631.001 151.066 632.222 150.037 633.48C143.707 642.921 144.443 653.585 145.547 664.453C148.109 675.374 151.571 685.964 155.064 696.613C156.081 699.793 157.096 702.974 158.108 706.156C160.274 712.945 162.459 719.728 164.659 726.506C168.12 737.171 171.541 747.849 174.955 758.529C178.476 769.542 182 780.553 185.538 791.561C193.569 816.558 201.492 841.587 209.322 866.648C209.838 868.299 210.355 869.951 210.886 871.652C214.379 882.829 217.866 894.007 221.352 905.186C224.595 915.581 227.84 925.976 231.092 936.369C232.32 940.299 233.545 944.231 234.769 948.162C235.494 950.48 236.219 952.798 236.966 955.185C237.596 957.203 238.225 959.221 238.874 961.3C240.34 966.087 240.34 966.087 242.578 970.313C438.876 970.313 635.175 970.313 837.422 970.313C858.839 903.541 880.194 836.784 900.995 769.823C904.393 758.924 907.846 748.043 911.314 737.166C914.11 728.392 916.888 719.612 919.664 710.832C920.983 706.68 922.31 702.53 923.645 698.383C925.487 692.661 927.299 686.93 929.105 681.196C929.651 679.529 930.196 677.861 930.758 676.144C934.789 663.187 937.651 649.268 931.025 636.636C924.54 624.971 915.535 618.019 902.812 613.828C896.761 613.197 896.761 613.197 890.229 613.285C887.691 613.272 885.153 613.258 882.538 613.244C878.366 613.254 878.366 613.254 874.11 613.264C871.12 613.256 868.13 613.246 865.14 613.235C856.923 613.209 848.706 613.21 840.489 613.215C831.627 613.216 822.765 613.192 813.903 613.172C796.541 613.137 779.179 613.126 761.816 613.123C747.704 613.121 733.592 613.113 719.479 613.099C679.473 613.062 639.466 613.043 599.46 613.046C597.303 613.046 595.146 613.046 592.923 613.046C590.764 613.047 588.604 613.047 586.379 613.047C551.376 613.049 516.373 613.008 481.371 612.949C445.435 612.888 409.499 612.859 373.563 612.863C353.386 612.864 333.209 612.853 313.032 612.807C295.853 612.769 278.674 612.759 261.495 612.788C252.731 612.802 243.967 612.802 235.203 612.766C227.175 612.732 219.149 612.738 211.122 612.775C206.851 612.785 202.579 612.753 198.308 612.719C180.295 612.856 164.978 614.691 153.061 629.78ZM137.109 765.703C135.34 767.938 133.667 770.248 132.034 772.583C130.476 774.799 130.476 774.799 128.887 777.06C127.772 778.664 126.657 780.267 125.508 781.919C124.368 783.551 123.228 785.183 122.054 786.864C119.731 790.193 117.409 793.524 115.091 796.856C112.204 800.98 109.285 805.076 106.342 809.16C90.807 830.951 77.7605 852.797 73.828 879.609C73.5792 881.033 73.3304 882.456 73.074 883.923C67.1694 921.853 85.0214 952.703 101.501 985.536C104.984 992.49 108.284 999.511 111.5 1006.59C112.773 1009.39 112.773 1009.39 114.071 1012.24C115.573 1015.54 117.071 1018.84 118.565 1022.14C122.372 1030.25 125.928 1036.36 132.89 1042.03C138.375 1043.18 138.375 1043.18 144.327 1042.86C146.489 1042.83 148.651 1042.8 150.878 1042.77C153.121 1042.7 155.364 1042.63 157.676 1042.56C159.952 1042.52 162.227 1042.48 164.572 1042.44C170.185 1042.34 175.795 1042.21 181.406 1042.03C181.284 1040.14 181.161 1038.26 181.035 1036.31C180.384 1018.85 181.45 1005.76 191.953 991.406C195.986 987.241 199.825 984.197 204.609 980.859C201.704 963.661 196.77 947.365 191.417 930.786C190.522 927.984 189.628 925.181 188.734 922.378C186.383 915.009 184.019 907.644 181.651 900.28C177.926 888.686 174.222 877.085 170.514 865.486C169.598 862.619 168.681 859.752 167.763 856.885C158.054 826.551 148.599 796.141 139.219 765.703C138.523 765.703 137.826 765.703 137.109 765.703ZM940.781 767.813C934.931 782.832 930.058 798.112 925.2 813.477C924.304 816.301 923.407 819.125 922.511 821.949C920.63 827.873 918.753 833.799 916.878 839.725C914.531 847.143 912.178 854.558 909.824 861.974C905.259 876.35 900.716 890.732 896.195 905.122C894.029 912.011 891.848 918.895 889.635 925.769C887.182 933.387 884.758 941.014 882.337 948.642C881.598 950.904 880.859 953.166 880.098 955.497C879.442 957.581 878.787 959.666 878.111 961.814C877.532 963.619 876.952 965.423 876.355 967.282C875.235 973.253 875.677 977.191 877.5 982.969C879.11 984.23 880.719 985.492 882.378 986.792C891.558 994.264 896.455 1005.12 898.594 1016.72C898.736 1021.11 898.773 1025.51 898.725 1029.9C898.706 1032.18 898.687 1034.45 898.668 1036.79C898.643 1038.52 898.619 1040.25 898.594 1042.03C906.503 1042.34 914.411 1042.52 922.324 1042.69C924.567 1042.78 926.811 1042.87 929.122 1042.96C931.284 1042.99 933.445 1043.03 935.672 1043.06C937.661 1043.12 939.649 1043.17 941.698 1043.23C949.389 1041.53 951.306 1037.97 955.547 1031.48C957.667 1027.67 959.666 1023.79 961.553 1019.85C963.192 1016.45 963.192 1016.45 964.864 1012.99C971.188 999.616 971.188 999.616 977.468 986.225C981.507 977.578 985.685 969.01 989.923 960.458C1007.25 924.651 1012.37 895.782 1000.49 857.387C990.901 831.932 975.069 810.82 958.916 789.198C956.581 786.072 954.262 782.936 951.955 779.79C950.816 778.244 949.676 776.698 948.502 775.105C947.474 773.704 946.446 772.303 945.388 770.86C944.564 769.854 943.74 768.849 942.89 767.813C942.194 767.813 941.498 767.813 940.781 767.813ZM217.265 1018.83C216.025 1026.8 216.503 1030.35 221.04 1037.09C231.22 1044.52 240.41 1043.49 252.713 1043.37C256.54 1043.4 256.54 1043.4 260.444 1043.42C267.52 1043.46 274.593 1043.44 281.668 1043.41C289.301 1043.39 296.933 1043.42 304.566 1043.45C319.515 1043.5 334.464 1043.49 349.413 1043.46C361.562 1043.43 373.71 1043.43 385.858 1043.44C388.451 1043.45 388.451 1043.45 391.096 1043.45C394.607 1043.45 398.118 1043.45 401.629 1043.46C434.56 1043.49 467.491 1043.45 500.422 1043.4C528.685 1043.35 556.947 1043.36 585.209 1043.41C618.022 1043.46 650.834 1043.48 683.646 1043.45C687.145 1043.45 690.643 1043.45 694.141 1043.44C695.862 1043.44 697.584 1043.44 699.357 1043.44C711.492 1043.43 723.628 1043.44 735.763 1043.47C750.55 1043.5 765.336 1043.49 780.123 1043.43C787.67 1043.41 795.215 1043.4 802.761 1043.43C810.937 1043.47 819.111 1043.42 827.286 1043.37C829.678 1043.39 832.069 1043.42 834.533 1043.44C847.659 1043.31 847.659 1043.31 859.017 1037.15C863.433 1031.55 863.433 1031.55 862.734 1023.84C860.389 1015.65 860.389 1015.65 854.297 1010.39C847.853 1008.37 841.997 1008.01 835.264 1008C833.116 1008 830.967 1007.99 828.754 1007.98C826.397 1007.98 824.04 1007.98 821.612 1007.99C819.106 1007.98 816.6 1007.97 814.017 1007.97C807.058 1007.95 800.099 1007.95 793.14 1007.94C785.635 1007.94 778.131 1007.92 770.626 1007.91C754.218 1007.88 737.81 1007.87 721.401 1007.86C711.158 1007.85 700.916 1007.84 690.673 1007.83C662.32 1007.81 633.966 1007.79 605.613 1007.78C603.799 1007.78 601.984 1007.78 600.115 1007.78C598.296 1007.78 596.477 1007.78 594.603 1007.78C590.918 1007.78 587.232 1007.78 583.546 1007.77C581.718 1007.77 579.89 1007.77 578.006 1007.77C548.367 1007.76 518.727 1007.73 489.088 1007.68C458.665 1007.63 428.243 1007.6 397.82 1007.6C380.736 1007.6 363.651 1007.59 346.567 1007.55C332.023 1007.52 317.479 1007.5 302.936 1007.52C295.514 1007.53 288.092 1007.53 280.67 1007.5C272.628 1007.47 264.587 1007.48 256.546 1007.51C253.018 1007.48 253.018 1007.48 249.419 1007.45C235.455 1007.54 227.425 1008.67 217.265 1018.83Z" fill="#062b6c"/>
<path d="M723.063 725.081C739.446 734.385 750.043 747.13 755.404 765.217C758.134 778.428 757.974 791.814 757.932 805.247C757.925 809.713 757.975 814.177 758.028 818.643C758.142 842.365 756.123 863.192 740.309 881.842C727.278 894.743 711.828 901.268 693.457 901.494C675.064 901.159 660.092 895.86 646.59 883.185C628.496 863.153 627.853 840.962 627.928 815.103C627.935 810.289 627.885 805.478 627.832 800.664C627.733 778.204 629.082 758.063 643.772 740.012C665.144 718.455 695.235 712.182 723.063 725.081ZM672.891 765.703C664.975 778.779 665.527 790.626 665.622 805.54C665.64 809.851 665.579 814.156 665.512 818.466C665.507 838.948 665.507 838.948 675 856.406C681.154 861.562 684.812 862.641 692.798 863.657C701.879 862.542 706.065 860.259 712.969 854.297C720.885 841.221 720.333 829.374 720.238 814.46C720.22 810.149 720.281 805.844 720.348 801.534C720.353 781.052 720.353 781.052 710.86 763.594C704.706 758.438 701.048 757.359 693.062 756.343C683.981 757.458 679.795 759.741 672.891 765.703Z" fill="#062b6c"/>
<path d="M445.078 727.734C455.739 734.519 463.604 745.038 467.482 757.134C469.42 767.681 470.693 778.624 464.985 787.983C458.114 792.036 453.049 792.985 445.078 793.125C439.277 791.279 439.277 791.279 434.531 786.797C432.624 782.059 431.19 777.282 429.744 772.386C427.613 766.062 425.487 762.871 419.766 759.375C412.183 758.851 412.183 758.851 405 761.484C400.342 766.081 400.342 766.081 398.672 772.031C401.271 779.916 405.305 782.511 412.473 786.311C414.392 787.359 416.31 788.407 418.287 789.487C422.306 791.626 426.327 793.763 430.35 795.898C446.298 804.618 462.472 815.091 468.281 833.203C470.567 850.895 468.197 865.002 457.734 879.609C447.358 891.115 435.987 899.454 420.285 901.436C402.345 902.33 388.852 898.266 375.32 886.292C364.675 875 359.368 864.017 357.803 848.628C358.67 840.964 360.124 837.092 364.922 831.094C370.522 826.693 373.502 826.878 380.742 827.007C388.125 828.984 388.125 828.984 393.003 833.203C397.6 841.376 399.26 849.328 400.781 858.516C413.565 860.796 413.565 860.796 426.094 858.516C428.069 851.556 428.069 851.556 428.203 843.75C420.367 836.052 410.775 831.349 401.177 826.216C383.241 816.301 367.521 807.339 359.904 787.332C356.014 773.218 358.379 759.716 364.922 746.719C383.858 718.473 415.485 710.482 445.078 727.734Z" fill="#062b6c"/>
<path d="M556.743 718.638C559.26 718.577 561.776 718.515 564.369 718.452C566.788 718.435 569.206 718.417 571.698 718.399C573.911 718.368 576.125 718.337 578.405 718.306C585.753 719.542 588.129 722.013 592.734 727.734C595.744 733.753 595.498 737.932 594.844 744.609C590.307 751.65 588.085 754.597 580.078 757.266C576.954 757.436 573.822 757.493 570.693 757.472C568.905 757.465 567.117 757.458 565.275 757.451C563.417 757.433 561.558 757.416 559.644 757.397C557.761 757.388 555.878 757.378 553.938 757.369C549.292 757.344 544.646 757.306 540 757.266C540 768.403 540 779.541 540 791.016C542.923 790.918 545.846 790.82 548.858 790.719C552.717 790.64 556.576 790.563 560.435 790.488C563.32 790.382 563.32 790.382 566.264 790.274C575.475 790.14 580.684 790.093 588.689 795.004C593.516 800.313 594.709 802.461 595.503 809.605C594.693 817.87 592.117 820.996 586.406 826.875C581.342 829.407 578.193 829.226 572.547 829.19C570.657 829.184 568.767 829.177 566.82 829.17C563.855 829.143 563.855 829.143 560.83 829.116C557.84 829.102 557.84 829.102 554.79 829.087C549.86 829.062 544.93 829.025 540 828.984C540 840.122 540 851.259 540 862.734C542.771 862.661 545.542 862.588 548.396 862.512C552.057 862.453 555.719 862.395 559.38 862.339C561.203 862.286 563.026 862.233 564.905 862.178C575.207 862.06 582.355 862.174 590.625 869.063C595.53 876.42 595.549 879.401 594.844 888.047C592.298 895.098 590.793 896.373 584.297 900.703C575.319 901.64 566.292 901.387 557.27 901.362C554.789 901.396 552.308 901.43 549.752 901.465C526.865 901.478 526.865 901.478 516.797 894.375C501.316 878.543 501.38 863.631 501.397 842.58C501.388 840.016 501.379 837.452 501.369 834.81C501.357 829.396 501.356 823.981 501.365 818.566C501.372 810.308 501.323 802.051 501.269 793.792C501.264 788.522 501.263 783.251 501.265 777.98C501.245 775.523 501.226 773.066 501.206 770.535C501.291 755.439 501.887 741.814 511.985 729.72C513.225 728.76 514.465 727.8 515.742 726.812C517.602 725.315 517.602 725.315 519.499 723.788C530.35 716.661 544.289 718.738 556.743 718.638Z" fill="#062b6c"/>
<path d="M213.252 646.046C215.09 646.043 216.928 646.041 218.822 646.039C222.696 646.049 226.57 646.09 230.443 646.16C236.37 646.26 242.29 646.247 248.218 646.219C251.988 646.242 255.757 646.272 259.527 646.309C262.18 646.303 262.18 646.303 264.887 646.298C272.887 646.492 277.118 646.617 283.714 651.423C288.203 657.947 288.846 662.911 288.984 670.781C286.425 677.179 284.489 680.279 278.495 683.709C269.111 686.41 260.064 685.989 250.356 685.811C248.391 685.792 246.427 685.773 244.403 685.753C239.575 685.703 234.749 685.634 229.921 685.547C230.531 687.38 231.14 689.212 231.767 691.101C232.55 693.531 233.333 695.962 234.14 698.467C234.923 700.865 235.706 703.263 236.513 705.734C238.986 715.426 239.902 722.469 235.459 731.558C232.031 736.172 232.031 736.172 227.812 738.281C212.43 739.522 212.43 739.522 206.756 734.809C201.815 729.045 199.912 724.198 197.523 717.006C196.693 714.521 195.864 712.036 195.01 709.475C194.175 706.887 193.34 704.298 192.48 701.631C191.613 699.059 190.745 696.486 189.852 693.836C182.086 670.205 182.086 670.205 183.515 660.234C191.336 646.752 198.299 645.716 213.252 646.046Z" fill="#062b6c"/>
<path d="M257.343 778.359C261.454 785.769 264.085 793.476 266.584 801.558C267.981 806.074 269.468 810.556 270.955 815.043C271.962 818.194 272.961 821.347 273.955 824.502C274.435 825.98 274.915 827.458 275.41 828.981C278.342 838.788 278.806 846.228 276.328 856.406C270.541 863.044 267.099 864.632 258.398 866.03C251.024 864.845 248.163 863.585 243.131 858.224C237.068 849.281 234.493 838.565 231.372 828.325C230.614 825.999 229.857 823.673 229.077 821.276C225.144 808.73 222.153 797.847 223.593 784.688C228.026 778.901 231.69 775.447 238.095 772.031C245.975 772.031 251.423 773.228 257.343 778.359Z" fill="#062b6c"/>
<path d="M359.385 646.655C362.982 646.551 362.982 646.551 366.652 646.445C384.259 646.332 384.259 646.332 392.879 652.448C397.744 659.945 397.974 664.108 396.563 672.891C392.055 680.04 389.86 682.859 381.797 685.547C374.511 686.083 367.216 686.035 359.912 686.074C357.916 686.118 355.921 686.161 353.864 686.206C335.271 686.311 335.271 686.311 326.953 679.219C322.048 671.861 322.029 668.88 322.735 660.234C328.746 643.587 344.509 646.731 359.385 646.655Z" fill="#062b6c"/>
</g>
<defs>
<clipPath id="clip0_23_148">
<rect width="1080" height="1080" fill="white"/>
</clipPath>
</defs>
</svg>
