<?xml version="1.0" encoding="iso-8859-1"?>
<!-- Generator: Adobe Illustrator 19.0.0, SVG Export Plug-In . SVG Version: 6.00 Build 0)  -->
<!-- License: CC0. Made by SVG Repo: https://www.svgrepo.com/svg/299178/value -->
<svg version="1.1" id="Layer_1" xmlns="http://www.w3.org/2000/svg" xmlns:xlink="http://www.w3.org/1999/xlink" x="0px" y="0px"
	 viewBox="0 0 512 512" style="enable-background:new 0 0 512 512;" xml:space="preserve">
<g>
	<g>
		<path d="M500.85,285.719C506.076,277.013,512,267.147,512,256c0-11.147-5.924-21.013-11.15-29.719
			c-3.696-6.157-7.187-11.972-8.25-17.347c-1.126-5.693-0.106-12.586,0.974-19.885c1.535-10.369,3.123-21.091-1.004-31.043
			c-4.209-10.151-13.013-16.661-21.526-22.955c-5.84-4.319-11.358-8.398-14.479-13.059c-3.169-4.735-4.854-11.442-6.637-18.544
			c-2.565-10.214-5.217-20.775-12.908-28.467c-7.692-7.692-18.254-10.344-28.468-12.909c-7.101-1.784-13.809-3.468-18.543-6.638
			c-4.661-3.12-8.74-8.637-13.059-14.478c-6.294-8.514-12.804-17.317-22.955-21.526c-4.256-1.764-9.037-2.622-14.616-2.622
			c-5.498,0-11.055,0.822-16.427,1.617c-5.079,0.751-9.876,1.462-14.303,1.462c-2.097,0-3.923-0.16-5.581-0.488
			c-5.374-1.063-11.189-4.554-17.345-8.25C277.014,5.924,267.147,0,256,0c-11.147,0-21.014,5.924-29.72,11.15
			c-6.156,3.696-11.971,7.187-17.345,8.25c-1.659,0.328-3.485,0.488-5.581,0.488c-4.428,0-9.226-0.71-14.303-1.462
			c-5.374-0.795-10.93-1.619-16.427-1.619c-5.579,0-10.361,0.858-14.616,2.622c-10.151,4.209-16.66,13.013-22.954,21.525
			c-4.318,5.841-8.397,11.358-13.058,14.479c-4.735,3.169-11.442,4.853-18.544,6.637c-10.214,2.564-20.776,5.217-28.468,12.909
			c-7.692,7.692-10.344,18.253-12.908,28.468c-1.784,7.101-3.468,13.809-6.637,18.543c-3.12,4.66-8.637,8.74-14.479,13.058
			c-8.514,6.294-17.316,12.804-21.526,22.955c-4.127,9.952-2.54,20.675-1.005,31.044c1.08,7.298,2.1,14.191,0.974,19.885
			c-1.063,5.375-4.554,11.19-8.25,17.346C5.924,234.987,0,244.853,0,256c0,11.147,5.924,21.013,11.15,29.719
			c3.696,6.157,7.187,11.972,8.25,17.347c1.126,5.693,0.106,12.586-0.974,19.885c-1.535,10.369-3.123,21.091,1.004,31.043
			c4.209,10.151,13.013,16.661,21.526,22.955c5.84,4.319,11.358,8.398,14.479,13.059c3.169,4.735,4.854,11.442,6.637,18.544
			c2.565,10.214,5.217,20.775,12.908,28.467c7.692,7.692,18.254,10.344,28.468,12.909c7.101,1.784,13.809,3.468,18.543,6.638
			c4.661,3.12,8.74,8.637,13.059,14.478c6.294,8.514,12.804,17.317,22.955,21.526c4.256,1.766,9.038,2.623,14.617,2.622
			c5.497,0,11.052-0.822,16.425-1.617c5.08-0.751,9.877-1.462,14.304-1.462c2.097,0,3.922,0.16,5.581,0.488
			c5.374,1.063,11.189,4.554,17.344,8.25C234.986,506.076,244.853,512,256,512c11.147,0,21.014-5.924,29.72-11.15
			c6.156-3.696,11.971-7.187,17.345-8.25c1.659-0.328,3.485-0.488,5.581-0.488c4.428,0,9.226,0.71,14.303,1.462
			c5.374,0.796,10.93,1.619,16.427,1.619c5.579,0,10.361-0.858,14.616-2.622c10.151-4.209,16.66-13.013,22.954-21.525
			c4.318-5.841,8.397-11.358,13.058-14.479c4.735-3.169,11.442-4.853,18.544-6.637c10.214-2.564,20.776-5.217,28.468-12.909
			c7.692-7.692,10.344-18.253,12.908-28.468c1.784-7.101,3.468-13.809,6.637-18.543c3.12-4.66,8.637-8.74,14.479-13.058
			c8.514-6.294,17.316-12.804,21.526-22.955c4.127-9.952,2.54-20.675,1.005-31.044c-1.08-7.298-2.1-14.191-0.974-19.885
			C493.663,297.691,497.154,291.876,500.85,285.719z M487.246,277.553c-4.235,7.053-8.612,14.346-10.211,22.435
			c-1.658,8.383-0.386,16.977,0.844,25.288c1.274,8.613,2.479,16.748,0.034,22.643c-2.524,6.087-9.217,11.036-16.303,16.274
			c-6.675,4.935-13.575,10.038-18.23,16.99c-4.702,7.025-6.807,15.403-8.84,23.507c-2.134,8.497-4.149,16.522-8.74,21.113
			c-4.59,4.59-12.616,6.606-21.112,8.739c-8.103,2.035-16.482,4.139-23.507,8.842c-6.952,4.655-12.055,11.556-16.991,18.23
			c-5.238,7.086-10.187,13.777-16.274,16.303c-2.291,0.95-5.085,1.412-8.538,1.412c-4.33,0-9.077-0.703-14.103-1.447
			c-5.425-0.803-11.033-1.633-16.628-1.633c-3.143,0-5.975,0.258-8.661,0.789c-8.089,1.601-15.382,5.978-22.434,10.211
			c-7.612,4.568-14.803,8.885-21.553,8.885c-6.75,0-13.94-4.317-21.553-8.887c-7.052-4.234-14.344-8.611-22.434-10.211
			c-2.685-0.531-5.518-0.789-8.661-0.789c-5.596,0-11.205,0.83-16.628,1.632c-5.026,0.745-9.773,1.447-14.103,1.447
			c-3.454,0-6.246-0.462-8.538-1.412c-6.088-2.524-11.037-9.216-16.276-16.303c-4.934-6.674-10.037-13.575-16.989-18.23
			c-7.025-4.702-15.404-6.807-23.508-8.841c-8.497-2.134-16.521-4.149-21.112-8.739c-4.59-4.59-6.605-12.615-8.739-21.112
			c-2.035-8.103-4.139-16.482-8.842-23.506c-4.654-6.952-11.556-12.055-18.23-16.99c-7.086-5.24-13.779-10.188-16.303-16.274
			c-2.445-5.895-1.24-14.03,0.035-22.642c1.23-8.31,2.503-16.903,0.844-25.288c-1.601-8.089-5.978-15.382-10.211-22.435
			c-4.57-7.612-8.886-14.802-8.886-21.552c0-6.749,4.316-13.939,8.886-21.553c4.235-7.053,8.612-14.346,10.211-22.435
			c1.658-8.383,0.386-16.977-0.844-25.288c-1.274-8.613-2.479-16.748-0.034-22.643c2.524-6.087,9.217-11.035,16.303-16.274
			c6.675-4.935,13.575-10.038,18.23-16.99c4.702-7.025,6.807-15.403,8.84-23.507c2.134-8.497,4.149-16.522,8.74-21.113
			c4.59-4.59,12.616-6.606,21.112-8.739c8.103-2.035,16.482-4.139,23.507-8.842c6.952-4.655,12.055-11.556,16.991-18.23
			c5.238-7.086,10.187-13.777,16.274-16.303c2.291-0.95,5.085-1.412,8.538-1.412c4.33,0,9.077,0.703,14.103,1.447
			c5.425,0.803,11.033,1.633,16.628,1.633c3.143,0,5.975-0.258,8.661-0.789c8.089-1.601,15.382-5.978,22.434-10.211
			c7.612-4.568,14.803-8.885,21.553-8.885c6.75,0,13.94,4.317,21.553,8.887c7.052,4.233,14.344,8.611,22.434,10.211
			c2.685,0.531,5.518,0.789,8.661,0.789c5.596,0,11.205-0.83,16.628-1.632c5.026-0.745,9.772-1.447,14.103-1.447
			c3.454,0,6.246,0.462,8.538,1.412c6.088,2.524,11.037,9.216,16.276,16.303c4.934,6.674,10.037,13.575,16.989,18.23
			c7.025,4.702,15.404,6.807,23.508,8.841c8.497,2.134,16.521,4.149,21.112,8.739s6.605,12.615,8.739,21.112
			c2.035,8.103,4.139,16.482,8.842,23.507c4.653,6.952,11.556,12.055,18.23,16.99c7.086,5.24,13.779,10.188,16.303,16.274
			c2.445,5.895,1.24,14.03-0.035,22.642c-1.23,8.31-2.503,16.903-0.844,25.288c1.601,8.089,5.978,15.382,10.211,22.435
			c4.57,7.612,8.886,14.802,8.886,21.552C496.132,262.749,491.816,269.939,487.246,277.553z"/>
	</g>
</g>
<g>
	<g>
		<path d="M256,78.81c-97.702,0-177.19,79.487-177.19,177.19S158.298,433.19,256,433.19S433.19,353.703,433.19,256
			S353.702,78.81,256,78.81z M256,417.322c-88.954,0-161.322-72.369-161.322-161.322S167.046,94.678,256,94.678
			S417.322,167.046,417.322,256S344.954,417.322,256,417.322z"/>
	</g>
</g>
<g>
	<g>
		<path d="M387.405,247.259l-41.073-82.865c-0.02-0.039-0.045-0.074-0.067-0.113c-0.139-0.27-0.291-0.531-0.46-0.784
			c-0.019-0.029-0.036-0.059-0.056-0.088c-0.19-0.276-0.401-0.539-0.627-0.791c-0.042-0.047-0.087-0.09-0.129-0.136
			c-0.191-0.204-0.396-0.398-0.61-0.582c-0.051-0.043-0.101-0.089-0.152-0.131c-0.255-0.207-0.523-0.404-0.808-0.582
			c-0.031-0.019-0.063-0.034-0.095-0.053c-0.188-0.114-0.379-0.225-0.58-0.325c-0.062-0.031-0.126-0.053-0.188-0.081
			c-0.089-0.041-0.179-0.079-0.269-0.116c-0.242-0.102-0.486-0.19-0.731-0.267c-0.068-0.021-0.133-0.045-0.201-0.065
			c-0.325-0.091-0.653-0.162-0.981-0.209c-0.044-0.006-0.09-0.008-0.134-0.015c-0.298-0.038-0.597-0.058-0.895-0.063
			c-0.041-0.001-0.083-0.008-0.124-0.008H173.206c-0.048,0-0.094,0.01-0.142,0.01c-0.279,0.004-0.559,0.024-0.839,0.059
			c-0.063,0.007-0.127,0.013-0.19,0.021c-0.323,0.048-0.644,0.115-0.964,0.205c-0.067,0.019-0.13,0.043-0.197,0.063
			c-0.245,0.076-0.489,0.164-0.73,0.264c-0.093,0.039-0.186,0.079-0.277,0.122c-0.072,0.033-0.144,0.059-0.215,0.094
			c-0.17,0.086-0.33,0.182-0.491,0.278c-0.052,0.031-0.106,0.057-0.158,0.089c-0.284,0.177-0.55,0.369-0.803,0.575
			c-0.047,0.038-0.091,0.08-0.138,0.12c-0.214,0.182-0.416,0.373-0.607,0.576c-0.05,0.052-0.099,0.103-0.148,0.157
			c-0.225,0.251-0.437,0.51-0.627,0.785c-0.198,0.291-0.359,0.569-0.507,0.854c-0.02,0.038-0.046,0.071-0.066,0.11l-41.504,82.865
			c-1.487,2.971-0.967,6.556,1.305,8.979l124.298,132.584c1.495,1.59,3.576,2.495,5.755,2.505c2.23,0.002,4.325-0.906,5.825-2.506
			l124.298-132.584C388.35,253.793,388.876,250.225,387.405,247.259z M326.437,175.851l-28.36,57.215l-28.956-57.215H326.437z
			 M285.244,242.849h-57.686l28.693-57.288L285.244,242.849z M243.367,175.851l-28.656,57.215l-28.657-57.215H243.367z
			 M141.273,249.39l31.933-63.757l28.656,57.215h-26.66c-4.383,0-7.934,3.552-7.934,7.934c0,4.382,3.551,7.934,7.934,7.934h33.668
			l29.276,94.006L141.273,249.39z M256.078,356.934l-30.587-98.217h61.811L256.078,356.934z M274.177,352.377l29.776-93.661h32.843
			c4.383,0,7.934-3.552,7.934-7.934c0-4.382-3.551-7.934-7.934-7.934h-25.858l28.286-57.067l31.52,63.591L274.177,352.377z"/>
	</g>
</g>
<g>
	<g>
		<path d="M256,47.074C140.798,47.074,47.074,140.798,47.074,256c0,49.619,17.78,97.755,50.065,135.541
			c2.845,3.331,7.855,3.725,11.186,0.878c3.331-2.846,3.725-7.855,0.878-11.186C79.372,346.318,62.942,301.843,62.942,256
			c0-106.453,86.605-193.058,193.058-193.058S449.058,149.547,449.058,256S362.453,449.058,256,449.058
			c-45.843,0-90.318-16.43-125.234-46.262c-3.332-2.848-8.341-2.453-11.186,0.878c-2.846,3.331-2.453,8.339,0.878,11.186
			c37.786,32.286,85.923,50.066,135.541,50.066c115.202,0,208.926-93.723,208.926-208.926S371.202,47.074,256,47.074z"/>
	</g>
</g>
</svg>
