<?xml version="1.0" encoding="UTF-8"?>
<svg version="1.1" xmlns="http://www.w3.org/2000/svg" width="512" height="512">
<path d="M0 0 C23.16084343 18.25881564 38.47436188 44.19461708 42.19433594 73.62011719 C44.08764721 108.52233111 36.8755526 137.9556095 13.06933594 164.62011719 C-7.21524576 186.52125334 -34.79867045 198.04826593 -64.36035156 199.83496094 C-88.76979995 200.4911289 -114.38700377 193.83473762 -133.80566406 178.62011719 C-133.80566406 177.96011719 -133.80566406 177.30011719 -133.80566406 176.62011719 C-130.83566406 175.63011719 -130.83566406 175.63011719 -127.80566406 174.62011719 C-127.81726563 173.91628906 -127.82886719 173.21246094 -127.84082031 172.48730469 C-127.85998873 170.38973238 -127.8539242 168.29184895 -127.82910156 166.19433594 C-127.813269 163.77987029 -127.86183684 161.36425433 -127.96972656 158.95214844 C-128.02773423 149.93195545 -128.02773423 149.93195545 -124.46582031 146.10839844 C-121.56523447 144.1266559 -119.17909221 142.615555 -115.80566406 141.62011719 C-112.2607832 142.5302893 -109.62639352 144.31012391 -106.68066406 146.43261719 C-91.37668047 156.78679751 -72.91428951 160.31532047 -54.74707031 156.96386719 C-35.58038964 152.33673928 -19.00831439 141.58689768 -8.60522461 124.65600586 C1.27029048 107.85223921 3.76269313 88.92771175 -0.83300781 69.96777344 C-3.61040222 60.40862884 -7.6406962 52.42907649 -13.80566406 44.62011719 C-14.42441406 43.83636719 -15.04316406 43.05261719 -15.68066406 42.24511719 C-26.94171622 28.80450655 -43.52690251 20.71562657 -60.80566406 18.62011719 C-80.32959734 17.33537077 -98.61223733 22.14936139 -113.85644531 34.88574219 C-114.4996875 35.45808594 -115.14292969 36.03042969 -115.80566406 36.62011719 C-116.41796875 37.15121094 -117.03027344 37.68230469 -117.66113281 38.22949219 C-128.2986919 48.09212976 -136.6611373 64.06028966 -137.80566406 78.62011719 C-137.7614123 81.56338621 -137.62727434 84.49689523 -137.49633789 87.4375 C-136.96291542 100.42252701 -136.96291542 100.42252701 -139.80957031 104.46777344 C-143.52197811 106.80808417 -146.18477715 107.68622931 -150.58300781 107.50683594 C-155.82471344 106.06457269 -160.38287688 103.2810715 -165.08496094 100.59472656 C-170.23079734 97.81503165 -170.23079734 97.81503165 -175.87207031 98.35058594 C-176.84015625 98.76953125 -177.80824219 99.18847656 -178.80566406 99.62011719 C-185.52259486 77.9647323 -175.05879224 50.92339575 -165.109375 31.96386719 C-162.20571707 26.74380799 -158.70838408 22.14231657 -154.80566406 17.62011719 C-153.69384766 16.30333984 -153.69384766 16.30333984 -152.55957031 14.95996094 C-114.1027391 -29.22873767 -46.35290072 -35.42274133 0 0 Z " fill="#000000" transform="translate(453.8056640625,291.3798828125)"/>
<path d="M0 0 C7.92 0 15.84 0 24 0 C24 122.1 24 244.2 24 370 C96.6 370 169.2 370 244 370 C240.64430565 373.35569435 238.29114463 375.18434419 234.2734375 377.4609375 C233.15839844 378.09773438 232.04335937 378.73453125 230.89453125 379.390625 C229.72150417 380.05234932 228.54832632 380.71380643 227.375 381.375 C225.09068572 382.67367018 222.80682511 383.9731387 220.5234375 385.2734375 C219.51200684 385.84497559 218.50057617 386.41651367 217.45849609 387.00537109 C214.17681894 388.77653408 214.17681894 388.77653408 212.17302322 390.48334122 C203.64070045 396.8344728 194.27707273 395.80061576 184.13818359 395.68115234 C182.09445578 395.67931237 180.05072416 395.68011864 178.00699806 395.68334389 C172.5541065 395.68469358 167.1020115 395.65002337 161.64930725 395.60768127 C156.52505089 395.57340716 151.40098425 395.57189698 146.27661133 395.56762695 C131.30930283 395.53619433 116.34214123 395.45242688 101.375 395.375 C67.92125 395.25125 34.4675 395.1275 0 395 C0 264.65 0 134.3 0 0 Z " fill="#000000" transform="translate(16,29)"/>
<path d="M0 0 C5.56527049 4.82323442 8.92686279 10.6622425 9.875 18 C10.17093897 26.08141047 7.56646562 32.43096065 2.5625 38.7109375 C-3.03148411 44.23000218 -10.07897052 45.59691601 -17.640625 45.640625 C-20.1875 45.4375 -20.1875 45.4375 -23.6875 43.875 C-27.17796171 43.04574255 -27.17796171 43.04574255 -29.55859375 45.0625 C-32.1954288 47.43846096 -34.69384906 49.91228386 -37.1875 52.4375 C-38.48749792 53.59749814 -39.79908756 54.74471398 -41.125 55.875 C-45.32053221 59.52807956 -49.42123553 63.28255549 -53.53125 67.03125 C-56.35472669 69.58898771 -59.21806002 72.09519969 -62.09375 74.59375 C-64.65169027 76.84626457 -67.1692898 79.14067092 -69.6875 81.4375 C-73.44287409 84.86273131 -77.23053222 88.24037856 -81.0703125 91.5703125 C-84.72053479 94.78951223 -88.28913218 98.09945056 -91.8671875 101.3984375 C-94.1875 103.4375 -94.1875 103.4375 -96.1875 104.4375 C-96.15269531 105.4996875 -96.11789062 106.561875 -96.08203125 107.65625 C-95.87359339 116.65204499 -95.93784981 123.26213117 -100.875 131.125 C-106.45719618 136.70719618 -112.3550661 139.56784174 -120.25 139.8125 C-127.81390536 139.73669249 -133.44217856 137.85578714 -139.06640625 132.72265625 C-143.10516299 128.27515786 -145.1875 124.55360613 -145.1875 118.4375 C-145.91580017 118.32076935 -146.64410034 118.2040387 -147.39447021 118.08377075 C-154.659024 116.89913195 -161.87004544 115.5422641 -169.078125 114.0546875 C-170.14875183 113.83555695 -171.21937866 113.61642639 -172.32244873 113.39065552 C-175.69455637 112.69998547 -179.06603481 112.00629858 -182.4375 111.3125 C-184.74344839 110.83964284 -187.04943763 110.36698481 -189.35546875 109.89453125 C-194.96661939 108.74448583 -200.57725862 107.59197241 -206.1875 106.4375 C-206.61482422 107.36369141 -206.61482422 107.36369141 -207.05078125 108.30859375 C-209.33537086 112.5872925 -213.61010816 115.1349941 -218.04296875 116.90234375 C-223.15945071 118.17913433 -229.25536792 118.36546701 -234.30273438 116.76806641 C-238.77096215 115.3257863 -238.77096215 115.3257863 -243.19677734 116.33129883 C-245.24765124 117.83581406 -247.08260575 119.44721825 -248.9375 121.1875 C-250.33983684 122.41425837 -251.74349814 123.63950427 -253.1484375 124.86328125 C-253.83389648 125.47510254 -254.51935547 126.08692383 -255.22558594 126.71728516 C-257.91346917 129.07403295 -260.71007926 131.21943648 -263.5625 133.375 C-264.60792969 134.17292969 -265.65335937 134.97085938 -266.73046875 135.79296875 C-267.55490479 136.42211182 -267.55490479 136.42211182 -268.39599609 137.06396484 C-272.66508846 140.33705201 -276.90324945 143.65033591 -281.14575195 146.95776367 C-285.18932463 150.10925183 -289.24015458 153.25057363 -293.3046875 156.375 C-294.13266846 157.0134082 -294.96064941 157.65181641 -295.8137207 158.30957031 C-297.4114667 159.54114284 -299.01149137 160.76976604 -300.61401367 161.99511719 C-301.33049072 162.54844727 -302.04696777 163.10177734 -302.78515625 163.671875 C-303.41945557 164.15881836 -304.05375488 164.64576172 -304.70727539 165.14746094 C-306.32210397 166.3896565 -306.32210397 166.3896565 -307.1875 168.4375 C-307.12933459 170.43839011 -307.0412241 172.43845379 -306.9375 174.4375 C-306.9076679 181.18701203 -308.10606885 186.01194368 -312.1875 191.4375 C-317.7811217 196.86195975 -323.52776229 199.71251152 -331.375 199.875 C-338.6472916 199.75146164 -344.35137243 197.88539298 -349.80859375 192.98046875 C-355.86037855 186.17445558 -356.74290587 179.88249193 -356.52734375 171.0703125 C-355.77856333 163.06610796 -352.26432705 158.99423087 -346.28515625 153.8828125 C-341.68843421 150.7156111 -337.85302193 150.16325264 -332.3125 150.1875 C-331.13945312 150.18234375 -329.96640625 150.1771875 -328.7578125 150.171875 C-325.1875 150.4375 -325.1875 150.4375 -321.7109375 151.7734375 C-317.87894818 152.49565278 -317.55583106 152.45939315 -314.53125 150.4296875 C-313.2313409 149.41406514 -311.95090585 148.37318757 -310.6875 147.3125 C-309.6514563 146.48903076 -309.6514563 146.48903076 -308.59448242 145.64892578 C-306.44190849 143.9316681 -304.31505141 142.18560609 -302.1875 140.4375 C-300.88365796 139.39314653 -299.57773849 138.3513802 -298.26953125 137.3125 C-295.75818159 135.31635704 -293.25490662 133.31081929 -290.7578125 131.296875 C-286.46769618 127.84728066 -282.10232734 124.50167222 -277.73046875 121.15625 C-273.36567577 117.81376087 -269.02695547 114.43777766 -264.6875 111.0625 C-263.92139404 110.46711426 -263.15528809 109.87172852 -262.3659668 109.25830078 C-260.9321025 108.14270334 -259.50238592 107.02174649 -258.07763672 105.89453125 C-256.48799575 104.66914022 -254.83209757 103.53039605 -253.1640625 102.4140625 C-250.89644973 100.54857356 -250.89644973 100.54857356 -250.8046875 97.484375 C-250.88976562 96.39640625 -250.97484375 95.3084375 -251.0625 94.1875 C-251.34821591 86.45585421 -250.19090791 80.773944 -244.7578125 74.8203125 C-239.08414555 69.82409832 -232.75584842 67.20221456 -225.1875 67.4375 C-216.50559879 68.38775784 -211.06170108 72.0594127 -205.484375 78.65625 C-202.81713974 82.31968157 -201.93467431 84.88663764 -202.1875 89.4375 C-200.95523682 89.55085693 -199.72297363 89.66421387 -198.45336914 89.78100586 C-192.52836846 90.44235594 -186.75657148 91.68472368 -180.93359375 92.94140625 C-179.79213394 93.1841478 -178.65067413 93.42688934 -177.47462463 93.67698669 C-173.85719736 94.44723919 -170.24109572 95.22352296 -166.625 96 C-164.16089262 96.52579067 -161.69670072 97.05118543 -159.23242188 97.57617188 C-153.21646247 98.85870202 -147.20157758 100.14617601 -141.1875 101.4375 C-140.89544678 100.81190186 -140.60339355 100.18630371 -140.30249023 99.54174805 C-138.97095714 97.02883284 -137.54251109 95.91068308 -135.25 94.25 C-134.56035156 93.74082031 -133.87070312 93.23164062 -133.16015625 92.70703125 C-129.26953502 90.2031661 -125.89024093 90.30288287 -121.375 90.3125 C-120.17230469 90.30992188 -118.96960938 90.30734375 -117.73046875 90.3046875 C-114.1875 90.4375 -114.1875 90.4375 -111.13671875 91.2890625 C-107.93885359 91.75884129 -107.93885359 91.75884129 -105.0390625 89.15625 C-103.94693203 88.10024513 -102.87204121 87.02619999 -101.8125 85.9375 C-100.66213598 84.81440964 -99.51109738 83.69200982 -98.359375 82.5703125 C-97.81087891 82.02536133 -97.26238281 81.48041016 -96.69726562 80.91894531 C-94.88270595 79.13842331 -92.99412081 77.46475416 -91.0625 75.8125 C-87.8915415 73.06968779 -84.78481967 70.26327384 -81.6875 67.4375 C-77.92399479 64.00485239 -74.12620649 60.6219499 -70.28125 57.28125 C-67.72330973 55.02873543 -65.2057102 52.73432908 -62.6875 50.4375 C-59.50309032 47.53380963 -56.30975179 44.64575953 -53.0625 41.8125 C-52.13050781 40.97138672 -52.13050781 40.97138672 -51.1796875 40.11328125 C-49.1875 38.4375 -49.1875 38.4375 -46.6953125 36.79296875 C-43.93949929 34.82269108 -42.07143379 33.26772163 -40.1875 30.4375 C-39.82557154 26.99556034 -39.85820437 23.88191228 -40.06469727 20.44604492 C-40.46219057 12.97928604 -38.42075162 8.20026677 -33.61328125 2.60546875 C-23.67260305 -6.91811806 -11.53673091 -5.65526025 0 0 Z " fill="#000000" transform="translate(429.1875,25.5625)"/>
<path d="M0 0 C0.88456879 -0.00637985 1.76913757 -0.0127597 2.68051147 -0.01933289 C3.63366241 -0.02044571 4.58681335 -0.02155853 5.56884766 -0.02270508 C6.55156647 -0.02603348 7.53428528 -0.02936188 8.54678345 -0.03279114 C10.62639905 -0.03785512 12.70602277 -0.04019963 14.78564453 -0.04003906 C17.96351561 -0.042223 21.14103813 -0.06037738 24.31884766 -0.0793457 C26.3396798 -0.08228025 28.3605136 -0.08426464 30.38134766 -0.08520508 C31.33045013 -0.09239059 32.27955261 -0.09957611 33.25741577 -0.10697937 C42.0368523 -0.07665959 42.0368523 -0.07665959 45.60791016 2.14526367 C47.99012772 5.67943821 47.86174598 8.90424037 47.86860657 13.0844574 C47.87243211 13.78263472 47.87625766 14.48081205 47.88019913 15.20014626 C47.8905167 17.53926918 47.88653941 19.87814606 47.88256836 22.21728516 C47.88691552 23.89447253 47.89209868 25.57165791 47.89805603 27.24884033 C47.91145668 31.80460136 47.91202353 36.36027949 47.90949273 40.91605639 C47.90842377 44.71834484 47.91330446 48.52061646 47.91809815 52.32290131 C47.92919697 61.29242875 47.9296286 70.26191432 47.92358398 79.23144531 C47.91754251 88.48708724 47.92985876 97.74257721 47.95115405 106.9981932 C47.96876205 114.94309441 47.97477269 122.88794721 47.97151631 130.83286721 C47.96970207 135.57874403 47.97235368 140.32451245 47.98623085 145.07037163 C47.99879158 149.53307868 47.99688178 153.99554861 47.98381996 158.45825195 C47.98145082 160.09612673 47.98420096 161.7340181 47.99244308 163.37187386 C48.00288397 165.60788749 47.99483203 167.84310154 47.98213196 170.0790863 C47.9822997 171.33029487 47.98246744 172.58150343 47.98264027 173.8706274 C47.57416382 177.44016119 46.8156 179.33162363 44.60791016 182.14526367 C41.79610788 183.0825311 40.0366884 183.28139444 37.12402344 183.30639648 C36.2194339 183.31600403 35.31484436 183.32561157 34.38284302 183.33551025 C33.4078183 183.33976013 32.43279358 183.34401001 31.42822266 183.34838867 C29.92085037 183.35693878 29.92085037 183.35693878 28.38302612 183.36566162 C26.25633802 183.37510944 24.12963529 183.38164474 22.00292969 183.38549805 C18.75250683 183.39520515 15.50271589 183.42623153 12.25244141 183.45776367 C10.18603891 183.46429373 8.11963189 183.46954419 6.05322266 183.47338867 C4.59675827 183.49190887 4.59675827 183.49190887 3.11087036 183.51080322 C-1.83949729 183.49449337 -5.42484533 183.47851999 -9.39208984 180.14526367 C-10.85609753 177.21724829 -10.52486291 174.63475074 -10.53253174 171.36392212 C-10.53550286 170.65858097 -10.53847398 169.95323983 -10.54153514 169.22652471 C-10.55024122 166.85128131 -10.55173199 164.47608819 -10.55322266 162.10083008 C-10.55784946 160.40261222 -10.56287393 158.7043954 -10.56826782 157.00617981 C-10.58140656 152.38427664 -10.58783957 147.76238801 -10.59227848 143.14046907 C-10.59520665 140.25490274 -10.59931095 137.36934041 -10.60378265 134.48377609 C-10.61746106 125.46132475 -10.62712621 116.43888252 -10.63098454 107.41642153 C-10.63546721 96.99039102 -10.65302336 86.56449149 -10.68198514 76.13850081 C-10.70357796 68.0866572 -10.71368753 60.0348505 -10.71502566 51.98297822 C-10.71607536 47.17058367 -10.72201803 42.35831218 -10.73984528 37.54594803 C-10.75628468 33.02008549 -10.75850166 28.49443906 -10.74970627 23.96855736 C-10.74893369 22.30607081 -10.75330759 20.64357284 -10.76316452 18.98111534 C-10.77581973 16.7140081 -10.77004293 14.44767375 -10.75958252 12.18057251 C-10.76104908 10.91109583 -10.76251564 9.64161915 -10.76402664 8.33367348 C-10.36491929 4.91234549 -9.83628874 3.52817373 -7.39208984 1.14526367 C-4.59818548 0.21396222 -2.88870557 0.01415904 0 0 Z " fill="#000000" transform="translate(184.39208984375,187.854736328125)"/>
<path d="M0 0 C0.96780396 -0.00938095 1.93560791 -0.0187619 2.93273926 -0.02842712 C4.490672 -0.01157616 4.490672 -0.01157616 6.08007812 0.00561523 C7.15253784 0.00416 8.22499756 0.00270477 9.32995605 0.00120544 C11.59613768 0.00286454 13.86233055 0.0144269 16.12841797 0.03515625 C19.59846832 0.06410171 23.06699033 0.05576647 26.53710938 0.04272461 C28.73893972 0.04896229 30.94076524 0.05735345 33.14257812 0.06811523 C34.18119995 0.0651796 35.21982178 0.06224396 36.28991699 0.05921936 C37.25772095 0.07190353 38.2255249 0.08458771 39.22265625 0.09765625 C40.07218872 0.10305923 40.92172119 0.10846222 41.79699707 0.11402893 C44.65260273 0.5923794 46.01999179 1.52310909 48.11132812 3.50170898 C49.18779232 6.73110156 49.23447814 9.04674606 49.23158264 12.44316101 C49.23295731 13.68416565 49.23433197 14.92517029 49.23574829 16.20378113 C49.23220916 17.58132959 49.22857435 18.9588778 49.22485352 20.33642578 C49.22457148 21.78512571 49.22472969 23.23382579 49.22529602 24.68252563 C49.22558337 28.61818536 49.21969676 32.55381472 49.21272206 36.48946738 C49.2064781 40.60144125 49.2058839 44.71341579 49.20469666 48.82539368 C49.20158642 56.61327171 49.19337717 64.40113573 49.18334717 72.18900758 C49.17217648 81.05468647 49.16667317 89.92036603 49.16165173 98.7860502 C49.15119432 117.02461108 49.13360082 135.2631589 49.11132812 153.50170898 C47.68444665 153.0290202 46.25781976 152.55556287 44.83129883 152.08178711 C43.63957817 151.68642761 43.63957817 151.68642761 42.42378235 151.28308105 C39.36008965 150.24786752 36.33152062 149.12412898 33.29882812 148.00170898 C22.21809489 144.07630029 11.83748208 142.09067115 0.14428711 141.14746094 C-0.73541748 141.07615967 -1.61512207 141.0048584 -2.52148438 140.93139648 C-3.31441895 140.87193848 -4.10735352 140.81248047 -4.92431641 140.7512207 C-6.88867188 140.50170898 -6.88867188 140.50170898 -8.88867188 139.50170898 C-8.98208203 121.9690157 -9.05263469 104.43639999 -9.09592056 86.90351486 C-9.11655249 78.76282182 -9.14468497 70.62228331 -9.19042969 62.48168945 C-9.23027835 55.38696257 -9.25610011 48.29234759 -9.26502585 41.19751191 C-9.27024401 37.44022663 -9.28252118 33.68326153 -9.3115921 29.9260788 C-9.34377023 25.73337047 -9.34463257 21.54122003 -9.34277344 17.34838867 C-9.36434509 15.47643578 -9.36434509 15.47643578 -9.38635254 13.56666565 C-9.38085388 12.4252562 -9.37535522 11.28384674 -9.36968994 10.10784912 C-9.37337711 9.11599987 -9.37706429 8.12415062 -9.38086319 7.10224533 C-8.38572312 1.84433473 -5.05972578 0.00098968 0 0 Z " fill="#000000" transform="translate(393.888671875,113.498291015625)"/>
<path d="M0 0 C7.48328422 4.44276614 12.8606988 10.77417882 15.75 19.109375 C17.50664116 29.68782945 16.54092291 39.36825078 10.703125 48.42578125 C4.94100459 55.90667596 -3.54577059 60.13437523 -12.83203125 61.375 C-20.33986355 61.66148307 -28.67155728 60.0216595 -34.4609375 55.04296875 C-36.70347889 52.97728751 -36.70347889 52.97728751 -39.20239258 53.45092773 C-42.25422102 54.356762 -44.65658861 55.63004839 -47.40234375 57.2421875 C-48.46332275 57.8599707 -49.52430176 58.47775391 -50.61743164 59.11425781 C-51.74012451 59.77780273 -52.86281738 60.44134766 -54.01953125 61.125 C-55.18121328 61.80625434 -56.34324423 62.48691405 -57.50561523 63.16699219 C-59.26626934 64.19736847 -61.02652314 65.22837672 -62.78507996 66.2623291 C-66.4356707 68.40691891 -70.10603951 70.51146619 -73.796875 72.5859375 C-74.67520996 73.0823877 -75.55354492 73.57883789 -76.45849609 74.09033203 C-78.09188236 75.01188492 -79.72880666 75.92720213 -81.36962891 76.83544922 C-85.68446451 79.09952391 -85.68446451 79.09952391 -87.89453125 83.25 C-88.01826977 84.75626848 -88.09525475 86.26668247 -88.140625 87.77734375 C-88.18993164 89.08928711 -88.18993164 89.08928711 -88.24023438 90.42773438 C-88.30129832 92.26355028 -88.3586068 94.09949505 -88.41210938 95.93554688 C-88.44626953 96.81146484 -88.48042969 97.68738281 -88.515625 98.58984375 C-88.55320923 99.78661743 -88.55320923 99.78661743 -88.59155273 101.00756836 C-88.93949087 103.58275912 -89.43685028 105.09182465 -90.89453125 107.25 C-93.09570313 108.84301758 -93.09570313 108.84301758 -95.86328125 110.39453125 C-96.89783447 110.98226318 -97.9323877 111.56999512 -98.99829102 112.17553711 C-100.11905029 112.79823486 -101.23980957 113.42093262 -102.39453125 114.0625 C-104.14528414 115.05229146 -105.89602654 116.04210204 -107.64613342 117.03303528 C-109.47839389 118.06897424 -111.31314298 119.10041404 -113.14794922 120.13183594 C-116.90456165 122.2491391 -120.63834739 124.40455461 -124.3671875 126.5703125 C-124.96610809 126.91791122 -125.56502869 127.26550995 -126.18209839 127.62364197 C-129.0816723 129.30699952 -131.98040702 130.99179432 -134.87890625 132.67700195 C-135.91660156 133.27730225 -136.95429688 133.87760254 -138.0234375 134.49609375 C-138.9419751 135.02904053 -139.8605127 135.5619873 -140.80688477 136.11108398 C-142.89453125 137.25 -142.89453125 137.25 -143.89453125 137.25 C-143.89453125 129.33 -143.89453125 121.41 -143.89453125 113.25 C-146.86453125 114.9 -149.83453125 116.55 -152.89453125 118.25 C-156.85523045 118.93550563 -158.23472569 118.63122099 -161.70703125 116.625 C-164.38451081 113.7180222 -164.89453125 112.18559391 -164.89453125 108.25 C-163.165101 103.52289064 -159.8360219 101.72442789 -155.63671875 99.36328125 C-153.73459801 98.35753311 -153.73459801 98.35753311 -152.89453125 96.25 C-153.72210938 96.00507813 -154.5496875 95.76015625 -155.40234375 95.5078125 C-159.42741881 94.05806511 -163.02680839 92.1776949 -166.76953125 90.125 C-167.45789063 89.75246094 -168.14625 89.37992187 -168.85546875 88.99609375 C-170.53747923 88.08500474 -172.21633561 87.16809685 -173.89453125 86.25 C-171.37181363 83.40999655 -168.54806976 81.7680024 -165.25 79.9140625 C-164.10797119 79.26751709 -162.96594238 78.62097168 -161.78930664 77.95483398 C-160.55368713 77.26130837 -159.31792566 76.56803562 -158.08203125 75.875 C-155.54130418 74.44434128 -153.00247539 73.01036035 -150.46484375 71.57421875 C-149.50829643 71.03333366 -149.50829643 71.03333366 -148.53242493 70.48152161 C-144.4197444 68.14570594 -140.35971404 65.7373203 -136.32421875 63.26953125 C-135.3288208 62.66351074 -134.33342285 62.05749023 -133.30786133 61.43310547 C-131.44363438 60.29161171 -129.58633167 59.13871152 -127.73706055 57.97314453 C-126.90343994 57.46509277 -126.06981934 56.95704102 -125.2109375 56.43359375 C-124.49365479 55.98556396 -123.77637207 55.53753418 -123.03735352 55.07592773 C-119.56060085 53.73585091 -117.03987468 54.74248566 -113.73803711 56.20556641 C-113.03557861 56.58374512 -112.33312012 56.96192383 -111.609375 57.3515625 C-110.83142578 57.75890625 -110.05347656 58.16625 -109.25195312 58.5859375 C-107.63238114 59.4486635 -106.01519996 60.31589207 -104.40039062 61.1875 C-103.62373047 61.59226562 -102.84707031 61.99703125 -102.046875 62.4140625 C-101.34554443 62.78998535 -100.64421387 63.1659082 -99.92163086 63.55322266 C-97.38735833 64.42433115 -96.38507381 64.19887638 -93.89453125 63.25 C-92.15173872 62.38402809 -90.43512001 61.46459406 -88.73828125 60.51171875 C-87.21763062 59.6602124 -87.21763062 59.6602124 -85.66625977 58.79150391 C-84.58658936 58.17968262 -83.50691895 57.56786133 -82.39453125 56.9375 C-81.28843506 56.31536621 -80.18233887 55.69323242 -79.04272461 55.05224609 C-70.9083331 50.45355673 -62.86843289 45.71088805 -54.9140625 40.80737305 C-54.14578125 40.33726807 -53.3775 39.86716309 -52.5859375 39.3828125 C-51.91763916 38.96918457 -51.24934082 38.55555664 -50.56079102 38.12939453 C-48.89453125 37.25 -48.89453125 37.25 -46.89453125 37.25 C-47.05953125 36.569375 -47.22453125 35.88875 -47.39453125 35.1875 C-48.92878233 26.17377491 -47.11542106 17.46071837 -42.26953125 9.62109375 C-31.95375649 -3.08020392 -14.87113521 -7.17401498 0 0 Z M-23.74609375 24.20703125 C-24.844375 24.82513672 -25.94265625 25.44324219 -27.07421875 26.08007812 C-28.21117187 26.73427734 -29.348125 27.38847656 -30.51953125 28.0625 C-31.66421875 28.70509766 -32.80890625 29.34769531 -33.98828125 30.00976562 C-40.42851424 33.485565 -40.42851424 33.485565 -45.89453125 38.25 C-45.13378282 39.87974564 -44.36054692 41.50366648 -43.58203125 43.125 C-43.15277344 44.02992188 -42.72351563 44.93484375 -42.28125 45.8671875 C-40.97459245 48.51449476 -40.97459245 48.51449476 -37.89453125 50.25 C-34.41676521 48.3821618 -30.94857141 46.4977264 -27.48803711 44.59814453 C-25.73698416 43.64136632 -23.97888799 42.69751471 -22.22070312 41.75390625 C-13.94333748 37.2479726 -13.94333748 37.2479726 -7.89453125 30.25 C-7.81420523 26.8763072 -8.61878657 25.6143769 -10.64453125 22.9375 C-15.30837692 19.43961575 -19.0979893 21.57504864 -23.74609375 24.20703125 Z " fill="#000000" transform="translate(400.89453125,350.75)"/>
<path d="M0 0 C0.92453476 -0.0127597 1.84906952 -0.02551941 2.80162048 -0.03866577 C4.2892263 -0.04200424 4.2892263 -0.04200424 5.80688477 -0.04541016 C6.83258072 -0.05206696 7.85827667 -0.05872375 8.91505432 -0.06558228 C11.08283699 -0.07570079 13.25065077 -0.08039954 15.41845703 -0.08007812 C18.73269988 -0.08445208 22.04561179 -0.12078328 25.35961914 -0.15869141 C27.46703647 -0.16455956 29.57446011 -0.16852896 31.68188477 -0.17041016 C32.67159775 -0.18478119 33.66131073 -0.19915222 34.68101501 -0.21395874 C36.07254539 -0.20472885 36.07254539 -0.20472885 37.4921875 -0.1953125 C38.70986061 -0.19958755 38.70986061 -0.19958755 39.95213318 -0.20394897 C43.38001257 0.51468225 44.94908734 1.70942708 47.31079102 4.29052734 C47.81666226 7.04190283 47.99653153 9.18272877 47.95776367 11.93310547 C47.96652527 12.69779648 47.97528687 13.46248749 47.98431396 14.25035095 C48.00629721 16.77473922 47.99176056 19.2973717 47.97485352 21.82177734 C47.978222 23.57768083 47.98307488 25.33358204 47.98934937 27.08947754 C47.99671919 30.76821101 47.98601206 34.44633716 47.96264648 38.125 C47.93415815 42.83992094 47.95056161 47.55341893 47.9805088 52.26828766 C47.99857911 55.89376543 47.99282509 59.51890598 47.97986984 63.14439392 C47.97653507 64.88272775 47.98062547 66.62109222 47.99226761 68.35939026 C48.00497265 70.78973437 47.98560785 73.21777657 47.95776367 75.64794922 C47.96788483 76.36599228 47.97800598 77.08403534 47.98843384 77.82383728 C47.91136521 81.45577873 47.55547019 83.02311807 45.07151794 85.73782349 C42.20865819 87.34796947 40.73242898 87.78774316 37.4921875 87.77636719 C36.56450058 87.78252045 35.63681366 87.78867371 34.68101501 87.79501343 C33.69130203 87.7806424 32.70158905 87.76627136 31.68188477 87.75146484 C30.65523209 87.7505484 29.62857941 87.74963196 28.57081604 87.74868774 C26.40474817 87.74265628 24.23868847 87.72692404 22.07275391 87.70214844 C18.75660496 87.66561893 15.44157339 87.66112939 12.12524414 87.66162109 C10.01911469 87.65179036 7.9129928 87.64013355 5.80688477 87.62646484 C4.31927895 87.62312637 4.31927895 87.62312637 2.80162048 87.61972046 C1.87708572 87.60696075 0.95255096 87.59420105 0 87.58105469 C-0.81098648 87.57343109 -1.62197296 87.5658075 -2.45753479 87.55795288 C-5.0456957 87.2478089 -6.55377272 86.79931497 -8.68920898 85.29052734 C-10.95046307 81.3031584 -10.94234239 77.61743586 -10.94799805 73.10107422 C-10.95150269 72.3963649 -10.95500732 71.69165558 -10.95861816 70.96559143 C-10.96738785 68.64671851 -10.96160331 66.32815312 -10.95483398 64.00927734 C-10.95618201 62.39172304 -10.95812368 60.77416913 -10.96063232 59.15661621 C-10.96357713 55.77071261 -10.95930667 52.38491472 -10.94995117 48.99902344 C-10.93855699 44.66465592 -10.94511991 40.33053611 -10.9570961 35.99617767 C-10.96433209 32.6572687 -10.96201878 29.3184182 -10.95684052 25.97950745 C-10.95550883 24.38155589 -10.95713486 22.78359899 -10.96179962 21.18565369 C-10.96689349 18.95028675 -10.95911476 16.71531786 -10.94799805 14.47998047 C-10.94640686 13.20932739 -10.94481567 11.93867432 -10.94317627 10.6295166 C-10.69267118 7.33604587 -10.3148545 5.15709969 -8.68920898 2.29052734 C-5.84736818 0.28263119 -3.42623611 0.03220799 0 0 Z " fill="#000000" transform="translate(78.689208984375,283.70947265625)"/>
<path d="M0 0 C0.94470657 -0.01283524 1.88941315 -0.02567047 2.86274719 -0.03889465 C3.88668076 -0.04628159 4.91061432 -0.05366852 5.96557617 -0.0612793 C7.01629807 -0.06935104 8.06701996 -0.07742279 9.14958191 -0.08573914 C11.37639716 -0.09958619 13.60323369 -0.11030555 15.83007812 -0.11816406 C19.23437768 -0.13537586 22.63770602 -0.17925718 26.04174805 -0.22338867 C28.20385027 -0.2335155 30.36596076 -0.24203163 32.52807617 -0.2487793 C34.05486748 -0.27504143 34.05486748 -0.27504143 35.61250305 -0.30183411 C39.86841076 -0.28878503 42.74700016 -0.17002964 46.59790039 1.74169922 C49.16369159 5.12264602 49.01797878 7.35153532 48.93432617 11.56762695 C48.92725143 12.2722406 48.9201767 12.97685425 48.91288757 13.70281982 C48.88497849 15.94531087 48.82225779 18.18527067 48.75854492 20.42700195 C48.73345703 21.95040329 48.7106447 23.47384392 48.69018555 24.99731445 C48.63516705 28.72469444 48.54892296 32.45060102 48.44604492 36.17700195 C47.90826416 36.45785645 47.3704834 36.73871094 46.81640625 37.02807617 C35.57786512 42.9393114 25.13622685 48.93311583 15.44604492 57.17700195 C14.50631836 57.95430664 13.5665918 58.73161133 12.59838867 59.5324707 C5.11607204 65.98346943 -3.07199496 74.21308171 -7.55395508 83.17700195 C-8.21395508 83.17700195 -8.87395508 83.17700195 -9.55395508 83.17700195 C-9.62349066 73.22384746 -9.67678445 63.27075084 -9.70939159 53.31740284 C-9.72504205 48.69556404 -9.74626901 44.07389153 -9.78027344 39.45214844 C-9.812889 34.99121658 -9.83081276 30.53044459 -9.83858681 26.06940269 C-9.84412637 24.36815563 -9.85494384 22.66691723 -9.87114525 20.9657383 C-9.89294899 18.58129651 -9.89592082 16.19751385 -9.89453125 13.81298828 C-9.90531708 13.11095779 -9.91610291 12.40892731 -9.92721558 11.68562317 C-9.89990692 7.34984889 -9.20786178 4.62778012 -6.55395508 1.17700195 C-4.16991966 -0.01501576 -2.66144391 0.03144508 0 0 Z " fill="#000000" transform="translate(288.553955078125,226.822998046875)"/>
</svg>
