<?xml version="1.0" encoding="UTF-8"?>
<!DOCTYPE svg PUBLIC "-//W3C//DTD SVG 1.1//EN" "http://www.w3.org/Graphics/SVG/1.1/DTD/svg11.dtd">
<svg xmlns="http://www.w3.org/2000/svg" version="1.1" width="512px" height="512px" style="shape-rendering:geometricPrecision; text-rendering:geometricPrecision; image-rendering:optimizeQuality; fill-rule:evenodd; clip-rule:evenodd" xmlns:xlink="http://www.w3.org/1999/xlink">
<g><path style="opacity:1" fill="#000000" d="M 443.5,10.5 C 447.426,10.0466 450.592,11.3799 453,14.5C 469.667,47.8333 486.333,81.1667 503,114.5C 504.262,118.909 503.428,122.743 500.5,126C 494.285,127.416 487.952,127.916 481.5,127.5C 481.667,151.502 481.5,175.502 481,199.5C 480.315,202.057 478.815,203.891 476.5,205C 456.167,205.667 435.833,205.667 415.5,205C 413.714,204.215 412.214,203.049 411,201.5C 409.529,176.898 409.029,152.232 409.5,127.5C 403.048,127.916 396.715,127.416 390.5,126C 387.735,123.005 386.902,119.505 388,115.5C 405,81.5 422,47.5 439,13.5C 440.409,12.2189 441.909,11.2189 443.5,10.5 Z M 444.5,39.5 C 445.376,39.3691 446.043,39.7025 446.5,40.5C 458.039,63.7444 469.705,86.911 481.5,110C 477.5,110.333 473.5,110.667 469.5,111C 467.333,111.833 465.833,113.333 465,115.5C 464.5,139.831 464.333,164.164 464.5,188.5C 451.833,188.5 439.167,188.5 426.5,188.5C 426.667,163.831 426.5,139.164 426,114.5C 424.786,112.951 423.286,111.785 421.5,111C 417.5,110.667 413.5,110.333 409.5,110C 421.577,86.6788 433.244,63.1788 444.5,39.5 Z"/></g>
<g><path style="opacity:1" fill="#000000" d="M 301.5,50.5 C 306.635,49.4262 310.468,51.0928 313,55.5C 315.875,68.2125 318.875,80.8791 322,93.5C 328.167,87.3333 334.333,81.1667 340.5,75C 351.03,73.1922 354.863,77.3589 352,87.5C 345.985,93.3479 340.152,99.3479 334.5,105.5C 346.779,108.523 359.112,111.356 371.5,114C 378.223,118.18 379.056,123.347 374,129.5C 354.138,149.695 333.972,169.529 313.5,189C 310.833,189.667 308.167,189.667 305.5,189C 290.229,185.346 274.896,182.346 259.5,180C 257.5,182 255.5,184 253.5,186C 284.445,222.7 294.278,264.534 283,311.5C 281.359,316.759 279.525,321.926 277.5,327C 278.46,328.419 279.293,329.919 280,331.5C 280.987,386.558 280.654,441.558 279,496.5C 277.786,498.049 276.286,499.215 274.5,500C 253.769,500.965 233.102,500.632 212.5,499C 211.299,498.097 210.465,496.931 210,495.5C 209.833,463.495 209.333,431.495 208.5,399.5C 199.253,403.916 189.586,406.916 179.5,408.5C 179.984,438.255 179.484,467.921 178,497.5C 176.581,498.46 175.081,499.293 173.5,500C 153.833,500.667 134.167,500.667 114.5,500C 112,498.833 110.167,497 109,494.5C 108.5,464.502 108.333,434.502 108.5,404.5C 57.7423,386.237 27.2423,350.57 17,297.5C 10.384,238.916 31.2173,193.083 79.5,160C 125.27,133.911 171.603,132.911 218.5,157C 226.393,161.56 233.727,166.893 240.5,173C 243.606,171.935 246.273,169.935 248.5,167C 244.584,150.76 240.918,134.427 237.5,118C 237.796,116.112 238.296,114.278 239,112.5C 259.728,91.6045 280.562,70.9379 301.5,50.5 Z M 299.5,76.5 C 302.379,86.8477 305.046,97.3477 307.5,108C 292.667,122.833 277.833,137.667 263,152.5C 260.345,142.214 257.845,131.881 255.5,121.5C 270.188,106.479 284.855,91.4792 299.5,76.5 Z M 318.5,120.5 C 329.302,122.2 339.969,124.534 350.5,127.5C 336.347,142.153 322.014,156.653 307.5,171C 296.716,169.676 286.05,167.51 275.5,164.5C 289.855,149.813 304.188,135.146 318.5,120.5 Z M 143.5,156.5 C 176.076,155.302 204.743,165.135 229.5,186C 222.667,192.833 215.833,199.667 209,206.5C 181.261,184.917 150.761,180.083 117.5,192C 77.2099,211 58.7099,242.833 62,287.5C 69.0163,327.715 92.1829,353.215 131.5,364C 179.254,371.375 213.754,353.542 235,310.5C 247.291,277.255 242.791,246.588 221.5,218.5C 227.833,211.5 234.5,204.833 241.5,198.5C 268.249,230.846 276.416,267.512 266,308.5C 252.902,349.265 226.068,376.432 185.5,390C 127.589,403.152 82.0889,385.319 49,336.5C 23.8476,288.395 27.5142,242.728 60,199.5C 82.351,174.408 110.184,160.075 143.5,156.5 Z M 143.5,202.5 C 163.323,200.999 180.99,206.332 196.5,218.5C 189.681,225.819 182.681,232.986 175.5,240C 170.265,238.403 164.932,236.736 159.5,235C 129.907,232.928 113.24,246.594 109.5,276C 112.101,301.435 126.101,315.268 151.5,317.5C 177.133,315.2 191.133,301.2 193.5,275.5C 193.015,267.552 190.681,260.219 186.5,253.5C 193.819,245.681 201.319,238.014 209,230.5C 227.272,256.594 229.272,283.928 215,312.5C 192.681,345.274 162.514,355.774 124.5,344C 86.1807,324.855 72.014,294.355 82,252.5C 93.1207,224.205 113.621,207.539 143.5,202.5 Z M 145.5,251.5 C 149.514,251.334 153.514,251.501 157.5,252C 159.044,252.29 160.377,252.956 161.5,254C 155.667,259.833 149.833,265.667 144,271.5C 141.476,278.349 143.809,282.682 151,284.5C 152.888,284.204 154.722,283.704 156.5,283C 162.015,277.318 167.681,271.818 173.5,266.5C 178.69,281.309 174.024,292.143 159.5,299C 140.889,302.403 129.889,294.736 126.5,276C 127.955,263.872 134.288,255.705 145.5,251.5 Z M 262.5,353.5 C 263.499,396.663 263.832,439.997 263.5,483.5C 251.167,483.5 238.833,483.5 226.5,483.5C 226.333,452.165 226.5,420.832 227,389.5C 241.064,379.604 252.897,367.604 262.5,353.5 Z M 125.5,409.5 C 137.752,411.25 150.086,411.917 162.5,411.5C 162.5,435.5 162.5,459.5 162.5,483.5C 150.167,483.5 137.833,483.5 125.5,483.5C 125.5,458.833 125.5,434.167 125.5,409.5 Z"/></g>
<g><path style="opacity:1" fill="#000000" d="M 414.5,217.5 C 435.169,217.333 455.836,217.5 476.5,218C 478.815,219.109 480.315,220.943 481,223.5C 481.667,313.5 481.667,403.5 481,493.5C 480.261,496.573 478.428,498.74 475.5,500C 455.833,500.667 436.167,500.667 416.5,500C 413.768,499.602 411.935,498.102 411,495.5C 410.333,404.167 410.333,312.833 411,221.5C 412.376,220.295 413.542,218.962 414.5,217.5 Z M 427.5,234.5 C 439.833,234.5 452.167,234.5 464.5,234.5C 464.5,317.5 464.5,400.5 464.5,483.5C 452.167,483.5 439.833,483.5 427.5,483.5C 427.5,400.5 427.5,317.5 427.5,234.5 Z"/></g>
<g><path style="opacity:1" fill="#000000" d="M 314.5,268.5 C 334.836,268.333 355.169,268.5 375.5,269C 377.667,269.833 379.167,271.333 380,273.5C 380.667,347.5 380.667,421.5 380,495.5C 378.891,497.815 377.057,499.315 374.5,500C 354.833,500.667 335.167,500.667 315.5,500C 313,498.833 311.167,497 310,494.5C 309.333,420.833 309.333,347.167 310,273.5C 311.025,271.313 312.525,269.646 314.5,268.5 Z M 326.5,285.5 C 338.833,285.5 351.167,285.5 363.5,285.5C 363.5,351.5 363.5,417.5 363.5,483.5C 351.167,483.5 338.833,483.5 326.5,483.5C 326.5,417.5 326.5,351.5 326.5,285.5 Z"/></g>
<g><path style="opacity:1" fill="#000000" d="M 13.5,432.5 C 33.1695,432.333 52.8362,432.5 72.5,433C 74.286,433.785 75.786,434.951 77,436.5C 78.6284,455.435 78.9617,474.435 78,493.5C 77.6541,495.848 76.4875,497.681 74.5,499C 54.2313,500.631 33.898,500.964 13.5,500C 11.6711,499.727 10.1711,498.893 9,497.5C 7.35748,477.256 7.02415,456.923 8,436.5C 9.49981,434.531 11.3331,433.198 13.5,432.5 Z M 23.5,449.5 C 36.1667,449.5 48.8333,449.5 61.5,449.5C 61.5,460.833 61.5,472.167 61.5,483.5C 48.8333,483.5 36.1667,483.5 23.5,483.5C 23.5,472.167 23.5,460.833 23.5,449.5 Z"/></g>
</svg>
