<?xml version="1.0" encoding="UTF-8"?>
<svg version="1.1" xmlns="http://www.w3.org/2000/svg" width="512" height="512">
<path d="M0 0 C4.98010384 3.84619272 6.08594152 7.48007487 7.23828125 13.36328125 C7.40877487 14.15526413 7.57926849 14.94724701 7.75492859 15.76322937 C8.29174308 18.27630761 8.80241992 20.7938743 9.3125 23.3125 C9.6734136 25.02445134 10.03602621 26.73604542 10.40039062 28.44726562 C11.28664471 32.62763187 12.14951024 36.8122176 13 41 C15.1368949 41.22826769 15.1368949 41.22826769 16.66064453 39.43945312 C17.31145996 38.72724609 17.96227539 38.01503906 18.6328125 37.28125 C19.35726563 36.51425781 20.08171875 35.74726562 20.828125 34.95703125 C22.34848991 33.3306545 23.85657378 31.69270192 25.3515625 30.04296875 C30.84113615 24.29244706 30.84113615 24.29244706 34.25317383 23.43139648 C37.2585743 23.39076912 39.68601551 23.86313497 42.4375 25.0625 C44.79259706 27.98282035 44.93611417 30.29462195 45 34 C42.65381815 39.16879144 38.38840267 42.79857317 34.375 46.6875 C33.00563196 48.02250657 31.63833731 49.35964423 30.2734375 50.69921875 C29.66935059 51.28533936 29.06526367 51.87145996 28.44287109 52.4753418 C26.90029892 53.9577594 26.90029892 53.9577594 26 56 C27.19109375 56.10699219 28.3821875 56.21398437 29.609375 56.32421875 C36.23779883 57.06517999 42.72758335 58.44347192 49.25 59.8125 C50.50296875 60.06064453 51.7559375 60.30878906 53.046875 60.56445312 C54.2534375 60.81775391 55.46 61.07105469 56.703125 61.33203125 C57.79270508 61.55608643 58.88228516 61.7801416 60.00488281 62.01098633 C63.39936993 63.13187541 65.42204942 64.54225722 68 67 C69.0625 69.8125 69.0625 69.8125 69 73 C66.46230462 78.10852141 63.43294316 81.9965153 59.36108398 85.99536133 C58.80936523 86.54912445 58.25764648 87.10288757 57.68920898 87.6734314 C55.88199473 89.48362938 54.06433375 91.28291397 52.24609375 93.08203125 C50.98045954 94.34460431 49.71541835 95.60777208 48.45094299 96.87150574 C45.80850478 99.50935647 43.16125216 102.14223897 40.51000977 104.77124023 C37.11135068 108.14153124 33.72150879 111.52051903 30.33477688 114.90279102 C27.72649788 117.50691579 25.11540007 120.10819745 22.50325203 122.70844078 C21.25206463 123.95393263 20.00134332 125.19989288 18.75109673 126.44632912 C17.00649811 128.18405819 15.25856498 129.91835758 13.50952148 131.65161133 C12.9935994 132.16641556 12.47767731 132.68121979 11.94612122 133.21162415 C6.1695614 138.91917051 6.1695614 138.91917051 1.41088867 139.24804688 C-3.39139273 139.12055692 -7.91155969 138.12419569 -12.57421875 137.03125 C-13.46107864 136.8314856 -14.34793854 136.63172119 -15.26167297 136.42590332 C-18.07218314 135.79198926 -20.87996359 135.1469467 -23.6875 134.5 C-26.50597551 133.85419468 -29.32495205 133.21096046 -32.14546204 132.57409668 C-33.89409463 132.17893988 -35.64155279 131.77853903 -37.38761902 131.37219238 C-43.13126289 130.04017715 -43.13126289 130.04017715 -49 130 C-50.64806974 131.25792532 -50.64806974 131.25792532 -51.8125 133 C-52.534375 133.99 -53.25625 134.98 -54 136 C-53.62230469 136.36867187 -53.24460938 136.73734375 -52.85546875 137.1171875 C-28.1425308 163.1612673 -20.07386903 200.05640511 -20.86816406 234.76513672 C-21.37375886 247.17093488 -24.17328319 258.79116139 -28.19384766 270.50537109 C-28.45601074 271.29637207 -28.71817383 272.08737305 -28.98828125 272.90234375 C-29.23102783 273.59835693 -29.47377441 274.29437012 -29.72387695 275.01147461 C-30.20955649 277.03315964 -30.20955649 277.03315964 -29.03355122 278.7119379 C-27.65119705 281.77217538 -27.74511963 284.24178607 -27.73930359 287.59751892 C-27.73547804 288.25894427 -27.73165249 288.92036963 -27.72771102 289.60183817 C-27.71739807 291.81658966 -27.72136984 294.03108107 -27.7253418 296.24584961 C-27.72099438 297.83436828 -27.71581113 299.42288486 -27.70985413 301.01139832 C-27.69645623 305.32543278 -27.69588632 309.63937968 -27.69841743 313.95343089 C-27.69948658 317.55440813 -27.69460521 321.1553676 -27.689812 324.75634104 C-27.67871413 333.25122978 -27.67828102 341.74607431 -27.68432617 350.2409668 C-27.69036751 359.00582787 -27.67805156 367.77052849 -27.6567561 376.53536218 C-27.63914609 384.05988525 -27.63313778 391.58435721 -27.63639385 399.10890013 C-27.63820777 403.60326821 -27.63555963 408.09752182 -27.62167931 412.59187126 C-27.60911529 416.81819935 -27.61103146 421.04427708 -27.62409019 425.27060127 C-27.62645863 426.821398 -27.62371172 428.37221227 -27.61546707 429.92298889 C-27.60502004 432.04078293 -27.61308282 434.15773375 -27.6257782 436.27549744 C-27.62552659 438.05275664 -27.62552659 438.05275664 -27.62526989 439.86592007 C-28.04315267 443.36091022 -28.89119864 445.20612796 -31 448 C-34.4170447 450.2780298 -35.66077349 450.25662847 -39.67724609 450.2746582 C-40.84210541 450.28419022 -42.00696472 450.29372223 -43.2071228 450.30354309 C-44.46650665 450.30263168 -45.7258905 450.30172028 -47.0234375 450.30078125 C-48.96363266 450.30720894 -48.96363266 450.30720894 -50.94302368 450.31376648 C-53.68178401 450.32122727 -56.42041545 450.32093899 -59.15917969 450.31567383 C-62.66194075 450.30988615 -66.16417184 450.3267931 -69.66684532 450.3500185 C-73.01489795 450.36833273 -76.36283508 450.36456971 -79.7109375 450.36328125 C-81.59394058 450.37709587 -81.59394058 450.37709587 -83.51498413 450.39118958 C-84.68614777 450.38496078 -85.8573114 450.37873199 -87.06396484 450.37231445 C-88.60593033 450.37325859 -88.60593033 450.37325859 -90.17904663 450.3742218 C-93.45764745 449.93928944 -95.34436298 448.94096221 -98 447 C-99.7026057 443.59478859 -99.12864821 439.70607881 -99.11352539 435.96044922 C-99.11367142 435.02381439 -99.11381744 434.08717957 -99.1139679 433.12216187 C-99.11326944 430.01631378 -99.10548015 426.91052515 -99.09765625 423.8046875 C-99.09579183 421.65520256 -99.09436804 419.5057172 -99.09336853 417.35623169 C-99.08954522 411.69104851 -99.07971651 406.02589085 -99.06866455 400.36071777 C-99.05844644 394.58292994 -99.05387005 388.805138 -99.04882812 383.02734375 C-99.03809409 371.6848846 -99.02101989 360.34244442 -99 349 C-100.52633057 349.61705811 -100.52633057 349.61705811 -102.08349609 350.24658203 C-103.43844141 350.7920795 -104.79342386 351.33748477 -106.1484375 351.8828125 C-106.81673584 352.15327393 -107.48503418 352.42373535 -108.17358398 352.70239258 C-121.5745266 358.08735851 -121.5745266 358.08735851 -129 358 C-128.99111755 359.08106018 -128.98223511 360.16212036 -128.9730835 361.27593994 C-128.89203709 371.45820719 -128.83205354 381.64040909 -128.79275131 391.82292557 C-128.77186639 397.05803102 -128.74353204 402.29287632 -128.69824219 407.52783203 C-128.654817 412.57879955 -128.63086971 417.62951666 -128.62049103 422.68065643 C-128.61309369 424.60882256 -128.59864856 426.53697481 -128.57707977 428.46503448 C-128.54808993 431.1635156 -128.54404213 433.86095882 -128.54589844 436.55957031 C-128.53151733 437.35870346 -128.51713623 438.15783661 -128.50231934 438.98118591 C-128.52909814 442.57300311 -128.67458833 444.57856659 -130.90338135 447.46502686 C-134.33598373 449.9780983 -136.33645445 450.13654519 -140.5637207 450.17700195 C-141.72865555 450.18983719 -142.89359039 450.20267242 -144.09382629 450.21589661 C-145.990644 450.22697701 -145.990644 450.22697701 -147.92578125 450.23828125 C-149.22065964 450.246353 -150.51553802 450.25442474 -151.84965515 450.26274109 C-154.59434885 450.27776822 -157.33901667 450.2876059 -160.08374023 450.29516602 C-163.59445768 450.30622323 -167.10454001 450.34061448 -170.61503315 450.38033772 C-173.96859037 450.41281689 -177.32207889 450.41728395 -180.67578125 450.42578125 C-182.56348991 450.45204338 -182.56348991 450.45204338 -184.48933411 450.47883606 C-185.66372543 450.47591049 -186.83811676 450.47298492 -188.0480957 450.4699707 C-189.0790889 450.47583694 -190.11008209 450.48170319 -191.1723175 450.48774719 C-194.74018167 449.872326 -196.41052465 448.47731532 -199 446 C-200.63669759 442.72660483 -200.12902276 439.10779193 -200.11352539 435.51123047 C-200.11367142 434.63311707 -200.11381744 433.75500366 -200.1139679 432.85028076 C-200.11326958 429.9392248 -200.10548095 427.02823232 -200.09765625 424.1171875 C-200.09579178 422.10222407 -200.09436802 420.08726019 -200.09336853 418.07229614 C-200.08954562 412.7622147 -200.07971724 407.4521605 -200.06866455 402.14208984 C-200.05844559 396.72624073 -200.05386987 391.31038722 -200.04882812 385.89453125 C-200.03809479 375.26300885 -200.02102106 364.63150669 -200 354 C-200.94390594 353.85176285 -201.88781189 353.7035257 -202.86032104 353.55079651 C-205.67208312 353.05752673 -207.75520246 352.41091414 -210.3203125 351.21484375 C-211.09705322 350.85318115 -211.87379395 350.49151855 -212.67407227 350.11889648 C-213.48287842 349.72903564 -214.29168457 349.3391748 -215.125 348.9375 C-216.38751587 348.33240601 -216.38751587 348.33240601 -217.67553711 347.71508789 C-224.55991205 344.3464754 -230.83612549 340.57676909 -237 336 C-237.79921875 335.4225 -238.5984375 334.845 -239.421875 334.25 C-268.27929859 312.37116904 -286.82794016 280.66620464 -292.31689453 244.93725586 C-294.44313037 228.11184575 -293.90384228 210.50722886 -290 194 C-289.8443457 193.31744141 -289.68869141 192.63488281 -289.52832031 191.93164062 C-281.46261226 157.76910074 -258.88822937 127.65644118 -229.1875 109.25 C-197.8094313 90.40665269 -160.6613077 84.02041241 -124.90625 92.57275391 C-105.99319681 97.40463986 -88.29754139 105.26785821 -73.26074219 117.85083008 C-70.1171288 120.42384226 -69.24834784 121 -65 121 C-62.40276259 119.22166177 -62.40276259 119.22166177 -61 116 C-61.08646625 112.45607582 -61.96255865 109.15533835 -62.83203125 105.73046875 C-63.06202316 104.73549881 -63.29201508 103.74052887 -63.52897644 102.71540833 C-64.26728354 99.53354018 -65.03744137 96.36059918 -65.8125 93.1875 C-66.57308201 90.02447141 -67.32633094 86.86020622 -68.06388855 83.69172668 C-68.52364681 81.72161108 -68.99704521 79.75461336 -69.48603821 77.79154968 C-69.69923203 76.8873378 -69.91242584 75.98312592 -70.13208008 75.05151367 C-70.32401443 74.26717453 -70.51594879 73.48283539 -70.71369934 72.67472839 C-71.18239772 68.29597196 -71.33148215 64.1137964 -68.93554592 60.3101244 C-67.47474927 58.60937572 -65.93745233 57.05913707 -64.31860352 55.50805664 C-63.72670227 54.91352692 -63.13480103 54.31899719 -62.52496338 53.70645142 C-60.5758957 51.75716313 -58.6031624 49.83390125 -56.62890625 47.91015625 C-55.26603809 46.55781402 -53.90464355 45.20398522 -52.54466248 43.84873962 C-48.96875482 40.29383718 -45.37189404 36.76087641 -41.77062988 33.23168945 C-38.8277399 30.34069742 -35.89986327 27.4347608 -32.97268772 24.52787113 C-26.93422539 18.53166157 -20.88617071 12.54499666 -14.81079102 6.58618164 C-13.96834084 5.75483452 -13.96834084 5.75483452 -13.10887146 4.9066925 C-8.61375418 0.51195548 -6.41693404 -0.65256956 0 0 Z M-26.55185509 41.91535854 C-29.20843923 44.42740541 -31.88463703 46.90392336 -34.63330078 49.31518555 C-46.99096899 59.52153594 -46.99096899 59.52153594 -53.46740723 73.36700439 C-53.10658323 81.0370332 -50.74475634 87.89745475 -48 95 C-47.27736979 97.32248985 -46.63405231 99.6514521 -46 102 C-45.03562012 101.17032715 -44.07124023 100.3406543 -43.07763672 99.48583984 C-40.27358636 97.07878894 -37.44552835 94.70336318 -34.60595703 92.33837891 C-12.66663353 75.7936389 -12.66663353 75.7936389 0.08203125 53.0859375 C0.26053999 43.50719511 -3.56055191 34.32026707 -8 26 C-13.23671482 26 -22.43552515 38.01736256 -26.55185509 41.91535854 Z M7.88653564 71.61898804 C7.13152771 72.37684601 6.37651978 73.13470398 5.59863281 73.91552734 C4.7380426 74.76996429 3.87745239 75.62440125 2.99078369 76.50473022 C2.07085632 77.43902863 1.15092896 78.37332703 0.203125 79.3359375 C-0.75449879 80.29594551 -1.71286308 81.25521538 -2.67193604 82.21377563 C-4.67867128 84.22363833 -6.67850982 86.24004064 -8.67333984 88.26171875 C-11.23452656 90.85693102 -13.8087294 93.43873558 -16.38773727 96.01622581 C-18.36654892 97.99558039 -20.34011195 99.98009744 -22.3119278 101.96641922 C-23.721447 103.38542251 -25.1339955 104.80141466 -26.54656982 106.21737671 C-27.39455139 107.07811798 -28.24253296 107.93885925 -29.11621094 108.82568359 C-29.8680365 109.58513275 -30.61986206 110.34458191 -31.39447021 111.12704468 C-33.21694132 112.84192311 -33.21694132 112.84192311 -33 115 C-29.10671705 115.88565223 -25.21071261 116.75801439 -21.31176758 117.6184082 C-19.98706955 117.91265973 -18.6631564 118.210469 -17.34008789 118.51196289 C-15.43327939 118.9458174 -13.52329638 119.36564388 -11.61328125 119.78515625 C-10.46641846 120.04176025 -9.31955566 120.29836426 -8.13793945 120.56274414 C-4.90331338 121.01347279 -3.10437729 120.93048341 0 120 C2.28483667 118.30454417 2.28483667 118.30454417 4.4230957 116.06274414 C5.26358963 115.22840347 6.10408356 114.39406281 6.970047 113.53443909 C7.8629393 112.62717575 8.7558316 111.71991241 9.67578125 110.78515625 C10.6009404 109.85908066 11.52609955 108.93300507 12.47929382 107.97886658 C14.43297899 106.02205885 16.37977703 104.05873207 18.3215332 102.09008789 C20.81428743 99.56326041 23.32010096 97.0498945 25.83070087 94.54081059 C28.22218048 92.14865773 30.60509833 89.74807601 32.98828125 87.34765625 C33.89129471 86.44241714 34.79430817 85.53717804 35.72468567 84.60450745 C36.54941879 83.76701462 37.37415192 82.92952179 38.22387695 82.06665039 C38.95492142 81.32798233 39.68596588 80.58931427 40.43916321 79.82826233 C42.21643082 78.14713774 42.21643082 78.14713774 42 76 C38.0867534 75.14021384 34.17235946 74.28588196 30.25683594 73.43652344 C28.92578241 73.14699501 27.59504821 72.85599437 26.26464844 72.56347656 C24.34916006 72.1425845 22.43240443 71.72747287 20.515625 71.3125 C18.78747559 70.93544922 18.78747559 70.93544922 17.02441406 70.55078125 C12.15701494 69.57191082 12.15701494 69.57191082 7.88653564 71.61898804 Z M-240 140 C-241.12148437 141.02673828 -241.12148437 141.02673828 -242.265625 142.07421875 C-262.77011432 161.46745078 -275.18416714 190.75527088 -276.28125 218.80859375 C-277.07121947 253.31764212 -265.83091478 283.23227991 -242.296875 308.6328125 C-220.85064208 330.73556276 -191.68941108 343.67206404 -160.90698242 344.4050293 C-125.44518871 344.71989802 -96.62427329 332.4993052 -71 308 C-49.24600254 286.36983934 -37.98023988 256.0694878 -37.6875 225.75 C-37.80319405 196.47940546 -48.11006029 170.88859933 -66 148 C-69.36335594 149.45745424 -71.54534005 151.31117854 -74.109375 153.9140625 C-74.86347656 154.67460937 -75.61757812 155.43515625 -76.39453125 156.21875 C-77.17183594 157.0128125 -77.94914063 157.806875 -78.75 158.625 C-79.54277344 159.42679688 -80.33554688 160.22859375 -81.15234375 161.0546875 C-83.10614493 163.03202846 -85.05512103 165.01388909 -87 167 C-85.47305236 170.1369047 -83.73133779 173.06726358 -81.87744141 176.02368164 C-77.29251956 183.39774861 -73.59129618 190.66720443 -71 199 C-70.68160156 200.01578125 -70.36320313 201.0315625 -70.03515625 202.078125 C-63.77996172 225.94587188 -68.37761604 251.23153804 -80.3984375 272.4375 C-82.96817573 276.54908116 -85.90768047 280.27354121 -89 284 C-89.43570313 284.58136719 -89.87140625 285.16273438 -90.3203125 285.76171875 C-103.06082766 302.12603313 -125.21050547 311.69569001 -145.25 314.3125 C-171.8925757 317.23880586 -195.39394631 309.35324142 -216.4609375 293.1015625 C-233.0030462 279.34549316 -243.52272535 258.21563422 -246 237 C-247.60080326 208.63354769 -241.41123066 185.20025912 -222.81640625 163.4453125 C-207.38252805 147.07690589 -184.42410197 136.64717193 -161.94140625 135.796875 C-138.27016533 135.37364475 -118.37927982 142.15765727 -99 156 C-92.4 149.4 -85.8 142.8 -79 136 C-99.56818871 115.43181129 -129.76670371 105.76893829 -158.43310547 105.74853516 C-189.29224609 106.28120157 -217.84987969 118.77899548 -240 140 Z M-204 169 C-205.051875 169.78375 -206.10375 170.5675 -207.1875 171.375 C-221.34035197 184.5843285 -229.79751715 203.47826855 -230.46850586 222.77050781 C-230.6977517 242.63848073 -224.39491405 260.15137434 -211 275 C-210.39671875 275.69609375 -209.7934375 276.3921875 -209.171875 277.109375 C-196.48611565 290.86116454 -177.42099546 298.31803937 -158.91894531 299.08642578 C-139.00044986 299.19628799 -121.79901216 292.09042283 -107 279 C-106.08154297 278.22269531 -106.08154297 278.22269531 -105.14453125 277.4296875 C-92.71865052 266.11275264 -84.47571829 248.00724339 -83.6640625 231.30859375 C-83.33555594 213.7763414 -86.92662214 199.09866784 -96 184 C-97.98 182.02 -97.98 182.02 -100 180 C-107.26 187.26 -114.52 194.52 -122 202 C-121.01 204.475 -121.01 204.475 -120 207 C-115.55378327 218.46655893 -114.61088398 229.58845903 -119.296875 241.21875 C-124.59264895 252.24706276 -131.2410447 259.45143608 -142.73828125 264.109375 C-154.19090334 267.62305934 -165.01847747 266.67093618 -176 262 C-182.90395007 258.23853755 -187.87377671 253.66943009 -192 247 C-192.58394531 246.12988281 -192.58394531 246.12988281 -193.1796875 245.2421875 C-198.43582871 236.37964283 -198.92010182 224.64360664 -196.81640625 214.7734375 C-193.95748368 205.06130821 -188.50153067 195.99476685 -179.51171875 190.91796875 C-168.73590751 185.26561314 -157.70441362 182.74709294 -145.6796875 185.859375 C-143.87929508 186.5363618 -142.09301787 187.25361892 -140.33203125 188.02734375 C-137.72396447 189.1151304 -135.83738248 189.82733034 -133 190 C-130.36053108 188.22454228 -130.36053108 188.22454228 -127.91796875 185.57421875 C-127.45892654 185.11143021 -126.99988434 184.64864166 -126.52693176 184.17182922 C-125.56107326 183.192543 -124.60242965 182.20609531 -123.65063477 181.21313477 C-122.18932327 179.68940115 -120.70762044 178.18816942 -119.22070312 176.68945312 C-114.25405546 172.46909239 -114.25405546 172.46909239 -112 167 C-140.23341475 146.06753374 -176.6686568 147.08899041 -204 169 Z M-174.8828125 207.97265625 C-179.52308889 213.96914869 -182.05994578 219.33892893 -182 227 C-180.91170078 234.571286 -177.68473444 239.94560572 -172 245 C-166.04381136 249.28994797 -160.30787649 250.85384124 -153 250 C-144.86452326 248.08880864 -139.70306586 243.83558348 -135 237 C-131.64272023 229.60279358 -131.89955587 223.65533771 -134 216 C-137.02223924 217.33953178 -138.96154456 218.775999 -141.171875 221.22265625 C-141.75453125 221.84333984 -142.3371875 222.46402344 -142.9375 223.10351562 C-144.14061226 224.40386217 -145.33348739 225.71375971 -146.515625 227.03320312 C-149.58601257 230.26855669 -151.78674291 232.35604154 -156.30078125 233.00390625 C-160 233 -160 233 -162.4375 231.875 C-164.41495738 229.50205114 -164.85314545 228.08394555 -165 225 C-163.78413533 221.14300274 -162.1830532 218.82155194 -159.3046875 216.01171875 C-158.58925781 215.30595703 -157.87382812 214.60019531 -157.13671875 213.87304688 C-156.39035156 213.15181641 -155.64398438 212.43058594 -154.875 211.6875 C-154.12089844 210.94693359 -153.36679688 210.20636719 -152.58984375 209.44335938 C-150.73316465 207.62193367 -148.86984148 205.80789464 -147 204 C-147.495 203.01 -147.495 203.01 -148 202 C-157.48861534 198.83712822 -167.88741471 200.64345317 -174.8828125 207.97265625 Z M-46 303 C-47.05983584 304.50822792 -48.09632611 306.03284857 -49.125 307.5625 C-52.78071142 312.63733374 -56.78449486 317.12379482 -61.1875 321.5625 C-61.76193848 322.15039307 -62.33637695 322.73828613 -62.92822266 323.34399414 C-65.89492649 326.28216425 -68.54407644 328.74364683 -72.21606445 330.80830383 C-76.68636717 333.37983921 -81.00543623 336.06615595 -82.72892189 341.15023232 C-83.85255509 347.56532701 -83.49082088 354.05942527 -83.26953125 360.5390625 C-83.24525391 362.63221503 -83.22676339 364.72544195 -83.21379089 366.81869507 C-83.16438857 372.30173324 -83.03691949 377.78022204 -82.89263916 383.26147461 C-82.75912759 388.86509658 -82.70016921 394.46946132 -82.63476562 400.07421875 C-82.49575841 411.05178964 -82.26730966 422.02480308 -82 433 C-69.79 433 -57.58 433 -45 433 C-45 390.1 -45 347.2 -45 303 C-45.33 303 -45.66 303 -46 303 Z M-183 359 C-183 383.42 -183 407.84 -183 433 C-170.79 433 -158.58 433 -146 433 C-146 409.24 -146 385.48 -146 361 C-154.91 360.67 -163.82 360.34 -173 360 C-176.3 359.67 -179.6 359.34 -183 359 Z " fill="#000000" transform="translate(309,51)"/>
<path d="M0 0 C1.22807373 -0.01260864 2.45614746 -0.02521729 3.72143555 -0.03820801 C5.0577858 -0.03104814 6.3941308 -0.02284414 7.73046875 -0.01367188 C9.1052274 -0.01636764 10.47998419 -0.02025077 11.85473633 -0.02526855 C14.73309519 -0.0311598 17.61095684 -0.02261364 20.48925781 -0.00390625 C24.17500891 0.01888424 27.85959497 0.00575899 31.54530334 -0.01819611 C34.38326768 -0.03266486 37.22095673 -0.02804341 40.05892944 -0.01768494 C41.41767516 -0.01502057 42.77644603 -0.01827728 44.13516235 -0.02760315 C46.03541574 -0.03778428 47.93575699 -0.01950917 49.8359375 0 C51.45665161 0.00477356 51.45665161 0.00477356 53.11010742 0.00964355 C56.58372706 0.63801202 57.7362733 1.8038352 59.91796875 4.51757812 C61.10408816 6.88981695 61.04535679 8.31950113 61.04939651 10.96639729 C61.05323766 11.90781269 61.0570788 12.8492281 61.06103635 13.81917125 C61.06016987 14.86049101 61.05930338 15.90181077 61.05841064 16.97468567 C61.06138177 18.07542583 61.06435289 19.17616598 61.06741405 20.31026191 C61.07613258 24.02366198 61.07761195 27.73702993 61.07910156 31.45043945 C61.08372749 34.10268813 61.08873097 36.75493384 61.09414673 39.40718079 C61.10774155 46.63030652 61.1137566 53.85342672 61.11815739 61.07656312 C61.12091796 65.58497056 61.12515499 70.09337585 61.12966156 74.60178185 C61.14185591 87.07907508 61.15215478 99.55636659 61.15553665 112.03366566 C61.155866 113.23205614 61.155866 113.23205614 61.156202 114.45465652 C61.15652942 115.65595021 61.15652942 115.65595021 61.15686345 116.88151246 C61.15730692 118.50442302 61.15775348 120.12733358 61.15820312 121.75024414 C61.15842455 122.55526757 61.15864598 123.36029101 61.15887412 124.18970909 C61.16282262 137.23568031 61.18027745 150.28159568 61.20356265 163.32754532 C61.22726472 176.71489193 61.23973799 190.1022105 61.24090457 203.48957843 C61.241822 211.00880293 61.24759121 218.5279547 61.26572418 226.04715919 C61.28110978 232.44977997 61.28625481 238.85230552 61.27798608 245.25494126 C61.27407399 248.52241211 61.27666164 251.7896506 61.28904343 255.05710602 C61.30167735 258.59807736 61.29593243 262.13855238 61.28546143 265.67951965 C61.29754603 267.23146104 61.29754603 267.23146104 61.30987477 268.81475478 C61.24874433 277.62033208 61.24874433 277.62033208 57.91796875 281.51757812 C54.50092405 283.79560792 53.25719526 283.7742066 49.24072266 283.79223633 C48.07586334 283.80176834 46.91100403 283.81130035 45.71084595 283.82112122 C43.82177017 283.8197541 43.82177017 283.8197541 41.89453125 283.81835938 C39.95433609 283.82478706 39.95433609 283.82478706 37.97494507 283.8313446 C35.23618474 283.83880539 32.4975533 283.83851711 29.75878906 283.83325195 C26.256028 283.82746428 22.75379691 283.84437123 19.25112343 283.86759663 C15.9030708 283.88591086 12.55513367 283.88214784 9.20703125 283.88085938 C7.32402817 283.894674 7.32402817 283.894674 5.40298462 283.9087677 C4.23182098 283.90253891 3.06065735 283.89631012 1.85400391 283.88989258 C0.31203842 283.89083672 0.31203842 283.89083672 -1.26107788 283.89179993 C-4.5396787 283.45686757 -6.42639423 282.45854033 -9.08203125 280.51757812 C-10.27563995 278.13036073 -10.21050523 276.66861687 -10.21625233 274.00349617 C-10.22071017 273.04753048 -10.22516801 272.09156479 -10.22976094 271.10663044 C-10.22957658 270.04906477 -10.22939222 268.9914991 -10.22920227 267.90188599 C-10.23287896 266.78410605 -10.23655565 265.66632612 -10.24034375 264.51467407 C-10.25141681 260.74366488 -10.25523053 256.9726832 -10.2590332 253.20166016 C-10.26529501 250.50838047 -10.2719284 247.81510377 -10.27894592 245.12182617 C-10.29871982 237.02172299 -10.3087771 228.92161855 -10.31767371 220.82149726 C-10.32205455 217.00956663 -10.32742184 213.19763739 -10.33266258 209.38570786 C-10.34967476 196.71883241 -10.36417025 184.05195783 -10.37141132 171.38507271 C-10.3733213 168.09704716 -10.37524162 164.80902162 -10.37719727 161.52099609 C-10.37768101 160.70374789 -10.37816475 159.88649969 -10.37866315 159.04448639 C-10.3869684 145.79735991 -10.41231369 132.55032359 -10.44477794 119.3032365 C-10.47781642 105.71136288 -10.49585711 92.11953514 -10.49905556 78.52762115 C-10.5012235 70.89270747 -10.51001358 63.25792531 -10.53551674 55.62305069 C-10.55717986 49.12266812 -10.56529589 42.62244901 -10.55554996 36.12203445 C-10.55099254 32.80399151 -10.5551381 29.48635804 -10.5723114 26.16834641 C-10.58987742 22.57435447 -10.58299905 18.98122845 -10.56977844 15.38723755 C-10.58074769 14.33413332 -10.59171693 13.28102909 -10.60301858 12.19601262 C-10.54030917 5.17167239 -10.54030917 5.17167239 -8.22703838 1.86997032 C-5.35741682 0.06072049 -3.38511395 0.00997032 0 0 Z M6.91796875 17.51757812 C6.91796875 99.68757813 6.91796875 181.85757813 6.91796875 266.51757812 C19.12796875 266.51757812 31.33796875 266.51757812 43.91796875 266.51757812 C43.91796875 184.34757812 43.91796875 102.17757812 43.91796875 17.51757812 C31.70796875 17.51757812 19.49796875 17.51757812 6.91796875 17.51757812 Z " fill="#000000" transform="translate(421.08203125,217.482421875)"/>
<path d="M0 0 C1.20474976 -0.0157608 2.40949951 -0.03152161 3.65075684 -0.04776001 C5.58997009 -0.03257828 5.58997009 -0.03257828 7.56835938 -0.01708984 C8.91687456 -0.02046111 10.26538678 -0.02531631 11.6138916 -0.03158569 C14.4351098 -0.03894275 17.25553449 -0.02829129 20.07666016 -0.00488281 C23.68517465 0.0236068 27.29182985 0.0071962 30.90027618 -0.02274513 C33.68342997 -0.04085121 36.46614606 -0.03504549 39.24931335 -0.02210617 C41.22404189 -0.01716939 43.19878773 -0.03230066 45.17346191 -0.04776001 C46.98058655 -0.0241188 46.98058655 -0.0241188 48.82421875 0 C49.88169312 0.00397797 50.93916748 0.00795593 52.02868652 0.01205444 C56.06325197 0.90044967 57.37761065 2.39918052 59.91210938 5.64697266 C60.63386459 8.65020661 60.58332449 11.57206205 60.54029846 14.64930725 C60.54739285 15.55730574 60.55448724 16.46530422 60.56179661 17.40081781 C60.57940319 20.44431848 60.56125804 23.4865466 60.54321289 26.5300293 C60.54835064 28.71144696 60.55563082 30.89286048 60.56489563 33.07426453 C60.58343491 38.99982376 60.57045523 44.92493396 60.55080533 50.8504746 C60.53444065 57.04659771 60.54322859 63.2426919 60.54832458 69.43882751 C60.55313745 80.51036434 60.53347311 91.58170423 60.50364452 102.65319657 C60.477213 112.69261044 60.47407529 122.7318045 60.48852539 132.77124023 C60.50701283 145.67346689 60.50535438 158.5755255 60.48631096 171.47775078 C60.47942995 176.40632727 60.48048368 181.33480868 60.48785591 186.26338387 C60.49550371 192.06402964 60.48344156 197.8643057 60.456007 203.66488838 C60.44910663 205.79661461 60.44904279 207.92837525 60.45622253 210.06010056 C60.46487879 212.96435681 60.44902601 215.86746197 60.42677307 218.7716217 C60.43501384 219.62035026 60.44325461 220.46907882 60.45174509 221.34352642 C60.39957926 225.01806559 60.27390959 227.1741865 58.00494289 230.13918209 C54.56699586 232.61606525 52.56240203 232.78364468 48.34838867 232.82397461 C46.6009864 232.84322746 46.6009864 232.84322746 44.81828308 232.86286926 C43.55373795 232.8702562 42.28919281 232.87764313 40.98632812 232.88525391 C39.69144974 232.89332565 38.39657135 232.9013974 37.06245422 232.90971375 C34.31776052 232.92474087 31.5730927 232.93457856 28.82836914 232.94213867 C25.31765169 232.95319589 21.80756936 232.98758714 18.29707623 233.02731037 C14.94351901 233.05978955 11.59003049 233.0642566 8.23632812 233.07275391 C6.34861946 233.09901604 6.34861946 233.09901604 4.42277527 233.12580872 C3.24838394 233.12288315 2.07399261 233.11995758 0.86401367 233.11694336 C-0.16697952 233.1228096 -1.19797272 233.12867584 -2.26020813 233.13471985 C-5.8280723 232.51929866 -7.49841527 231.12428798 -10.08789062 228.64697266 C-11.73700674 225.34874043 -11.23966899 221.67620287 -11.24179077 218.0500946 C-11.24617303 217.14944851 -11.25055528 216.24880242 -11.25507033 215.32086402 C-11.26848966 212.2846267 -11.27464419 209.24841841 -11.28076172 206.2121582 C-11.28866014 204.04266223 -11.29692892 201.87316757 -11.30554199 199.70367432 C-11.33178946 192.56369283 -11.34707109 185.42370539 -11.36132812 178.28369141 C-11.36668645 175.82902332 -11.37206395 173.37435527 -11.37746048 170.91968727 C-11.39909207 160.71223173 -11.41783047 150.50477778 -11.42908287 140.29730511 C-11.4453329 125.65094736 -11.47853305 111.00495747 -11.53548372 96.3586995 C-11.57413199 86.06991875 -11.59370943 75.781209 -11.59900343 65.49235755 C-11.60266353 59.34238194 -11.61475506 53.19268864 -11.64710617 47.04279137 C-11.67709707 41.25861089 -11.68353059 35.47488487 -11.67172241 29.69064331 C-11.67150093 27.56576154 -11.679867 25.44085922 -11.69737625 23.31604958 C-11.71995733 20.41841473 -11.71182423 17.52244326 -11.69589233 14.62480164 C-11.70977442 13.78083051 -11.72365651 12.93685938 -11.73795927 12.06731337 C-11.67957899 7.76799899 -11.4657154 6.13114371 -8.73010445 2.62554073 C-5.55663364 0.24915167 -3.9329697 0.01479489 0 0 Z M5.91210938 17.64697266 C5.91210938 82.98697266 5.91210938 148.32697266 5.91210938 215.64697266 C18.12210937 215.64697266 30.33210938 215.64697266 42.91210938 215.64697266 C42.91210938 150.30697266 42.91210938 84.96697266 42.91210938 17.64697266 C30.70210938 17.64697266 18.49210937 17.64697266 5.91210938 17.64697266 Z " fill="#000000" transform="translate(321.087890625,268.35302734375)"/>
<path d="M0 0 C4.02655694 4.17102129 6.37761315 9.29128213 8.95214844 14.42089844 C9.4306575 15.36302185 9.90916656 16.30514526 10.4021759 17.27581787 C11.97794953 20.38366342 13.54442161 23.4960682 15.109375 26.609375 C16.20224686 28.77785404 17.29512208 30.94633139 18.38800049 33.11480713 C20.67559883 37.65852245 22.9576163 42.20499654 25.23681641 46.75292969 C28.15495815 52.57274774 31.09519657 58.38109739 34.0408287 64.18703842 C36.30572863 68.66090947 38.55444448 73.14277154 40.79883575 77.62696075 C41.87573929 79.77170145 42.95863203 81.91344596 44.04766083 84.05205536 C45.57075632 87.04694908 47.07060972 90.05243936 48.56542969 93.06152344 C49.0173317 93.93768311 49.4692337 94.81384277 49.93482971 95.71655273 C52.54973984 101.05384436 54.41165085 106.02620611 53 112 C50.89592942 114.74920645 49.44299649 115.78788759 45.99365234 116.29492188 C43.70897918 116.39427753 41.47190324 116.34957164 39.1875 116.25 C38.39923828 116.23195313 37.61097656 116.21390625 36.79882812 116.1953125 C34.86535739 116.14844048 32.93251715 116.0767041 31 116 C31.00999275 117.33637764 31.00999275 117.33637764 31.02018738 118.69975281 C31.08033053 127.10108471 31.12599073 135.50234417 31.15543652 143.90384197 C31.17108389 148.22301617 31.1923051 152.54201228 31.22631836 156.86108398 C31.2589451 161.03024353 31.27686 165.19923192 31.28463173 169.36850929 C31.2901693 170.95811469 31.30098291 172.54771085 31.31719017 174.13724327 C31.339009 176.36603316 31.34196514 178.59411832 31.34057617 180.82299805 C31.35056892 182.72495186 31.35056892 182.72495186 31.36076355 184.66532898 C30.97170227 188.26156642 30.17091652 190.13840398 28 193 C25.32555458 194.33722271 23.24750406 194.14929721 20.25268555 194.17700195 C19.0477092 194.18983719 17.84273285 194.20267242 16.60124207 194.21589661 C15.29294937 194.22328354 13.98465668 194.23067047 12.63671875 194.23828125 C11.63935164 194.24439454 11.63935164 194.24439454 10.62183571 194.25063133 C7.10181616 194.2714908 3.58183557 194.28579241 0.06176758 194.29516602 C-3.57000857 194.30622428 -7.20117095 194.3406166 -10.83273029 194.38033772 C-13.62862773 194.40651374 -16.42437922 194.4148587 -19.22038841 194.41844749 C-21.20848188 194.42567295 -23.19647554 194.45210878 -25.18440247 194.47883606 C-27.00605171 194.47444771 -27.00605171 194.47444771 -28.86450195 194.4699707 C-30.46428642 194.47877007 -30.46428642 194.47877007 -32.09638977 194.48774719 C-35.73945838 193.8757861 -37.39733989 192.57769149 -40 190 C-41.16035505 186.51893486 -41.12002704 183.8152767 -41.11352539 180.1418457 C-41.11367142 179.44890411 -41.11381744 178.75596252 -41.1139679 178.04202271 C-41.11327163 175.75324363 -41.1054926 173.4645461 -41.09765625 171.17578125 C-41.09579106 169.58823186 -41.09436763 168.00068189 -41.09336853 166.41313171 C-41.08955134 162.2357728 -41.07972786 158.05844869 -41.06866455 153.88110352 C-41.05843328 149.61800609 -41.05386723 145.35490304 -41.04882812 141.09179688 C-41.03810489 132.72784862 -41.02103803 124.36392864 -41 116 C-42.16917969 116.05800781 -43.33835937 116.11601562 -44.54296875 116.17578125 C-46.0911058 116.22269449 -47.63928617 116.26819298 -49.1875 116.3125 C-49.95642578 116.35439453 -50.72535156 116.39628906 -51.51757812 116.43945312 C-55.67121167 116.52858689 -57.52427166 116.32466479 -61.05078125 113.91796875 C-63.59194962 110.11385498 -63.71091908 108.52438875 -63 104 C-61.72117961 100.49562445 -60.08503699 97.21333743 -58.39770508 93.88964844 C-57.90830444 92.89858093 -57.41890381 91.90751343 -56.91467285 90.88641357 C-55.29695416 87.62022692 -53.65902167 84.36468097 -52.01953125 81.109375 C-50.88725689 78.84011024 -49.75581406 76.57043041 -48.62516785 74.300354 C-46.25422771 69.54815978 -43.8735149 64.80104249 -41.48510742 60.05761719 C-38.72685769 54.57923569 -35.98895548 49.09104449 -33.26136285 43.59734321 C-30.6321928 38.30337629 -27.98729228 33.01738743 -25.33566856 27.73462677 C-24.2108102 25.4895813 -23.09011177 23.24244657 -21.97364235 20.99321747 C-20.41229566 17.85276253 -18.83329941 14.72183353 -17.24926758 11.59277344 C-16.79035629 10.66078125 -16.33144501 9.72878906 -15.85862732 8.76855469 C-12.10594486 1.43308462 -8.79307291 -2.55798485 0 0 Z M-6 28 C-10.5657736 37.10842471 -15.1294145 46.21791438 -19.69029999 55.3287878 C-21.80793771 59.55883422 -23.92632144 63.78850365 -26.04638672 68.01733398 C-28.09054078 72.09481396 -30.13276567 76.17325466 -32.17362976 80.25238228 C-32.95442903 81.81212644 -33.7359348 83.37151713 -34.5181427 84.93055534 C-35.60964454 87.1063496 -36.69867675 89.28336252 -37.78710938 91.46069336 C-38.11438522 92.11164978 -38.44166107 92.7626062 -38.77885437 93.43328857 C-40.33480121 96.09219345 -40.33480121 96.09219345 -41 99 C-40.18015625 99.03738281 -39.3603125 99.07476562 -38.515625 99.11328125 C-37.43796875 99.17902344 -36.3603125 99.24476562 -35.25 99.3125 C-34.18265625 99.37050781 -33.1153125 99.42851563 -32.015625 99.48828125 C-28.62323134 100.06393354 -27.37577477 100.53640744 -25 103 C-24.48101807 106.17008972 -24.48101807 106.17008972 -24.45410156 110.13354492 C-24.44376389 110.85574722 -24.43342621 111.57794952 -24.42277527 112.32203674 C-24.39328479 114.70840665 -24.39184686 117.09393073 -24.390625 119.48046875 C-24.37564746 121.13529586 -24.35892121 122.79010799 -24.34051514 124.44490051 C-24.29678103 128.79980139 -24.27682927 133.15450063 -24.26177979 137.50958252 C-24.23879312 142.73517704 -24.18635666 147.96054851 -24.13883972 153.18596649 C-24.06996131 161.12403601 -24.03856466 169.06146451 -24 177 C-11.46 177 1.08 177 14 177 C14.03867187 169.16507812 14.03867187 169.16507812 14.078125 161.171875 C14.103291 157.86323209 14.12962177 154.55468082 14.16015625 151.24609375 C14.20851313 145.99429979 14.25254918 140.74271793 14.27099609 135.49072266 C14.2861381 131.25647976 14.32053919 127.02279159 14.36830902 122.78879547 C14.38314833 121.17332022 14.39104248 119.55776578 14.39188385 117.9422226 C14.39424774 115.67930435 14.42127705 113.41792639 14.45410156 111.15527344 C14.46742523 109.22334137 14.46742523 109.22334137 14.48101807 107.25238037 C15.08709199 103.45420782 15.93978998 102.25980605 19 100 C22.97904596 99.19594408 26.95087892 99.17604874 31 99 C23.75748709 83.46373724 16.1254052 68.13227148 8.4375 52.8125 C7.22548959 50.39409147 6.0141051 47.97536962 4.80273438 45.55664062 C1.87064588 39.70334438 -1.06373574 33.85120253 -4 28 C-4.66 28 -5.32 28 -6 28 Z " fill="#000000" transform="translate(451,12)"/>
<path d="M0 0 C1.16485931 -0.01283524 2.32971863 -0.02567047 3.52987671 -0.03889465 C4.78926056 -0.04628159 6.04864441 -0.05366852 7.34619141 -0.0612793 C8.63965485 -0.06935104 9.93311829 -0.07742279 11.26577759 -0.08573914 C14.00449492 -0.10075018 16.74318645 -0.1105963 19.48193359 -0.11816406 C22.98477515 -0.12923197 26.48698206 -0.1636424 29.98959923 -0.20333576 C33.33760448 -0.23580797 36.68554084 -0.24028053 40.03369141 -0.2487793 C41.28902679 -0.26628738 42.54436218 -0.28379547 43.83773804 -0.30183411 C45.00890167 -0.29890854 46.18006531 -0.29598297 47.38671875 -0.29296875 C48.41469574 -0.29883499 49.44267273 -0.30470123 50.50180054 -0.31074524 C54.08795743 0.30930682 55.75191619 1.6453116 58.32275391 4.17700195 C59.32765206 7.19169642 59.46092516 9.2423839 59.48388672 12.39526367 C59.49349426 13.46001923 59.50310181 14.52477478 59.51300049 15.62179565 C59.51725037 16.77181061 59.52150024 17.92182556 59.52587891 19.10668945 C59.53157898 20.28917267 59.53727905 21.47165588 59.54315186 22.68997192 C59.55260355 25.19328923 59.55913651 27.69661899 59.56298828 30.19995117 C59.57269752 34.02976157 59.6037217 37.85903621 59.63525391 41.6887207 C59.64178359 44.1197071 59.6470342 46.55069733 59.65087891 48.98168945 C59.66322571 50.12765594 59.67557251 51.27362244 59.68829346 52.45431519 C59.68529236 53.52537506 59.68229126 54.59643494 59.67919922 55.69995117 C59.68466766 57.10867996 59.68466766 57.10867996 59.69024658 58.54586792 C59.24049627 61.76594123 58.27986643 63.59124472 56.32275391 66.17700195 C53.1827797 68.39798357 50.40611835 68.43434427 46.6237793 68.45166016 C45.47901627 68.46119217 44.33425323 68.47072418 43.15480042 68.48054504 C41.92245163 68.47963364 40.69010284 68.47872223 39.42041016 68.4777832 C38.15055771 68.48206833 36.88070526 68.48635345 35.57237244 68.49076843 C32.88656784 68.4965122 30.20114751 68.49794676 27.51538086 68.49267578 C24.08102599 68.48688258 20.64721068 68.50381253 17.21294498 68.52702045 C13.92793753 68.54533229 10.64295945 68.54157184 7.35791016 68.5402832 C6.1275856 68.54949295 4.89726105 68.5587027 3.62965393 68.56819153 C2.48173874 68.56196274 1.33382355 68.55573395 0.15112305 68.54931641 C-0.85607285 68.54994583 -1.86326874 68.55057526 -2.90098572 68.55122375 C-6.15242021 68.11295158 -8.03998973 67.09862956 -10.67724609 65.17700195 C-11.99730548 62.53688319 -11.81886721 60.53812559 -11.83837891 57.58154297 C-11.84798645 56.41015274 -11.85759399 55.23876251 -11.86749268 54.03187561 C-11.87386749 52.12564674 -11.87386749 52.12564674 -11.88037109 50.1809082 C-11.88607117 48.88128647 -11.89177124 47.58166473 -11.89764404 46.24266052 C-11.90815162 43.48956918 -11.91399607 40.73650702 -11.91748047 37.98339844 C-11.92296902 34.45466563 -11.94700515 30.92631795 -11.97545242 27.39770603 C-11.99854661 24.03378037 -12.00052606 20.66990909 -12.00537109 17.3059082 C-12.0177179 16.03711319 -12.0300647 14.76831818 -12.04278564 13.46107483 C-12.03978455 12.28653244 -12.03678345 11.11199005 -12.03369141 9.90185547 C-12.03733704 8.86642105 -12.04098267 7.83098663 -12.04473877 6.76417542 C-11.67724609 4.17700195 -11.67724609 4.17700195 -10.34246826 2.38169861 C-7.03429977 -0.01157935 -3.93995756 0.03778868 0 0 Z M4.32275391 17.17700195 C4.32275391 28.39700195 4.32275391 39.61700195 4.32275391 51.17700195 C16.86275391 51.17700195 29.40275391 51.17700195 42.32275391 51.17700195 C42.32275391 39.95700195 42.32275391 28.73700195 42.32275391 17.17700195 C29.78275391 17.17700195 17.24275391 17.17700195 4.32275391 17.17700195 Z " fill="#000000" transform="translate(19.67724609375,432.822998046875)"/>
</svg>
