<?xml version="1.0" encoding="UTF-8"?>
<svg version="1.1" xmlns="http://www.w3.org/2000/svg" width="1024" height="1024">
<path d="M0 0 C12.90285469 11.75593428 14.42492344 31.26716665 17.81396484 47.48535156 C18.56683153 51.08319978 19.33161535 54.67837383 20.09765625 58.2734375 C20.58143571 60.56755945 21.0645333 62.86182533 21.546875 65.15625 C21.88897003 66.76252258 21.88897003 66.76252258 22.23797607 68.40124512 C22.44529358 69.39998657 22.65261108 70.39872803 22.86621094 71.42773438 C23.04955994 72.30119507 23.23290894 73.17465576 23.42181396 74.07458496 C23.8203289 76.61235495 23.88210212 78.99806761 23.8125 81.5625 C27.49717851 80.29397822 29.7492389 78.97246665 32.37890625 76.10546875 C33.0236792 75.4108252 33.66845215 74.71618164 34.33276367 74.00048828 C35.00670166 73.25782715 35.68063965 72.51516602 36.375 71.75 C37.07665283 70.99187012 37.77830566 70.23374023 38.5012207 69.45263672 C41.80820407 65.87380015 45.08292491 62.26618091 48.3515625 58.65234375 C48.8870874 58.06364502 49.4226123 57.47494629 49.97436523 56.8684082 C50.96201421 55.78023998 51.94372428 54.68663925 52.91821289 53.58666992 C57.35714727 48.67988492 61.15455773 46.13923895 67.8125 45.5625 C70.84765625 45.796875 70.84765625 45.796875 73.875 46.3125 C74.87660156 46.47234375 75.87820313 46.6321875 76.91015625 46.796875 C81.48016 48.00242108 84.12926388 49.45518628 86.625 53.5 C88.74636413 59.33375136 89.22143376 66.11462145 86.8515625 71.9140625 C85.33532714 74.32426322 83.6769787 76.40815033 81.8125 78.5625 C80.96558594 79.54476562 80.11867188 80.52703125 79.24609375 81.5390625 C74.74919892 86.63099458 70.06282376 91.39594871 64.86328125 95.77734375 C56.69080325 102.75866724 56.69080325 102.75866724 50.8125 111.5625 C51.66875977 111.58030518 52.52501953 111.59811035 53.40722656 111.61645508 C65.54458667 112.10591512 77.24777228 114.23177364 89.14990234 116.58081055 C92.56640278 117.25076531 95.98767866 117.89067264 99.41015625 118.52929688 C127.21398733 123.86784591 127.21398733 123.86784591 134.8125 133.5625 C136.86704399 139.72613196 137.02020357 145.01904719 134.19140625 150.9765625 C124.35974953 167.38599047 109.05779363 180.48099802 95.64128947 193.9009676 C94.07655576 195.46641909 92.51253908 197.03258342 90.94876289 198.59899139 C85.473802 204.08315307 79.99631678 209.56477837 74.51635742 215.04394531 C69.43744766 220.12225316 64.36415913 225.20612932 59.29343599 230.29261041 C54.91027787 234.68889578 50.5232202 239.08126439 46.13317496 243.47067237 C43.52391462 246.07967959 40.91617872 248.69016391 38.31239128 251.30463409 C35.40912035 254.21949627 32.49776813 257.12615975 29.58569336 260.03222656 C28.74125671 260.88228271 27.89682007 261.73233887 27.02679443 262.6081543 C10.92406655 278.62704159 10.92406655 278.62704159 1.1875 278.8125 C-18.75151665 278.42964378 -38.61575894 272.08859265 -57.90722656 267.45458984 C-78.81156075 261.48579856 -78.81156075 261.48579856 -100.1875 260.5625 C-104.1130464 263.23800783 -106.22395928 266.10063636 -107.9440918 270.49560547 C-108.4331995 272.62052053 -108.4331995 272.62052053 -106.97802734 274.20092773 C-106.07238037 274.99672241 -106.07238037 274.99672241 -105.1484375 275.80859375 C-101.23687976 279.45349845 -98.02611903 283.36181516 -94.8125 287.625 C-94.24869629 288.37104492 -93.68489258 289.11708984 -93.10400391 289.88574219 C-59.24068093 335.14621092 -44.60660254 391.59045555 -43.1875 447.5625 C-43.16026855 448.46226562 -43.13303711 449.36203125 -43.10498047 450.2890625 C-42.35802345 477.87479579 -45.97787916 504.96698228 -54.6484375 531.2109375 C-54.96320541 532.16617813 -54.96320541 532.16617813 -55.28433228 533.14071655 C-56.31260978 536.24037214 -57.37048482 539.32570923 -58.46728516 542.40185547 C-58.84933105 543.51189941 -59.23137695 544.62194336 -59.625 545.765625 C-60.14900391 547.22983887 -60.14900391 547.22983887 -60.68359375 548.72363281 C-61.32081078 552.31353572 -60.52619951 554.19543551 -59.1875 557.5625 C-56.76625373 564.15761124 -56.90229602 570.48171675 -56.92007446 577.45419312 C-56.91554335 578.7564772 -56.91101224 580.05876128 -56.90634382 581.40050852 C-56.8941382 585.00444525 -56.89437139 588.60828898 -56.89673257 592.21224165 C-56.89714135 596.10327547 -56.88609585 599.99427971 -56.87661743 603.88529968 C-56.86002045 611.50412117 -56.8545085 619.1229117 -56.85339268 626.74174975 C-56.8524417 632.9352557 -56.84832892 639.12875146 -56.84199142 645.32225418 C-56.82438349 662.88798291 -56.81515199 680.45368722 -56.81665237 698.01942484 C-56.81677224 699.43921872 -56.81677224 699.43921872 -56.81689453 700.88769531 C-56.81697629 701.83538212 -56.81705805 702.78306893 -56.81714229 703.75947352 C-56.81795533 719.12069065 -56.798812 734.48180977 -56.7706178 749.84299855 C-56.74188622 765.62163376 -56.72807762 781.40022116 -56.72980535 797.17888319 C-56.7304691 806.03509323 -56.72498326 814.89120047 -56.70344925 823.74738693 C-56.68523397 831.28688473 -56.68089304 838.82623311 -56.6944681 846.36574338 C-56.70099569 850.21096759 -56.70112267 854.05590517 -56.6837616 857.90110207 C-56.6651184 862.07323122 -56.67759048 866.24469747 -56.69302368 870.4168396 C-56.68273656 871.62706169 -56.67244943 872.83728379 -56.66185057 874.08417928 C-56.73114511 882.55845195 -58.57185599 888.26537055 -62.9375 895.4375 C-68.95200985 901.11787041 -76.53124424 901.00116635 -84.32592773 900.96655273 C-85.95922531 900.97684761 -85.95922531 900.97684761 -87.6255188 900.98735046 C-91.20751158 901.00557919 -94.78906475 901.00178646 -98.37109375 900.99609375 C-100.87158856 901.00065732 -103.37208211 901.00596342 -105.87257385 901.01197815 C-111.77610627 901.02204232 -117.67948324 901.01595884 -123.58300883 901.00472456 C-128.27851031 900.99754351 -132.97373305 901.00833268 -137.66918945 901.02905273 C-144.1623865 901.05735918 -150.65529301 901.06599972 -157.14854622 901.05882454 C-159.61680911 901.05867151 -162.08508064 901.06470034 -164.5533123 901.07711601 C-168.00910071 901.09205139 -171.46391896 901.08132902 -174.91967773 901.06420898 C-175.93138535 901.07387695 -176.94309296 901.08354492 -177.98545837 901.09350586 C-185.95169923 901.01118107 -191.96604908 899.17992887 -198.1875 894.125 C-201.90755002 889.35868591 -201.33185127 883.93360752 -201.31689453 878.10400391 C-201.31862419 877.25622533 -201.32035385 876.40844675 -201.32213593 875.53497791 C-201.32650409 872.70298653 -201.32353622 869.87105471 -201.3203125 867.0390625 C-201.32132919 865.01742027 -201.32266925 862.99577817 -201.3243103 860.97413635 C-201.32702349 855.51301902 -201.32252012 850.05192988 -201.31607056 844.5908165 C-201.31250799 841.19511581 -201.31088268 837.79941936 -201.30981445 834.40371704 C-201.29215157 789.118863 -200.84279993 743.84219726 -200.1875 698.5625 C-201.19538574 698.97089111 -202.20327148 699.37928223 -203.24169922 699.80004883 C-207.02325175 701.33092954 -210.80717414 702.85587744 -214.59179688 704.37915039 C-216.22166921 705.03609202 -217.85091629 705.69458733 -219.47949219 706.35473633 C-243.33679033 716.02206481 -243.33679033 716.02206481 -253.3125 715.75 C-254.52663574 715.71688721 -255.74077148 715.68377441 -256.99169922 715.6496582 C-258.57362061 715.60651489 -258.57362061 715.60651489 -260.1875 715.5625 C-260.117366 716.60351301 -260.047232 717.64452602 -259.97497272 718.71708488 C-259.32926099 728.69240555 -259.02917305 738.61198546 -259.01049805 748.60986328 C-259.00420774 750.12808884 -258.99755886 751.64631295 -258.99058533 753.16453552 C-258.96989283 758.07061762 -258.95923434 762.97669895 -258.94921875 767.8828125 C-258.94516174 769.58555999 -258.94104458 771.28830733 -258.93686867 772.99105453 C-258.91791454 780.97708811 -258.90364894 788.96311287 -258.8952567 796.94916451 C-258.8854414 806.13215393 -258.85897007 815.31490511 -258.81875581 824.49781048 C-258.78860005 831.63026508 -258.77378941 838.76265109 -258.77047569 845.89516819 C-258.76813002 850.1424313 -258.75922801 854.38943686 -258.73401451 858.63663101 C-258.71072977 862.62104968 -258.70650188 866.60504087 -258.71677589 870.58950996 C-258.71727081 872.0475755 -258.71096321 873.50566226 -258.69721985 874.9636631 C-258.57556024 888.63711764 -258.57556024 888.63711764 -263.1875 894.5625 C-265.1171875 896.3046875 -265.1171875 896.3046875 -267.0625 897.4375 C-268.01769531 898.02144531 -268.01769531 898.02144531 -268.9921875 898.6171875 C-274.94920986 901.18231101 -281.56891721 900.72245914 -287.93115234 900.73950195 C-289.53716057 900.74935875 -289.53716057 900.74935875 -291.1756134 900.75941467 C-294.70822222 900.77907813 -298.24078872 900.79079275 -301.7734375 900.80078125 C-303.58712767 900.80689454 -303.58712767 900.80689454 -305.43745804 900.81313133 C-311.8333036 900.83395907 -318.2291279 900.84827693 -324.625 900.85766602 C-331.22465608 900.86874353 -337.82397624 900.90316882 -344.42351341 900.94283772 C-349.50565209 900.96899038 -354.58771038 900.97735652 -359.66991043 900.98094749 C-362.10273135 900.98581427 -364.53554865 900.99743074 -366.96830368 901.01598549 C-370.37415996 901.04035465 -373.77914166 901.03941585 -377.18505859 901.0324707 C-378.18480209 901.04528076 -379.18454559 901.05809082 -380.21458435 901.07128906 C-387.3989998 901.01800763 -392.7153577 899.50756187 -398.24609375 894.81640625 C-398.70113281 894.25824219 -399.15617188 893.70007813 -399.625 893.125 C-400.09808594 892.56941406 -400.57117188 892.01382813 -401.05859375 891.44140625 C-403.75918254 886.94665466 -403.33079384 881.66193233 -403.31689453 876.57543945 C-403.31862419 875.77824714 -403.32035385 874.98105482 -403.32213593 874.15970516 C-403.32650185 871.49837633 -403.32353701 868.83711096 -403.3203125 866.17578125 C-403.32132927 864.27512594 -403.32266938 862.37447079 -403.3243103 860.47381592 C-403.3270229 855.34048975 -403.32252091 850.20719358 -403.31607056 845.07387161 C-403.31250745 841.8816748 -403.31088254 838.68948249 -403.30981445 835.49728394 C-403.29212202 792.84765016 -402.84194141 750.20667021 -402.1875 707.5625 C-402.94000534 707.50218597 -403.69251068 707.44187195 -404.46781921 707.37973022 C-405.45643448 707.29615265 -406.44504974 707.21257507 -407.46362305 707.12646484 C-408.93269356 707.0050563 -408.93269356 707.0050563 -410.43144226 706.88119507 C-436.00973019 703.92346523 -464.49473011 682.08684778 -484.1875 666.5625 C-485.18394531 665.78003906 -486.18039062 664.99757813 -487.20703125 664.19140625 C-502.86058017 651.62825755 -517.93934023 637.49782205 -530.1875 621.5625 C-530.62739258 621.00433594 -531.06728516 620.44617188 -531.52050781 619.87109375 C-540.34430266 608.67049878 -547.97625649 596.856091 -555.1875 584.5625 C-555.81567627 583.49443115 -555.81567627 583.49443115 -556.45654297 582.40478516 C-570.44945241 558.25014861 -579.15842622 531.36456037 -585 504.1875 C-585.19513184 503.28620361 -585.39026367 502.38490723 -585.59130859 501.45629883 C-588.99147103 484.67906311 -589.56233406 468.00220024 -589.5 450.9375 C-589.49784485 449.87568512 -589.4956897 448.81387024 -589.49346924 447.71987915 C-589.4437349 432.45848026 -589.13015037 417.58210997 -586.1875 402.5625 C-585.99945801 401.5420459 -585.81141602 400.5215918 -585.61767578 399.47021484 C-577.24311687 354.83921232 -558.85094056 313.84821484 -530.1875 278.5625 C-529.47956299 277.68102295 -529.47956299 277.68102295 -528.75732422 276.78173828 C-516.84862918 262.04582928 -503.29050447 248.02705339 -488.1875 236.5625 C-487.21296875 235.78261719 -486.2384375 235.00273437 -485.234375 234.19921875 C-426.96739084 187.74778782 -351.5763537 170.87414782 -278.50976562 178.85498047 C-234.44477381 184.24365115 -187.77555779 201.7274217 -153.609375 230.55859375 C-145.09436022 237.80680183 -145.09436022 237.80680183 -134.46875 240.81640625 C-131.89320543 240.70812398 -131.89320543 240.70812398 -129.125 238.5 C-124.58684143 231.61956604 -125.38833962 227.07989876 -126.93603516 219.25683594 C-128.46411688 212.10663448 -130.22754004 205.0117011 -131.98046875 197.9140625 C-132.15549046 197.20443108 -132.33051216 196.49479965 -132.51083755 195.76366425 C-134.16353875 189.06763295 -135.81801556 182.37212272 -137.51635742 175.6875 C-144.87016414 146.68296511 -144.87016414 146.68296511 -144.98828125 135.5859375 C-145.00062302 134.89239166 -145.01296478 134.19884583 -145.02568054 133.48428345 C-144.60181092 122.38011986 -137.10046918 114.76025783 -129.57421875 107.42578125 C-128.64583694 106.50210251 -127.71745514 105.57842377 -126.76094055 104.62675476 C-124.31084739 102.18995682 -121.84573081 99.76892811 -119.37731934 97.35070801 C-117.37892662 95.38771381 -115.39172551 93.4136025 -113.40500164 91.43880939 C-97.49791829 75.63063236 -97.49791829 75.63063236 -92.42700195 71.31738281 C-86.75294962 66.42485332 -81.55927642 61.02721436 -76.28923035 55.70882988 C-74.30650573 53.70851914 -72.32009084 51.71193983 -70.3326416 49.71632385 C-64.68763716 44.04703406 -59.04837138 38.37206159 -53.41357422 32.69262695 C-49.95272707 29.20488019 -46.48692785 25.72211691 -43.01811218 22.24229622 C-41.70539781 20.92341074 -40.39457882 19.60263573 -39.08576965 18.2798748 C-14.51816797 -6.54740908 -14.51816797 -6.54740908 0 0 Z M-42.375 69.625 C-45.91609807 73.19929586 -49.26865003 76.88092925 -52.546875 80.6953125 C-58.98760978 88.02548208 -66.43187477 94.24654188 -73.87792969 100.5168457 C-76.1227256 102.40995692 -78.36120407 104.31042121 -80.59765625 106.21337891 C-82.05998878 107.45429561 -83.5296558 108.68655548 -85 109.91796875 C-95.62682009 119.07064154 -101.23042558 130.12529098 -107.1875 142.5625 C-107.6825 143.5525 -107.6825 143.5525 -108.1875 144.5625 C-110.47629934 163.81092725 -100.34903256 184.65004463 -94.1875 202.5625 C-89.01528284 198.79055175 -84.13822369 194.83431177 -79.375 190.5625 C-73.66313591 185.5179713 -67.73313264 180.90656747 -61.5625 176.4375 C-35.05438737 157.19680379 -16.86729839 134.92209677 -2.1875 105.5625 C-2.05060665 86.42480964 -9.3253333 68.22807896 -18.1875 51.5625 C-27.21741037 51.5625 -36.63072136 63.96788795 -42.375 69.625 Z M2.1171875 153.734375 C1.11652043 154.7418502 0.1148007 155.74828082 -0.88790894 156.75372314 C-3.5104632 159.38960608 -6.11726734 162.04055123 -8.72131348 164.69470215 C-10.83523489 166.84397721 -12.96023567 168.98210341 -15.08592415 171.1197319 C-17.64708124 173.69579325 -20.20311319 176.276911 -22.7578125 178.859375 C-23.23487766 179.34135094 -23.71194283 179.82332687 -24.20346451 180.31990814 C-29.15611344 185.33237268 -33.97786008 190.39587162 -38.57324219 195.73748779 C-41.23667678 198.74865529 -44.11087479 201.53156217 -46.99609375 204.328125 C-48.24977656 205.55946062 -49.50301971 206.79124402 -50.75585938 208.0234375 C-52.70249225 209.93274446 -54.65203171 211.83872345 -56.60913086 213.73730469 C-58.51800414 215.59192304 -60.41412512 217.45881039 -62.30859375 219.328125 C-63.19435341 220.17821136 -63.19435341 220.17821136 -64.0980072 221.04547119 C-65.53891546 222.47692543 -66.87319697 224.0139893 -68.1875 225.5625 C-68.1875 226.8825 -68.1875 228.2025 -68.1875 229.5625 C-61.45177499 231.1492181 -54.71104691 232.71319104 -47.96655273 234.26220703 C-45.67760893 234.79063564 -43.38981375 235.32406764 -41.10327148 235.86279297 C-21.06339603 241.63695609 -21.06339603 241.63695609 -1.1875 238.5625 C7.54297982 231.93445813 15.12979734 223.39859745 22.85424805 215.65112305 C25.00261866 213.49737478 27.15630694 211.34904774 29.31054688 209.20117188 C30.70084168 207.81021646 32.09082636 206.41895097 33.48046875 205.02734375 C34.42916084 204.081688 34.42916084 204.081688 35.39701843 203.1169281 C38.4662908 200.03173946 41.42303398 196.89895642 44.26318359 193.60083008 C47.94625386 189.34108384 51.90353486 185.41356842 55.93359375 181.484375 C57.46071798 179.97960447 58.98739824 178.47438327 60.51367188 176.96875 C62.89484291 174.62488126 65.27893242 172.28427667 67.6706543 169.95117188 C69.99650295 167.67955593 72.30966597 165.39565029 74.62109375 163.109375 C75.34284286 162.41140808 76.06459198 161.71344116 76.80821228 160.99432373 C77.79537987 160.01245087 77.79537987 160.01245087 78.80249023 159.01074219 C79.38538315 158.43974792 79.96827606 157.86875366 80.5688324 157.28045654 C82.20343026 155.37596146 82.20343026 155.37596146 81.8125 151.5625 C74.72909964 149.99171973 67.64447028 148.4266153 60.55823231 146.86868286 C57.26761224 146.14504391 53.97744181 145.4194797 50.68823242 144.68945312 C46.90389714 143.85055052 43.11813618 143.01837438 39.33203125 142.1875 C38.15477982 141.92501465 36.97752838 141.6625293 35.76460266 141.39208984 C34.66383896 141.15184082 33.56307526 140.9115918 32.42895508 140.6640625 C30.98000603 140.34429443 30.98000603 140.34429443 29.50178528 140.01806641 C17.26746779 137.94556629 10.13788747 145.51421184 2.1171875 153.734375 Z M-475.8671875 274.4609375 C-477.88147731 276.28532794 -479.92898614 278.05343802 -482 279.8125 C-492.57409512 289.08615197 -501.9395088 299.17449942 -510.1875 310.5625 C-510.66010254 311.21250977 -511.13270508 311.86251953 -511.61962891 312.53222656 C-530.55922146 338.92750513 -543.35654212 368.85674329 -550.1875 400.5625 C-550.39777832 401.53251953 -550.60805664 402.50253906 -550.82470703 403.50195312 C-556.53163838 431.10126958 -556.00437267 460.8571112 -551.1875 488.5625 C-551.02652832 489.5009375 -550.86555664 490.439375 -550.69970703 491.40625 C-541.45217643 543.14267483 -513.96910664 595.59003056 -473.1875 629.5625 C-472.31480469 630.34625 -471.44210937 631.13 -470.54296875 631.9375 C-439.92105356 659.21497302 -401.11122906 676.44617811 -361.1875 684.5625 C-359.98456299 684.81241699 -359.98456299 684.81241699 -358.75732422 685.06738281 C-299.98016724 696.68570359 -234.58456097 681.51718233 -185.1875 648.5625 C-173.5887813 640.61163654 -162.65818098 631.93853301 -152.1875 622.5625 C-151.62305176 622.06508301 -151.05860352 621.56766602 -150.47705078 621.05517578 C-143.82943555 615.19118422 -137.76186256 609.25349475 -132.28515625 602.24609375 C-130.91775627 600.49673847 -129.50993863 598.77802068 -128.05859375 597.09765625 C-89.01119671 551.76355843 -74.98015262 488.57548012 -78.38964844 430.09521484 C-82.36727954 381.74072958 -102.86098564 333.53442861 -134.1875 296.5625 C-142.11680151 299.04040672 -148.33475669 305.38925939 -154.12890625 311.09765625 C-154.7414476 311.69879745 -155.35398895 312.29993866 -155.98509216 312.91929626 C-157.2624041 314.17788926 -158.53696783 315.43927711 -159.80883789 316.70336914 C-161.76301352 318.63788259 -163.73750599 320.5500692 -165.71289062 322.46289062 C-166.95703459 323.69399465 -168.19992045 324.9263717 -169.44140625 326.16015625 C-170.03393692 326.72799332 -170.62646759 327.29583038 -171.23695374 327.88087463 C-174.39846537 330.98700657 -174.39846537 330.98700657 -175.20849609 335.1730957 C-174.14938671 337.6516953 -173.00903487 339.89743035 -171.59765625 342.1953125 C-171.06551514 343.07380859 -170.53337402 343.95230469 -169.98510742 344.85742188 C-169.41252197 345.79134766 -168.83993652 346.72527344 -168.25 347.6875 C-140.38573049 394.17008073 -129.89772229 441.22386415 -142.875 494.6875 C-148.66191161 517.21317165 -157.61983586 539.24580465 -172.1875 557.5625 C-173.06401099 558.70196429 -173.93891186 559.84266831 -174.8125 560.984375 C-180.30835423 568.12571186 -186.01064407 574.99309621 -192.1875 581.5625 C-192.78433594 582.22378906 -193.38117188 582.88507813 -193.99609375 583.56640625 C-215.68132522 606.65068491 -247.95779086 618.91368955 -278.1875 625.5625 C-278.99026367 625.74184082 -279.79302734 625.92118164 -280.62011719 626.10595703 C-303.00921748 630.87251602 -328.87954574 630.53005445 -351.1875 625.5625 C-351.96657715 625.39089355 -352.7456543 625.21928711 -353.54833984 625.04248047 C-378.46882761 619.3711309 -402.25311842 609.28089062 -423.1875 594.5625 C-424.13786133 593.90193604 -424.13786133 593.90193604 -425.10742188 593.22802734 C-462.08108383 567.30137414 -484.89309755 526.94531968 -492.82763672 482.828125 C-500.73122335 433.0687736 -487.45083615 380.18850327 -458.40893555 339.44213867 C-453.16558776 332.30501789 -447.48544393 325.78083509 -441.1875 319.5625 C-440.3934375 318.76972656 -439.599375 317.97695313 -438.78125 317.16015625 C-406.64425811 286.6835756 -359.89998946 270.82420758 -316.15625 271.34765625 C-273.66999407 272.48770412 -236.1128111 287.04137212 -201.1875 310.5625 C-198.00490149 309.15740901 -195.87401534 307.49328658 -193.42871094 305.03076172 C-192.70826599 304.31016571 -191.98782104 303.5895697 -191.24554443 302.84713745 C-190.47873352 302.07000397 -189.71192261 301.29287048 -188.921875 300.4921875 C-188.12847717 299.69595978 -187.33507935 298.89973206 -186.51763916 298.07937622 C-183.98619297 295.53674052 -181.46179197 292.98723652 -178.9375 290.4375 C-177.22181383 288.71178247 -175.50567338 286.98651645 -173.7890625 285.26171875 C-169.58325752 281.03386968 -165.38321493 276.80036131 -161.1875 272.5625 C-163.0942976 268.32962377 -165.99550993 265.81334038 -169.5 262.875 C-170.12737061 262.34535645 -170.75474121 261.81571289 -171.40112305 261.27001953 C-244.28481146 200.57788438 -348.39704376 198.29281118 -475.8671875 274.4609375 Z M-427.54248047 353.65136719 C-452.81033105 383.00677448 -465.39916024 421.9301309 -462.66015625 460.42578125 C-459.94900061 492.20290875 -448.3524782 521.52326551 -427.1875 545.5625 C-426.44628906 546.41328125 -425.70507812 547.2640625 -424.94140625 548.140625 C-422.72313019 550.6472385 -420.4667558 553.11130034 -418.1875 555.5625 C-417.51460937 556.30113281 -416.84171875 557.03976562 -416.1484375 557.80078125 C-391.84794066 583.42096799 -355.31552667 595.92966824 -320.6875 597.74609375 C-277.44593122 598.58144224 -239.30939545 579.45346412 -208.51879883 550.22998047 C-201.7747198 543.6582706 -196.32572194 536.4329327 -191.1875 528.5625 C-190.24970703 527.15097656 -190.24970703 527.15097656 -189.29296875 525.7109375 C-169.95691961 494.72088131 -165.11835452 454.88404248 -173.1875 419.5625 C-177.74627073 400.01117833 -185.32418325 374.04631923 -201.1875 360.5625 C-204.5060117 362.01534313 -206.74424226 363.84226485 -209.3293457 366.36621094 C-210.13310135 367.1475238 -210.93685699 367.92883667 -211.76496887 368.73382568 C-212.62241196 369.57963196 -213.47985504 370.42543823 -214.36328125 371.296875 C-215.24783493 372.16765686 -216.13238861 373.03843872 -217.04374695 373.93560791 C-218.91008125 375.77867862 -220.77343943 377.62476716 -222.6340332 379.47363281 C-224.54344071 381.36974599 -226.46308056 383.25447135 -228.39282227 385.12988281 C-231.17107687 387.83530639 -233.92566256 390.56289024 -236.67578125 393.296875 C-237.54334549 394.13458435 -238.41090973 394.9722937 -239.30476379 395.83538818 C-240.09275864 396.62930969 -240.88075348 397.4232312 -241.69262695 398.24121094 C-242.39337845 398.93245056 -243.09412994 399.62369019 -243.81611633 400.33587646 C-245.49388677 402.57191759 -245.49388677 402.57191759 -244.95120239 405.68241882 C-244.26601068 408.26641982 -243.5332004 410.77022874 -242.62890625 413.28515625 C-242.17463257 414.57740112 -242.17463257 414.57740112 -241.71118164 415.89575195 C-241.3939917 416.79640381 -241.07680176 417.69705566 -240.75 418.625 C-233.4893805 439.95226783 -232.2506915 462.77708306 -241.74609375 483.6953125 C-252.00091386 504.09378937 -266.37505976 520.10644477 -288.25 527.9375 C-310.55441339 534.59641338 -335.21951238 532.77294978 -356.1875 522.5625 C-360.40519941 520.1503226 -364.31488744 517.49231937 -368.1875 514.5625 C-368.82816406 514.10488281 -369.46882813 513.64726563 -370.12890625 513.17578125 C-384.05522951 502.41600017 -394.36591412 483.39869391 -396.90625 466.15039062 C-399.47495227 442.51476211 -396.31838098 418.60964244 -381.4375 399.3125 C-380.36530594 398.05293222 -379.28190121 396.80282137 -378.1875 395.5625 C-377.55714844 394.73878906 -376.92679687 393.91507812 -376.27734375 393.06640625 C-365.01129418 379.56820481 -343.18439028 371.72210488 -326.1875 369.5625 C-308.18596476 368.53946387 -293.80048597 370.56508112 -277.08984375 377.51171875 C-274.00458534 378.62872348 -271.46765411 379.33839491 -268.1875 379.5625 C-265.7938675 378.2255486 -265.7938675 378.2255486 -263.71484375 376 C-262.85487793 375.16726563 -261.99491211 374.33453125 -261.10888672 373.4765625 C-260.64278992 373.01024414 -260.17669312 372.54392578 -259.69647217 372.06347656 C-258.08866096 370.46418467 -256.45255333 368.89853489 -254.80908203 367.3359375 C-251.72127437 364.39194843 -248.67132513 361.41204552 -245.63500977 358.41503906 C-244.3719459 357.17373242 -243.10264743 355.93873983 -241.82739258 354.70996094 C-239.95471119 352.9044942 -238.10277337 351.07980922 -236.25390625 349.25 C-235.40548912 348.44332886 -235.40548912 348.44332886 -234.53993225 347.62036133 C-230.36452748 343.42301909 -228.64516112 339.26721653 -227.1875 333.5625 C-233.1891665 328.60550764 -239.26850726 324.55769097 -246.1875 321 C-247.10104248 320.52747803 -248.01458496 320.05495605 -248.95581055 319.56811523 C-257.13660912 315.42895717 -265.39801269 312.14839573 -274.1875 309.5625 C-274.85056152 309.36575684 -275.51362305 309.16901367 -276.19677734 308.96630859 C-330.09018929 293.36731323 -390.07531726 312.25469431 -427.54248047 353.65136719 Z M-349.8671875 413.12890625 C-354.23298801 417.7078519 -357.21408951 423.0148869 -360.1875 428.5625 C-360.620625 429.31273437 -361.05375 430.06296875 -361.5 430.8359375 C-366.43461692 440.30604791 -367.45029115 452.5949765 -364.28125 462.703125 C-359.2510067 475.8536182 -351.59672314 487.58837807 -338.83203125 494.3828125 C-327.15734511 499.59072271 -314.82289562 502.11606016 -302.375 497.9375 C-289.71889918 492.57506321 -276.38188349 483.75270092 -270.96875 470.6015625 C-266.27946628 457.0361346 -267.1868241 446.27987553 -270.1875 432.5625 C-280.94038058 436.60174673 -287.70008674 445.25160717 -295.1875 453.5625 C-300.62146087 459.56790991 -305.29445109 464.12866065 -313.66796875 464.87109375 C-324.46514508 465.06130307 -324.46514508 465.06130307 -328.1875 462.5625 C-331.70396772 457.53897469 -332.11318449 452.48508327 -331.1875 446.5625 C-326.29990217 432.70250035 -310.85159292 420.03731701 -299.6484375 411.09765625 C-297.91100489 409.27195835 -297.4788733 408.04922043 -297.1875 405.5625 C-297.6825 404.5725 -297.6825 404.5725 -298.1875 403.5625 C-300.80347465 402.91811302 -303.35064363 402.39180783 -306 401.9375 C-306.72509766 401.8034375 -307.45019531 401.669375 -308.19726562 401.53125 C-323.12958932 398.85354145 -338.33459257 403.32063821 -349.8671875 413.12890625 Z M-94.1875 605.5625 C-95.45754927 607.01132923 -95.45754927 607.01132923 -96.69140625 608.9296875 C-97.18036377 609.64584229 -97.66932129 610.36199707 -98.1730957 611.09985352 C-98.69347412 611.87127686 -99.21385254 612.6427002 -99.75 613.4375 C-104.47156776 620.28905567 -109.46300733 626.51313397 -115.1875 632.5625 C-116.27617502 633.82876031 -117.35965614 635.09950751 -118.4375 636.375 C-127.53327562 646.70162599 -136.77706164 655.11092092 -148.43017578 662.45117188 C-159.85484269 669.6086033 -159.85484269 669.6086033 -167.1875 680.5625 C-170.22463678 695.02871946 -169.26393663 710.01558892 -168.9375 724.6875 C-168.88381412 727.42565733 -168.83370712 730.16387753 -168.78344727 732.90209961 C-168.66729077 739.12776704 -168.54216404 745.35321146 -168.41259766 751.57861328 C-168.17304046 763.11459006 -167.95415402 774.65094387 -167.73546219 786.18733215 C-167.23366202 812.64601019 -166.71329508 839.10428715 -166.1875 865.5625 C-141.7675 865.5625 -117.3475 865.5625 -92.1875 865.5625 C-92.1875 779.7625 -92.1875 693.9625 -92.1875 605.5625 C-92.8475 605.5625 -93.5075 605.5625 -94.1875 605.5625 Z M-368.1875 717.5625 C-368.1875 766.4025 -368.1875 815.2425 -368.1875 865.5625 C-343.7675 865.5625 -319.3475 865.5625 -294.1875 865.5625 C-294.1875 818.0425 -294.1875 770.5225 -294.1875 721.5625 C-319.4325 720.5725 -319.4325 720.5725 -345.1875 719.5625 C-352.7775 718.9025 -360.3675 718.2425 -368.1875 717.5625 Z " fill="#000000" transform="translate(620.1875,102.4375)"/>
<path d="M0 0 C1.1602066 -0.00686325 2.32041321 -0.0137265 3.51577759 -0.02079773 C7.34007094 -0.03905694 11.16395378 -0.03522964 14.98828125 -0.02954102 C16.97840918 -0.03294933 18.9685373 -0.03636572 20.95866299 -0.04089409 C27.21044279 -0.05491421 33.46208586 -0.05339853 39.71386719 -0.04199219 C46.15046097 -0.03050774 52.58663823 -0.04459742 59.02317715 -0.07138866 C64.56311433 -0.09357932 70.10292107 -0.10017568 75.64289951 -0.09431225 C78.94575582 -0.09095012 82.24828681 -0.09502787 85.55111694 -0.11056328 C89.23491363 -0.12545112 92.91779435 -0.11481125 96.6015625 -0.09765625 C97.68748688 -0.10732422 98.77341125 -0.11699219 99.89224243 -0.12695312 C107.05882007 -0.05711884 111.81290419 0.90835532 117.04296875 6.15014648 C117.41679688 6.70831055 117.790625 7.26647461 118.17578125 7.84155273 C118.56507813 8.39713867 118.954375 8.95272461 119.35546875 9.52514648 C121.84555873 14.47445757 121.44447101 19.98347575 121.43500233 25.3834734 C121.43735456 26.29350251 121.43970679 27.20353163 121.4421303 28.14113739 C121.44881553 31.20679984 121.44836222 34.27241986 121.44795227 37.33808899 C121.45125117 39.55172118 121.45497679 41.76535276 121.45909375 43.97898358 C121.46911852 50.07488796 121.4728313 56.17078249 121.47548306 62.26669395 C121.47898412 68.16173716 121.48713116 74.05677285 121.495027 79.95181155 C121.51586473 95.74510986 121.52633944 111.53841003 121.5351566 127.33171888 C121.53936336 134.80197257 121.54458525 142.27222546 121.54984113 149.74247847 C121.56772916 175.31116021 121.58272618 200.87984218 121.59016132 226.44852924 C121.59063608 228.05349807 121.59111197 229.6584669 121.59158899 231.26343573 C121.59182536 232.05935658 121.59206174 232.85527743 121.59230528 233.67531709 C121.59350648 237.70786114 121.59472193 241.74040518 121.59594727 245.77294922 C121.59630749 246.97335425 121.59630749 246.97335425 121.59667499 248.19800989 C121.60457079 274.15416994 121.6280095 300.11028434 121.66050321 326.06642445 C121.69479086 353.50561779 121.71451138 380.94478441 121.71780556 408.38399953 C121.71822311 411.39532961 121.71870267 414.40665967 121.71922874 417.41798973 C121.71935194 418.15946965 121.71947513 418.90094958 121.71960205 419.66489859 C121.72193517 431.60305504 121.7376011 443.5411585 121.75807059 455.47929605 C121.77831301 467.47514251 121.78381337 479.47092522 121.77429996 491.46678559 C121.769743 497.96695696 121.77172267 504.46695601 121.7910614 510.96710396 C121.80860562 516.91529787 121.8077665 522.86319264 121.79216411 528.81138935 C121.78977475 530.96547657 121.79417984 533.11958404 121.80599276 535.27364019 C121.82104179 538.19849515 121.81148725 541.12228055 121.79576588 544.04710865 C121.80598808 544.88619681 121.81621029 545.72528496 121.82674226 546.58980003 C121.75277969 552.88128584 120.2069863 558.17506215 115.92429681 562.93342014 C109.45474028 568.74293346 102.60539254 568.70187421 94.3894043 568.69458008 C93.3008313 568.7012973 92.2122583 568.70801453 91.09069824 568.7149353 C87.49791885 568.73390749 83.90532635 568.73783917 80.3125 568.73999023 C77.80914738 568.74641876 75.30579551 568.75314716 72.80244446 568.76016235 C67.55619092 568.77213322 62.30998462 568.77592917 57.0637207 568.7746582 C51.6853451 568.77359036 46.30725686 568.78766779 40.92895508 568.81567383 C34.4251159 568.84905488 27.92153471 568.86276813 21.41761208 568.86143875 C18.9437597 568.86379413 16.46990448 568.87261406 13.99609947 568.88810349 C10.530548 568.90777064 7.06590899 568.90192159 3.6003418 568.88989258 C2.5854921 568.90113159 1.5706424 568.91237061 0.52503967 568.9239502 C-7.45536834 568.85381145 -13.46678966 567.03040137 -19.69921875 561.96655273 C-23.5235913 557.06657541 -22.84374823 551.27142454 -22.83343983 545.31251717 C-22.83579206 544.39036984 -22.83814429 543.4682225 -22.8405678 542.51813132 C-22.8472537 539.41125588 -22.8467997 536.30442231 -22.84638977 533.19754028 C-22.84968862 530.95432181 -22.85341424 528.71110393 -22.85753125 526.46788681 C-22.86755647 520.29024081 -22.87126887 514.11260453 -22.87392056 507.93495154 C-22.87742149 501.96100229 -22.88556849 495.98705978 -22.8934645 490.01311511 C-22.9143023 474.00872861 -22.92477678 458.00434027 -22.9335941 441.99994337 C-22.93780067 434.43036107 -22.94302258 426.86077956 -22.94827863 419.29119792 C-22.96616628 393.38403513 -22.98116362 367.4768721 -22.98859882 341.56970406 C-22.98907358 339.94349801 -22.98954947 338.31729197 -22.99002649 336.69108593 C-22.99026286 335.8846317 -22.99049924 335.07817746 -22.99074278 334.24728523 C-22.99194398 330.16135747 -22.99315943 326.07542971 -22.99438477 321.98950195 C-22.99462492 321.17863727 -22.99486507 320.36777259 -22.99511249 319.53233626 C-23.00300914 293.22967405 -23.02644981 266.92705689 -23.05894071 240.62441436 C-23.09322323 212.82069066 -23.11294838 185.01699332 -23.11624306 157.21324813 C-23.11666061 154.16233626 -23.11714018 151.1114244 -23.11766624 148.06051254 C-23.11778944 147.30928314 -23.11791263 146.55805375 -23.11803955 145.78405982 C-23.12037326 133.6857749 -23.13604241 121.58754225 -23.15650809 109.48927598 C-23.17674379 97.33437758 -23.18225405 85.17954209 -23.17273746 73.02462997 C-23.16797451 66.43750919 -23.17017136 59.85052487 -23.1894989 53.26342392 C-23.20702933 47.236949 -23.20621541 41.21076944 -23.19060161 35.18429182 C-23.18821013 33.00061295 -23.1926281 30.81691416 -23.20443026 28.63326587 C-23.2194534 25.67090524 -23.20994277 22.70960421 -23.19420338 19.74727058 C-23.20442558 18.894325 -23.21464779 18.04137941 -23.22517976 17.16258699 C-23.15866689 11.44877772 -22.0279406 8.08698801 -18.69921875 3.40405273 C-12.79737919 -0.33444522 -6.82997417 -0.02831333 0 0 Z M12.30078125 35.40405273 C12.30078125 199.74405273 12.30078125 364.08405273 12.30078125 533.40405273 C36.72078125 533.40405273 61.14078125 533.40405273 86.30078125 533.40405273 C86.30078125 369.06405273 86.30078125 204.72405273 86.30078125 35.40405273 C61.88078125 35.40405273 37.46078125 35.40405273 12.30078125 35.40405273 Z " fill="#000000" transform="translate(843.69921875,434.595947265625)"/>
<path d="M0 0 C1.38130348 -0.00856522 1.38130348 -0.00856522 2.79051208 -0.01730347 C3.78854858 -0.01842133 4.78658508 -0.01953918 5.81486511 -0.02069092 C6.87563766 -0.02565582 7.93641022 -0.03062073 9.02932739 -0.03573608 C12.53491365 -0.05032858 16.04045466 -0.05715465 19.54606628 -0.06268311 C21.98598227 -0.06843665 24.42589824 -0.07419436 26.86581421 -0.07995605 C31.98099477 -0.09045754 37.09615966 -0.09630589 42.21134949 -0.09979248 C48.75828661 -0.10527746 55.30501579 -0.12930944 61.8518877 -0.15776443 C66.89199424 -0.17640826 71.93205084 -0.18159734 76.97218895 -0.18312836 C79.38546066 -0.1861511 81.79873158 -0.19416683 84.21196938 -0.20731354 C87.59148011 -0.22441116 90.97048465 -0.22248451 94.35002136 -0.21600342 C95.83796707 -0.22982559 95.83796707 -0.22982559 97.35597229 -0.243927 C104.34246996 -0.20205927 110.1281357 0.64241613 115.77262878 5.12091064 C116.41329285 5.84923096 117.05395691 6.57755127 117.71403503 7.32794189 C118.37274597 8.04337158 119.03145691 8.75880127 119.71012878 9.49591064 C123.94077767 16.6384276 122.41685416 26.91304448 122.40351868 34.94190979 C122.4046719 36.45356588 122.40626078 37.96522169 122.40824592 39.47687691 C122.412414 43.62049369 122.41035966 47.76408738 122.4072597 51.90770423 C122.40499456 56.38385477 122.40849145 60.86000137 122.41123962 65.33615112 C122.4156899 74.11529522 122.41472252 82.89443077 122.41182698 91.6735752 C122.40956273 98.83916404 122.40926488 106.00475049 122.4103508 113.17033958 C122.41050403 114.19298148 122.41065727 115.21562337 122.41081514 116.26925441 C122.41113492 118.347819 122.41145913 120.42638358 122.41178773 122.50494816 C122.41464223 142.02266549 122.41135977 161.54037814 122.40598737 181.0580947 C122.40155346 197.67595956 122.4022668 214.29381741 122.40690613 230.91168213 C122.41231192 250.28353099 122.41433185 269.65537569 122.41129386 289.0272252 C122.4109754 291.11346352 122.41066103 293.19970185 122.4103508 295.28594017 C122.41019652 296.3118196 122.41004225 297.33769903 122.4098833 298.39466572 C122.40903337 305.49591806 122.41047757 312.59716765 122.41283035 319.69841957 C122.41943762 342.43572686 122.39901714 365.17264885 122.30492757 387.90978441 C122.28852694 391.89498607 122.27391959 395.88017397 122.26416302 399.86539793 C122.24297005 408.49762341 122.19997377 417.12896335 122.11398292 425.76080549 C122.09215756 428.28747472 122.07845335 430.8142298 122.07366776 433.34098876 C122.06540038 436.73786949 122.02646863 440.13300096 121.97889709 443.52952576 C121.98542144 444.98600472 121.98542144 444.98600472 121.99207759 446.4719075 C121.85701934 452.81132532 120.49025555 457.29606261 116.27653503 462.14044189 C109.28386519 467.77134454 101.03737044 467.29466248 92.53288269 467.31744385 C91.46221054 467.32401505 90.39153839 467.33058624 89.28842163 467.33735657 C85.75581282 467.35702002 82.22324631 467.36873464 78.69059753 467.37872314 C77.48147076 467.38279867 76.27234398 467.3868742 75.026577 467.39107323 C68.63073143 467.41190097 62.23490713 467.42621882 55.83903503 467.43560791 C49.23937895 467.44668542 42.6400588 467.48111071 36.04052162 467.52077961 C30.95838294 467.54693227 25.87632466 467.55529841 20.7941246 467.55888939 C18.36130369 467.56375616 15.92848638 467.57537264 13.49573135 467.59392738 C10.08987507 467.61829655 6.68489337 467.61735775 3.27897644 467.6104126 C1.77936119 467.62962769 1.77936119 467.62962769 0.24945068 467.64923096 C-6.93496476 467.59594953 -12.25132267 466.08550377 -17.78205872 461.39434814 C-18.23709778 460.83618408 -18.69213684 460.27802002 -19.16096497 459.70294189 C-19.6340509 459.14735596 -20.10713684 458.59177002 -20.59455872 458.01934814 C-22.96416952 454.07546303 -22.85067907 449.64756318 -22.86213017 445.15650654 C-22.86760461 443.94861479 -22.87307905 442.74072304 -22.87871939 441.49622852 C-22.87979564 440.15882709 -22.88078032 438.8214256 -22.88168335 437.48402405 C-22.88625102 436.05989289 -22.89125135 434.63576307 -22.89664692 433.21163481 C-22.9102262 429.29543809 -22.91764664 425.37925005 -22.92407358 421.46303594 C-22.93208385 417.23602813 -22.94578443 413.00903832 -22.95878601 408.78204346 C-22.98342555 400.48073924 -23.00282178 392.17943051 -23.02053875 383.87810896 C-23.04154173 374.14368847 -23.0679935 364.40928501 -23.09471022 354.6748788 C-23.14246261 337.21703822 -23.18565988 319.75918937 -23.22615051 302.30133057 C-23.26506558 285.52593213 -23.30647627 268.75054281 -23.35115051 251.97515869 C-23.35387478 250.95195472 -23.35659906 249.92875075 -23.35940588 248.8745406 C-23.37037768 244.75611839 -23.38135673 240.6376962 -23.39234802 236.51927404 C-23.4406173 218.40728042 -23.48670877 200.29528113 -23.53252444 182.18328115 C-23.53980424 179.3113945 -23.54713016 176.43950797 -23.55446744 173.56762147 C-23.56870392 167.98722517 -23.58276122 162.40682845 -23.59664917 156.82643127 C-23.59890534 155.9203858 -23.6011615 155.01434032 -23.60348604 154.08083893 C-23.62760199 144.32529953 -23.64964543 134.5697613 -23.66631413 124.81420612 C-23.66777418 123.96282509 -23.66923423 123.11144405 -23.67073853 122.2342636 C-23.67654341 118.82334668 -23.6823068 115.41242974 -23.68777897 112.00151228 C-23.70467862 101.57654368 -23.7321428 91.15169505 -23.77411034 80.72679606 C-23.80194587 73.75438616 -23.82309991 66.78197695 -23.83938287 59.80953058 C-23.84926063 55.72794137 -23.86261714 51.64643521 -23.88490212 47.56489336 C-23.90539275 43.80859677 -23.91651612 40.05238924 -23.92047675 36.29603995 C-23.92506379 34.28712495 -23.93971101 32.27824065 -23.95474088 30.26937664 C-23.94826917 12.18429928 -23.94826917 12.18429928 -17.72346497 5.14044189 C-12.16014136 1.5015384 -6.63147581 0.02477636 0 0 Z M12.27653503 36.14044189 C12.27653503 166.82044189 12.27653503 297.50044189 12.27653503 432.14044189 C36.69653503 432.14044189 61.11653503 432.14044189 86.27653503 432.14044189 C86.27653503 301.46044189 86.27653503 170.78044189 86.27653503 36.14044189 C61.85653503 36.14044189 37.43653503 36.14044189 12.27653503 36.14044189 Z " fill="#000000" transform="translate(641.7234649658203,535.8595581054688)"/>
<path d="M0 0 C14.15084141 9.04081534 21.61746048 32.95863681 28.73260498 47.32366943 C30.79572299 51.48814532 32.86298174 55.65055754 34.93276978 59.8117218 C36.02608739 62.01024916 37.11727944 64.20983574 38.20565796 66.41081238 C41.34915297 72.73774511 44.59119162 79.00200523 47.8972168 85.24511719 C53.92682551 96.6450073 59.71449522 108.16425928 65.49609375 119.69140625 C66.05687181 120.80888685 66.61764988 121.92636745 67.19542122 123.07771111 C69.85039005 128.36910502 72.50379001 133.66127997 75.15472072 138.95469815 C78.18711231 145.00965204 81.22615856 151.06120664 84.27066177 157.11007935 C86.93446697 162.4037969 89.58941057 167.70192769 92.24128914 173.00163078 C93.36088862 175.23597786 94.48317651 177.46898003 95.60827446 179.70056343 C97.17799904 182.81560115 98.73748793 185.93556631 100.29467773 189.05688477 C100.75441986 189.96355896 101.21416199 190.87023315 101.68783569 191.80438232 C105.85799095 200.21247426 108.67599627 208.25202431 108.75 217.6875 C108.77835938 218.35523438 108.80671875 219.02296875 108.8359375 219.7109375 C108.85089295 223.52457825 108.21055348 225.49961355 106.15625 228.734375 C101.02169357 233.51006458 96.01551233 234.81936205 89.109375 234.765625 C87.79195312 234.76046875 86.47453125 234.7553125 85.1171875 234.75 C84.44139648 234.7396875 83.76560547 234.729375 83.06933594 234.71875 C80.99135481 234.68736945 78.91413308 234.67774837 76.8359375 234.671875 C66.71450578 234.59233526 66.71450578 234.59233526 63.25 233.4375 C63.31942307 234.47905243 63.38884613 235.52060486 63.46037292 236.59371948 C64.37509125 251.35327233 64.44959565 266.09891912 64.48828125 280.8828125 C64.49234347 282.22457775 64.49646073 283.56634284 64.50063133 284.90810776 C64.51954294 291.19942497 64.53382087 297.49073126 64.5422433 303.78207123 C64.55206587 310.99315193 64.57857352 318.20392985 64.61874419 325.41490376 C64.64895721 331.03406712 64.66371567 336.65314348 64.66702431 342.27238643 C64.66936186 345.61099126 64.68017156 348.94900708 64.70348549 352.28757095 C64.72784438 356.00071939 64.72691945 359.71306559 64.7199707 363.42626953 C64.73918579 365.05816978 64.73918579 365.05816978 64.75878906 366.72303772 C64.70287868 374.9347276 63.02969007 381.01634299 57.8125 387.4375 C53.91453189 390.47981657 50.08963293 390.56033036 45.26078796 390.58467102 C44.2810199 390.59182632 43.30125183 390.59898163 42.29179382 390.60635376 C40.69655632 390.61038712 40.69655632 390.61038712 39.0690918 390.61450195 C37.94004425 390.62107315 36.8109967 390.62764435 35.6477356 390.63441467 C31.91489594 390.65411061 28.18209642 390.66580085 24.44921875 390.67578125 C23.17297953 390.67985678 21.8967403 390.6839323 20.58182716 390.68813133 C14.52485703 390.70682749 8.46791112 390.72139833 2.41091985 390.7297433 C-4.56430564 390.73951421 -11.53921368 390.76583858 -18.51432735 390.80624419 C-24.56969543 390.84011019 -30.62490999 390.85189358 -36.68037987 390.85594749 C-39.2499628 390.86081642 -41.81954227 390.87243901 -44.38906288 390.89098549 C-47.98660175 390.91534233 -51.58331206 390.91441784 -55.1809082 390.9074707 C-56.76703667 390.92668579 -56.76703667 390.92668579 -58.38520813 390.94628906 C-66.30815467 390.89061819 -71.25277273 388.94638043 -77.625 384.375 C-83.25542637 376.59176355 -82.03046343 365.07822221 -81.98046875 355.8984375 C-81.97960812 354.47612534 -81.97953335 353.05381252 -81.98017883 351.63150024 C-81.97902978 347.81595243 -81.9646925 344.00056246 -81.94723511 340.18505859 C-81.93418359 337.00425161 -81.92868219 333.82344703 -81.92279625 330.64262009 C-81.85815119 298.23687671 -81.37022672 265.83686741 -80.75 233.4375 C-81.41 233.7675 -82.07 234.0975 -82.75 234.4375 C-86.92317839 234.6963156 -91.09824673 234.70861723 -95.27880859 234.73266602 C-96.66563156 234.74413404 -98.05241221 234.76450338 -99.43896484 234.79418945 C-107.56681985 234.96817726 -113.90198615 235.09783746 -120.75 230.4375 C-125.13279381 224.93091291 -126.37654506 220.17831707 -126.25989437 213.25101376 C-125.65420954 208.72108055 -124.20120942 205.25084423 -122.27528381 201.14393616 C-121.91717528 200.36074605 -121.55906675 199.57755594 -121.19010645 198.7706328 C-117.22419178 190.16321732 -113.01990575 181.67332381 -108.78295898 173.19702148 C-107.91599596 171.45544838 -107.04934706 169.71371888 -106.1829834 167.97184753 C-103.85844218 163.30108865 -101.52884697 158.63286981 -99.19768023 153.96541476 C-97.73743831 151.04126112 -96.27823087 148.11659355 -94.8193531 145.19175911 C-89.71921008 134.96709112 -84.6145759 124.74467874 -79.50610352 114.52416992 C-74.75890284 105.02612188 -70.02227139 95.52285338 -65.29032081 86.01719993 C-61.20972194 77.82127414 -57.12140681 69.62922778 -53.02718979 61.44009644 C-50.58937407 56.56367436 -48.15472666 51.68573404 -45.72802544 46.80377007 C-43.44922637 42.21994219 -41.16083471 37.64103108 -38.86513519 33.06564522 C-38.02765082 31.3924858 -37.19354272 29.71763122 -36.36318398 28.04092407 C-25.2537616 5.62136996 -25.2537616 5.62136996 -15.75 0.4375 C-10.66520101 -1.257433 -5.23138745 -1.07005652 0 0 Z M-10.75 57.4375 C-11.09345648 58.12441296 -11.43691296 58.81132591 -11.79077721 59.51905441 C-77.75 191.4375 -77.75 191.4375 -78.92400551 193.53551102 C-80.01555856 195.70339203 -80.01555856 195.70339203 -79.75 199.4375 C-78.17412109 199.51097656 -78.17412109 199.51097656 -76.56640625 199.5859375 C-56.28497233 200.62006351 -56.28497233 200.62006351 -50.07212639 205.93553352 C-47.78243451 208.53667701 -47.94999 210.97352454 -47.89477539 214.35522461 C-47.87551278 215.07928214 -47.85625017 215.80333967 -47.83640385 216.54933834 C-47.77671817 219.17903898 -47.76411303 221.80716974 -47.75 224.4375 C-47.71675119 226.63260452 -47.68171299 228.8276824 -47.64523315 231.0227356 C-47.53918656 238.21963787 -47.48879855 245.41643274 -47.44667697 252.61390805 C-47.42450816 256.24001893 -47.3972736 259.86609205 -47.37062073 263.49217224 C-47.32110452 270.33040852 -47.27601692 277.16866622 -47.23259836 284.00694364 C-47.17353698 293.26748405 -47.10747625 302.52797451 -47.04184818 311.78847027 C-46.93891766 326.33811297 -46.84520199 340.88779991 -46.75 355.4375 C-21.67 355.4375 3.41 355.4375 29.25 355.4375 C29.31058594 346.21554687 29.37117188 336.99359375 29.43359375 327.4921875 C29.47411381 321.63150638 29.51486314 315.77082832 29.55664062 309.91015625 C29.62283222 300.6186681 29.68811818 291.32718024 29.74731445 282.03564453 C29.79044336 275.26674456 29.83678972 268.49787527 29.88687855 261.7290231 C29.91325068 258.1504226 29.93809397 254.57182727 29.95907402 250.99319077 C29.98264924 246.98223138 30.01341309 242.97135606 30.04467773 238.96044922 C30.0504332 237.79518707 30.05618866 236.62992493 30.06211853 235.42935181 C30.11335831 229.60288236 30.27117072 223.78630849 30.57533264 217.96731567 C30.65956529 216.30570247 30.65956529 216.30570247 30.74549961 214.61052132 C31.47377132 210.03010529 33.21250675 206.66003713 36.19921875 203.140625 C40.92797994 200.50075319 45.72621311 200.50044046 51.0625 200.1875 C52.13693359 200.11015625 53.21136719 200.0328125 54.31835938 199.953125 C56.96156606 199.76516364 59.60476756 199.59386842 62.25 199.4375 C60.92444672 195.20921774 59.3212789 191.29732699 57.37890625 187.31640625 C56.80333984 186.13111328 56.22777344 184.94582031 55.63476562 183.72460938 C55.02751637 182.48298848 54.42009523 181.24145163 53.8125 180 C52.9485017 178.22580554 52.08451542 176.45160502 51.22145081 174.67695618 C50.60001304 173.39943235 49.97785307 172.12225966 49.35508728 170.84538269 C47.57737585 167.19429836 45.8189505 163.53519097 44.08618164 159.86254883 C34.72368738 140.05499026 24.84075607 120.50450891 15.02508545 100.91900635 C12.56274354 96.00470089 10.10277262 91.08920886 7.64257812 86.17382812 C2.84731943 76.59391564 -1.95048821 67.01528233 -6.75 57.4375 C-8.07 57.4375 -9.39 57.4375 -10.75 57.4375 Z " fill="#000000" transform="translate(900.75,22.5625)"/>
<path d="M0 0 C1.63526894 -0.0098568 1.63526894 -0.0098568 3.30357361 -0.01991272 C6.90111364 -0.03957875 10.49861212 -0.05129138 14.09619141 -0.0612793 C15.94297926 -0.06739259 15.94297926 -0.06739259 17.82707596 -0.07362938 C23.66939674 -0.09231464 29.51170129 -0.10688943 35.35404623 -0.11524135 C42.07853462 -0.12501593 48.80269407 -0.15135426 55.52706659 -0.19174224 C61.368318 -0.22561277 67.20945956 -0.23739185 73.05080032 -0.24144554 C75.52827821 -0.24631287 78.00575254 -0.25793094 80.48316574 -0.27648354 C83.95128327 -0.30084803 87.41854171 -0.29991472 90.88671875 -0.29296875 C91.90516373 -0.30577881 92.9236087 -0.31858887 93.97291565 -0.33178711 C101.76224234 -0.27503945 106.68278605 1.74506849 112.94775391 6.23950195 C117.81012889 12.96102032 117.36973157 22.53135999 117.34741211 30.5703125 C117.35252304 31.54417908 117.35763397 32.51804565 117.36289978 33.52142334 C117.37666547 36.70225368 117.37584973 39.88286434 117.37353516 43.0637207 C117.37742757 45.29327982 117.38176335 47.52283819 117.38652039 49.75239563 C117.39395331 54.4080344 117.39371139 59.06359728 117.38842773 63.71923828 C117.38261897 69.67414262 117.39961244 75.62873736 117.42277241 81.58359051 C117.43752271 86.18105371 117.43837997 90.77844239 117.43526268 95.37592506 C117.43577464 97.5714867 117.44098878 99.76705264 117.4510746 101.96259117 C117.46345482 105.03255646 117.45663895 108.10191887 117.44506836 111.171875 C117.4527121 112.07025589 117.46035583 112.96863678 117.4682312 113.89424133 C117.40859361 121.07806606 115.88013117 126.35961975 111.94775391 132.48950195 C105.48659273 138.52928305 97.37122602 138.61910256 88.91259766 138.58105469 C87.2937114 138.59134956 87.2937114 138.59134956 85.64212036 138.60185242 C82.09802856 138.62005519 78.55438212 138.61629252 75.01025391 138.6105957 C72.53360857 138.61516016 70.0569645 138.62046652 67.58032227 138.6264801 C62.39903607 138.63539808 57.21790413 138.63300236 52.03662109 138.62304688 C45.40907559 138.61155096 38.7820624 138.63178568 32.15458679 138.66096401 C27.0432194 138.67933994 21.9319793 138.67903085 16.82058716 138.67332649 C14.37744398 138.67317349 11.93429205 138.67920001 9.49118042 138.69161797 C6.07142028 138.70655421 2.65264037 138.69583081 -0.76708984 138.67871094 C-2.26826859 138.69321289 -2.26826859 138.69321289 -3.79977417 138.70800781 C-11.73106234 138.62518614 -17.73455787 136.77106114 -23.92724609 131.73950195 C-26.94693837 127.87052122 -27.04968186 124.08233564 -27.07441711 119.28822327 C-27.08157242 118.33080734 -27.08872772 117.37339142 -27.09609985 116.38696289 C-27.09878876 115.34838135 -27.10147766 114.3097998 -27.10424805 113.23974609 C-27.11081924 112.13674667 -27.11739044 111.03374725 -27.12416077 109.89732361 C-27.1438506 106.25226776 -27.15554436 102.60725295 -27.16552734 98.9621582 C-27.16960287 97.71652037 -27.1736784 96.47088253 -27.17787743 95.18749809 C-27.19656978 89.27790257 -27.21114284 83.36832004 -27.2194894 77.45870215 C-27.22926912 70.64815496 -27.25561824 63.83793214 -27.29599029 57.02749926 C-27.3298123 51.11844669 -27.34163593 45.2094735 -27.34569359 39.30032158 C-27.35056863 36.79048901 -27.36220853 34.28066014 -27.38073158 31.77089119 C-27.40503031 28.26154695 -27.40417491 24.75305463 -27.3972168 21.24365234 C-27.41643188 19.68881638 -27.41643188 19.68881638 -27.43603516 18.10256958 C-27.39298629 12.14949539 -26.93378671 8.68904055 -22.92724609 4.17700195 C-15.7814456 -0.32795923 -8.1637288 0.02146858 0 0 Z M6.07275391 35.17700195 C6.07275391 57.61700195 6.07275391 80.05700195 6.07275391 103.17700195 C31.15275391 103.17700195 56.23275391 103.17700195 82.07275391 103.17700195 C82.07275391 80.73700195 82.07275391 58.29700195 82.07275391 35.17700195 C56.99275391 35.17700195 31.91275391 35.17700195 6.07275391 35.17700195 Z " fill="#000000" transform="translate(41.92724609375,864.822998046875)"/>
</svg>
