<svg xmlns="http://www.w3.org/2000/svg" viewBox="0 0 64 64" fill="none">
  <defs>
    <linearGradient id="g3" x1="0%" y1="0%" x2="100%" y2="100%">
      <stop offset="0%" stop-color="#a8e063"/>
      <stop offset="100%" stop-color="#2bc0b4"/>
    </linearGradient>
  </defs>
  <!-- Gear background -->
  <path d="M32 8 L36 12 L41 11 L44 15 L42 20 L46 24 L45 29 L40 31 L40 37 L35 39 L32 36 L29 39 L24 37 L24 31 L19 29 L18 24 L22 20 L20 15 L23 11 L28 12 Z" fill="url(#g3)"/>
  <!-- Center white circle -->
  <circle cx="32" cy="25" r="8" fill="white" opacity="0.3"/>
  <!-- Code brackets in white -->
  <polyline points="27,22 23,25 27,28" stroke="white" stroke-width="2.2" fill="none" stroke-linecap="round" stroke-linejoin="round"/>
  <polyline points="37,22 41,25 37,28" stroke="white" stroke-width="2.2" fill="none" stroke-linecap="round" stroke-linejoin="round"/>
  <line x1="30" y1="20" x2="34" y2="30" stroke="white" stroke-width="2" stroke-linecap="round"/>
</svg>
