<svg xmlns="http://www.w3.org/2000/svg" width="512" height="512"><path d="M106 32c9.76 7.89 18.199 19.311 20 32 1.362 16.841-1.184 28.306-10 43l25 25c3.455-1.727 5.13-2.919 7.813-5.5 30.894-27.83 74.434-39.887 115.312-38.375 16.689.886 33.189 4.1 48.875 9.875l2.072.761C335.129 106.28 353.413 117.238 369 132c3.909-1.584 6.524-4.266 9.422-7.227l1.53-1.538c1.604-1.615 3.201-3.238 4.798-4.86l3.27-3.297A3172 3172 0 0 0 396 107l-1.229-1.981c-8.578-14.02-11.117-28.36-8.11-44.582 4.028-13.393 12.841-25.17 25.172-31.807 6.515-3.304 12.804-6.063 20.167-6.63l2.488-.242C446.668 21.144 459.245 24.706 469 32l2.137 1.59C481.704 42.145 488.227 54.566 490 68c1.209 15.054-2.709 28.98-12.258 40.793-10.14 10.776-22.165 17.106-36.916 17.606-9.977.144-19.891-.374-28.424-6.16L410 119c-3.956 1.302-6.578 4.322-9.422 7.227l-1.53 1.538a1534 1534 0 0 0-4.798 4.86l-3.27 3.297A3172 3172 0 0 0 383 144c1.89 3.975 4.415 7.318 7.063 10.813 26.881 36.238 38.692 81.135 32.148 125.964C420.423 291.81 417.863 302.51 414 313l-.761 2.072C405.72 335.129 394.762 353.413 380 369c1.584 3.909 4.266 6.524 7.227 9.422l1.538 1.53c1.615 1.604 3.238 3.201 4.86 4.798l3.297 3.27A3172 3172 0 0 0 405 396l1.979-1.229c13.878-8.497 27.71-10.956 43.74-8.11 12.802 3.52 24.858 11.47 31.547 23.12 3.809 7.076 7.128 14.111 7.734 22.219l.242 2.746c.659 14.59-4.432 27.27-13.492 38.442-9.264 10.078-21.937 15.944-35.523 17.035-15.365.463-29.33-4.303-40.602-14.91-11.785-12.628-15.432-25.56-14.984-42.368.385-7.3 1.967-14.418 6.12-20.543L393 410c-1.302-3.956-4.322-6.578-7.227-9.422l-1.538-1.53a1534 1534 0 0 0-4.86-4.798l-3.297-3.27A3172 3172 0 0 0 368 383c-3.975 1.89-7.318 4.415-10.812 7.063-36.185 26.841-81.12 38.727-125.895 32.148-11.078-1.797-21.736-4.415-32.293-8.211l-1.892-.68C178.163 406.413 161.334 396.086 146 383c-3.909 1.584-6.524 4.266-9.422 7.227l-1.53 1.538a1534 1534 0 0 0-4.798 4.86l-3.27 3.297A3172 3172 0 0 0 119 408l.935 2.328a309 309 0 0 1 3.127 8.235l1.036 2.816c3.768 10.946 3.535 25.251-.778 35.957C115.745 472.62 105.7 481.75 90 488c-3.366 1.119-6.468 1.736-10 2l-2.746.242C64.917 490.8 52.926 487.342 43 480l-2.328-1.707C31.869 471.182 25.627 461.008 23 450l-.687-2.812c-1.596-16.275 1.485-31.042 11.945-43.981 10.369-11.02 22.565-17.063 37.627-17.607 13.99-.21 22.945 3.098 35.115 10.4l25-25c-1.866-3.733-3.633-5.98-6.375-9.062-28.2-32.952-39.925-76.837-37.102-119.579 1.534-18.902 1.534-18.902 5.368-23.75C96 217 96 217 99.437 216.437 103 217 103 217 106 218.75c3.117 5.065 1.842 9.56 1 15.25-4.265 30.812.672 62.39 15 90l1.578 3.246c17.078 33.866 49.194 59.71 84.899 71.676 5.122 1.592 10.29 2.908 15.523 4.078l2.34.53c32.516 7.028 68.3 2.036 97.66-13.53l1.979-1.027c34.412-17.984 60.569-48.527 72.943-85.45 1.592-5.122 2.908-10.29 4.078-15.523l.53-2.34c4.344-20.097 4.01-41.635-.53-61.66l-.554-2.476c-4.452-19.1-12.548-37.85-24.446-53.524l-1.883-2.512C367.547 154.436 358.19 144.434 347 136l-1.622-1.225C328.323 122.145 308.653 113.619 288 109l-2.34-.53c-37.867-8.185-78.607.016-111.1 20.746-5.864 3.861-11.287 8.15-16.56 12.784-.85.73-1.702 1.46-2.578 2.21-13.964 12.209-24.438 26.409-33.023 42.749-3.88 7.298-3.88 7.298-7.399 10.041-3.602.45-6.021.412-9.375-1-2.452-3.017-2.754-6.222-2.625-10 .929-2.984 2.366-5.558 3.938-8.25l1.251-2.24c6.017-10.622 12.912-20.222 20.811-29.51-1.584-3.909-4.266-6.524-7.227-9.422l-1.538-1.53a1534 1534 0 0 0-4.86-4.798l-3.297-3.27A3172 3172 0 0 0 104 119c-2.505 1-5.008 2.003-7.5 3.035l-2.5 1.028-2.5 1.035c-10.93 3.944-26.146 3.529-36.836-.778C39.38 115.745 30.25 105.7 24 90c-1.119-3.366-1.736-6.468-2-10l-.242-2.746C21.2 64.917 24.658 52.926 32 43l1.707-2.328C51.565 18.565 83.221 16.659 106 32M47.313 50.813c-6.781 8.407-9.078 16.655-8.762 27.43 1.192 9.97 5.744 18.127 13.48 24.405C60.18 108.53 68.971 111.127 79 110c10.904-2.016 19.654-7.935 26-17 4.728-8.594 6.444-17.321 4.352-27-3.312-11.094-8.807-17.574-18.606-23.59-15.031-7.719-32.167-3.698-43.433 8.403m362.039 1.218C403.47 60.18 400.873 68.971 402 79c2.016 10.904 7.935 19.654 17 26 8.594 4.728 17.321 6.444 27 4.352 11.094-3.312 17.574-8.807 23.59-18.606 4.272-8.32 4.867-17.562 2.723-26.664-4.051-10.886-11.443-18.509-21.875-23.457-14.957-5.445-31.177-.805-41.086 11.406M48 413c-2.336 2.849-4.235 5.77-6 9l-1.031 1.824c-3.39 7.236-3.088 16.465-1.278 24.086 4.024 10.893 11.447 18.52 21.871 23.465 8.142 2.985 17.652 2.999 25.813.063 9.536-4.53 16.532-11.105 20.656-20.883 3.188-9.417 2.846-18.397-1.031-27.555-5.153-9.793-12.584-16.326-23-20-12.814-3.943-26.774.7-36 10m360.504 3.852c-5.556 7.937-7.434 16.582-6.504 26.148 2.223 10.286 6.772 18.28 15.438 24.375 1.502.906 3.022 1.784 4.562 2.625l1.824 1.031c7.236 3.39 16.465 3.088 24.086 1.278 10.893-4.024 18.52-11.447 23.465-21.872 2.985-8.14 2.999-17.651.063-25.812-4.53-9.536-11.105-16.532-20.883-20.656-16.063-5.438-31.406-.01-42.051 12.883"/><path d="m243.125 134.602 3.114-.01q3.237-.002 6.474.017c3.278.016 6.555 0 9.834-.02q3.165.004 6.328.013l2.93-.019c11.392.116 20.949 3.307 29.172 11.35 8.637 10.016 9.633 22.27 9.554 34.993l.012 4.201q.008 4.372-.022 8.746c-.022 3.688-.009 7.375.014 11.063.191 35.869.191 35.869-10.144 51.806-1.566 2.1-1.566 2.1-1.391 4.258 1.713 1.042 3.474 2.006 5.25 2.938 21.559 12.24 36.215 33.845 43.125 57.312 1.771 10.629.865 19.534-5.437 28.438-15.141 18.08-47.704 24.337-70.063 27q-2.436.184-4.875.312l-3.543.23c-9.485.364-9.485.364-13.832-2.293-2.042-3.691-2.306-5.778-1.625-9.937 2.219-2.907 3.52-3.84 7-5 1.525-.157 3.055-.272 4.586-.36 18.18-1.204 35.679-4.124 52.414-11.64l1.833-.805c9.66-4.155 9.66-4.155 16.167-12.195 2.6-10.63-4.18-22.368-9.281-31.309-8.633-13.518-22.67-26.82-38.719-30.691-2.095.522-2.095.522-3.875 1.75-6.757 4.154-14.084 4.638-21.812 4.625l-2.65.002c-6.49-.11-11.838-1.111-17.936-3.404-4.226-1.508-7.272-2.46-11.622-1.004-6.595 3.46-12.407 7.24-18.105 12.031l-2.516 1.941c-11.016 9.129-19.968 25.274-21.793 39.457-.3 5.478.773 8.214 4.309 12.602 2.305 1.536 4.337 2.713 6.813 3.875l2.05 1.005c7.247 3.419 14.85 5.9 22.505 8.243 7.127 2.285 7.127 2.285 9.804 5.424 1.108 3.284.879 5.16-.172 8.453-1.562 2.375-1.562 2.375-4 4-5.987.418-10.685-.465-16.312-2.437l-2.32-.797c-5.986-2.128-11.793-4.595-17.555-7.266l-2.355-1.076c-9.613-4.614-15.829-10.789-19.77-20.736-3.162-16.958 4.202-33.756 13.34-47.805C187.177 279.14 197.593 269.96 211 262l3-2-1.39-1.984c-6.992-10.399-10.675-20.883-10.787-33.458l-.039-3.815q-.012-2.045-.022-4.09l-.013-2.108q-.03-5.528-.044-11.055c-.011-3.77-.046-7.539-.085-11.308-.027-2.93-.035-5.86-.038-8.79a414 414 0 0 0-.035-4.163c-.155-12.174 1.268-23.778 9.476-33.295 9.15-8.951 19.597-11.411 32.102-11.332M222.688 158.5c-3.046 4.512-3.935 7.27-3.883 12.797l.02 3.652.05 3.801.027 3.848q.036 4.701.098 9.402c6.94-1.422 13.583-3.362 20.313-5.562q2.9-.941 5.8-1.88l2.556-.834c12.869-3.999 26.943-2.587 39.331 2.276q2.995 1.014 6 2c.147-3.666.234-7.332.313-11l.126-3.121c.111-6.967-.857-11.52-5.439-16.879-4.081-3.79-7.116-5.111-12.636-5.177l-2.843-.039-3.068-.022-3.165-.025q-3.319-.02-6.638-.032c-3.373-.017-6.746-.061-10.119-.105q-3.226-.015-6.453-.026l-3.044-.053c-7.492.023-12.1 1.308-17.346 6.979M219 210c-.944 21.99-.944 21.99 9.012 40.996 7.514 7.574 17.066 11.874 27.676 12.254 10.11-.135 18.429-3.948 25.937-10.562 10.682-12.088 12.675-22.921 12.164-38.989-.344-3.884-.617-5.443-2.828-8.742-2.952-1.926-5.585-2.96-8.961-3.957l-3.016-1.258C259.086 191.877 237.83 203.302 219 210M509 248c2.138 1.6 2.895 2.486 3.434 5.121.006 3.765-.003 6.172-1.996 9.441C507 264.59 504.926 264.62 501 264c-2.937-2.062-2.937-2.062-5-5-.562-3.562-.562-3.562 0-7 4.033-5.109 6.752-5.315 13-4M242.867 495.52c2.133.48 2.133.48 4.758 2.543 1.808 3.862 1.558 5.87.375 9.937-1.625 2.438-1.625 2.438-4 4-3.915.56-6.038.633-9.375-1.562C232.448 507.172 232 504.92 232 501c2.435-5.203 5.504-5.808 10.867-5.48M307 492c2.991 2.542 3.842 4.157 4.563 8-.776 4.136-2.176 5.55-5.563 8-3.998.631-6.007.68-9.375-1.625-2.01-2.938-2.552-4.815-2.625-8.375 2.816-6.035 6.5-7.13 13-6M213 492c3.381 2.446 4.77 3.893 5.625 8-.856 4.107-2.244 5.554-5.625 8-3.687.517-5.974.46-9.375-1.062-2.436-2.905-2.56-5.198-2.625-8.938 2.745-6.013 5.534-6.658 12-6M179.563 483.438c3.437.562 3.437.562 5.812 2.187 2.01 2.938 2.552 4.815 2.625 8.375-1.138 2.327-2.168 4.168-4 6-3.054.434-5.95.47-9 0-3.06-2.538-3.835-4.117-4.562-8 1.015-5.416 3.763-7.716 9.125-8.562M498.879 185.531c2.612.577 3.514 1.355 5.121 3.469 1.027 3.963 1.406 6.111-.312 9.875C502 201 502 201 500 202c-3.48.258-6.133.365-9.375-1-2.496-3.073-2.914-6.093-2.625-10 2.457-5.36 5.482-5.542 10.879-5.469M43 129c2.592 1.698 2.964 2.882 3.875 5.875.15 3.756-.592 5.19-2.875 8.125-3.518 2.345-4.858 2.58-9 2-3.329-2.46-4.793-3.896-5.562-8 .69-3.682 1.93-5.368 4.562-8 3.55-1.183 5.4-.9 9 0M361.563 22.438C365 23 365 23 367.375 24.625c2.01 2.938 2.552 4.815 2.625 8.375-2.13 4.565-2.13 4.565-5 6-2.934.284-5.151.495-8 0-2.991-2.542-3.842-4.157-4.562-8 1.015-5.416 3.763-7.716 9.125-8.562M368 474c1.893 2.304 1.998 3.984 2.438 6.938C370 484 370 484 367.875 486.875 365 489 365 489 362 489.563c-3.738-.701-5.394-1.808-8-4.563-1.185-3.081-1.143-4.525-.187-7.687 1.27-2.476 2.298-3.918 4.875-5.063 3.5-.378 6.06.485 9.312 1.75M30 340c2.238 1.805 2.835 3.098 3.348 5.902.278 3.84.072 5.56-2.348 8.66-3.978 1.907-6.84 1.824-11 .438-2.882-2.342-2.975-3.8-3.437-7.5.437-3.5.437-3.5 2.312-5.875C22.871 338.569 25.09 338.88 30 340M13 279c3.329 2.46 4.793 3.896 5.563 8-.707 3.77-1.745 5.404-4.563 8-3.514 1.196-5.26 1.269-8.75 0-3.112-2.766-3.686-4.912-4.25-9 2.414-5.716 5.83-7.864 12-7M13 217c3.387 2.45 4.787 3.864 5.563 8-.721 3.843-1.572 5.458-4.563 8-3.8.826-6.918.5-10.437-1.125C1.35 229.22 1.068 227.445 1 224c2.648-6.683 4.842-7.728 12-7M40.879 367.531c2.612.577 3.514 1.355 5.121 3.469 1.027 3.963 1.406 6.111-.312 9.875C44 383 44 383 42 384c-6.136.568-6.136.568-9.375-1.562C30.448 379.172 30 376.92 30 373c2.498-5.337 5.48-5.542 10.879-5.469M488.125 338.938c2.619.538 3.766.974 5.875 2.687 1.412 3.354 1.45 5.773 1 9.375-2.055 3.003-3.476 3.833-6.937 4.938-3.662.074-5.193-.724-8.063-2.938-1.57-3.139-1.352-5.539-1-9 2.596-3.894 4.486-5.413 9.125-5.062M496.375 309.75l2.398-.078c2.761.407 3.574 1.114 5.227 3.328 1.027 3.963 1.406 6.111-.312 9.875C502 325 502 325 500 326c-6.166.57-6.166.57-9.375-1.625-2.01-2.938-2.552-4.815-2.625-8.375 2.302-4.709 3.22-6.15 8.375-6.25M502 215.438c3.883.727 5.462 1.502 8 4.562.59 3.08.678 5.932 0 9-2.046 2.663-3.01 3.003-6.375 3.938-3.625.062-3.625.062-6.5-1.75-2.47-2.543-3.034-3.502-3.5-7 .375-3.188.375-3.188 2.5-6.063C499 216 499 216 502 215.438M473.563 127.438c3.437.562 3.437.562 5.812 2.187 2.01 2.938 2.552 4.815 2.625 8.375-2.13 4.565-2.13 4.565-5 6-4.374.495-6.32.492-9.937-2.125C465 139 465 139 464.375 136c1.124-5.394 3.804-7.712 9.188-8.562M155 24c2.82 2.365 2.979 3.828 3.438 7.5C158 35 158 35 156.375 37.375c-2.938 2.01-4.815 2.552-8.375 2.625-4.565-2.13-4.565-2.13-6-5-.457-6.173-.457-6.173 1.313-9.375C146.914 22.157 150.44 22.942 155 24M271.313 495.625c3.583.046 4.384.124 7.25 2.5 1.702 3.405 2.14 5.124 1.437 8.875-2.46 3.329-3.896 4.793-8 5.563-3.77-.707-5.404-1.745-8-4.563-1.267-3.721-1.361-5.261.375-8.812 2.367-3.187 2.982-3.395 6.938-3.563M152.879 472.531c2.6.575 3.504 1.383 5.121 3.469 1.094 3.596 1.32 5.297-.25 8.75-2.278 2.93-3.935 4.126-7.625 4.688-3.125-.438-3.125-.438-6-2.563C142 484 142 484 141.438 481c1.342-7.161 4.727-8.56 11.44-8.469M19 310c2.375 1.063 2.375 1.063 4 3 1.104 3.973 1.415 6.09-.312 9.875C21 325 21 325 19 326c-6.166.57-6.166.57-9.375-1.625C7.615 321.437 7.073 319.56 7 316c2.84-6.086 5.47-6.45 12-6M20 187c2.648 1.677 2.955 2.851 3.875 5.875.15 3.756-.592 5.19-2.875 8.125-3 2-3 2-6.437 1.938C11 202 11 202 8.5 199.875c-2.007-3.846-1.772-5.76-.5-9.875 3.757-4.42 6.542-4.516 12-3M478 368c2.438 2.125 2.438 2.125 4 5-.06 3.47-.328 5.88-2.125 8.875-2.994 1.797-5.404 2.065-8.875 2.125-3.51-1.907-4.711-3.151-6-6.937 0-3.689.7-5.208 3-8.063 3.372-2.558 6.049-2.235 10-1M502.563 278.438c3.437.562 3.437.562 5.812 2.25 1.862 2.65 2.548 4.07 2.625 7.312-2.277 5.639-2.277 5.639-5 7-2.934.284-5.151.495-8 0-2.991-2.542-3.842-4.157-4.562-8 1.015-5.416 3.763-7.716 9.125-8.562M490 156c3.387 2.45 4.787 3.864 5.563 8-.721 3.843-1.572 5.458-4.563 8-2.799.66-5.196.622-8 0-2.787-1.93-3.737-3.267-4.875-6.437-.15-3.093.408-4.848 1.875-7.563 3.75-2.5 5.559-2.536 10-2M334.879 11.531c2.6.575 3.504 1.383 5.121 3.469 1.094 3.596 1.32 5.297-.25 8.75-2.31 2.97-3.93 4.145-7.687 4.625C329 28 329 28 326.688 26.438 324.432 23.179 324 20.955 324 17c2.498-5.337 5.48-5.542 10.879-5.469M304.094 3.59C306 4 306 4 308.5 5.5c2.122 3.536 2.291 6.479 1.5 10.5-1.5 2.5-1.5 2.5-4 4-2.81.604-5.198.66-8 0-3-2.55-3.855-4.129-4.5-8 1.083-6.496 4.261-8.87 10.594-8.41M240-.562c3.843.72 5.458 1.571 8 4.562.942 3.999.611 6.981-1.5 10.5-3.532 2.119-6.483 2.298-10.5 1.5-2.5-1.562-2.5-1.562-4-4-.562-3.437-.562-3.437 0-7 2.45-3.387 3.864-4.787 8-5.562M29 157c2.5 1.5 2.5 1.5 4 4 .604 2.81.66 5.198 0 8-2.542 2.991-4.157 3.842-8 4.563-4.136-.776-5.55-2.176-8-5.563-.625-3.958-.61-6.009 1.5-9.437 3.526-2.204 6.45-2.36 10.5-1.563M213 4c2.438 1.5 2.438 1.5 4 4 .798 4.017.619 6.968-1.5 10.5-3.532 2.119-6.483 2.298-10.5 1.5-2.5-1.562-2.5-1.562-4-4-.721-4.408-.52-6.26 2.063-9.937C206.74 3.48 208.593 3.279 213 4M183 12c2.5 1.5 2.5 1.5 4 4 .605 2.81.655 5.196 0 8-2.713 3.288-4.348 3.909-8.562 4.5-3.438-.5-3.438-.5-5.875-2-2.204-3.526-2.36-6.45-1.563-10.5 2.841-4.735 6.924-4.999 12-4M336 484c3.329 2.46 4.793 3.896 5.563 8-.721 3.843-1.572 5.458-4.563 8-3.999.942-6.981.611-10.5-1.5-2.111-3.519-2.442-6.501-1.5-10.5 3.25-3.823 6.058-4.927 11-4M11 248c3.329 2.46 4.793 3.896 5.563 8-.721 3.843-1.572 5.458-4.563 8-3.999.942-6.981.611-10.5-1.5-2.111-3.519-2.442-6.501-1.5-10.5 3.25-3.823 6.058-4.927 11-4M271-.562c3.843.72 5.458 1.571 8 4.562.942 3.999.611 6.981-1.5 10.5-3.519 2.111-6.501 2.442-10.5 1.5-2.991-2.542-3.842-4.157-4.562-8 .941-5.021 3.54-7.621 8.562-8.562"/></svg>