<svg xmlns="http://www.w3.org/2000/svg" width="512" height="512"><path d="M335.98 85.465c8.776 7.662 15.735 16.446 22.27 26.035l1.213 1.759c2.448 3.685 4.375 7.45 6.184 11.489l1.342 2.985L368 130l2.5-.002q11.738-.005 23.477.082c4.022.03 8.043.047 12.065.04 3.89-.007 7.78.016 11.671.059q2.212.015 4.425.001c10.564-.062 19.401 1.477 27.782 8.408 6.944 7.305 8.68 16.492 8.561 26.22l.01 3.156c.007 3.466-.015 6.93-.037 10.396q-.001 3.741.002 7.482 0 8.035-.033 16.07c-.033 7.744-.043 15.489-.048 23.234q-.015 18.85-.073 37.702a22590 22590 0 0 0-.082 36.608l-.003 2.282-.016 11.335c-.041 31.309-.112 62.618-.201 93.927l1.893-.063c2.869-.084 5.737-.136 8.607-.187l2.977-.102c7.614-.101 12.984 1.25 18.765 6.317l1.633 1.973 1.68 1.964c4.471 6.49 4.143 13.48 3.445 21.098-1.967 6.848-6.512 11.63-12.562 15.25-5.084 2.588-9.16 2.896-14.81 2.881l-2.269.007q-3.783.006-7.566.002l-5.463.01q-7.522.011-15.045.01c-5.404.002-10.809.01-16.213.016q-17.733.02-35.467.024l-22.137.012q-30.635.019-61.271.026h-7.934l-7.968.002h-3.992a70750 70750 0 0 0-64.06.046 63928 63928 0 0 1-65.74.037q-18.461-.001-36.923.025-15.718.023-31.437.012-8.022-.008-16.043.011-7.343.019-14.686 0-2.656-.004-5.314.01c-2.408.01-4.816.003-7.224-.01-.687.009-1.374.016-2.082.024-7.4-.08-14.092-2.707-19.794-7.395-6.015-8.03-6.762-15.056-6-25 1.664-6.658 6.472-11.191 12-15 3.582-1.68 6.356-2.241 10.3-2.195l2.96.02 3.053.05 3.11.027q3.79.036 7.577.098l-.011-3.923a61395 61395 0 0 1-.209-103.62l-.003-2.286a23023 23023 0 0 0-.086-36.596q-.056-18.784-.067-37.569-.008-11.585-.056-23.17c-.023-5.928-.026-11.857-.02-17.785q-.003-3.642-.025-7.283c-.02-3.32-.015-6.64-.004-9.96l-.035-2.895c.076-8.63 2.532-16.946 8.596-23.325 9.08-7.51 18.663-8.47 29.967-8.393q2.261-.017 4.522-.041c3.926-.036 7.851-.037 11.777-.03 4.023.001 8.045-.032 12.068-.061A3032 3032 0 0 1 144 130l1.579-3.243 2.116-4.3 1.033-2.127c13.509-27.325 38.972-48.014 67.524-58.128 41.896-13.697 85.967-4.658 119.728 23.263M176 104c-20.404 22.917-29.878 51.663-28.228 82.184C149.64 209.284 158.844 230.53 174 248c.675.82 1.35 1.64 2.047 2.484 17.412 20.463 43.94 33.093 70.586 35.387 28.652 1.56 56.166-6.355 78.367-24.871l2.832-2.336c21.051-18.195 34.13-44.828 36.4-72.49 1.743-32.32-8.856-59.449-29.982-83.799-18.928-20.267-46.195-32.521-73.883-33.504C228.195 68.228 198.2 80.506 176 104M71.355 148.5c-3.119 4.006-4.48 6.747-4.478 11.79l-.006 2.667.009 2.933-.003 3.113q0 5.19.01 10.379l-.001 7.42q0 8 .008 16 .011 11.565.012 23.133.004 18.765.019 37.53.014 18.23.02 36.461v2.27l.005 11.271q.016 46.767.05 93.533h21l.018-8.17q.085-38.097.218-76.192.07-19.585.11-39.171.034-17.073.103-34.146.037-9.037.049-18.076.01-8.512.056-17.025.014-3.119.011-6.237c-.002-2.848.015-5.695.036-8.542l-.014-2.47c.1-8.264 1.762-15.736 7.413-21.971v-2l1.746-.871a776 776 0 0 0 4.29-2.164l2.026-1.028 2.036-1.035c3.647-1.73 6.673-2.077 10.664-2.218l3.388-.127 3.537-.12 3.573-.13q4.37-.16 8.74-.307.756-4.125 1.5-8.25l.434-2.355.41-2.286.38-2.094c.366-2.337.366-2.337.276-6.015q-11.58-.106-23.158-.155-5.377-.022-10.755-.071-5.193-.048-10.387-.059a744 744 0 0 1-5.872-.055h-3.639l-3.19-.02c-4.174.501-7.529 2.019-10.644 4.86M373 144l.467 3.773.262 2.123c.392 3.043.86 6.073 1.334 9.104l.535 3.438L376 165l2.136.028c3.247.055 6.493.138 9.739.222l3.36.043c9.044.266 16.787 1.728 23.64 7.957 6.975 7.666 8.271 15.568 8.283 25.59l.015 2.698q.022 4.474.032 8.95l.03 6.415q.04 8.712.068 17.423c.022 6.068.05 12.137.076 18.205q.074 17.239.138 34.477.076 19.625.16 39.25.17 40.371.323 80.742h21a63146 63146 0 0 0 .22-106.854l.003-2.27c.017-12.123.049-24.246.086-36.37q.056-18.66.067-37.32.008-11.514.056-23.028c.023-5.886.026-11.773.02-17.66q.003-3.621.025-7.242c.02-3.296.015-6.59.004-9.885l.035-2.898c-.054-6.022-1.01-9.536-4.516-14.473-4.54-4.208-7.756-5.126-13.848-5.114h-3.64l-3.93.016-4.023.005q-5.289.006-10.579.024-5.4.014-10.798.02-10.59.016-21.182.049m-268 39c-3.637 5.698-4.576 10.487-4.481 17.162l-.01 2.687c-.007 2.963.015 5.925.037 8.887q.001 3.246-.002 6.491c0 5.785.023 11.569.05 17.353.024 5.431.025 10.863.028 16.294.02 15.875.076 31.75.128 47.626L101 407h310l.25-107.5.11-33.951c.014-10.038.014-10.038.022-20.075q.007-6.71.04-13.42.04-8.559.03-17.12.002-3.14.025-6.28c.02-2.831.015-5.66.004-8.492l.035-2.475c-.066-6.42-1.815-11.788-6.252-16.551-5.853-3.64-10.993-3.737-17.764-3.448l-3.07.068q-3.716.087-7.43.244l-.262 3.707C374.356 211.637 364.475 239.453 343 261c-.84.847-1.68 1.694-2.547 2.566-22.819 22.637-52.184 33.844-84.14 34.747-30.904-.564-59.956-11.184-82.387-32.66-1.756-1.87-1.756-1.87-3.926-1.653l-.754-1.742c-1.426-2.585-3.106-4.286-5.184-6.383C144.496 234.445 136.996 206.258 135 178c-3.5-.147-6.998-.235-10.5-.312l-2.977-.127c-6.485-.109-11.917.494-16.523 5.439M29 425c-1.733 3.465-1.472 7.211-1 11 2.364 4.115 4.549 5.6 9 7 2.517.186 4.921.272 7.436.257 1.115.006 1.115.006 2.252.01 2.498.01 4.996.005 7.494 0l5.418.014c4.97.012 9.938.012 14.908.01 5.356 0 10.713.01 16.07.02 10.496.017 20.993.022 31.49.023q12.795.002 25.59.012 36.258.026 72.518.025h7.906c21.16-.001 42.32.018 63.48.046q32.572.043 65.146.04c12.197 0 24.393.006 36.589.027q15.575.029 31.148.009c5.3-.007 10.598-.007 15.897.01q7.275.024 14.549-.004 2.634-.005 5.267.012c2.385.014 4.77.003 7.154-.013l2.07.03c5.323-.079 8.329-1.586 12.618-4.528 2.681-4.022 2.813-7.272 2-12-1.71-3.072-3.81-5.405-7-7-2.387-.1-4.745-.141-7.132-.137l-2.263-.008c-2.529-.008-5.057-.008-7.585-.009l-5.462-.013q-7.535-.017-15.07-.022-8.115-.01-16.23-.029-19.611-.034-39.223-.052l-11.072-.011a122928 122928 0 0 0-84.627-.07l-3.997-.001c-21.381-.013-42.762-.046-64.142-.088q-32.901-.063-65.801-.071c-12.322-.004-24.644-.015-36.966-.048a8432 8432 0 0 0-31.475-.028c-5.356.005-10.711.002-16.067-.022q-7.35-.033-14.7-.003-2.662.005-5.326-.018c-2.41-.02-4.817-.007-7.226.012l-2.1-.039C35.02 419.441 32.75 421.249 29 425"/><path d="M301.875 105.625c4.906 3.728 7.183 7.347 8.125 13.375q.13 2.344.134 4.692l.013 2.77-.002 3 .01 3.19q.013 5.217.013 10.434l.01 7.26q.009 7.608.007 15.216c0 6.496.014 12.991.031 19.487q.015 7.497.013 14.994 0 3.591.013 7.183c.01 3.351.007 6.702 0 10.053.007.986.012 1.972.018 2.988-.03 6.582-.187 12.2-4.51 17.483-4.75 3.886-8.669 5.804-14.8 5.535-5.523-.808-9.635-3.957-12.95-8.285-.136-1.56-.237-3.123-.312-4.687-.611-3.896-1.812-5.682-4.872-8.008C258.44 212.603 244.253 208.935 227 209l.621 3.332c4.713 25.644 4.713 25.644.379 32.668-4.157 4.05-8.044 6.285-13.875 6.313-5.944-.149-9.3-1.743-13.812-5.625-6.581-8.564-7.574-27.052-7.313-37.688l-2.562-.5c-3.523-1.537-4.39-2.414-6.688-5.312-2.663-3.283-4.89-4.974-8.75-6.688-6.072-2.74-10.218-6.87-13.16-12.863-2.192-6.883-1.797-14.502 1.16-21.074 3.304-5.756 7.8-9.622 14.188-11.5 3.526-1.333 4.395-2.977 6.148-6.211 3.235-3.6 7.49-5.545 12.224-6.214 2.907-.128 5.792-.14 8.702-.107l3.235-.021c4.533-.03 9.066-.013 13.6 0 17.866.238 17.866.238 34.903-4.51l3.648-1.527c5.46-2.824 10.413-5.822 15.352-9.473h2l-.312-3.562c.008-4.992 1.839-7.956 5.312-11.438 5.765-4.156 13.523-4.64 19.875-1.375M291 117c-1.202.982-1.202.982-1.123 2.841l.003 2.455-.004 2.81.01 3.105v3.252c0 3.566.009 7.131.016 10.697l.005 7.395q.006 9.753.024 19.505c.011 6.63.015 13.258.02 19.887q.016 19.527.049 39.053l4 2c1.944-1.613 2.909-2.506 3.375-5.032v-2.37l.02-2.728-.023-2.985.011-3.15c.008-3.443-.005-6.886-.02-10.329q0-3.581.002-7.162 0-7.51-.029-15.02c-.023-6.427-.023-12.853-.016-19.28.003-4.93-.004-9.862-.013-14.793q-.006-3.555-.004-7.11-.002-4.962-.028-9.926l.007-2.985-.021-2.727-.007-2.371c-.14-2.344-.14-2.344-2.254-5.032zm-20.697 23.642c-11.39 6.544-22.195 8.902-35.303 10.358v44l17 3c9.003 3.056 16.344 6.672 25 11v-71c-2.72 0-4.396 1.309-6.697 2.642M191 156c-.464 2.809-.636 4.992-.559 7.785l.007 2.237q.015 2.331.065 4.662c.05 2.375.061 4.747.067 7.123q.02 2.27.049 4.54l.016 2.144c.121 5.084.121 5.084 2.355 9.509 3.198 2.25 6.023 2.234 9.86 2.195l3.045-.015 3.845-.055L222 196v-45l-12.687-.312-3.976-.138-3.161-.038-3.222-.08c-4.109.79-5.51 2.205-7.954 5.568m-15.562 10.5c-1.988 3.456-2.025 6.648-1.438 10.5 1.279 2.945 1.279 2.945 3 5h1v-17c-1.24-.115-1.24-.115-2.562 1.5M206 209c.418 3.898.863 7.793 1.313 11.688l.357 3.341.38 3.233.334 2.967c.683 3.071 1.869 5.174 3.616 7.771l5-1c.159-6.547-.39-12.616-1.5-19.062l-.434-2.624q-.525-3.158-1.066-6.314zM160.813 320.688l3.119 1.857q3.067 1.83 6.121 3.68a416 416 0 0 0 5.796 3.43l2.663 1.552 2.338 1.347c3.53 2.374 5.792 4.373 7.15 8.446.407 4.971.622 8.136-2.397 12.374-3.714 3.767-8.64 6.085-13.228 8.626l-6.29 3.563-3.086 1.73c-3.699 2.105-7.332 4.309-10.954 6.543-4.187 2.383-8.327 2.79-13.045 2.164-4.552-2.147-6.529-4.292-8.4-8.944-1.107-3.793-1.027-7.572-.998-11.497l-.01-2.685q-.002-2.794.017-5.59c.016-2.842 0-5.682-.02-8.524q.004-2.726.013-5.451l-.019-2.558c.06-4.992.667-8.421 3.417-12.751 9.539-9.05 18.134-3.191 27.813 2.688M143 327v36c7.08-3.862 14.136-7.732 21.125-11.75l2.57-1.457 2.438-1.402 2.184-1.25c1.84-1.047 1.84-1.047 2.683-3.141q-5.413-3.155-10.834-6.299-1.84-1.068-3.68-2.141a2101 2101 0 0 0-5.31-3.083l-3.222-1.873c-3.223-1.824-3.223-1.824-7.954-3.604M309.295 337.58l2.85-.026c3.108-.023 6.215-.024 9.324-.023l6.478-.023q6.789-.019 13.578-.009c5.804.006 11.608-.025 17.412-.065 4.46-.026 8.918-.029 13.378-.025q3.21-.003 6.42-.03c2.99-.021 5.98-.012 8.97.006l2.686-.04c5.975.082 5.975.082 9.194 2.994C401 343 401 343 400.937 346.188 400 349 400 349 397 351c-1.891.254-1.891.254-4.061.26l-2.498.022-2.73-.007-2.883.015c-3.151.014-6.302.013-9.453.01l-6.557.014q-6.874.01-13.75.002c-5.881-.006-11.763.01-17.644.034-4.514.015-9.028.016-13.542.013q-3.254 0-6.507.015c-3.03.013-6.057.006-9.086-.006l-2.73.023-2.498-.02h-2.17c-2.496-.495-3.375-1.357-4.891-3.375-.438-3.5-.438-3.5 0-7 3.521-4.12 8.301-3.436 13.295-3.42M278.313 324.563c4.918 2.848 8.19 6.918 11.062 11.75 1.604 6.897 1.227 13.285-1.992 19.644-3.545 5.238-8.24 8.04-14.32 9.543-6.268.9-11.128.376-16.52-3.07-5.773-4.608-8.65-9.067-9.543-16.43-.334-6.709 1.647-11.903 6-17 7.135-6.306 16.377-8.474 25.313-4.437m-15.188 13.062c-2.37 2.65-3.125 3.832-3.125 7.375 1.318 3.075 2.754 4.782 5.25 7 2.887 1.362 2.887 1.362 6.438-.125 3.483-1.643 3.483-1.643 5.312-4.875-.179-3.34-.386-5.976-2.125-8.875-4.112-2.467-7.577-2.859-11.75-.5M225 337.688l3.93-.05 3.757-.001 3.45-.01C239 338 239 338 240.844 339.37c1.578 2.225 1.957 3.917 2.156 6.63-.977 2.706-1.405 3.703-4 5-4.62.3-9.247.278-13.875.313l-3.918.087-3.762.026-3.452.044c-2.993-.47-2.993-.47-5.4-2.27-1.593-2.2-1.593-2.2-1.53-5.825 2.214-7.973 11.162-5.704 17.937-5.687M343 115c2 1.625 2 1.625 3 4 .063 3 .063 3-1 6-4.479 3.499-9.167 5.443-14.5 7.313l-2.223.837c-4.41 1.567-7.661 2.372-12.277.85-2.33-3.496-2.588-4.887-2-9 3.916-3.885 8.271-5.501 13.375-7.25l2.21-.812c4.592-1.607 8.487-2.375 13.415-1.938M326.303 212.596c2.51.82 4.977 1.719 7.447 2.654l2.574.91c7.855 2.916 7.855 2.916 9.676 6.84-.22 3.673-.37 5.37-3 8-6.946.734-12.091-1.196-18.438-3.875l-2.755-1.105c-6.666-2.739-6.666-2.739-7.807-5.02-.444-5.217-.444-5.217 1.062-7.875 3.544-2.058 7.363-1.533 11.241-.529M335 166.688l3.64-.05 3.485-.001 3.195-.01c2.68.373 2.68.373 4.52 1.677 1.972 2.882 1.58 5.336 1.16 8.696-3.803 3.811-7.526 3.445-12.639 3.508l-3.298-.008-3.288.086c-8.884.022-8.884.022-12.029-2.918C318 175 318 175 318 171.812c2.53-7.116 10.74-5.141 17-5.125"/></svg>