<?xml version="1.0" standalone="no"?>
<!DOCTYPE svg PUBLIC "-//W3C//DTD SVG 20010904//EN"
 "http://www.w3.org/TR/2001/REC-SVG-20010904/DTD/svg10.dtd">
<svg version="1.0" xmlns="http://www.w3.org/2000/svg"
 width="512.000000pt" height="512.000000pt" viewBox="0 0 512.000000 512.000000"
 preserveAspectRatio="xMidYMid meet">

<g transform="translate(0.000000,512.000000) scale(0.100000,-0.100000)"
fill="#000000" stroke="none">
<path d="M2985 5015 l-25 -24 0 -1311 0 -1311 25 -24 24 -25 991 0 991 0 24
25 25 24 0 1311 0 1311 -25 24 -24 25 -991 0 -991 0 -24 -25z m1895 -1335 l0
-1200 -880 0 -880 0 0 1200 0 1200 880 0 880 0 0 -1200z"/>
<path d="M3385 4615 c-16 -15 -25 -36 -25 -55 0 -19 9 -40 25 -55 l24 -25 431
0 431 0 24 25 c16 15 25 36 25 55 0 19 -9 40 -25 55 l-24 25 -431 0 -431 0
-24 -25z"/>
<path d="M3385 4215 c-16 -15 -25 -36 -25 -55 0 -19 9 -40 25 -55 23 -24 31
-25 135 -25 104 0 112 1 135 25 16 15 25 36 25 55 0 19 -9 40 -25 55 -23 24
-31 25 -135 25 -104 0 -112 -1 -135 -25z"/>
<path d="M3945 4215 c-16 -15 -25 -36 -25 -55 0 -19 9 -40 25 -55 l24 -25 311
0 311 0 24 25 c16 15 25 36 25 55 0 19 -9 40 -25 55 l-24 25 -311 0 -311 0
-24 -25z"/>
<path d="M3385 3895 c-16 -15 -25 -36 -25 -55 0 -19 9 -40 25 -55 l24 -25 591
0 591 0 24 25 c16 15 25 36 25 55 0 19 -9 40 -25 55 l-24 25 -591 0 -591 0
-24 -25z"/>
<path d="M3385 3495 c-16 -15 -25 -36 -25 -55 0 -19 9 -40 25 -55 l24 -25 311
0 311 0 24 25 c16 15 25 36 25 55 0 19 -9 40 -25 55 l-24 25 -311 0 -311 0
-24 -25z"/>
<path d="M4345 3495 c-16 -15 -25 -36 -25 -55 0 -19 9 -40 25 -55 23 -24 31
-25 135 -25 104 0 112 1 135 25 16 15 25 36 25 55 0 19 -9 40 -25 55 -23 24
-31 25 -135 25 -104 0 -112 -1 -135 -25z"/>
<path d="M3385 3175 c-16 -15 -25 -36 -25 -55 0 -19 9 -40 25 -55 l24 -25 591
0 591 0 24 25 c16 15 25 36 25 55 0 19 -9 40 -25 55 l-24 25 -591 0 -591 0
-24 -25z"/>
<path d="M3385 2855 c-16 -15 -25 -36 -25 -55 0 -19 9 -40 25 -55 l24 -25 231
0 231 0 24 25 c16 15 25 36 25 55 0 19 -9 40 -25 55 l-24 25 -231 0 -231 0
-24 -25z"/>
<path d="M240 4787 c-49 -16 -133 -102 -148 -153 -17 -60 -17 -2008 0 -2068
16 -55 99 -138 154 -154 60 -17 2168 -17 2228 0 55 16 138 99 154 154 17 59
17 2009 0 2066 -6 22 -31 62 -55 88 -77 86 8 80 -1217 79 -758 -1 -1091 -4
-1116 -12z m2215 -172 l25 -24 0 -991 0 -991 -25 -24 -24 -25 -1071 0 -1071 0
-24 25 -25 24 0 991 0 991 25 24 24 25 1071 0 1071 0 24 -25z"/>
<path d="M1605 4391 c-92 -24 -173 -90 -215 -176 -19 -41 -24 -66 -24 -135 -1
-78 2 -90 33 -148 38 -70 70 -100 145 -140 43 -22 64 -26 136 -26 72 0 93 4
136 26 75 40 107 70 145 140 31 58 34 70 33 148 0 72 -4 93 -26 136 -39 75
-70 107 -137 143 -65 34 -164 49 -226 32z m138 -165 c103 -43 128 -177 48
-257 -65 -65 -157 -65 -222 0 -124 123 13 325 174 257z"/>
<path d="M703 3457 c-274 -273 -303 -305 -303 -335 0 -44 38 -82 82 -82 29 0
59 27 295 262 l263 262 263 -262 c240 -239 266 -262 297 -262 30 0 49 16 177
142 l143 142 143 -142 c121 -120 148 -142 174 -142 42 0 83 40 83 82 0 29 -20
53 -183 215 -165 165 -186 183 -217 183 -30 0 -49 -15 -177 -142 l-143 -142
-263 262 c-242 241 -266 262 -297 262 -32 0 -58 -23 -337 -303z"/>
<path d="M1016 2149 c-215 -29 -433 -117 -594 -239 -263 -198 -385 -484 -326
-767 27 -134 79 -238 176 -354 l48 -58 0 -301 0 -301 25 -24 c15 -16 35 -25
56 -25 29 0 54 22 221 187 l187 187 73 -17 c303 -71 642 -34 911 99 276 136
459 353 511 606 72 347 -129 694 -511 882 -178 88 -335 125 -553 131 -85 2
-186 0 -224 -6z m344 -159 c250 -33 448 -126 605 -284 141 -142 190 -252 190
-426 0 -167 -48 -280 -177 -416 -259 -272 -713 -374 -1130 -253 -54 16 -72 17
-90 8 -13 -6 -80 -68 -150 -137 l-128 -127 0 221 0 222 -66 73 c-125 139 -169
246 -169 409 0 115 14 169 69 275 42 81 189 229 283 284 222 131 496 185 763
151z"/>
<path d="M595 1391 c-45 -20 -70 -60 -70 -112 0 -42 5 -53 33 -81 28 -28 39
-33 82 -33 43 0 54 5 82 33 28 28 33 39 33 82 0 42 -5 54 -31 81 -33 33 -92
46 -129 30z"/>
<path d="M1155 1391 c-45 -20 -70 -60 -70 -112 0 -42 5 -53 33 -81 28 -28 39
-33 82 -33 43 0 54 5 82 33 28 28 33 39 33 82 0 42 -5 54 -31 81 -33 33 -92
46 -129 30z"/>
<path d="M1715 1391 c-45 -20 -70 -60 -70 -112 0 -42 5 -53 33 -81 28 -28 39
-33 82 -33 43 0 54 5 82 33 28 28 33 39 33 82 0 42 -5 54 -31 81 -33 33 -92
46 -129 30z"/>
<path d="M2640 2067 c-49 -16 -133 -102 -148 -153 -17 -59 -17 -1609 0 -1668
16 -55 99 -138 154 -154 60 -17 2168 -17 2228 0 55 16 138 99 154 154 17 59
17 1609 0 1666 -6 22 -31 62 -55 88 -77 86 8 80 -1217 79 -758 -1 -1091 -4
-1116 -12z m2215 -172 l25 -24 0 -791 0 -791 -25 -24 -24 -25 -1071 0 -1071 0
-24 25 -25 24 0 791 0 791 25 24 24 25 1071 0 1071 0 24 -25z"/>
<path d="M3465 1746 c-37 -17 -80 -62 -94 -99 -7 -18 -11 -152 -11 -367 0
-215 4 -349 11 -367 24 -65 95 -113 166 -113 41 0 71 16 437 225 228 131 254
155 263 239 9 74 -24 126 -110 180 -93 57 -460 267 -514 295 -48 24 -104 27
-148 7z m344 -302 c149 -86 271 -160 271 -164 0 -9 -536 -320 -551 -320 -5 0
-9 134 -9 320 0 179 4 320 9 320 5 0 131 -70 280 -156z"/>
<path d="M4265 695 c-14 -13 -25 -31 -25 -40 0 -13 -71 -15 -655 -15 l-656 0
-24 -25 c-16 -15 -25 -36 -25 -55 0 -19 9 -40 25 -55 l24 -25 653 0 653 0 15
-33 c18 -38 58 -55 98 -41 15 5 33 23 42 41 l15 33 93 0 c85 0 95 2 117 25 16
15 25 36 25 55 0 19 -9 40 -25 55 -22 23 -32 25 -120 25 -79 0 -95 3 -95 15 0
27 -47 65 -80 65 -19 0 -40 -9 -55 -25z"/>
</g>
</svg>
