<svg xmlns="http://www.w3.org/2000/svg" width="512" height="512"><path d="M219.297 242.684c10.635 8.22 13.094 18.882 16.516 31.504l.982 3.443C239.779 288.59 239.779 288.59 238 294c-3.26 3.145-7.075 4.084-11.349 5.182l-2.237.599c-2.465.657-4.934 1.301-7.402 1.946q-2.658.704-5.315 1.412c-4.72 1.254-9.442 2.497-14.166 3.738a7795 7795 0 0 0-16.35 4.323l-5.546 1.47q-4.246 1.125-8.493 2.246c-17.87 4.726-35.716 9.537-53.56 14.357l-2.17.586Q98.206 333.428 85 337l2.407.007q28.981.089 57.962.229 14.016.07 28.03.11 12.216.034 24.43.103 6.47.037 12.937.049 6.088.01 12.176.056 2.235.014 4.469.011c2.034-.002 4.069.017 6.103.036l3.45.014c3.403.431 5.297 1.353 8.036 3.385 1.34 2.68 1.135 4.744 1.147 7.747l.022 3.708.008 4.092.02 4.292c.021 4.708.031 9.417.041 14.126l.013 4.867q.029 11.443.041 22.885.015 13.188.077 26.376.044 10.203.048 20.406c.002 4.058.011 8.117.036 12.175q.035 5.74.018 11.477-.001 2.096.02 4.19c.093 10.06-.6 19.841-7.679 27.596-9.395 8.198-19.746 7.643-31.575 7.596q-2.86.011-5.72.027c-5.158.022-10.317.02-15.476.01-4.314-.005-8.628.002-12.943.01-10.18.017-20.36.013-30.54-.004a6703 6703 0 0 0-31.464.032q-13.528.039-27.058.025c-5.38-.005-10.76-.003-16.14.018q-7.59.025-15.181-.012a581 581 0 0 0-5.556.01c-19.943.127-19.943.127-28.048-7.404-7.447-7.79-7.53-15.72-7.432-26.03l.003-4.191q.003-4.504.03-9.008c.026-4.775.024-9.55.018-14.326-.013-13.579.004-27.157.06-40.735q.048-11.258.016-22.515c-.01-3.956-.008-7.91.028-11.866.15-17.534-.812-33.219-6.233-50.113-3.096-9.818-3.242-17.67 1.024-27.024 4.428-6.992 9.713-10.551 17.62-12.865l2.126-.642c7.775-2.322 15.615-4.402 23.465-6.457l4.844-1.28q6.496-1.714 12.996-3.421 12.51-3.289 25.02-6.588l2.88-.76a4125 4125 0 0 0 40.748-10.98q4.252-1.167 8.506-2.328l2.794-.763 5.52-1.508q8.016-2.19 16.02-4.425c3.33-.925 6.667-1.834 10.003-2.739q2.296-.627 4.588-1.276c10.795-3.055 25.265-7.134 35.542-.721m-24.324 14.066-1.92.538a959 959 0 0 0-5.99 1.712q-2.047.58-4.096 1.156-4.987 1.41-9.967 2.844c2.74 2.767 5.477 5.498 8.418 8.05l1.845 1.608a625 625 0 0 0 3.948 3.365c2.95 2.494 5.759 4.945 8.43 7.743 2.444 2.444 4.125 3.986 7.359 5.234 6.136-.172 12.547-2.274 18-5-1.818-15.442-1.818-15.442-10-28-5.039-2.52-10.89-.711-16.027.75M149.1 269.01l-2.426.667-2.62.73c-.885.243-1.77.488-2.682.74q-4.25 1.173-8.498 2.353l-5.754 1.59Q120.06 277.04 113 279c2.74 2.767 5.477 5.498 8.418 8.05l1.845 1.608a625 625 0 0 0 3.948 3.365c2.95 2.494 5.759 4.945 8.43 7.743 2.409 2.409 4.196 3.953 7.359 5.234 4.783-.284 9.017-1.668 13.51-3.203 4.883-1.563 9.89-2.691 14.865-3.922q2.984-.74 5.96-1.508l2.58-.653c2.271-.607 2.271-.607 4.085-2.714-6.335-5.87-12.752-11.53-19.48-16.95a212 212 0 0 1-6.583-5.613c-3.667-3.043-4.57-2.608-8.836-1.427m-60 16-2.426.667-2.62.73c-.885.243-1.77.488-2.682.74q-4.25 1.173-8.498 2.353l-5.754 1.59Q60.06 293.04 53 295c2.656 2.682 5.294 5.343 8.164 7.797l1.693 1.455a534 534 0 0 0 3.644 3.059c2.906 2.425 5.694 4.824 8.26 7.61 2.674 2.703 4.766 4.52 8.239 6.079 5.133-.133 9.537-1.49 14.372-3.13 4.09-1.354 8.24-2.497 12.383-3.675 4.76-1.36 9.503-2.775 14.245-4.195-3.095-3.874-6.087-7.104-10-10.187-3.221-2.569-6.414-5.148-9.535-7.836l-1.78-1.531q-1.726-1.49-3.445-2.992c-3.971-3.412-5.246-3.798-10.139-2.444M21.5 304.625c-2.65 4.197-2.865 9.036-2.108 13.89.61 2.542 1.3 5.041 2.046 7.548l.736 2.623Q23.065 331.849 24 335c4.497 1.406 8.08.16 12.484-1.09l2.472-.677c2.6-.714 5.197-1.442 7.794-2.17q2.646-.731 5.293-1.46c4.322-1.19 8.64-2.394 12.957-3.603-8.196-8.228-16.913-15.77-26-23l-2.195-1.758c-4.39-3.021-11.315.79-15.305 3.383M27 354v32c11.24 1.836 11.24 1.836 21.866-1.329 3.357-3.672 5.628-7.998 7.903-12.395 2.03-3.755 4.492-7.207 6.919-10.714 2.86-3.574 2.86-3.574 4.312-7.562zm52.311 6.665a77.4 77.4 0 0 0-5.114 10.643c-1.755 3.947-4.25 7.239-6.833 10.683-1.551 1.88-1.551 1.88-1.364 4.009 24.176 3.763 24.176 3.763 46.526-2.243 5.248-5.517 8.42-11.922 11.254-18.933 1.611-3.73 3.748-6.62 6.22-9.824v-1c-27.666-4.058-27.666-4.058-50.689 6.665m58.88 8.157c-1.864 3.409-4.143 6.49-6.441 9.615-2.782 3.475-2.782 3.475-3.75 7.563q8.778.333 17.56.494 2.985.068 5.968.185c10.967.864 10.967.864 21.095-2.318 1.858-2.352 3.077-4.663 4.377-7.361a273 273 0 0 1 3.965-5.656q1.99-2.919 3.972-5.844l2.073-3.031c3.247-3.949 3.247-3.949 4.99-8.469a476 476 0 0 0-17.712-.934q-3.01-.127-6.011-.348c-15.963-1.15-22.607 1.782-30.086 16.104m62.09-.097c-1.926 3.42-4.222 6.543-6.531 9.712-2.782 3.475-2.782 3.475-3.75 7.563h41v-32c-17.203-1.976-22.524-.362-30.718 14.725M27 402c-6.606 49.106-6.606 49.106 4 93 3.454 2.64 7.401 2.288 11.578 2.274l2.324.016c2.571.015 5.143.016 7.715.016q2.764.012 5.529.026c5.008.022 10.016.03 15.025.035q4.692.006 9.385.017 16.37.037 32.738.042c10.175.003 20.35.033 30.524.075q13.101.051 26.202.05c5.217.002 10.434.01 15.651.039q7.36.038 14.72.012 2.7-.003 5.401.02c2.46.021 4.917.01 7.376-.007l2.156.04c5.594-.094 7.881-1.84 11.676-5.655 13.417-26.834 1-59.998 1-90zM397 94c17.255 14.129 28.512 31.442 34 53l.742 2.746C438.19 178.051 427.457 205.17 413 229c-3.81 6.047-7.788 12.001-12.031 17.754l-1.719 2.371-1.484 1.945c-1.034 2.014-1.034 2.014.03 4.485L399 258c1.643 4.928 1.987 10.752-.125 15.563-1.211 3.374-.265 5.635.594 9.042 1.427 6.436 1.096 11.841-2.223 17.606-2.044 2.935-4.033 5.225-7.246 6.789-1.786.252-3.58.456-5.375.625-3.783.518-5.231.962-7.902 3.762a202 202 0 0 0-3.961 5.914c-3.884 5.95-8.963 8.756-15.762 10.699-2.79.394-5.525.445-8.34.434l-2.322.015q-2.415.01-4.828-.003c-2.438-.008-4.875.02-7.313.052-8.034.036-15.213-.025-22.197-4.498l-2.625-1.625c-3.688-3.688-6.678-7.914-9.375-12.375v-2l-1.687.176c-5.499.325-9.067-.424-13.586-3.63-4.309-3.86-6.31-8.516-6.852-14.296.209-3.755 1.41-7.195 2.629-10.734.598-3.033.05-3.924-1.504-6.516-1.452-6.59-.468-10.805 2-17l1-3c-1.417-2.712-1.417-2.712-3.523-5.637l-1.142-1.671a638 638 0 0 0-2.439-3.542c-2.121-3.067-4.201-6.161-6.283-9.255l-1.237-1.836C250.636 206.144 241.356 179.152 247 149c3.378-15.385 10.278-30.398 21-42l2.645-2.922C281.69 92.246 294.585 83.93 310 79l1.926-.633C340.758 69.254 373.23 75.591 397 94m-116.434 21.996C265.31 133.855 259.178 154.695 261 178c2.144 15.734 10.172 30.963 18.901 44.004 2.154 3.303 3.787 6.512 5.26 10.164 2.843 6.209 6.004 11.095 11.839 14.832 11.299 4.097 24.446 3.31 36.273 3.157 3.902-.047 7.773.022 11.671.205 21.63 1.72 21.63 1.72 40.777-6.316 6.46-6.773 10.806-15.063 14.654-23.52 1.77-3.839 3.79-7.436 5.953-11.061C417.631 190.082 420.445 168.598 415 147c-5.925-19.886-18.896-36.805-37-47-33.277-17.765-71.404-11.246-97.434 15.996M294 264c-.167 2.5-.167 2.5 0 5 1.811 1.811 4.299 1.12 6.709 1.124l2.483-.01h2.601c2.852 0 5.703-.009 8.555-.016l5.914-.005q7.8-.006 15.6-.024 7.953-.014 15.906-.02 15.615-.016 31.232-.049l2-5c-2.58-2.58-4.307-2.24-7.822-2.26l-2.467.017-2.597-.006c-2.842-.003-5.683.007-8.524.019h-5.903q-6.19.003-12.38.024-7.954.024-15.907.02-6.096.001-12.191.013-2.933.004-5.867.006-4.092.004-8.182.022l-2.473-.002c-3.643-.323-3.643-.323-6.687 1.147m0 23c.379 3.29.379 3.29 2 6 2.708.095 5.391.126 8.1.114h2.572c2.819 0 5.638-.009 8.457-.016l5.847-.005q7.712-.006 15.423-.024 7.862-.014 15.724-.02 15.439-.016 30.877-.049l2-5c-.992-1.646-.992-1.646-3-3-2.774-.29-5.322-.4-8.096-.372l-2.499-.011a984 984 0 0 0-8.186.02q-2.841 0-5.683-.002-5.956 0-11.913.029c-5.095.023-10.19.023-15.284.016-3.912-.003-7.824.004-11.736.013q-2.817.006-5.636.004-3.935.002-7.871.028l-2.362-.007c-3.782.037-5.508.131-8.734 2.282m25 21c4.109 4.196 4.109 4.196 9.382 4.556l2.087-.025 2.173.012q2.27.004 4.54-.022c2.31-.02 4.62 0 6.931.026q2.21-.004 4.418-.016l2.087.025c5.1-.1 5.447-.621 9.382-4.556zM299.31 341.596l3.713-.02q5.017-.023 10.035-.012c2.8.003 5.601-.003 8.402-.009q9.917-.02 19.834-.001c6.802.011 13.604-.003 20.407-.03a3666 3666 0 0 1 17.57-.022q5.235.007 10.472-.017c3.896-.018 7.792-.004 11.688.013l3.467-.029c9.11.084 16.69 2.3 23.479 8.598 6.714 7.995 8.51 16.514 8.4 26.671l.031 3.671c.022 3.286.017 6.57-.002 9.856-.015 3.461-.001 6.923.008 10.385.011 5.81-.003 11.62-.032 17.43-.032 6.686-.022 13.373.011 20.06q.04 8.66.016 17.32c-.01 3.435-.011 6.869.009 10.303.015 3.834-.008 7.665-.042 11.499l.037 3.382c-.144 9.005-2.774 16.814-8.837 23.632-7.761 7.49-16.066 8.17-26.384 8.144l-3.708.026q-5.006.027-10.01.023-4.194.002-8.387.017-9.9.027-19.801.015c-6.788-.007-13.574.016-20.361.053q-8.772.045-17.542.038c-3.484-.002-6.967.004-10.45.028-3.89.027-7.778.013-11.666-.005l-3.452.04c-9.285-.097-16.138-2.712-23.09-8.905-5.87-6.341-8.236-14.245-8.265-22.764l-.018-2.985-.003-3.242-.015-3.441q-.021-5.634-.027-11.267l-.017-7.844q-.015-7.174-.019-14.349-.007-10.527-.05-21.055c-.025-6.097-.033-12.194-.035-18.291q-.004-3.878-.024-7.754c-.017-3.624-.015-7.247-.008-10.87l-.028-3.21c.056-10.05 1.902-19.124 9.173-26.49 8.139-7.542 14.673-8.635 25.521-8.592m-16.653 21.929c-2.4 5.034-2.215 9.564-2.175 15.077l-.02 3.52c-.018 3.834-.007 7.668.007 11.503q-.004 4.001-.012 8.002-.01 8.383.022 16.766c.021 6.452.014 12.903-.008 19.355q-.026 8.324-.01 16.648.01 4.965-.006 9.93c-.01 3.69.005 7.381.027 11.072l-.024 3.307c.066 5.908.343 9.769 4.542 14.295 5.34 4.94 10.601 4.57 17.494 4.518l3.486.02c3.797.018 7.594.007 11.391-.007q3.964.005 7.928.012 8.306.01 16.611-.022c6.39-.021 12.779-.014 19.168.008 6.16.02 12.321.018 18.482.006q3.923-.004 7.845.01c3.658.01 7.314-.005 10.972-.027l3.267.024c6.315-.071 10.345-.556 15.356-4.542 4.656-5.866 4.573-11.218 4.518-18.516l.02-3.456c.018-3.76.007-7.519-.007-11.278q.005-3.929.012-7.856a3424 3424 0 0 0-.022-16.453c-.021-6.327-.014-12.654.008-18.982.02-6.103.018-12.206.006-18.31q-.004-3.885.01-7.77c.01-3.621-.005-7.242-.027-10.863l.024-3.234c-.071-6.291-.578-10.287-4.542-15.282-5.886-4.682-11.297-4.573-18.623-4.518l-3.491-.02c-3.797-.018-7.593-.007-11.39.007l-7.93-.012q-8.304-.01-16.607.022c-6.39.021-12.78.014-19.17-.008-6.16-.02-12.321-.018-18.483-.006q-3.924.004-7.847-.01c-3.656-.01-7.31.005-10.965.027l-3.273-.024c-7.524.085-11.331 1.427-16.564 7.067M36.864 89.839l2.998-.015q4.903-.021 9.806-.027l6.835-.017q7.165-.015 14.331-.02c6.105-.006 12.21-.03 18.315-.058 4.707-.019 9.415-.024 14.122-.026q3.375-.004 6.75-.024c3.156-.017 6.312-.015 9.468-.008l2.786-.028c8.5.054 16.628 1.536 23.1 7.384l2.398 2.062c5.56 7.335 6.822 15.704 6.729 24.683l.016 3.064c.012 3.306-.004 6.611-.022 9.918q0 3.474.005 6.95 0 7.26-.034 14.52c-.029 6.187-.026 12.375-.013 18.563.007 4.778-.001 9.557-.014 14.335q-.006 3.423 0 6.844c.002 3.192-.014 6.383-.036 9.575l.014 2.825c-.09 8.007-1.542 15.373-7.043 21.473l-1.852 2.145c-6.914 5.598-13.898 6.634-22.575 6.576l-3.237.027c-3.506.022-7.013.015-10.52.006q-3.677.008-7.355.02-7.695.014-15.39-.01a2464 2464 0 0 0-19.673.042c-5.061.022-10.122.02-15.182.012q-3.627 0-7.252.02c-3.386.018-6.77.004-10.157-.019l-2.994.036c-7.693-.105-14.332-2.14-20.107-7.422-6.52-6.955-7.528-13.878-7.5-23.07-.01-1.068-.018-2.136-.027-3.236-.023-3.517-.024-7.035-.023-10.552l-.023-7.364q-.019-7.713-.009-15.426c.006-6.574-.025-13.147-.065-19.72-.026-5.07-.029-10.14-.025-15.209q-.003-3.633-.03-7.268a869 869 0 0 1 .006-10.186l-.04-3.003c.092-7.7 2.1-14.373 7.428-20.125 7.92-7.25 15.804-8.235 26.091-8.247M21 110c-1.75 2.87-2.252 5.01-2.267 8.35l-.026 2.618.002 2.846-.02 3.017c-.019 3.293-.023 6.586-.025 9.88l-.02 6.868q-.017 7.2-.015 14.4c0 6.149-.027 12.298-.061 18.447-.022 4.729-.026 9.457-.025 14.186a1177 1177 0 0 1-.027 6.8c-.02 3.173-.014 6.343-.002 9.515l-.034 2.834c.054 5.548.68 8.922 4.52 13.239 2.872 1.754 5.013 2.252 8.358 2.26l2.62.022 2.852-.007 3.022.015c3.298.014 6.596.013 9.894.01l6.875.014q7.206.01 14.412.002c6.159-.006 12.317.01 18.475.034 4.733.015 9.466.016 14.199.013q3.405 0 6.811.015c3.175.013 6.348.006 9.523-.006l2.845.023c4.842-.039 8.243-.158 12.114-3.395 2.508-2.863 3.376-4.625 3.394-8.427l.035-2.667-.01-2.904c.01-1.015.018-2.03.027-3.076.023-3.358.024-6.716.023-10.074l.023-7.003q.019-7.341.009-14.682c-.006-6.27.025-12.54.065-18.81.026-4.822.029-9.643.025-14.464q.003-3.468.03-6.935c.021-3.235.012-6.467-.006-9.702l.04-2.89c-.056-4.422-.232-7.428-3.068-10.945-3.188-2.984-4.52-3.544-8.735-3.568l-2.634-.022-2.897-.008-3.045-.02q-5.006-.028-10.01-.041l-3.45-.013q-9.035-.03-18.07-.044c-6.226-.011-12.452-.046-18.677-.085a3045 3045 0 0 0-14.35-.038q-3.443-.008-6.885-.035a990 990 0 0 0-9.638-.017l-2.872-.039c-5.58.044-8.986.637-13.324 4.509"/><path d="M316.16 134.895c5.253 1.512 9.586 4.026 14.277 6.792l3.033 1.752c3.183 1.842 6.357 3.7 9.53 5.561l6.176 3.59q6.029 3.506 12.043 7.039a700 700 0 0 0 11.375 6.523l2.643 1.494q2.432 1.371 4.877 2.716c4.175 2.364 7.272 4.473 9.886 8.638.375 3.375.375 3.375-1 7-6.233 6.146-15.181 9.953-22.816 14.129-5.807 3.192-11.527 6.526-17.247 9.871l-3.082 1.798a990 990 0 0 0-13.953 8.284l-2.337 1.408q-2.115 1.276-4.214 2.578c-3.77 2.271-6.929 3.684-11.351 3.932-2.327-1.138-4.168-2.168-6-4a191 191 0 0 1-.193-7.853l-.025-2.493q-.036-4.102-.055-8.205l-.017-2.824q-.039-7.398-.06-14.797a2277 2277 0 0 0-.112-15.303c-.034-3.917-.046-7.833-.051-11.749q-.01-2.82-.046-5.642a533 533 0 0 1-.024-7.893l-.05-2.36c.044-3.85.305-5.53 2.972-8.39C313 135 313 135 316.16 134.896M323 157v49c4.282-1.427 7.157-2.494 10.871-4.723l2.72-1.62 2.846-1.72 2.933-1.752c2.88-1.723 5.755-3.454 8.63-5.185l4.777-2.86A3637 3637 0 0 0 366 182c-2.506-2.81-5.3-4.471-8.559-6.328l-3.36-1.926-3.519-1.996-6.808-3.89-3.382-1.924a520 520 0 0 1-6.826-3.98l-3.269-1.94-2.933-1.757c-2.194-1.417-2.194-1.417-4.344-1.259M357 371c3.054 1.298 3.054 1.298 6.09 3.105l3.377 1.983 3.47 2.1q1.73 1.022 3.46 2.04A990 990 0 0 1 383 386l2.563 1.534c5.317 3.227 5.317 3.227 6.437 5.466.355 3.836.547 6.146-1.562 9.438-3.47 2.223-5.328 2.02-9.438 1.562-3.495-1.543-6.693-3.492-9.937-5.5l-2.65-1.59A598 598 0 0 1 362 393l-.011 2.597q-.057 12.16-.173 24.317c-.04 4.167-.072 8.333-.087 12.5-.015 4.027-.05 8.053-.097 12.08q-.022 2.295-.024 4.59c-.013 11.525-1.215 20.523-9.608 28.916-7.238 5.086-14.32 5.92-23 5-8.338-2.524-14.214-7.935-18.375-15.5-2.11-8.441-2.015-15.813 2-23.687 4.296-5.088 8.867-9.858 15.375-11.813 3.445-.23 3.445-.23 7.125-.187l3.695.019C342 432 342 432 345 433l.011-2.175q.057-10.152.173-20.305c.04-3.479.072-6.958.087-10.438.018-4.002.068-8.002.12-12.004l.003-3.782.06-3.518.027-3.095c1.256-6.495 5.561-7.412 11.519-6.683m-31 81c-1.575 3.15-1.348 5.52-1 9 1.896 3.199 3.346 5.362 6.902 6.734 3.923.753 5.805.407 9.473-1.359 2.765-2.502 3.85-3.757 4.625-7.375-.086-4.141-.697-5.65-3.437-8.812-2.745-2.343-3.784-3.082-7.313-3.563-4.525.522-6.017 2.217-9.25 5.375M102.25 132.75c9.279 7.628 15.18 16.676 16.688 28.813.524 11.43-2.791 21.601-9.688 30.761-6.59 7.207-15.973 12.25-25.754 12.914-12.41.34-22.777-1.97-32.496-10.238-9.108-9.56-12.357-19.654-12.21-32.656.655-10.392 5.341-20.046 12.96-27.156 14.473-11.774 35.038-13.217 50.5-2.438M60 149c-4.262 5.897-6.403 11.68-6 19 1.416 7.136 4.503 13.3 10.375 17.75 5.911 3.895 11.631 5.127 18.625 4.25 7.738-1.87 12.541-5.46 17-12 3.402-5.816 3.95-11.413 3-18-2.49-7.702-6.788-13.197-13.91-17.027C78.856 138.558 67.789 140.995 60 149M117.906 416.947a159 159 0 0 1 5.531 3.303q2.197 1.329 4.395 2.652l2.444 1.476a633 633 0 0 0 9.36 5.438l1.745.999q4.308 2.465 8.62 4.918c15.538 8.907 15.538 8.907 17.186 13.767-.23 4.305-1.292 5.389-4.187 8.5-2.428 1.707-2.428 1.707-5.164 3.242-1.028.585-2.055 1.17-3.114 1.771l-3.347 1.862-5.227 2.95q-1.808 1.021-3.618 2.038a603 603 0 0 0-12.82 7.453l-3.536 2.093a939 939 0 0 0-6.72 4.018l-3.095 1.82-2.704 1.614c-3.11 1.334-5.302 1.442-8.655 1.139-3.136-1.78-3.841-2.523-5-6a134 134 0 0 1-.177-6.044l-.039-3.773q-.013-2.04-.022-4.081l-.013-2.08q-.03-5.445-.044-10.89c-.011-3.745-.046-7.49-.085-11.234-.027-2.884-.035-5.769-.038-8.653q-.008-2.07-.035-4.14a388 388 0 0 1-.017-5.802l-.018-3.33c.606-3.69 1.872-5.344 4.488-7.973 4.924-1.641 9.382.699 13.906 2.947M115 435v32c6.5-3.25 12.821-6.507 19.062-10.187l2.295-1.327 2.178-1.279 1.95-1.141c1.682-1.004 1.682-1.004 2.515-3.066q-5.495-3.213-10.999-6.409-1.872-1.089-3.742-2.182-2.686-1.57-5.376-3.128l-3.27-1.904c-2.416-1.532-2.416-1.532-4.613-1.377M457 47c3.212 2.06 3.855 3.442 4.813 7.125-1.161 5.535-4.193 8.288-8.142 12.21-1.992 1.985-3.951 4.001-5.913 6.017q-2.284 2.325-4.57 4.648l-2.246 2.287-2.149 2.15-1.921 1.934c-3.023 2.631-4.892 3.689-8.935 3.442-3.066-.849-4.213-1.181-5.937-3.813-.937-2.812-.937-2.812-1-6 2.594-4.45 5.713-7.96 9.352-11.582l1.515-1.514a983 983 0 0 1 3.152-3.128q2.42-2.396 4.825-4.805c9.663-9.617 9.663-9.617 17.156-8.971M228 47c6.797 4.832 12.575 11.424 18.438 17.313l2.755 2.744 2.616 2.619 2.368 2.372c2.244 2.403 2.762 3.491 3.198 6.764C257 82 257 82 254.938 84.939 252 87 252 87 248.726 86.99c-4.738-1.26-6.928-3.338-10.28-6.784l-1.78-1.769a446 446 0 0 1-3.675-3.72 459 459 0 0 0-5.647-5.642 1716 1716 0 0 1-3.586-3.619l-1.708-1.686c-3.299-3.42-4.946-5.808-5.05-10.771 2.549-5.462 4.977-6.892 11-6M472.023 160.762l2.72-.025q2.853-.02 5.705-.032a944 944 0 0 0 8.724-.105q2.77-.015 5.539-.026l2.636-.053c6.008.022 6.008.022 9.202 2.287 2.134 3.224 1.99 5.416 1.451 9.192-1.44 2.188-1.44 2.188-4 4-3.158.586-6.269.537-9.473.496l-2.786.005a592 592 0 0 1-5.822-.034 631 631 0 0 0-8.921-.008q-2.829-.01-5.658-.025l-2.7.008-2.507-.038-2.205-.016c-2.485-.5-3.362-1.432-4.928-3.388-1.315-3.474-1.1-4.754.313-8.25 3.083-5.024 7.327-3.943 12.71-3.988M183.965 160.531l2.637-.023q2.757-.015 5.515-.009c2.808.001 5.613-.04 8.42-.085q2.683-.008 5.365-.008l2.535-.05c4.334.052 6.057.252 9.596 2.99C220 166 220 166 220.563 169.062c-.72 3.755-1.467 4.694-4.563 6.938-3.142.61-6.244.584-9.437.566l-2.78.02q-2.904.01-5.81-.01c-2.963-.013-5.924.02-8.887.059q-2.825 0-5.649-.006l-2.683.04c-6.108-.092-6.108-.092-9.344-2.982-1.937-3.69-1.58-5.738-.41-9.687 3.565-3.991 7.99-3.468 12.965-3.469M340.965-.496C344.065.26 345.08 1.444 347 4c.58 3 .513 5.953.46 9 0 .873 0 1.745-.002 2.645a544 544 0 0 1-.046 5.527 644 644 0 0 0-.04 8.453q-.015 2.688-.036 5.375l-.007 2.55-.038 2.388-.024 2.09c-.318 2.349-1.032 3.955-2.267 5.972-3.115 1.558-6.604 1.565-10 1-1.99-1.563-2.896-2.459-3.381-4.973l-.007-2.267-.029-2.579.019-2.775-.01-2.858q-.002-2.99.017-5.981c.016-3.055 0-6.11-.02-9.165q.004-2.904.013-5.808l-.019-2.775.029-2.579.007-2.267c1-5.18 4.629-5.333 9.346-5.47"/></svg>