<?xml version="1.0" standalone="no"?>
<!DOCTYPE svg PUBLIC "-//W3C//DTD SVG 20010904//EN"
 "http://www.w3.org/TR/2001/REC-SVG-20010904/DTD/svg10.dtd">
<svg version="1.0" xmlns="http://www.w3.org/2000/svg"
 width="512.000000pt" height="512.000000pt" viewBox="0 0 512.000000 512.000000"
 preserveAspectRatio="xMidYMid meet">

<g transform="translate(0.000000,512.000000) scale(0.100000,-0.100000)"
fill="#000000" stroke="none">
<path d="M2495 4951 c-63 -17 -103 -41 -180 -108 -94 -81 -112 -110 -93 -150
17 -35 57 -58 89 -50 13 4 61 38 106 76 120 101 163 104 267 17 129 -109 144
-114 192 -73 20 17 27 33 27 57 0 30 -10 44 -79 107 -43 40 -102 84 -131 98
-56 27 -148 39 -198 26z"/>
<path d="M1026 4469 c-62 -15 -153 -68 -197 -116 -22 -24 -55 -74 -72 -111
l-32 -67 -3 -645 c-2 -478 0 -651 9 -667 15 -27 61 -47 89 -38 11 4 30 16 40
28 19 20 20 38 20 640 0 457 3 630 12 661 16 55 99 138 154 154 60 17 2968 17
3028 0 55 -16 138 -99 154 -154 9 -31 12 -204 12 -661 0 -602 1 -620 20 -640
10 -12 29 -24 40 -28 28 -9 74 11 89 38 9 16 11 189 9 667 l-3 645 -32 67
c-44 93 -100 151 -191 196 l-76 37 -1515 2 c-894 1 -1532 -3 -1555 -8z"/>
<path d="M2791 3942 c-138 -137 -322 -220 -554 -251 -43 -6 -163 -11 -266 -11
-135 0 -203 -4 -246 -15 -212 -56 -365 -251 -365 -465 0 -170 105 -344 256
-422 l64 -33 0 -229 c0 -150 4 -243 12 -270 16 -55 99 -138 154 -154 96 -28
182 -4 247 68 24 26 49 66 55 88 8 25 12 117 12 256 l0 216 43 -6 c281 -39
460 -120 603 -271 49 -52 90 -58 129 -18 l25 24 0 256 0 255 56 0 c87 0 133
18 189 75 102 101 102 229 0 330 -56 57 -102 75 -189 75 l-56 0 0 255 0 256
-25 24 c-41 42 -76 34 -144 -33z m9 -742 c0 -291 -3 -530 -6 -530 -3 0 -18 8
-32 19 -101 71 -317 153 -452 171 -47 6 -100 14 -117 16 l-33 5 0 319 0 319
33 5 c17 2 70 10 116 16 46 6 123 24 171 40 86 28 245 103 285 134 11 8 23 16
28 16 4 0 7 -238 7 -530z m-800 -1 l0 -321 -122 4 c-117 4 -126 6 -186 38 -69
36 -109 79 -144 150 -32 66 -31 196 2 265 42 86 125 154 215 176 17 4 76 7
133 8 l102 1 0 -321z m1095 56 c16 -15 25 -36 25 -55 0 -51 -38 -80 -105 -80
l-55 0 0 80 0 80 55 0 c46 0 60 -4 80 -25z m-1095 -750 c0 -216 0 -216 -25
-240 -15 -16 -36 -25 -55 -25 -19 0 -40 9 -55 25 -25 24 -25 24 -25 240 l0
215 80 0 80 0 0 -215z"/>
<path d="M3558 3630 c-99 -51 -118 -69 -118 -115 0 -33 42 -75 75 -75 35 0
222 95 235 119 27 52 -11 122 -67 120 -15 0 -72 -22 -125 -49z"/>
<path d="M3465 3255 c-16 -15 -25 -36 -25 -55 0 -19 9 -40 25 -55 23 -24 31
-25 135 -25 104 0 112 1 135 25 16 15 25 36 25 55 0 19 -9 40 -25 55 -23 24
-31 25 -135 25 -104 0 -112 -1 -135 -25z"/>
<path d="M442 3233 c-18 -8 -77 -59 -131 -112 -81 -79 -103 -107 -122 -156
l-24 -60 0 -1221 0 -1220 37 -76 c45 -91 103 -147 196 -191 l67 -32 2096 0
2095 0 76 37 c91 45 147 103 191 196 l32 67 3 1194 c3 1303 4 1257 -54 1357
-30 50 -176 189 -229 217 -30 16 -38 17 -62 5 -36 -17 -58 -57 -49 -91 4 -16
39 -55 89 -97 45 -40 85 -77 89 -84 10 -18 -2088 -1816 -2142 -1836 -35 -13
-45 -13 -80 0 -28 10 -369 297 -1095 920 -580 497 -1055 907 -1055 911 0 3 34
35 76 70 121 101 137 133 92 183 -31 33 -57 38 -96 19z m583 -1052 c368 -316
670 -577 670 -582 0 -4 -301 -266 -670 -582 l-670 -575 -15 27 c-13 23 -15
175 -18 1170 -2 1087 -1 1143 15 1130 10 -8 319 -272 688 -588z m3773 -806
c-3 -761 -5 -884 -18 -906 l-15 -26 -670 575 c-368 316 -670 578 -670 582 0 4
308 271 685 594 l685 587 3 -263 c1 -145 1 -659 0 -1143z m-2685 -126 c155
-133 302 -251 327 -263 62 -29 177 -29 240 0 25 12 171 129 327 263 187 160
287 240 295 235 7 -5 312 -265 677 -578 549 -470 661 -571 645 -577 -25 -10
-4103 -10 -4128 0 -15 6 105 114 654 584 371 317 675 577 677 577 3 0 131
-109 286 -241z"/>
<path d="M3465 2935 c-26 -25 -32 -63 -15 -96 13 -24 200 -119 235 -119 54 0
92 70 65 121 -13 24 -200 119 -235 119 -14 0 -37 -11 -50 -25z"/>
</g>
</svg>
