<svg xmlns="http://www.w3.org/2000/svg" width="512" height="512"><path d="M64.118 39.492q2.588-.007 5.177-.019c4.72-.016 9.44-.008 14.16.004 5.098.01 10.197-.005 15.296-.016 9.98-.018 19.96-.014 29.94-.002q12.168.013 24.336.006l3.502-.002 7.042-.004c22.001-.011 44.003.002 66.004.023q28.305.026 56.61-.003a42796 42796 0 0 1 76.274-.012q12.152.003 24.302-.012a8997 8997 0 0 1 29.624.013c5.036.01 10.073.015 15.109.001q6.92-.017 13.841.016 2.499.007 4.997-.007C463.929 39.404 474.819 41.28 485 51c8.963 9.388 11.612 19.526 11.508 32.258l.019 3.594c.013 3.26.008 6.52-.004 9.78-.01 3.53.005 7.058.016 10.586.018 6.9.014 13.8.002 20.7q-.013 8.415-.006 16.83l.002 2.425.004 4.877c.011 15.226-.002 30.452-.023 45.677q-.026 19.573.003 39.146a20495 20495 0 0 1 .014 50.379l-.002 2.414q-.003 8.4.012 16.8.018 10.245-.013 20.49c-.01 3.48-.015 6.961-.001 10.442.01 3.781-.003 7.562-.023 11.344l.027 3.3c-.116 11.426-3.613 20.66-11.535 28.958-9.92 9.47-20.44 11.6-33.825 11.546q-2.027.014-4.054.031c-3.634.028-7.267.031-10.9.03-3.811.004-7.621.03-11.432.052-7.2.04-14.399.061-21.599.074-8.203.016-16.406.055-24.61.095-16.86.082-33.72.136-50.58.172q2.821 5.667 5.648 11.332l1.592 3.197a892 892 0 0 0 11.687 22.59c4.778 8.935 7.042 17.081 4.456 27.326-2.638 5.952-7.773 10.81-13.605 13.629-3.25 1.084-5.897 1.183-9.324 1.193l-1.95.014c-2.15.013-4.3.011-6.449.01q-2.316.008-4.633.02c-4.19.018-8.38.022-12.57.024q-3.93.001-7.86.01-13.718.028-27.435.026c-8.515-.002-17.03.02-25.546.051q-10.977.038-21.954.036c-4.368 0-8.735.005-13.103.026q-6.165.029-12.33.005a478 478 0 0 0-4.512.015c-9.179.069-15.928-.302-23.319-6.293-4.923-5.63-8.042-11.237-7.658-18.907 1.232-8.129 4.035-14.635 7.865-21.867.79-1.54.79-1.54 1.598-3.11 1.418-2.751 2.853-5.492 4.296-8.23a11903 11903 0 0 0 4.99-9.477l1.35-2.565 1.394-2.649L184 393l-2.109-.004q-25.455-.056-50.909-.18a8150 8150 0 0 0-24.62-.087q-10.734-.019-21.47-.084c-3.785-.022-7.571-.038-11.357-.037q-5.357 0-10.714-.05c-1.92-.012-3.839-.005-5.758.003C45.125 392.42 35.716 389.321 27 381c-8.963-9.388-11.612-19.526-11.508-32.258l-.019-3.594c-.013-3.26-.008-6.52.004-9.78.01-3.53-.005-7.058-.016-10.586-.018-6.9-.014-13.8-.002-20.7q.013-8.415.006-16.83l-.002-2.425-.004-4.877c-.011-15.226.002-30.452.023-45.677q.026-19.573-.003-39.146a20495 20495 0 0 1-.012-52.793q.003-8.4-.012-16.8-.017-10.245.013-20.49c.01-3.48.015-6.961.001-10.442-.01-3.781.003-7.562.023-11.344l-.027-3.3C15.581 68.533 19.078 59.299 27 51c10.935-10.44 22.686-11.592 37.118-11.508M37.75 65.437c-6.006 7.37-5.898 15.586-5.87 24.7l-.003 3.077c-.002 3.41.004 6.822.01 10.233v7.451q-.001 8.97.01 17.939.01 10.377.008 20.754c.006 18.261.02 36.523.033 54.784L32 328h248V56l-111.437-.125-35.19-.055c-10.407-.007-10.407-.007-20.815-.01q-6.954-.004-13.909-.021-8.874-.02-17.748-.015-3.255 0-6.51-.012c-2.935-.01-5.87-.008-8.805-.003l-2.56-.017c-10.26.051-18.18 1.83-25.276 9.695M296 56v272h184c.058-43.858.058-43.858.098-87.717l.012-17.746.001-2.246q.015-17.943.043-35.884.028-18.42.034-36.84.004-11.362.028-22.723.016-8.72.01-17.438 0-3.573.012-7.144c.01-3.255.008-6.51.003-9.765l.017-2.844c-.042-9.31-1.011-17.444-7.899-24.282-7.009-6.323-13.826-7.499-23.155-7.491l-1.99-.003q-3.292 0-6.583.01h-4.808q-6.426 0-12.853.012-6.035.007-12.069.006c-11.759.006-23.517.02-35.276.032zM32 344c0 8.987.142 15.875 6 23 7.485 7.432 14.483 9.123 24.96 9.129l2.06.005c2.275.005 4.55.002 6.827 0l4.946.007q6.794.008 13.589.004 7.327.002 14.656.01 14.358.012 28.715.012 11.67 0 23.339.006 33.081.014 66.162.012h7.21q28.944.002 57.889.023 29.715.023 59.431.02 16.684-.001 33.37.014 14.205.014 28.41.005 7.245-.007 14.494.005 6.636.011 13.274-.002 2.397-.003 4.796.005c15.396.333 15.396.333 28.872-6.255 7.927-7.984 9-14.768 9-26zm172 48c-15.494 26.939-15.494 26.939-28 56 1.16 3.482 1.924 5.444 5.244 7.16 3.068.935 5.578 1.094 8.784 1.1l3.666.022 3.997-.007 4.23.015c3.822.014 7.644.014 11.466.012q4.79 0 9.58.008 11.303.016 22.604.006c7.768-.006 15.536.006 23.304.027q10.011.026 20.023.02c3.984-.001 7.968.001 11.952.015q5.62.018 11.241-.002c2.027-.004 4.053.008 6.08.02l3.674-.022h3.182c3.523-.443 5.937-1.558 8.973-3.374 1.424-2.847 1.249-4.826 1-8a70 70 0 0 0-3.148-6.918l-.996-1.973a837 837 0 0 0-3.231-6.297q-1.103-2.163-2.201-4.328A1820 1820 0 0 0 309 394l-1-2z"/><path d="m73.818 79.492 2.33-.019c2.565-.016 5.13-.003 7.696.01q2.764-.009 5.53-.022c5-.018 10-.011 15 .002 5.234.01 10.468 0 15.702-.006q13.185-.01 26.37.022c10.16.021 20.32.014 30.48-.008q13.087-.026 26.175-.01c5.21.006 10.42.007 15.631-.006q7.348-.017 14.696.02 2.696.007 5.39-.006c2.456-.01 4.909.003 7.364.023l2.15-.027c5 .079 7.804 1.43 11.668 4.535 4.288 4.915 4.578 8.808 4.518 15.031l.02 2.693c.018 2.926.007 5.85-.007 8.776l.012 6.12q.008 6.405-.022 12.81a1919 1919 0 0 0 .015 16.402c.014 4.21.01 8.421 0 12.632q-.005 3.023.01 6.047c.01 2.82-.006 5.638-.028 8.458l.024 2.513c-.077 5.293-.94 8.389-4.542 12.518-4.571 3.674-8.09 4.58-13.818 4.508l-2.33.019c-2.565.016-5.13.003-7.696-.01q-2.764.009-5.53.022c-5 .018-10 .011-15-.002-5.234-.01-10.468 0-15.702.006q-13.185.01-26.37-.022c-10.16-.021-20.32-.014-30.48.008q-13.088.026-26.175.01c-5.21-.006-10.42-.007-15.631.006q-7.348.017-14.696-.02a687 687 0 0 0-5.39.006c-2.456.01-4.909-.003-7.364-.023l-2.15.027c-5-.079-7.804-1.43-11.668-4.535-4.288-4.915-4.578-8.808-4.518-15.031l-.02-2.693a826 826 0 0 1 .007-8.776l-.012-6.12q-.008-6.405.022-12.81a1919 1919 0 0 0-.015-16.402c-.014-4.21-.01-8.421 0-12.632q.005-3.023-.01-6.047c-.01-2.82.006-5.638.028-8.458l-.024-2.513c.077-5.293.94-8.389 4.542-12.518 4.571-3.674 8.09-4.58 13.818-4.508M72 96v80h176V96zM185.563 207.482l2.22-.02c2.406-.018 4.81-.007 7.217.007l5.043-.012q5.276-.008 10.55.022c4.5.022 8.998.01 13.498-.015 3.469-.014 6.938-.01 10.408 0q2.488.005 4.975-.01c2.322-.01 4.642.006 6.964.028l3.996.01c5.516.786 8.367 3.087 11.909 7.285 1.987 3.865 2.164 6.45 2.175 10.785l.02 2.22c.018 2.407.007 4.812-.007 7.218l.012 5.043q.008 5.276-.022 10.55c-.022 4.5-.01 8.998.015 13.498.014 3.469.01 6.938 0 10.408q-.005 2.488.01 4.975a499 499 0 0 1-.028 6.963l-.01 3.997c-.786 5.516-3.087 8.367-7.285 11.909-3.865 1.987-6.45 2.164-10.786 2.175l-2.22.02c-2.406.018-4.81.007-7.217-.007l-5.043.012q-5.276.008-10.55-.022c-4.5-.022-8.998-.01-13.498.015-3.469.014-6.938.01-10.408 0q-2.488-.005-4.975.01a499 499 0 0 1-6.964-.028l-3.996-.01c-5.516-.786-8.367-3.087-11.909-7.285-1.987-3.865-2.164-6.45-2.175-10.786l-.02-2.22c-.018-2.406-.007-4.81.007-7.217l-.012-5.043q-.008-5.276.022-10.55c.022-4.5.01-8.998-.015-13.498-.014-3.469-.01-6.938 0-10.408q.005-2.487-.01-4.975c-.01-2.322.006-4.642.028-6.964l.01-3.996c.786-5.516 3.087-8.367 7.285-11.909 3.865-1.987 6.45-2.164 10.786-2.175M184 224v64h64v-64zM73.563 207.482l2.22-.02c2.406-.018 4.81-.007 7.217.007l5.043-.012q5.276-.008 10.55.022c4.5.022 8.998.01 13.498-.015 3.469-.014 6.938-.01 10.408 0q2.488.005 4.975-.01c2.322-.01 4.642.006 6.963.028l3.997.01c5.516.786 8.367 3.087 11.909 7.285 1.987 3.865 2.164 6.45 2.175 10.785l.02 2.22c.018 2.407.007 4.812-.007 7.218l.012 5.043q.008 5.276-.022 10.55c-.022 4.5-.01 8.998.015 13.498.014 3.469.01 6.938 0 10.408q-.005 2.488.01 4.975a499 499 0 0 1-.028 6.963l-.01 3.997c-.786 5.516-3.087 8.367-7.285 11.909-3.865 1.987-6.45 2.164-10.786 2.175l-2.22.02c-2.406.018-4.81.007-7.217-.007l-5.043.012q-5.276.008-10.55-.022c-4.5-.022-8.998-.01-13.498.015-3.469.014-6.938.01-10.408 0q-2.487-.005-4.975.01a499 499 0 0 1-6.963-.028l-3.997-.01c-5.516-.786-8.367-3.087-11.909-7.285-1.987-3.865-2.164-6.45-2.175-10.786l-.02-2.22c-.018-2.406-.007-4.81.007-7.217l-.012-5.043q-.008-5.276.022-10.55c.022-4.5.01-8.998-.015-13.498-.014-3.469-.01-6.938 0-10.408q.005-2.487-.01-4.975c-.01-2.322.006-4.642.028-6.964l.01-3.996c.786-5.516 3.087-8.367 7.285-11.909 3.865-1.987 6.45-2.164 10.785-2.175M72 224v64h64v-64zM329.313 287.492l3.263-.034 3.565.024 3.765-.02c3.405-.015 6.81-.012 10.215 0 3.564.01 7.128.001 10.692-.005q8.979-.01 17.957.022c6.918.021 13.837.014 20.756-.008q8.912-.026 17.824-.01c3.548.006 7.096.007 10.644-.006 3.955-.014 7.91.005 11.865.027l3.565-.024 3.263.034 2.833.005c3.229.655 4.43 1.981 6.48 4.503.531 2 .531 2 .5 4l.031 2c-.773 2.912-2.232 4.093-4.531 6-2.48.503-2.48.503-5.313.508l-3.263.034-3.565-.024-3.765.02c-3.405.015-6.81.012-10.215 0-3.564-.01-7.128-.001-10.692.005q-8.978.01-17.957-.022a3279 3279 0 0 0-20.756.008q-8.912.026-17.824.01c-3.548-.006-7.096-.007-10.644.006-3.955.014-7.91-.005-11.865-.027l-3.565.024-3.263-.034-2.833-.005c-3.229-.655-4.43-1.981-6.48-4.503-.531-2-.531-2-.5-4l-.031-2c1.353-5.094 4.973-6.5 9.844-6.508M329.313 247.492l3.263-.034 3.565.024 3.765-.02c3.405-.015 6.81-.012 10.215 0 3.564.01 7.128.001 10.692-.005q8.979-.01 17.957.022c6.918.021 13.837.014 20.756-.008q8.912-.026 17.824-.01c3.548.006 7.096.007 10.644-.006 3.955-.014 7.91.005 11.865.027l3.565-.024 3.263.034 2.833.005c3.229.655 4.43 1.981 6.48 4.503.531 2 .531 2 .5 4l.031 2c-.773 2.912-2.232 4.093-4.531 6-2.48.503-2.48.503-5.313.508l-3.263.034-3.565-.024-3.765.02c-3.405.015-6.81.012-10.215 0-3.564-.01-7.128-.001-10.692.005q-8.978.01-17.957-.022a3279 3279 0 0 0-20.756.008q-8.912.026-17.824.01c-3.548-.006-7.096-.007-10.644.006-3.955.014-7.91-.005-11.865-.027l-3.565.024-3.263-.034-2.833-.005c-3.229-.655-4.43-1.981-6.48-4.503-.531-2-.531-2-.5-4l-.031-2c1.353-5.094 4.973-6.5 9.844-6.508M329.313 207.492l3.263-.034 3.565.024 3.765-.02c3.405-.015 6.81-.012 10.215 0 3.564.01 7.128.001 10.692-.005q8.979-.01 17.957.022c6.918.021 13.837.014 20.756-.008q8.912-.026 17.824-.01c3.548.006 7.096.007 10.644-.006 3.955-.014 7.91.005 11.865.027l3.565-.024 3.263.034 2.833.005c3.229.655 4.43 1.981 6.48 4.503.531 2 .531 2 .5 4l.031 2c-.773 2.912-2.232 4.093-4.531 6-2.48.503-2.48.503-5.313.508l-3.263.034-3.565-.024-3.765.02c-3.405.015-6.81.012-10.215 0-3.564-.01-7.128-.001-10.692.005q-8.978.01-17.957-.022a3279 3279 0 0 0-20.756.008q-8.912.026-17.824.01c-3.548-.006-7.096-.007-10.644.006-3.955.014-7.91-.005-11.865-.027l-3.565.024-3.263-.034-2.833-.005c-3.229-.655-4.43-1.981-6.48-4.503-.531-2-.531-2-.5-4l-.031-2c1.353-5.094 4.973-6.5 9.844-6.508M425.902 87.371c6.49 1.946 11.117 10.703 14.973 15.817l2.066 2.712c3.389 4.47 6.73 8.972 10.004 13.526l1.712 2.376c1.318 2.157 2.017 3.702 2.343 6.198-2.068 6.72-6.392 11.781-10.687 17.25l-4.333 5.594-2.088 2.691c-2.939 3.829-5.738 7.748-8.51 11.7C430 167 430 167 428 168c-7.052.569-7.052.569-10.5-1.5-2.11-3.517-2.3-6.56-1.5-10.5 1.838-3.464 4.185-6.441 6.625-9.5l1.871-2.434c4.83-6.273 4.83-6.273 7.374-9.265l1.716-2.082 1.556-1.815c1.122-1.956 1.122-1.956.204-4.373-1.317-2.477-2.715-4.556-4.463-6.746l-1.84-2.33-1.918-2.392c-11.698-14.701-11.698-14.701-11.625-19.188.5-3.875.5-3.875 2-6.375 2.816-1.69 5.135-2.018 8.402-2.129M348 88c2.5 1.5 2.5 1.5 4 4 .768 5.39.26 8.162-2.852 12.656a262 262 0 0 1-3.773 4.844l-1.871 2.434c-4.83 6.273-4.83 6.273-7.374 9.265l-1.716 2.082-1.556 1.815c-1.122 1.956-1.122 1.956-.204 4.373 1.317 2.477 2.715 4.556 4.463 6.746l1.84 2.33 1.918 2.393c11.698 14.7 11.698 14.7 11.625 19.187-.5 3.875-.5 3.875-2 6.375-2.816 1.69-5.135 2.018-8.402 2.129-6.49-1.946-11.117-10.703-14.973-15.816l-2.066-2.713A866 866 0 0 1 319 142l-2.032-2.729-1.913-2.634-1.712-2.341c-1.463-2.501-2.042-4.422-2.343-7.296 2.185-6.11 6.742-11.118 10.688-16.187q2.168-2.81 4.332-5.622l2.088-2.71c2.929-3.84 5.736-7.76 8.51-11.715 2.896-3.699 7.036-3.359 11.382-2.766M394.094 87.629C396 88 396 88 398.5 89.437c4.435 7.577.157 18.214-1.86 26.083l-1.047 4.17q-1.095 4.345-2.21 8.686c-.949 3.702-1.875 7.41-2.796 11.12-.714 2.865-1.441 5.726-2.173 8.587q-.52 2.05-1.028 4.102a546 546 0 0 1-1.463 5.72c-.276 1.084-.55 2.167-.835 3.283-1.21 3.127-2.516 4.692-5.088 6.812-3.844 1.021-7.083.527-10.5-1.437-4.435-7.577-.157-18.214 1.86-26.083l1.047-4.17q1.095-4.345 2.21-8.686c.949-3.702 1.875-7.41 2.796-11.12.714-2.865 1.441-5.726 2.173-8.587q.52-2.05 1.028-4.102c.474-1.91.968-3.815 1.463-5.72.276-1.084.55-2.167.835-3.283 2.233-5.77 5.275-7.547 11.182-7.183"/></svg>