<svg xmlns="http://www.w3.org/2000/svg" width="512" height="512"><path d="m317.253 7.71 3.087-.02c3.36-.02 6.721-.024 10.082-.026l7.032-.02q7.369-.017 14.737-.015c6.28 0 12.558-.027 18.837-.061 4.842-.022 9.683-.026 14.526-.025q3.47-.004 6.941-.027c3.245-.02 6.49-.014 9.734-.002l2.867-.034c7.614.071 14.254 1.896 20.49 6.38 7.653 8.087 10.551 15.035 10.591 26.13l.02 2.431q.028 3.979.041 7.958l.013 2.755q.03 7.227.044 14.452c.011 4.954.046 9.907.085 14.861.027 3.827.035 7.654.038 11.482q.008 2.737.035 5.474c.116 12.096.142 23.777-8.758 33.1-8.857 7.817-17.98 8.805-29.414 8.692l-2.954-.006c-3.609-.01-7.218-.038-10.827-.064L360 141v59c13.72-8.193 13.72-8.193 26-18l1.82-1.547c1.686-1.512 1.686-1.512 3.18-4.453-.082-2.54-.45-4.959-.84-7.469-.269-4.25 1.205-7.26 3.84-10.531 5.994-5.086 14.245-6.47 21.895-6.246 3.28.383 5.406 1.363 8.105 3.246 3.376 4.378 5.037 8.654 6.36 13.953l.588 2.247c.611 2.347 1.206 4.699 1.802 7.05q.621 2.391 1.246 4.781C437 194.621 437 194.621 437 197l1.687.043c7.981.499 13.253 3.456 18.625 9.332 6.263 8.02 6.813 15.562 5.688 25.625-1.908 6.07-5.06 10.994-10 15h-2l.826 2.87a1764 1764 0 0 1 3.02 10.68 776 776 0 0 0 1.309 4.596c5.986 20.794 5.986 20.794 2.032 28.291-5.311 6.223-10.115 7.906-18.265 8.961-5.033.266-8.894.27-12.985-2.898-2.5-2.29-3.218-4.393-4.148-7.563-1.269-3.524-1.514-3.8-5.105-5.593a71 71 0 0 0-4.247-.844l-2.333-.456c-13.118-2.239-28.337-3.023-41.104.956l1.026 3.653c1.256 4.49 2.495 8.984 3.729 13.48q.803 2.913 1.62 5.822c.785 2.794 1.553 5.593 2.316 8.393l.745 2.608c1.348 5.02 1.86 8.875.564 14.044-3.956 4.747-10.152 5.85-16 7h-4l.011 1.963q.134 23.715.196 47.43c.02 7.647.049 15.293.095 22.939q.06 10.005.074 20.009c.006 3.526.018 7.053.047 10.58.033 3.95.033 7.902.031 11.853l.044 3.485c-.064 12.756-3.483 24.272-12.31 33.67-8.486 7.973-17.337 11.22-28.795 11.218l-2.66.011q-4.42.015-8.84.019l-6.333.02c-6.938.021-13.876.031-20.814.041l-7.168.013q-16.843.029-33.685.041-19.43.015-38.86.077-15.025.044-30.05.048c-5.98.002-11.96.011-17.94.036q-8.445.035-16.89.018-3.09 0-6.182.02c-14.85.093-26.704-.714-37.971-11.491-9.087-9.681-12.164-20.114-12.12-33.105l-.003-2.785q0-4.62.01-9.24l-.001-6.623q.001-8.992.013-17.986c.006-6.265.006-12.53.008-18.794q.004-15.774.018-31.547a71346 71346 0 0 0 .025-44.565q.016-41.678.05-83.355l-3.238.048c-4.007.054-8.014.089-12.02.117q-2.59.022-5.18.061c-23.354.345-23.354.345-32.562-7.226-7.631-7.532-11.065-14.753-11.158-25.588l-.003-2.165-.015-2.318q-.021-3.783-.027-7.566l-.017-5.287q-.015-5.543-.02-11.084c-.006-4.712-.03-9.425-.058-14.138-.019-3.642-.024-7.283-.026-10.925a887 887 0 0 0-.024-5.209c-.16-22.59-.16-22.59 7.348-31.72 7.424-7.521 14.29-10.809 24.986-11.114q2.237 0 4.475.016l2.396.005c2.506.005 5.012.018 7.518.03q2.56.008 5.121.014 6.252.017 12.504.049l-.063-3.282c-.074-4.08-.12-8.16-.157-12.24q-.03-2.631-.082-5.262c-.307-15.828 1.125-29.163 12.267-41.368 9.377-9.106 20.372-11.938 33.179-12.006l2.072-.015q3.408-.021 6.817-.032l4.91-.03q6.644-.04 13.287-.068 6.951-.035 13.901-.076 13.154-.074 26.307-.138 14.977-.076 29.956-.16Q253.196 36.153 284 36l.562-2.471.77-3.256c.37-1.594.37-1.594.75-3.22C288.371 19.442 294.225 13.91 301 10c5.44-2.31 10.447-2.296 16.253-2.29m-12.066 20.54c-3.987 5.013-4.439 9.823-4.462 16.097l-.015 2.151c-.014 2.332-.013 4.663-.01 6.994l-.014 4.894a2749 2749 0 0 0-.002 10.243c.006 4.36-.01 8.72-.034 13.08-.015 3.368-.016 6.736-.013 10.104q0 2.41-.015 4.82C300.41 108.18 300.41 108.18 304 119c5.485 5.348 10.946 5.25 18.195 5.43 5.312.235 5.312.235 7.73 1.879 1.711 2.693 2.321 5.618 3.075 8.691l1.355-1.172 1.832-1.578c.592-.51 1.184-1.02 1.793-1.547L340 129l2.235-2.075c3.31-2.304 5.025-2.424 9.02-2.423l3.763-.03 1.995.012c2.073.012 4.145 0 6.218-.016 3.656-.027 7.311-.033 10.967-.031 5.847.002 11.693-.012 17.54-.056 2.035-.01 4.07-.001 6.105.009l3.772-.021 3.305.003c4.885-.59 8.112-2.3 11.392-5.935 2.807-4.054 2.842-7.014 2.85-11.82l.014-2.307q.021-3.787.027-7.576l.017-5.262q.015-5.523.02-11.046c.006-4.712.03-9.424.058-14.136.019-3.625.024-7.25.026-10.876q.004-2.606.024-5.21c.017-2.435.015-4.868.008-7.303l.028-2.163c-.038-4.644-.923-7.803-3.384-11.738-6.302-5.069-11.888-5.15-19.718-5.145l-2.628-.01q-4.293-.013-8.584-.013l-5.981-.01q-6.267-.009-12.534-.007c-5.345 0-10.69-.014-16.036-.031a4362 4362 0 0 0-12.353-.013q-2.955 0-5.911-.013c-2.76-.01-5.519-.007-8.278 0-1.213-.01-1.213-.01-2.45-.018-6.104.034-11.42.575-16.34 4.51M103 62c-5.313 6.606-6.308 13.369-6.195 21.559l.008 2.391c.011 2.496.036 4.992.062 7.487q.016 2.554.027 5.108.035 6.228.098 12.455l3.804.06q7.037.117 14.073.257 3.036.057 6.072.105c2.922.046 5.844.104 8.766.164l2.71.035c11.015.254 20.008 2.335 27.825 10.504 7.735 10.132 7.332 21.448 7.246 33.57q0 2.702.005 5.404 0 5.636-.034 11.27c-.029 4.796-.026 9.592-.013 14.387.007 3.713-.001 7.426-.014 11.14q-.006 2.65 0 5.303c.027 23.204.027 23.204-9.006 32.395-6.311 5.76-13.217 7.78-21.434 9.406l-.113 3.762q-.099 2.463-.2 4.925l-.068 2.475c-.21 4.708-.569 8.02-3.619 11.838-3.018 1.509-4.623 1.5-8 1-7.027-4.97-12.665-11.91-18.352-18.299l-2.039-2.228-1.813-2.024c-1.93-1.868-1.93-1.868-5.796-1.449v191h33l.113-14.602q.045-4.62.096-9.242c.054-4.873.105-9.746.137-14.62q.041-5.904.117-11.807.025-2.235.035-4.47c.078-16.884 2.395-31.778 14.252-44.634C156.433 325.817 171.53 322.464 187 322c-1.965-3.448-3.933-6.888-5.965-10.297-10.512-18.402-15.083-40.258-10.133-61.117 4.392-14.347 12.41-25.467 25.34-33.121 14.512-7.708 29.228-9.358 45.238-5.563 14.242 4.442 26.245 14.065 33.52 27.098 9.032 19.894 7.565 40.898.312 61.187-2.77 7.366-6.693 13.442-11.312 19.813l-1 2 2.64.113c15.438.852 30.412 4.095 41.36 15.887 5.343 6.432 8.625 13.005 11 21l.533 1.706c.645 3.166.633 6.218.672 9.45l.03 2.159q.046 3.522.081 7.044l.063 4.893q.082 6.432.153 12.863.077 6.566.161 13.131.161 12.878.307 25.754h23c.39-12.547.699-25.09.88-37.641.088-5.833.206-11.661.402-17.491 1.03-31.434-1.641-54.81-18.282-81.868l-1-2-3.25.5c-16.033 1.876-16.033 1.876-23.031-2.82-5.231-5.112-6.937-10.86-8.77-17.758l-.797-2.93q-.825-3.058-1.636-6.121a926 926 0 0 0-2.534-9.289 3294 3294 0 0 1-1.595-5.973l-.773-2.769c-1.878-7.274-2.382-14.647.823-21.653 4.69-7.204 15.494-9.294 23.313-11.265l2.97-.779c3.09-.808 6.185-1.601 9.28-2.393q4.684-1.215 9.366-2.436a1619 1619 0 0 1 5.803-1.5l2.632-.678 2.317-.594c1.948-.5 1.948-.5 3.882-1.542v-56c-6.244 5.274-6.244 5.274-12 11v2c-2.613.871-4.307 1.189-7 1.25l-2.063.078c-2.588-.438-3.319-1.281-4.937-3.328-.432-2.268-.432-2.268-.512-4.887l-.107-2.842-.069-2.959-.103-2.994q-.124-3.658-.209-7.318l-2.563-.48C302.79 138.33 295.274 135.136 289 126c-4.548-8.783-4.185-17.698-4.316-27.371l-.063-3.871q-.081-5.062-.153-10.125-.077-5.179-.161-10.358Q284.147 64.138 284 54a631 631 0 0 0-6.32-.121l-3.555-.068c-3.27-.068-3.27-.068-6 2.126L266 59a520 520 0 0 1-3.5 4.562l-1.813 2.352C256.835 70.677 252.964 72.885 247 74c-3.915.294-7.818.304-11.742.3l-3.403.014q-3.553.008-7.105.002c-3.606-.003-7.21.02-10.816.045q-3.464.004-6.926.002l-3.24.028c-9.559-.058-16.787-1.736-23.846-8.344-2.729-2.906-5.13-6.007-7.477-9.227-1.33-1.939-1.33-1.939-3.445-2.82a79 79 0 0 0-4.674-.161l-2.945-.03-3.197-.012-3.29-.017q-3.457-.014-6.913-.02c-3.505-.01-7.01-.04-10.514-.073l-6.72-.015-3.155-.038c-9.364.029-17.545 1.888-24.592 8.366m90-8c3.354 4.076 3.354 4.076 6.283 4.494l2.53-.008c1.426.01 1.426.01 2.882.018l3.09-.043 3.19-.003q3.335-.01 6.67-.046c3.408-.037 6.816-.041 10.224-.04q3.24-.015 6.479-.036l3.096-.007 2.873-.038 2.527-.024c2.451-.14 2.451-.14 5.156-2.267v-2zM35.062 134c-2.29 4.313-2.22 8.62-2.239 13.411l-.02 2.244c-.02 2.444-.031 4.889-.041 7.333l-.013 2.537q-.03 6.645-.044 13.29c-.011 4.567-.046 9.132-.085 13.699-.027 3.52-.035 7.04-.038 10.56a619 619 0 0 1-.035 5.048c-.025 2.36-.024 4.719-.017 7.078l-.039 2.087c.057 5.374 1.594 8.36 4.509 12.713 4.29 4.022 8.453 4.124 14.158 4.126l3.772.012h2.007c2.796.004 5.592.025 8.388.045 5.2.038 10.4.07 15.601.067q5.434.002 10.868.062 2.066.015 4.132.005c1.93-.01 3.858.014 5.787.04l3.32.01c3.915.835 5.384 2.658 7.967 5.633a182 182 0 0 0 3.812 3.312l1.833 1.551L120 240l.312-3.813c.196-2.384.494-3.869 1.743-5.917 3.026-1.975 6.253-1.726 9.757-1.77 5.504-.071 9.356-.518 14.188-3.5 4.597-4.97 5.15-8.86 5.161-15.406l.015-2.277q.021-3.73.027-7.462l.017-5.19q.015-5.443.02-10.887c.006-4.644.03-9.287.058-13.93.019-3.576.024-7.15.026-10.725q.004-2.568.024-5.135a731 731 0 0 0 .008-7.194l.028-2.13c-.039-4.618-.975-7.736-3.384-11.664-5.6-5.312-10.516-5.154-17.956-5.177l-2.741-.02q-4.488-.028-8.975-.041l-3.101-.013q-8.126-.03-16.25-.044a3268 3268 0 0 1-16.759-.085c-4.303-.027-8.606-.035-12.91-.038a928 928 0 0 1-6.176-.035 797 797 0 0 0-8.658-.017l-2.558-.039c-6.583.058-12.176 1.68-16.854 6.509M408 170c1.515 9.943 4.17 19.547 6.797 29.238l1.428 5.31q1.876 6.97 3.761 13.937c1.258 4.656 2.51 9.313 3.764 13.97 4.718 17.524 9.455 35.042 14.25 52.545l5-1a18612 18612 0 0 0-30-113zm-12 26-1.441 1.434C382.937 208.413 368.104 215.965 353 221c.564 6.22 1.604 11.966 3.285 17.973l.668 2.45a2088 2088 0 0 0 2.11 7.64q.716 2.61 1.431 5.224 1.744 6.36 3.506 12.713c3.575.813 6.147.874 9.764.267 5.27-.629 10.624-.409 15.923-.392l3.647-.012c7.605.008 15.1.373 22.666 1.137-3.102-13.68-6.601-27.252-10.173-40.817-.963-3.664-1.917-7.33-2.87-10.997l-1.84-6.995-.858-3.32-.81-3.048-.704-2.685c-.633-2.316-.633-2.316-2.745-4.138m47 21c.468 4.056.88 7.466 3 11 .356-4.966.356-4.966-1.5-9.438zm-249.137 23.39c-4.112 5.484-6.373 10.943-7.863 17.61 7.232-3.826 14.184-7.932 21.055-12.363 2.803-1.558 4.772-2.353 7.945-2.637 4.48 1.406 7.779 3.496 11.562 6.25C237.385 256.96 251.295 264 265 264c-.169-9.781-4.553-19.6-11.063-26.938-8.817-7.893-20.065-11.488-31.687-11.332-11.202.93-20.936 6.324-28.387 14.66m130.598-11.562-2.188.577q-2.283.606-4.564 1.22a735 735 0 0 1-6.998 1.824q-2.22.594-4.438 1.192l-2.118.534c-3.756.985-3.756.985-6.402 3.65-.888 2.565-.719 3.68.014 6.27l.658 2.406.75 2.57.742 2.658c.785 2.803 1.59 5.6 2.395 8.396q.798 2.837 1.592 5.676a1871 1871 0 0 0 2.941 10.364l.604 2.103c.529 1.816.529 1.816 1.551 3.732 8.477-.591 16.41-2.817 24.562-5.063l4.213-1.142Q342.89 274.406 348 273c-1.348-8.788-3.571-17.265-5.941-25.82q-.942-3.404-1.87-6.81l-1.193-4.343-.562-2.051c-.99-3.572-.99-3.572-2.434-6.976-4.119 0-7.6.784-11.54 1.828M205.92 265.5l-1.73 1.076A919 919 0 0 0 198.75 270q-1.85 1.157-3.703 2.312A1900 1900 0 0 0 186 278c1.541 7.442 3.104 14.482 6.625 21.25l1.05 2.04c5.109 9.486 12.16 15.94 22.325 19.71 9.934 2.359 18.919.727 27.625-4.563 9.912-7.15 16.344-18.238 18.965-30.109.337-2.35.337-2.35.41-5.328l-2.316-.48c-14.805-3.225-30.776-7.586-42.86-17.262-4.463-3.078-7.949-.238-11.902 2.242m140.454 25L342 292c2.254 7.378 5.302 14.139 8.687 21.062l1.55 3.202Q354.11 320.135 356 324h5c1.593-3.187.059-6.14-.871-9.414l-.61-2.211c-.645-2.335-1.3-4.668-1.957-7l-1.314-4.742Q354.634 294.813 353 289c-2.466 0-4.293.7-6.625 1.5M155 350c-8.027 10.56-8.288 20.896-8.195 33.656l.008 4.54q.014 5.937.05 11.876c.02 4.049.03 8.098.04 12.147.02 7.927.056 15.854.097 23.781h19l.044-4.083c.058-4.993.135-9.986.218-14.978q.051-3.243.084-6.487c.034-3.105.086-6.21.142-9.315l.02-2.936.06-2.73.033-2.402c.496-2.574 1.355-3.475 3.399-5.069 1.937-.363 1.937-.363 4-.313l2.062.012C178 388 178 388 181 390c.912 2.736 1.147 4.461 1.205 7.288l.061 2.644.05 2.767c.02.843.038 1.685.057 2.553.068 3.145.128 6.29.19 9.435L183 436h85c.21-14.674.21-14.674.388-29.349q.048-2.757.1-5.514l.02-2.898.06-2.768.033-2.402c.496-2.574 1.356-3.473 3.399-5.069 2.705-.556 5.277-.426 8 0 2.674 1.812 2.96 2.878 4 6 .113 1.396.176 2.796.205 4.196l.06 2.547.051 2.737.063 2.813q.097 4.447.183 8.894l.131 6.03q.16 7.39.307 14.783h18c.09-9.085.164-18.169.207-27.254.021-4.219.05-8.438.095-12.657q.063-6.118.078-12.235.01-2.325.043-4.648c.165-12.288-1.27-21.89-9.997-31.16-5.82-4.91-13.812-9.148-21.547-9.193l-2.54-.022-2.777-.008-2.932-.02c-3.21-.02-6.42-.031-9.63-.041l-3.327-.013a8824 8824 0 0 0-17.447-.044c-5.99-.011-11.981-.046-17.972-.085-4.619-.027-9.238-.035-13.857-.038a1063 1063 0 0 1-6.62-.035c-15.148-.12-28.484-.082-39.777 11.453M97 453c-.258 15.616-.258 15.616 7.312 27.937 7.172 6.513 15.493 7.216 24.866 7.197l2.446.007q4.045.007 8.09.004l5.811.01q7.885.014 15.769.012 4.929.001 9.857.006 17.201.014 34.402.012 16.022.001 32.044.026 13.765.019 27.532.018 8.217-.002 16.434.013 7.731.014 15.461.003 2.832-.003 5.664.007c2.584.008 5.169.003 7.753-.005l2.243.016c9.23-.06 17.37-1.896 24.316-8.263 6.5-8.929 6-15.387 6-27z"/><path d="M95 137c4.5 2.723 5.775 5.51 7.573 10.195 2.892 7.25 2.892 7.25 8.828 11.92 4.608 1.27 9.182 1.79 13.931 2.217 3.156.331 4.512.569 7.242 2.305 1.966 3.259 2.43 5.554 2.426 9.363-1.66 2.879-1.66 2.879-4.062 5.563l-2.348 2.69C126 184 126 184 124.323 185.287c-1.833 1.484-3.097 2.691-4.323 4.714-.37 3.781.204 7.328.813 11.063 1.526 10.14 1.526 10.14-.114 13.996-3.42 3.906-3.42 3.906-6.789 4.324-5.63-.551-9.778-3.035-14.681-5.715-4.444-2.32-4.444-2.32-9.354-2.106-.949.475-1.897.95-2.875 1.438l-3.184 1.508a1512 1512 0 0 0-6.5 3.25C73.615 219.144 70.922 219.34 67 219c-2.924-2-3.821-3.267-4.66-6.707-.379-3.67-.008-6.72.597-10.356 1.648-7.139 1.648-7.139-.206-13.77l-1.758-1.69-1.9-1.907q-2.002-1.936-4.009-3.867C51.01 176.628 49.022 174.036 49 168c1.102-3.398 1.921-3.947 5-6 2.11-.309 2.11-.309 4.535-.437 9.994-.642 9.994-.642 18.363-5.462 3.085-4.442 5.12-9.258 7.184-14.232 2.363-4.811 5.891-5.587 10.918-4.869m-4 28a69 69 0 0 0-2 3.813c-2.235 3.814-4.08 4.96-8.312 6.187-1.556.363-3.117.707-4.688 1l1.313 1.617c4.416 5.91 5.512 10.068 4.687 17.383l2.5-1c6.292-1.798 11.39-1.444 17.5 1l-.105-1.758c-.253-7.289 1.71-11.468 6.105-17.242l-2.012-.375c-7.169-1.675-7.169-1.675-9.695-4.605-1.293-2.208-1.293-2.208-2.356-4.375L93 165zM331.076 84.694l2.135-.026c2.324-.024 4.648-.032 6.973-.04l4.857-.026q5.087-.025 10.175-.028c4.343-.005 8.684-.043 13.027-.088 3.343-.03 6.686-.037 10.03-.038q2.4-.006 4.801-.038c2.241-.027 4.48-.022 6.72-.01l3.86-.015c4.22.776 5.69 2.321 8.346 5.615.974 3.076.528 4.676 0 8-2.734 2.903-4.412 3.91-8.377 4.515l-3.904.018-2.165.027c-2.352.022-4.702.015-7.054.006q-2.46.009-4.92.02-5.15.014-10.299-.01c-4.395-.017-8.789.007-13.184.042-3.385.022-6.77.02-10.156.012q-2.43 0-4.86.02c-2.268.018-4.533.004-6.8-.019l-3.904-.003c-4.254-.791-5.744-2.259-8.377-5.628-.553-3.874-.3-6.78 2-10 3.577-2.384 6.856-2.271 11.076-2.306M330.984 45.725l2.106-.015c2.291-.014 4.583-.013 6.875-.01l4.79-.014a2638 2638 0 0 1 10.034-.002c4.282.006 8.563-.01 12.845-.034 3.297-.015 6.593-.016 9.89-.013q2.368 0 4.736-.015c2.209-.013 4.417-.006 6.626.006l3.806-.002c3.573.404 5.46 1.22 8.308 3.374 1.565 3.13 1.697 6.61 1 10-2.287 3.048-3.482 3.92-7.295 4.515l-3.965.018c-.724.01-1.448.018-2.194.027-2.39.022-4.778.015-7.167.006q-2.496.008-4.992.02-5.228.014-10.458-.01c-4.463-.017-8.926.007-13.39.042-3.435.022-6.87.02-10.307.012q-2.467 0-4.936.02c-2.303.018-4.604.004-6.907-.019l-3.967-.003c-4.287-.787-5.775-2.23-8.422-5.628-.553-3.874-.3-6.78 2-10 3.562-2.37 6.783-2.26 10.984-2.275M202.203 461.823l2.63-.039 2.847-.022 2.922-.025q3.064-.02 6.128-.032c3.126-.017 6.25-.061 9.375-.105q2.976-.015 5.95-.026l2.835-.053c6.474.022 6.474.022 9.673 2.322 1.883 2.826 2.368 4.76 2.437 8.157-1.247 3.048-2.167 4.55-5.08 6.122-3.844 1.156-7.533 1.183-11.51 1.179l-2.491.013q-2.601.008-5.202.002c-2.642-.003-5.284.02-7.926.045q-2.535.004-5.068.002l-2.378.028c-4.818-.04-8.205-.659-12.345-3.391-1.563-3.313-1.563-3.313-2-7 2.036-5.496 3.47-7.103 9.203-7.177M464.027 169.55c3.5.798 4.977 2.58 6.973 5.45.685 5.258-1.067 8.78-3.687 13.188l-1.03 1.865c-2.22 3.831-4.197 6.174-8.283 7.947-3.45-.119-5.933-.324-8.875-2.187-1.648-2.655-1.909-4.688-2.125-7.813.95-2.579 1.896-4.738 3.188-7.125l.923-1.84c3.15-6.06 5.605-9.88 12.916-9.484M492.813 203.563c2.839 3.163 3.112 5.229 3.187 9.437-.656 2.082-.656 2.082-2 4-2.496 1.23-2.496 1.23-5.437 2.188l-2.934.98L483 221l-3 1c-4.298.483-7.801.78-11.5-1.625-1.86-2.944-2.429-4.888-2.5-8.375 1.02-2.922 1.958-4.457 4.738-5.906 2.067-.803 4.136-1.467 6.262-2.094l3.625-1.187c4.789-1.153 7.788-1.694 12.188.75M476 237c10.713 5.835 10.713 5.835 14 10 .762 6.857.762 6.857-1.625 10.438-2.924 1.923-4.887 2.31-8.375 2.562-2.816-1.11-2.816-1.11-5.562-2.75l-2.754-1.61c-.886-.54-1.772-1.082-2.684-1.64l-2.754-1.594c-2.622-1.642-3.42-2.43-4.246-5.406.32-6.072.32-6.072 2.375-8.875 3.796-2.628 7.408-2.505 11.625-1.125"/></svg>