<?xml version="1.0" standalone="no"?>
<!DOCTYPE svg PUBLIC "-//W3C//DTD SVG 20010904//EN"
 "http://www.w3.org/TR/2001/REC-SVG-20010904/DTD/svg10.dtd">
<svg version="1.0" xmlns="http://www.w3.org/2000/svg"
 width="512.000000pt" height="512.000000pt" viewBox="0 0 512.000000 512.000000"
 preserveAspectRatio="xMidYMid meet">

<g transform="translate(0.000000,512.000000) scale(0.100000,-0.100000)"
fill="#000000" stroke="none">
<path d="M2525 4729 c-340 -227 -857 -404 -1460 -499 -71 -12 -144 -25 -161
-31 -64 -20 -133 -116 -134 -185 0 -31 -1 -31 -60 -37 -100 -9 -183 -71 -216
-164 -18 -52 -20 -1504 -2 -1565 6 -22 29 -59 51 -84 75 -85 -5 -78 962 -84
l860 -5 3 -162 c2 -106 -1 -163 -8 -163 -5 0 -68 45 -140 99 -160 123 -210
144 -335 145 -78 1 -97 -2 -140 -25 -67 -34 -107 -91 -113 -163 -4 -46 1 -65
25 -118 25 -53 65 -100 244 -284 212 -217 286 -310 333 -416 21 -47 24 -73 30
-233 7 -223 17 -257 95 -336 90 -90 86 -89 560 -89 602 1 639 6 730 105 55 60
63 80 111 290 67 295 100 525 100 694 0 121 -52 208 -150 249 -34 14 -147 13
-181 -2 -12 -5 -20 4 -34 34 -38 85 -132 136 -232 128 -32 -3 -65 -8 -75 -12
-11 -5 -18 -1 -22 12 -4 11 -20 39 -37 62 -43 59 -120 93 -197 88 -31 -2 -65
-8 -75 -12 -16 -8 -18 -3 -15 50 l3 59 130 5 c115 4 135 8 175 30 59 34 106
97 120 163 7 37 10 278 8 783 -3 829 2 776 -89 858 -64 58 -103 66 -308 66
l-171 0 0 379 c0 368 -1 379 -21 405 -31 40 -63 33 -164 -35z m45 -779 l0
-640 -37 23 c-21 13 -66 38 -100 57 l-63 33 0 532 0 532 48 22 c27 12 68 35
93 51 24 16 47 29 52 29 4 1 7 -287 7 -639z m-340 1 l0 -460 -97 40 c-290 119
-778 247 -1083 284 -77 9 -119 24 -130 45 -6 10 -10 55 -10 99 0 101 11 112
137 130 362 52 830 176 1098 290 39 17 73 31 78 31 4 0 7 -207 7 -459z m-1430
-150 c33 -66 94 -101 200 -116 25 -3 57 -8 73 -11 l27 -6 0 -294 c0 -281 1
-295 20 -314 18 -18 33 -20 190 -20 155 0 171 2 187 19 14 15 29 81 57 253 22
128 43 237 47 242 5 5 49 -3 106 -19 276 -77 611 -224 813 -355 97 -64 113
-71 137 -63 51 17 53 31 53 391 l0 332 180 0 180 0 32 -29 33 -29 3 -741 c2
-651 0 -745 -13 -771 -25 -48 -61 -60 -180 -60 l-105 0 0 223 c0 212 -1 224
-24 272 -28 60 -56 87 -116 114 -114 52 -254 1 -309 -112 -19 -40 -21 -61 -21
-270 l0 -227 -832 0 c-641 0 -839 3 -857 13 -13 6 -34 25 -45 40 -21 28 -21
36 -24 730 -2 386 0 722 3 746 10 66 49 101 114 101 49 0 51 -1 71 -39z m665
-203 c1 -2 -58 -342 -74 -426 -1 -2 -36 -2 -78 0 l-78 3 -3 225 c-1 123 0 230
2 236 3 9 34 6 117 -12 61 -13 113 -25 114 -26z m1181 -903 c63 -26 64 -31 64
-531 0 -402 2 -449 17 -466 34 -38 113 -8 113 42 0 35 29 79 62 96 26 13 38
14 70 5 59 -18 72 -47 76 -170 4 -118 15 -141 64 -141 38 0 64 28 71 78 11 66
78 106 137 82 49 -20 55 -35 60 -155 4 -92 8 -117 24 -134 40 -44 116 -12 116
49 0 41 45 89 90 96 47 7 96 -24 107 -68 13 -47 -2 -271 -27 -413 -30 -175
-97 -471 -115 -504 -23 -45 -70 -79 -118 -85 -23 -3 -238 -7 -477 -10 -406 -5
-438 -4 -476 13 -46 21 -78 57 -93 104 -5 18 -12 113 -15 212 l-7 180 -38 80
c-61 127 -128 211 -349 441 -114 119 -212 225 -219 237 -33 59 -2 126 60 128
118 4 138 -6 361 -172 162 -121 206 -149 232 -149 66 0 64 -14 64 565 0 396 3
526 13 545 11 22 68 60 90 60 4 0 23 -7 43 -15z"/>
<path d="M977 2792 c-22 -25 -21 -75 1 -95 17 -15 72 -17 584 -17 535 0 566 1
581 18 22 25 21 75 -1 95 -17 15 -72 17 -584 17 -535 0 -566 -1 -581 -18z"/>
<path d="M977 2522 c-22 -25 -21 -75 1 -95 17 -15 72 -17 584 -17 535 0 566 1
581 18 22 25 21 75 -1 95 -17 15 -72 17 -584 17 -535 0 -566 -1 -581 -18z"/>
<path d="M3964 4645 c-330 -72 -545 -392 -480 -716 26 -128 75 -219 171 -315
129 -129 258 -184 435 -184 47 0 113 7 145 15 216 55 395 234 450 450 20 77
19 221 -1 298 -82 319 -404 521 -720 452z m267 -145 c256 -78 397 -359 310
-613 -93 -270 -404 -400 -659 -276 -261 127 -351 451 -194 695 114 176 340
257 543 194z"/>
<path d="M4040 4390 c-11 -11 -20 -29 -20 -40 0 -11 -7 -20 -15 -20 -25 0 -77
-29 -113 -63 -84 -80 -53 -206 64 -262 20 -9 71 -22 113 -27 82 -11 135 -32
129 -51 -7 -21 -71 -47 -115 -47 -22 0 -70 9 -105 20 -80 25 -90 25 -116 -3
-49 -52 -13 -104 89 -131 56 -15 67 -22 76 -47 22 -59 108 -57 120 3 4 22 14
30 45 40 22 6 61 30 86 53 41 37 45 46 50 96 3 39 -1 65 -12 87 -32 63 -129
112 -220 112 -43 0 -107 27 -114 47 -2 6 9 20 24 29 35 23 143 23 198 0 50
-21 89 -20 109 2 22 24 22 75 0 95 -17 14 -95 42 -138 49 -11 2 -21 12 -23 23
-10 53 -74 73 -112 35z"/>
<path d="M3952 3175 c-210 -46 -393 -221 -458 -440 -28 -95 -24 -249 9 -350
66 -199 237 -358 442 -410 83 -21 206 -19 300 5 213 55 386 231 441 450 26
103 16 263 -23 362 -113 287 -411 448 -711 383z m283 -145 c121 -42 216 -121
273 -228 140 -262 20 -577 -259 -680 -259 -96 -553 61 -625 332 -65 245 81
503 331 582 65 21 212 17 280 -6z"/>
<path d="M4040 2920 c-11 -11 -20 -29 -20 -40 0 -11 -7 -20 -15 -20 -25 0 -77
-29 -113 -63 -84 -80 -53 -201 67 -262 19 -10 69 -22 110 -27 126 -15 160 -46
91 -80 -46 -23 -103 -23 -182 2 -80 25 -90 25 -116 -3 -48 -51 -20 -96 81
-128 62 -19 76 -27 85 -51 20 -55 107 -54 118 2 5 21 17 32 58 49 29 12 68 37
86 56 29 30 34 43 38 92 3 49 0 64 -20 93 -44 64 -97 88 -240 105 -26 3 -57
15 -70 26 l-23 19 23 19 c34 30 99 36 168 16 98 -28 123 -29 144 -10 25 23 26
76 2 98 -18 16 -77 39 -134 51 -18 4 -28 13 -28 25 0 47 -74 67 -110 31z"/>
<path d="M905 1824 c-224 -48 -411 -228 -469 -451 -18 -71 -21 -209 -5 -285
35 -168 171 -340 330 -416 101 -48 162 -62 277 -62 295 0 538 203 598 499 53
264 -84 540 -327 660 -138 68 -262 85 -404 55z m267 -144 c80 -24 171 -83 222
-141 21 -24 55 -78 75 -119 32 -68 36 -84 39 -177 5 -115 -14 -192 -68 -276
-71 -113 -204 -199 -339 -220 -315 -48 -598 240 -542 553 33 185 183 348 358
389 69 16 187 12 255 -9z"/>
<path d="M992 1574 c-12 -8 -22 -24 -22 -34 0 -13 -19 -28 -65 -50 -72 -34
-104 -72 -112 -130 -7 -51 1 -82 33 -120 39 -45 96 -70 196 -85 49 -8 96 -19
104 -26 23 -19 16 -39 -21 -55 -49 -20 -125 -17 -196 7 -70 24 -103 17 -119
-27 -19 -49 5 -76 94 -105 67 -22 80 -30 91 -56 17 -40 59 -52 94 -25 14 10
27 28 29 39 2 13 21 27 58 42 125 52 160 170 77 262 -41 45 -92 66 -191 78
-110 14 -150 51 -86 80 34 15 141 13 189 -4 60 -22 101 -19 119 7 36 51 7 98
-76 123 -28 8 -58 15 -65 15 -8 0 -19 14 -25 30 -17 49 -63 64 -106 34z"/>
</g>
</svg>
