<?xml version="1.0" standalone="no"?>
<!DOCTYPE svg PUBLIC "-//W3C//DTD SVG 20010904//EN"
 "http://www.w3.org/TR/2001/REC-SVG-20010904/DTD/svg10.dtd">
<svg version="1.0" xmlns="http://www.w3.org/2000/svg"
 width="512.000000pt" height="512.000000pt" viewBox="0 0 512.000000 512.000000"
 preserveAspectRatio="xMidYMid meet">

<g transform="translate(0.000000,512.000000) scale(0.100000,-0.100000)"
fill="#000000" stroke="none">
<path d="M768 5014 c-30 -16 -58 -61 -58 -94 0 -12 -7 -34 -15 -50 -30 -58
-87 -66 -155 -20 -49 33 -87 37 -128 16 -32 -17 -145 -131 -161 -163 -19 -37
-12 -78 19 -124 45 -67 38 -124 -20 -154 -16 -8 -38 -15 -50 -15 -34 0 -78
-28 -95 -60 -11 -20 -15 -59 -15 -132 0 -144 21 -174 132 -193 78 -12 99 -88
48 -164 -53 -77 -40 -119 67 -222 92 -89 136 -98 210 -43 63 48 146 19 158
-54 18 -111 58 -135 212 -130 l105 3 34 37 c25 28 34 47 34 74 0 26 8 43 29
65 37 36 83 38 131 5 82 -55 121 -47 217 47 101 97 114 149 57 224 -34 45 -32
96 5 134 22 21 39 29 65 29 27 0 46 9 74 34 l37 34 3 105 c5 154 -19 194 -130
212 -73 12 -102 95 -54 158 55 74 46 118 -43 210 -103 107 -145 120 -222 67
-76 -51 -152 -30 -164 48 -19 112 -49 132 -195 132 -73 -1 -113 -5 -132 -16z
m192 -162 c37 -139 194 -210 325 -148 l50 24 36 -35 36 -34 -24 -46 c-64 -128
4 -288 139 -328 43 -12 43 -12 46 -63 l3 -51 -39 -10 c-54 -15 -101 -49 -136
-99 -26 -37 -31 -54 -34 -115 -3 -62 0 -79 21 -117 l25 -45 -35 -37 -35 -36
-47 25 c-39 21 -56 24 -118 21 -61 -3 -78 -8 -115 -34 -50 -35 -84 -82 -99
-136 l-10 -39 -51 3 c-51 3 -51 3 -63 46 -40 135 -200 203 -328 139 l-46 -24
-34 36 -35 36 24 50 c62 131 -9 288 -148 326 l-39 10 3 51 c3 51 3 51 46 63
134 40 204 205 138 326 l-24 44 35 37 35 36 46 -24 c125 -67 307 15 328 148
l7 38 53 0 53 0 11 -38z"/>
<path d="M833 4640 c-130 -19 -258 -115 -314 -235 -101 -215 -13 -463 200
-568 63 -30 72 -32 181 -32 107 0 119 2 175 29 83 41 165 122 206 204 33 64
34 71 34 182 0 109 -2 118 -32 180 -84 171 -264 268 -450 240z m183 -160 c52
-22 113 -82 139 -135 11 -24 21 -69 23 -112 3 -60 0 -80 -20 -125 -31 -67 -79
-115 -146 -146 -45 -20 -65 -23 -125 -20 -85 5 -135 26 -190 81 -55 55 -80
117 -80 197 0 209 207 343 399 260z"/>
<path d="M4282 5013 c-34 -29 -192 -311 -192 -342 0 -15 8 -35 18 -44 23 -21
76 -22 95 -3 31 31 187 314 187 339 0 31 -35 67 -66 67 -12 0 -31 -8 -42 -17z"/>
<path d="M3242 4960 c-73 -37 -125 -98 -147 -173 -20 -68 -19 -105 6 -181 l21
-65 -27 -48 c-150 -258 -403 -542 -693 -776 -98 -80 -117 -91 -146 -89 -28 3
-70 -17 -231 -110 -229 -131 -293 -180 -351 -265 -62 -91 -86 -161 -92 -274
-5 -112 7 -175 52 -269 37 -78 147 -192 223 -233 65 -34 190 -67 258 -67 62 0
188 31 245 60 23 12 43 20 45 18 1 -2 118 -158 259 -348 142 -190 272 -359
291 -377 42 -40 105 -52 159 -29 49 20 181 140 200 181 18 37 21 91 7 127 -5
13 -124 179 -265 368 -141 190 -256 348 -256 351 0 11 261 106 403 148 230 67
436 103 677 117 l115 6 43 -51 c63 -75 128 -105 222 -106 89 0 147 23 205 80
68 69 99 178 76 271 -7 25 -79 163 -162 306 l-150 259 54 59 c71 76 91 134 85
239 -5 86 -27 138 -84 201 -75 83 -207 118 -319 85 -54 -15 -60 -15 -71 -1 -6
9 -74 124 -150 257 -76 132 -154 256 -172 275 -52 54 -106 77 -192 81 -69 4
-80 2 -138 -27z m213 -137 c34 -24 942 -1590 951 -1640 9 -49 -5 -91 -42 -128
-56 -57 -150 -57 -203 -1 -36 38 -921 1576 -933 1621 -9 35 -8 47 10 87 28 64
70 90 138 85 31 -2 63 -12 79 -24z m112 -1035 c194 -337 351 -614 348 -616 -2
-2 -62 -8 -132 -13 -159 -11 -327 -39 -508 -86 -144 -37 -389 -117 -484 -159
-29 -13 -59 -24 -65 -24 -6 0 -91 139 -188 308 l-177 307 27 20 c15 11 81 65
147 119 231 192 461 442 608 663 34 51 64 93 67 93 3 -1 164 -276 357 -612z
m558 443 c72 -33 105 -86 105 -168 0 -48 -36 -126 -63 -136 -9 -3 -41 42 -98
141 -46 80 -85 151 -87 158 -7 27 88 31 143 5z m-1709 -1101 c103 -178 189
-331 191 -340 3 -11 -43 -41 -159 -107 -192 -108 -219 -121 -290 -129 -163
-19 -334 80 -406 233 -24 52 -27 70 -27 163 0 98 2 109 32 170 17 36 51 84 75
107 46 45 378 244 390 234 3 -3 91 -152 194 -331z m529 -805 c135 -181 245
-335 245 -341 0 -12 -121 -124 -133 -124 -8 0 -516 675 -523 694 -5 13 142
109 158 103 4 -1 118 -150 253 -332z"/>
<path d="M4666 4502 c-120 -70 -151 -93 -159 -116 -7 -22 -5 -33 10 -55 34
-45 62 -40 201 40 176 100 192 113 192 153 0 40 -26 66 -66 66 -18 0 -84 -32
-178 -88z"/>
<path d="M4613 3923 c-49 -10 -69 -77 -33 -113 19 -19 33 -20 215 -20 182 0
196 1 215 20 25 25 26 61 1 91 -19 23 -23 24 -198 26 -98 0 -188 -1 -200 -4z"/>
<path d="M1255 3060 c-512 -132 -902 -407 -1070 -753 -58 -121 -84 -220 -92
-342 -21 -373 194 -716 607 -967 60 -36 115 -68 121 -70 9 -3 -15 -120 -76
-385 -59 -255 -86 -389 -81 -407 8 -31 44 -51 78 -42 13 3 218 142 456 308
l434 303 126 -6 c164 -8 396 5 548 31 65 11 127 23 136 26 16 5 17 -17 20
-280 3 -269 4 -286 24 -312 11 -15 33 -37 48 -48 27 -21 39 -21 634 -23 l607
-3 40 23 c26 14 48 37 63 67 l22 45 -2 457 c-3 443 -4 457 -24 484 -50 67 -55
69 -286 74 l-211 5 39 45 c142 165 221 336 246 535 38 299 -117 636 -395 862
-83 68 -113 77 -147 43 -34 -34 -26 -77 23 -119 195 -165 315 -338 364 -521
23 -88 23 -262 0 -350 -39 -147 -125 -289 -253 -417 l-82 -82 -308 -3 c-346
-3 -339 -2 -383 -79 -18 -31 -21 -54 -21 -146 l0 -110 -77 -17 c-197 -42 -549
-63 -728 -42 l-60 7 -373 -261 c-206 -144 -376 -260 -378 -258 -2 2 28 139 66
303 39 165 70 314 70 331 0 39 -14 51 -119 103 -445 222 -691 614 -617 981 36
174 111 306 260 456 193 193 432 321 769 414 144 39 167 53 167 96 0 26 -28
60 -55 68 -11 3 -69 -8 -130 -24z m2500 -2395 l0 -430 -575 0 -575 0 -3 433
-2 432 577 -2 578 -3 0 -430z"/>
<path d="M2936 949 l-26 -20 0 -260 c0 -246 1 -260 20 -279 11 -11 32 -20 47
-20 30 0 404 211 446 251 31 32 34 58 10 87 -22 25 -433 262 -455 262 -8 0
-27 -9 -42 -21z m213 -229 c44 -25 81 -48 81 -52 0 -3 -24 -19 -52 -36 -29
-16 -70 -40 -90 -52 l-38 -22 0 107 c0 59 4 105 9 103 5 -1 45 -23 90 -48z"/>
<path d="M4599 2812 c-36 -24 -56 -50 -113 -151 -59 -104 -68 -128 -68 -170 0
-72 33 -124 105 -168 58 -35 59 -37 53 -72 -13 -84 -178 -372 -251 -441 l-26
-24 -63 32 c-102 52 -197 39 -251 -32 -12 -17 -49 -77 -80 -133 -48 -87 -57
-110 -57 -152 0 -61 23 -104 80 -148 71 -54 144 -77 247 -76 157 0 276 61 436
222 236 238 419 627 419 891 0 189 -91 349 -242 424 -71 36 -130 35 -189 -2z
m149 -136 c154 -99 182 -292 81 -570 -70 -194 -179 -367 -324 -512 -82 -83
-115 -108 -180 -140 -70 -34 -87 -39 -150 -38 -54 0 -81 6 -119 25 -84 42 -85
49 -18 164 41 71 64 101 79 103 12 2 44 -9 72 -23 115 -60 185 -40 280 80 126
158 241 388 248 495 5 74 -24 124 -97 168 -30 17 -58 38 -62 45 -7 14 6 42 74
160 44 76 57 81 116 43z"/>
<path d="M1009 2239 c-36 -13 -55 -59 -38 -91 6 -12 17 -26 23 -30 6 -4 302
-8 659 -8 634 0 647 0 667 20 25 25 26 61 1 91 l-19 24 -634 2 c-396 1 -643
-2 -659 -8z"/>
<path d="M1003 1718 c-12 -6 -27 -24 -34 -40 -10 -25 -9 -33 8 -56 l20 -27
878 -3 c679 -2 881 1 893 10 38 32 30 97 -14 117 -34 15 -1719 15 -1751 -1z"/>
</g>
</svg>
