<svg xmlns="http://www.w3.org/2000/svg" width="512" height="512"><path d="M386.574 150.574c10.006 7.288 17.842 16.87 20.489 29.098l.535 2.456L408 184l3.162-.027q14.744-.12 29.487-.18 7.58-.03 15.16-.095 7.314-.063 14.628-.078 2.792-.01 5.584-.043c2.605-.029 5.209-.033 7.814-.031l2.337-.044c3.334.026 5.474.27 8.304 2.092 2.058 3.25 2.045 5.519 2.073 9.358l.031 2.096c.028 2.283.026 4.564.022 6.847q.01 2.387.026 4.775.02 5.004.003 10.009a940 940 0 0 0 .069 12.79c.03 3.289.031 6.577.025 9.866q.001 2.356.032 4.713c.155 13.81.155 13.81-3.678 18.354-1.598 1.458-1.598 1.458-3.079 2.598l-1.984 1.863-1.766 1.45c-3.245 2.755-6.26 5.656-9.25 8.687a176 176 0 0 1-10.937 10.156c-2.452 2.192-4.752 4.505-7.063 6.844a176 176 0 0 1-10.937 10.156c-2.452 2.192-4.752 4.505-7.063 6.844a176 176 0 0 1-10.937 10.156c-2.452 2.192-4.752 4.505-7.063 6.844a176 176 0 0 1-10.937 10.156c-3.353 2.998-6.462 6.236-9.622 9.434-2.713 2.679-5.549 5.156-8.445 7.633-2.257 2.01-4.373 4.125-6.496 6.277-2.728 2.766-5.485 5.413-8.437 7.938-4.085 3.5-7.82 7.303-11.598 11.128-2.821 2.786-5.753 5.395-8.774 7.961L357 392l-1.582 1.221c-2.043 2.564-1.797 4.464-1.803 7.716l-.03 3.702.004 1.977c.005 2.048-.01 4.095-.028 6.143-.037 4.351-.05 8.702-.061 13.053-.012 5.034-.034 10.067-.08 15.1-.014 2.01-.01 4.022-.005 6.032l-.03 3.731-.006 3.27c-.461 3.72-1.253 5.955-3.379 9.055-2.43 1.298-4.42 2.15-7.002 2.97l-2.137.737q-2.264.776-4.537 1.526a427 427 0 0 0-6.825 2.328 1514 1514 0 0 1-14.464 4.931l-2.63.886a9632 9632 0 0 1-13.725 4.61q-5.64 1.892-11.273 3.806-6.87 2.333-13.75 4.63a1017 1017 0 0 0-5.194 1.76c-2.416.823-4.837 1.63-7.26 2.433l-2.12.736c-4.997 1.628-9.838 2.479-15.083 1.647-2.54-1.433-2.54-1.433-4-4-.513-3.039-.44-6.002-.355-9.076l.027-2.78q.03-2.99.087-5.979c.054-3.163.077-6.324.09-9.487.039-8.993.109-17.985.264-26.977.092-5.503.126-11.005.122-16.509q.015-3.134.097-6.267c.6-13.285.6-13.285-5.511-24.53-2.485-2.34-5.074-4.366-7.821-6.395a300 300 0 0 1-4.125-3.625l-1.883-1.602c-3.335-2.969-6.417-6.191-9.554-9.367A121 121 0 0 0 205 363.5c-4.073-3.482-7.79-7.276-11.555-11.086-2.13-2.103-4.3-4.09-6.57-6.039l-1.914-1.668a414 414 0 0 0-4.234-3.633c-5.386-4.866-5.386-4.866-6.332-8.219-.118-3.015.466-5.515 1.605-8.293 2.422-1.892 4.568-2.812 7.652-3.019 9.384 1.827 18.411 14.416 24.903 21.008 3.059 3.091 6.234 5.976 9.558 8.781 3.308 2.924 6.348 6.122 9.45 9.262 2.689 2.654 5.5 5.105 8.37 7.558 3.368 3.01 6.49 6.262 9.66 9.477 2.092 2.06 4.22 3.986 6.47 5.871C255 386 255 386 256 388c.093 2.777.126 5.528.114 8.305v2.602c0 2.846-.009 5.692-.016 8.538l-.005 5.91q-.006 7.788-.024 15.576-.014 7.942-.02 15.885Q256.033 460.41 256 476l3.44-1.176 18.506-6.324C332.064 450 332.064 450 336 450l-.04-2.307a2515 2515 0 0 1-.27-21.582c-.032-3.698-.074-7.396-.143-11.094a766 766 0 0 1-.116-10.718q-.017-2.038-.065-4.077c-.275-11.972-.275-11.972 3.547-16.496 1.601-1.514 1.601-1.514 3.087-2.726l1.984-1.863 1.766-1.45c3.245-2.755 6.26-5.656 9.25-8.687a176 176 0 0 1 10.938-10.156c2.451-2.192 4.75-4.505 7.062-6.844a176 176 0 0 1 10.938-10.156c2.451-2.192 4.75-4.505 7.062-6.844a176 176 0 0 1 10.938-10.156c2.451-2.192 4.75-4.505 7.062-6.844a176 176 0 0 1 10.938-10.156c2.451-2.192 4.75-4.505 7.062-6.844a176 176 0 0 1 10.938-10.156c3.35-2.995 6.456-6.23 9.613-9.426 2.687-2.653 5.473-5.131 8.367-7.555 1.976-1.768 3.842-3.601 5.712-5.48l1.912-1.917L465 265l-2.816-.004q-33.887-.055-67.775-.18c-10.925-.04-21.85-.072-32.776-.087q-14.28-.019-28.562-.084c-5.042-.022-10.085-.038-15.128-.037q-7.116 0-14.232-.05-2.614-.012-5.23-.004a553 553 0 0 1-7.129-.035l-2.098.023c-3.358-.06-5.006-.347-7.68-2.45-1.709-2.271-2.118-3.287-2.074-6.092l-.031-2c.8-3.01 2.071-4.097 4.531-6a49.3 49.3 0 0 1 7.922-.481l2.436-.01c2.696-.007 5.392.015 8.088.037q2.897.001 5.795-.002c5.248-.001 10.495.023 15.743.05 5.482.025 10.965.028 16.448.033 10.383.012 20.767.045 31.151.085 11.82.045 23.642.067 35.463.087 24.318.042 48.636.115 72.954.201v-48l-17.929.063c-19.51.067-39.02.111-58.53.144q-17.75.028-35.499.095-15.467.06-30.935.074c-5.462.006-10.924.018-16.386.047q-7.707.039-15.414.03-2.832 0-5.665.024c-2.573.02-5.146.015-7.72.004l-2.276.035c-3.484-.04-5.314-.26-8.108-2.421-1.667-2.271-2.081-3.312-2.038-6.095l-.031-2c.785-2.956 2.156-4.1 4.531-6 3.024-.454 3.024-.454 6.516-.39l3.789.038 3.945.102 3.992.055q4.88.071 9.758.195l.365-1.795c2.801-13.264 9.583-22.888 20.447-31.08 16.04-10.358 37.453-10.524 53.762-.55M342 166l-1.762 1.164c-5.818 4.309-8.85 9.894-10.238 16.836h60c-3.96-11.88-8.21-16.466-19-22-9.72-3.24-20.665-1.77-29 4"/><path d="m134.77 54.832 2.185-.01q2.274-.007 4.55-.007c2.29-.002 4.581-.02 6.872-.04 12.21-.048 22.672.44 32.623 8.225 5.872 6.094 8.753 12.78 9.875 21.125.608 4.019.967 5.662 3.438 9 3.953 2.758 6.17 3.96 11.062 3.688 3.817-.856 7.057-2.227 10.625-3.813 9.285-2.23 18.563-1.695 27 3 7.182 4.883 11.34 11.66 15.647 18.997a508 508 0 0 0 3.35 5.6C269.022 132.305 273.511 140.935 272 155c-2.557 9.641-8.608 15.074-16.793 20.191-2.583 2.117-3.32 3.617-4.207 6.809.074 4.162.434 6.297 3.063 9.563 2.705 2.324 2.705 2.324 4.835 3.726 6.543 4.487 10.583 10.153 13.102 17.711.173 2.37.267 4.748.313 7.125l.113 3.82c-.507 9.374-7.11 17.906-11.801 25.68l-1.96 3.313c-6.151 10.242-11.643 17.883-22.978 22.375-9.77 1.82-18.38.62-27.375-3.563-3.434-1.114-5.832-.605-9.312.25-4.596 2.428-6.418 4.112-8 9a144 144 0 0 0-.75 5.688c-1.308 8.18-4.634 14.57-11.187 19.75-8.2 5.517-16.111 6.714-25.833 6.73l-2.185.01q-2.274.007-4.55.007c-2.29.002-4.581.02-6.872.04-12.41.049-24-.312-33.635-9.05-5.865-6.258-7.725-11.988-8.863-20.363-.61-3.998-.977-5.613-3.437-8.937-3.821-2.666-6.086-3.94-10.813-3.75-3.277.74-5.97 1.687-9.062 2.938-9.028 3.37-17.07 2.671-26.047-.504-9.398-5.296-14.229-13.456-19.516-22.497q-1.12-1.875-2.246-3.748c-12.562-21.02-12.562-21.02-10.375-32.662 2.553-9.305 5.914-14.588 14.059-19.652 4.487-2.858 6.12-4.773 7.312-10-.777-5.634-2.719-8.37-7-12l-1.93-1.324c-7.007-4.826-11.13-11.115-12.847-19.52-1.397-13.528 5.888-23.66 12.652-34.781l1.777-2.984c9.566-15.768 9.566-15.768 17.536-19.329l2.48-1.152C58.569 90.436 67.304 91.48 76 95c4.839 1.935 7.89 2.278 13 1 4.6-2.43 6.408-4.113 8-9q.501-2.897.875-5.812c1.4-8.653 4.059-14.068 10.914-19.649 8.075-5.621 16.28-6.691 25.98-6.707m-17.583 22.543c-3.029 3.931-3.018 8.59-3.617 13.371-1.34 7.652-5.52 13.004-11.468 17.817-7.21 4.931-15.714 6.222-24.227 4.687-3.115-.702-5.551-1.553-8.5-2.875-4.329-1.764-6.718-1.892-11.375-1.375-7.932 4.118-11.672 11.565-16.062 19l-1.604 2.695a1481 1481 0 0 0-3.028 5.113 186 186 0 0 1-3.15 5.07C32.354 144.187 32.386 147.38 33 151c2 4.35 4.408 6.37 8.375 8.813 6.152 3.881 10.003 9.238 12 16.25 1.463 9.215.36 15.954-4.125 24.125-2.752 3.44-5.822 6.07-9.25 8.812-4.902 3.541-4.902 3.541-7.293 8.815-.375 7.025 2.1 11.34 5.855 17.123l1.663 2.652A527 527 0 0 0 45 245l1.19 1.84c4.588 7.4 4.588 7.4 11.818 11.812 5.664.763 9.472-.232 14.633-2.644 7.545-3.223 15.288-2.555 22.906-.043 4.076 1.72 7.234 4.023 10.453 7.035l1.723 1.605c4.433 4.935 5.132 10.249 6.103 16.588.813 4.867 1.933 8.042 5.283 11.643 5.017 3.089 10.58 3.42 16.329 3.43l2.072.005q2.153.002 4.305-.01c2.18-.011 4.358 0 6.537.012q2.105 0 4.21-.007l3.817-.007c5.062-.362 10.31-1.047 13.871-4.947 3.281-4.12 3.796-8.658 4.646-13.75 1.41-8.084 4.906-13.271 11.303-18.312 6.912-4.798 15.065-5.897 23.328-4.965 3.641.74 6.692 1.813 10.098 3.34 3.85 1.568 6.257 1.9 10.375 1.375 8.57-4.538 12.833-13.246 17.75-21.25l2.113-3.316c3.96-6.472 6.267-10.807 5.137-18.434-2.936-4.68-6.71-7.356-11.14-10.57-6.197-4.765-8.75-11.227-9.735-18.743-.547-8.122 1.7-15.362 6.875-21.687 2.239-2.124 4.59-4.073 7-6 5.57-4.31 5.57-4.31 7.45-10.934-.078-6.366-3.305-10.897-6.637-16.129l-1.752-2.853a545 545 0 0 0-3.443-5.516 262 262 0 0 1-3.043-4.944l-1.294-2.151-1.103-1.863c-2.27-3.103-4.611-4.159-8.178-5.61-5.101-.669-8.174-.07-12.875 1.938-9.313 3.974-17.655 3.675-27.125.062-7.225-4.107-12.581-9.942-15-18-.54-3.039-.993-6.07-1.375-9.133-.937-4.296-2.486-7.05-6.062-9.617-4.683-2.284-8.991-2.422-14.145-2.453l-2.22-.017q-2.32-.015-4.642-.02c-2.35-.01-4.7-.041-7.05-.073q-2.263-.009-4.526-.015l-2.106-.038c-6.357.03-10.81 1.624-15.686 5.741"/><path d="M172.96 134.75A102 102 0 0 1 180 140l2.523 1.898c9.198 7.806 16.596 21.443 17.698 33.528.476 10.974.677 21.506-4.221 31.574l-1.39 2.914c-7.73 15.093-19.904 23.626-35.77 29.195-12.084 2.803-26.637 2.341-37.84-3.109l-2.914-1.39c-15.082-7.724-23.659-19.908-29.191-35.782-3.42-14.635-1.817-30.808 5.855-43.789A102 102 0 0 1 100 148l1.898-2.523c16.828-19.83 49.156-23.675 71.063-10.727m-61.42 26.098c-6.724 9.402-7.525 19.955-6.54 31.152 2.196 10.77 8.777 19.134 17.574 25.492 9.976 6.201 21.198 7.231 32.578 4.848 11.185-3.624 19.65-11.529 25.168-21.797 4.051-9.448 4.28-20.719 1.118-30.48-4.577-10.674-12.827-18.924-23.5-23.5-17.834-5.778-34.625.28-46.399 14.285M468.96 22.75A102 102 0 0 1 476 28l2.523 1.898c9.198 7.806 16.596 21.443 17.698 33.528.476 10.974.677 21.506-4.221 31.574l-1.39 2.914c-7.73 15.093-19.904 23.626-35.77 29.195-12.084 2.803-26.637 2.341-37.84-3.109l-2.914-1.39c-15.082-7.724-23.659-19.908-29.191-35.782-3.42-14.635-1.817-30.808 5.855-43.789A102 102 0 0 1 396 36l1.898-2.523c16.828-19.83 49.156-23.675 71.063-10.727m-61.42 26.098C400.815 58.25 400.014 68.803 401 80c2.196 10.77 8.777 19.134 17.574 25.492 9.976 6.201 21.198 7.231 32.578 4.848 11.185-3.624 19.65-11.529 25.168-21.797 4.051-9.448 4.28-20.719 1.118-30.48-4.577-10.674-12.827-18.924-23.5-23.5-17.834-5.778-34.625.28-46.399 14.285M311.89 26.742C320.236 31.718 325.425 38.606 328 48c.999 11.1.35 20.734-6.75 29.813-5.658 6.057-12.704 9.778-20.984 10.523-10.73.241-19.573-1.01-27.735-8.633-7.393-8.223-9.113-16.937-8.844-27.715.475-8.385 4.088-15.39 10.313-20.988 10.739-8.075 25.567-10.172 37.89-4.258m-29.265 20.883c-2.204 4.578-2.422 8.38-1.625 13.375 2.33 4.839 5.161 7.67 10 10 4.994.797 8.797.58 13.375-1.625 3.584-3.243 6.22-5.84 7.008-10.773.256-5.684-.447-9.251-4.383-13.602-4.35-3.936-7.918-4.639-13.602-4.383-4.933.788-7.53 3.424-10.773 7.008"/></svg>