<svg xmlns="http://www.w3.org/2000/svg" width="512" height="512"><path d="m39.755-.134 2.066-.007q3.442-.009 6.885-.006l4.974-.011q6.848-.014 13.694-.017 7.38-.007 14.76-.022c11.885-.02 23.77-.03 35.656-.039q8.396-.007 16.79-.015a106268 106268 0 0 1 70.298-.044l3.636-.002c19.44-.008 38.881-.033 58.321-.066q29.937-.049 59.872-.054c11.206-.002 22.412-.01 33.618-.036q14.316-.034 28.631-.02c4.868.004 9.736.002 14.604-.017q6.691-.026 13.382-.001 2.415.004 4.83-.014C435.516-.6 446.41 1.82 457 11c9.582 10.206 13.327 21.233 13.26 35.059.005.866.008 1.732.012 2.624.01 2.876.007 5.752.003 8.629l.015 6.216c.014 5.609.014 11.218.012 16.827q0 7.028.008 14.054.016 16.572.006 33.144c-.006 11.4.006 22.8.027 34.2q.026 14.689.02 29.377c-.001 5.846.001 11.693.015 17.54q.018 8.24-.002 16.478-.004 3.026.009 6.05c.01 2.751.002 5.5-.01 8.25l.022 2.426c-.055 5.61-1.428 8.584-4.78 12.911-2.834 2.129-5.75 1.673-9.168 1.578-3.403-.505-5.158-1.85-7.449-4.363-24.746-49.493-1-110.666-1-166H22v319c56.994-.198 56.994-.198 113.987-.45 11.018-.023 11.018-.023 16.174-.027q5.408-.01 10.814-.05c4.598-.035 9.196-.045 13.794-.038q2.531-.003 5.063-.031a405 405 0 0 1 6.84-.005l3.872-.014c4.569.813 6.191 2.371 9.456 5.615 1.614 3.229 1.596 6.51 1 10-1.736 3.025-3.836 5.418-7 7-2.468.104-4.907.148-7.375.147l-2.331.011q-3.888.015-7.775.019l-5.558.02q-7.566.025-15.13.036l-9.45.018q-14.775.029-29.55.041-17.067.015-34.134.077-13.184.044-26.367.048c-5.251.002-10.503.011-15.755.036q-7.41.035-14.823.018-2.72 0-5.44.02c-2.476.017-4.952.01-7.429-.003l-2.171.033C7.709 427.457 4.854 426.141 1 423c-1.405-2.81-1.13-5.131-1.134-8.275l-.007-1.982q-.009-3.32-.006-6.64l-.011-4.782q-.014-6.597-.017-13.195-.007-7.106-.022-14.21c-.02-11.451-.03-22.902-.039-34.353l-.015-16.171a98504 98504 0 0 1-.046-71.214A43491 43491 0 0 0-.363 196q-.049-28.83-.054-57.662c-.002-10.793-.01-21.587-.036-32.38q-.034-13.791-.02-27.582c.004-4.69.002-9.38-.017-14.07q-.026-6.446-.001-12.893.004-2.327-.014-4.652C-.597 33.926 1.367 23.824 10 14l1.52-1.836C18.88 3.963 28.917-.118 39.755-.134m-13.13 29.572-1.398 1.683C18.517 41.4 22 50.361 22 64h426c1.251-17.655 1.251-17.655-4.625-34.312l-1.352-1.864c-7.687-6.93-16.147-6.392-25.889-6.332a2051.113 2051.113 0 0 0-18.255-.015c-4.813.01-9.625-.005-14.438-.016-9.424-.018-18.847-.014-28.271-.002q-11.49.013-22.977.006l-3.304-.002-6.643-.004c-20.765-.011-41.53.002-62.296.023q-26.726.026-53.451-.003a38123 38123 0 0 0-68.692-.014l-3.29.002q-11.475.003-22.948-.012a8016 8016 0 0 0-27.968.013c-4.756.01-9.513.015-14.27.001q-6.531-.017-13.063.016-2.363.007-4.724-.007c-13.98-.104-13.98-.104-24.919 7.96"/><path d="M465.875 278c3.757 3.536 4.037 8.735 4.382 13.685l.01 3.842.014 2.161c.013 2.366.011 4.732.01 7.098q.009 2.558.02 5.117c.017 4.615.022 9.23.024 13.846q.001 4.328.01 8.656.028 15.105.026 30.21c-.002 9.382.02 18.763.051 28.145a7112 7112 0 0 1 .036 24.19c0 4.811.005 9.624.026 14.436q.029 6.784.005 13.568-.003 2.488.015 4.975a499 499 0 0 1-.01 6.798l.004 3.84c-.597 4.118-1.852 6.249-4.498 9.433-3.59 2.493-6.35 2.116-10.519 1.53-4.388-.937-8.398-2.636-12.513-4.391l-2.912-1.208q-3.116-1.293-6.227-2.6a1351 1351 0 0 0-9.943-4.108c-9.434-3.864-18.863-7.737-28.262-11.685a1501 1501 0 0 0-17.343-7.143 461 461 0 0 1-6.52-2.727C355.043 428.534 340.156 426.57 322 427l.598 3.904a1583 1583 0 0 1 5.192 37.026q.4 3.091.811 6.183c3.9 29.335 3.9 29.335.524 35.075-3.174 2.707-4.936 2.946-9.03 3.005l-3.096.049c-4.679.044-9.358.085-14.037.108q-3.702.025-7.402.082c-3.557.055-7.112.077-10.67.091l-3.333.07c-8.566-.024-8.566-.024-12.175-2.5-3.278-4.257-3.752-7.84-4.382-13.093l-.466-3.31a831 831 0 0 1-1.48-11.42l-.529-4.212q-.55-4.385-1.094-8.772-.696-5.598-1.405-11.196-.548-4.337-1.086-8.676-.258-2.063-.52-4.127-.363-2.887-.717-5.776l-.413-3.307c-.31-3.418-.339-6.774-.29-10.204l-3.75-.625c-12.401-2.838-23.558-10.114-30.61-20.781-8.34-13.542-11.298-27.621-8.425-43.395C216.529 351.77 220.55 344.215 227 337l1.652-1.898c8.463-9.12 20.352-14.895 32.831-15.378 4.31-.056 8.615.038 12.923.157 2.919.074 5.836.111 8.755.137 8.294.075 16.586.166 24.877.397 28.808.765 50.567-2.679 76.514-15.304 6.257-3.017 12.703-5.542 19.17-8.07 3.254-1.274 6.497-2.58 9.74-3.88l3.785-1.512q4.908-1.96 9.812-3.926 3.88-1.553 7.76-3.104l5.354-2.144 3.257-1.299 2.833-1.132c6.852-2.614 12.396-4.554 19.612-2.044m-28.743 30.03-2.425.975q-3.971 1.601-7.937 3.214l-5.503 2.22q-7.245 2.924-14.485 5.859c-5.791 2.345-11.585 4.682-17.378 7.02C380.6 330.873 371.8 334.438 363 338v70c5.242 2.621 10.343 5.054 15.761 7.208l2.21.888q3.572 1.433 7.146 2.857l4.996 2q5.211 2.087 10.424 4.166 6.69 2.671 13.377 5.354a8897 8897 0 0 0 10.294 4.117l4.935 1.976q3.434 1.376 6.872 2.744l2.065.83c3.357 1.398 3.357 1.398 6.92 1.86V305c-4.02 0-7.204 1.534-10.868 3.03M278 342v63h63v-63zm-33 8c-6.623 6.649-9.904 14.077-10.437 23.438.312 8.025 3.73 16.826 9.437 22.562 3.773 2.935 7.45 5.483 12 7v-59c-4.204 0-7.831 3.484-11 6m34 77q1.34 11.214 2.686 22.428.625 5.207 1.248 10.415.716 5.99 1.437 11.981l.448 3.766.425 3.518.37 3.089c.36 2.617.868 5.213 1.386 7.803h20c-.696-13.403-2.353-26.63-4.062-39.937l-.854-6.733Q301.047 435.164 300 427zM200.889 172.406c2.735 1.602 5.429 3.25 8.096 4.961 2.439 1.565 4.9 3.094 7.36 4.625q1.931 1.202 3.859 2.41c6.093 3.811 12.281 7.446 18.496 11.053 13.846 8.038 27.543 16.31 41.202 24.66 2.848 1.733 5.706 3.446 8.57 5.15 18.76 11.199 18.76 11.199 21.528 16.735.493 4.27.472 6.322-2.016 9.898-3.206 3.62-7 5.989-11.109 8.477l-2.495 1.543c-9.863 6.062-19.844 11.93-29.819 17.805a7398 7398 0 0 0-19.472 11.513q-2.022 1.2-4.045 2.396c-7.378 4.365-14.728 8.77-22.017 13.282l-3.842 2.37a924 924 0 0 0-7.154 4.462c-5.611 3.467-10.436 6.383-17.031 7.254-3.604-.896-6.35-2.35-9-5-1.102-3.183-1.135-6.217-1.154-9.566l-.026-3.432-.013-3.753-.025-3.963c-.026-4.332-.041-8.665-.055-12.997l-.017-4.48q-.033-9.315-.051-18.632-.023-13.34-.107-26.68-.056-9.389-.063-18.776c-.004-3.736-.016-7.471-.048-11.207-.036-4.168-.032-8.336-.024-12.504l-.05-3.74c.068-9.323.068-9.323 2.982-13.02 5.454-4.628 11.42-3.823 17.54-.844M203 201v88c4.12-1.648 7.73-3.489 11.504-5.754l1.902-1.13q3.081-1.835 6.156-3.678l4.286-2.556C243.31 266.057 259.768 256.204 276 246c-3.088-3.384-6.472-5.677-10.406-7.95l-1.907-1.121q-2.031-1.194-4.067-2.381c-3.611-2.104-7.21-4.228-10.811-6.349l-2.225-1.308c-7.972-4.693-15.874-9.502-23.764-14.332l-4.941-3.02-2.795-1.712c-3.98-2.358-8.04-4.58-12.084-6.827M510.438 291c2.328 4.47 2.86 8.09 1.562 13-2.556 3.834-5.646 6.861-9 10l-1.805 1.96c-3.247 3.31-5.649 4.444-10.32 4.665-3.363-.22-4.872-.624-7.875-2.312-3.04-3.515-3.915-5.862-4.187-10.5 2.477-7.955 10.344-15.13 17.187-19.813 5.227-2.09 10.184-.49 14.438 3M494 426c4.558 2.68 8.155 5.872 11.813 9.625l1.482 1.484c4.489 4.545 5.1 7.13 5.064 13.407C512 453 512 453 509.625 456.062c-3.54 2.614-5.929 3.472-10.414 3.407-4.425-.938-7.143-4.341-10.211-7.469l-2.21-2c-4.284-3.959-7.119-6.959-7.79-13 .885-4.515 2.446-7.092 6-10 3.351-1.117 5.483-1.345 9-1M495.875 361.75l2.145-.062c5.626-.042 8.446 1.349 12.765 4.695 2.129 2.834 1.673 5.75 1.578 9.168-.505 3.403-1.85 5.158-4.363 7.449-3.62 1.81-7.827 1.27-11.812 1.313l-2.737.087c-4.332.042-6.766.022-10.525-2.295-3.392-3.707-3.317-6.743-3.281-11.62.355-2.485.355-2.485 2.668-5.548 4.4-3.173 8.327-3.15 13.562-3.187M101 32c2.824 2.19 4.415 3.83 6 7 .578 7.05.578 7.05-1.75 10.875-3.087 2.915-4.91 3.95-9.125 4.5-3.97-.476-6.02-1.905-9.125-4.375-2.468-3.702-2.68-6.705-2-11 3.97-7.28 8.033-8.152 16-7M144 32c3.212 2.032 4.532 3.485 5.656 7.125.745 4.238.587 6.38-1.344 10.313-2.64 2.926-4.512 4.436-8.496 4.714-3.988-.38-6.439-.913-9.879-3.09-2.745-4.34-2.85-8.055-1.937-13.062 4.018-6.563 8.736-6.97 16-6M58 32c2.934 1.796 4.472 2.944 6 6 .615 4.967.782 8.763-1.937 13.063C58.056 53.597 54.732 54.433 50 54c-4.109-2.017-6.337-3.757-8-8-.323-4.628.46-8.146 2.938-12.062C49.278 31.192 52.993 31.088 58 32"/></svg>