<?xml version="1.0" encoding="UTF-8"?>
<svg version="1.1" xmlns="http://www.w3.org/2000/svg" width="64" height="64">
<path d="M0 0 C8.04071716 5.46768767 14.35713546 11.78672485 16.953125 21.328125 C17.97008074 32.73931439 17.08780568 41.52074309 9.640625 50.578125 C3.44330569 57.18333582 -0.71224943 59.25376376 -10.046875 61.328125 C-10.046875 53.738125 -10.046875 46.148125 -10.046875 38.328125 C-7.736875 38.328125 -5.426875 38.328125 -3.046875 38.328125 C-2.716875 35.358125 -2.386875 32.388125 -2.046875 29.328125 C-4.686875 29.328125 -7.326875 29.328125 -10.046875 29.328125 C-10.0738793 27.86989288 -10.09327287 26.41151825 -10.109375 24.953125 C-10.12097656 24.14101563 -10.13257813 23.32890625 -10.14453125 22.4921875 C-10.046875 20.328125 -10.046875 20.328125 -9.046875 18.328125 C-6.406875 18.328125 -3.766875 18.328125 -1.046875 18.328125 C-1.046875 15.688125 -1.046875 13.048125 -1.046875 10.328125 C-9.72770405 10.41321762 -9.72770405 10.41321762 -17.046875 14.328125 C-18.95874 19.20338075 -19.50233318 24.15497767 -20.046875 29.328125 C-22.686875 29.328125 -25.326875 29.328125 -28.046875 29.328125 C-28.046875 32.298125 -28.046875 35.268125 -28.046875 38.328125 C-25.406875 38.328125 -22.766875 38.328125 -20.046875 38.328125 C-20.046875 45.918125 -20.046875 53.508125 -20.046875 61.328125 C-31.6718198 58.74480393 -38.70951724 53.69377084 -45.1484375 43.6015625 C-48.53755992 36.41155512 -48.20262968 26.17816697 -46.390625 18.57421875 C-43.174644 10.60357618 -36.6188411 3.40655351 -29.046875 -0.671875 C-20.42315112 -4.1806681 -8.31673605 -4.50754397 0 0 Z " fill="#FFFFFF" transform="translate(47.046875,2.671875)"/>
</svg>
