<svg fill="#191919" width="32px" height="32px" viewBox="0 0 0.96 0.96" xmlns="http://www.w3.org/2000/svg" data-name="Layer 1"><path d="M0.48 0.381A0.099 0.099 0 1 0 0.579 0.48 0.099 0.099 0 0 0 0.48 0.381m0.397 -0.098a0.26 0.26 0 0 0 -0.017 -0.09 0.16 0.16 0 0 0 -0.093 -0.093 0.26 0.26 0 0 0 -0.09 -0.017C0.626 0.08 0.61 0.08 0.48 0.08s-0.146 0 -0.197 0.003a0.26 0.26 0 0 0 -0.09 0.017 0.16 0.16 0 0 0 -0.093 0.093 0.26 0.26 0 0 0 -0.017 0.09C0.08 0.334 0.08 0.35 0.08 0.48s0 0.146 0.003 0.197a0.276 0.276 0 0 0 0.017 0.091 0.156 0.156 0 0 0 0.036 0.056 0.156 0.156 0 0 0 0.056 0.036 0.26 0.26 0 0 0 0.09 0.017C0.334 0.88 0.35 0.88 0.48 0.88s0.146 0 0.197 -0.003a0.26 0.26 0 0 0 0.09 -0.017 0.156 0.156 0 0 0 0.056 -0.036 0.156 0.156 0 0 0 0.036 -0.056 0.264 0.264 0 0 0 0.017 -0.091C0.88 0.626 0.88 0.61 0.88 0.48s0 -0.146 -0.003 -0.197m-0.102 0.32a0.228 0.228 0 0 1 -0.016 0.072A0.154 0.154 0 0 1 0.675 0.76a0.228 0.228 0 0 1 -0.072 0.014H0.358A0.228 0.228 0 0 1 0.285 0.76a0.14 0.14 0 0 1 -0.052 -0.034A0.14 0.14 0 0 1 0.2 0.675a0.22 0.22 0 0 1 -0.014 -0.072V0.358A0.22 0.22 0 0 1 0.2 0.285a0.14 0.14 0 0 1 0.034 -0.052A0.144 0.144 0 0 1 0.285 0.2a0.228 0.228 0 0 1 0.072 -0.014h0.245a0.228 0.228 0 0 1 0.072 0.014 0.14 0.14 0 0 1 0.052 0.034A0.14 0.14 0 0 1 0.76 0.285a0.228 0.228 0 0 1 0.014 0.072V0.48c0 0.082 0.003 0.091 0.002 0.122Zm-0.064 -0.298a0.095 0.095 0 0 0 -0.056 -0.056A0.16 0.16 0 0 0 0.6 0.24H0.36a0.16 0.16 0 0 0 -0.055 0.01 0.095 0.095 0 0 0 -0.056 0.054A0.172 0.172 0 0 0 0.24 0.36v0.24a0.172 0.172 0 0 0 0.01 0.055 0.095 0.095 0 0 0 0.056 0.056 0.172 0.172 0 0 0 0.053 0.01h0.24a0.16 0.16 0 0 0 0.055 -0.01 0.095 0.095 0 0 0 0.056 -0.056 0.16 0.16 0 0 0 0.01 -0.055V0.36a0.152 0.152 0 0 0 -0.01 -0.055ZM0.48 0.633A0.152 0.152 0 0 1 0.328 0.48 0.153 0.153 0 1 1 0.48 0.633m0.16 -0.276a0.036 0.036 0 0 1 0 -0.072 0.036 0.036 0 0 1 0 0.072"/></svg>