<?xml version="1.0" encoding="UTF-8"?>
<svg version="1.1" xmlns="http://www.w3.org/2000/svg" width="64" height="64">
<path d="M0 0 C1.23746223 -0.00855011 1.23746223 -0.00855011 2.49992371 -0.01727295 C4.24578573 -0.02671623 5.99166552 -0.03325426 7.73754883 -0.03710938 C10.39761793 -0.04680086 13.05690953 -0.07782412 15.71679688 -0.109375 C17.41536001 -0.11590689 19.11392865 -0.12115663 20.8125 -0.125 C21.60332474 -0.1373468 22.39414948 -0.1496936 23.2089386 -0.16241455 C28.91212695 -0.13961327 33.13746026 0.92655533 37.46875 4.921875 C37.94699219 5.5096875 38.42523438 6.0975 38.91796875 6.703125 C39.65466797 7.58484375 39.65466797 7.58484375 40.40625 8.484375 C43.21231759 12.50610054 42.78356588 16.90466288 42.80859375 21.59765625 C42.81429382 22.42263107 42.8199939 23.2476059 42.8258667 24.09757996 C42.83530998 25.84344198 42.84184801 27.58932177 42.84570312 29.33520508 C42.85539461 31.99527418 42.88641787 34.65456578 42.91796875 37.31445312 C42.92450064 39.01301626 42.92975038 40.7115849 42.93359375 42.41015625 C42.94594055 43.20098099 42.95828735 43.99180573 42.9710083 44.80659485 C42.94820702 50.5097832 41.88203842 54.73511651 37.88671875 59.06640625 C37.29890625 59.54464844 36.71109375 60.02289063 36.10546875 60.515625 C35.22375 61.25232422 35.22375 61.25232422 34.32421875 62.00390625 C30.30249321 64.80997384 25.90393087 64.38122213 21.2109375 64.40625 C20.38596268 64.41195007 19.56098785 64.41765015 18.71101379 64.42352295 C16.96515177 64.43296623 15.21927198 64.43950426 13.47338867 64.44335938 C10.81331957 64.45305086 8.15402797 64.48407412 5.49414062 64.515625 C3.79557749 64.52215689 2.09700885 64.52740663 0.3984375 64.53125 C-0.78779961 64.5497702 -0.78779961 64.5497702 -1.9980011 64.56866455 C-7.70118945 64.54586327 -11.92652276 63.47969467 -16.2578125 59.484375 C-16.73605469 58.8965625 -17.21429688 58.30875 -17.70703125 57.703125 C-18.19816406 57.1153125 -18.68929688 56.5275 -19.1953125 55.921875 C-22.00138009 51.90014946 -21.57262838 47.50158712 -21.59765625 42.80859375 C-21.60335632 41.98361893 -21.6090564 41.1586441 -21.6149292 40.30867004 C-21.62437248 38.56280802 -21.63091051 36.81692823 -21.63476562 35.07104492 C-21.64445711 32.41097582 -21.67548037 29.75168422 -21.70703125 27.09179688 C-21.71356314 25.39323374 -21.71881288 23.6946651 -21.72265625 21.99609375 C-21.73500305 21.20526901 -21.74734985 20.41444427 -21.7600708 19.59965515 C-21.73726952 13.8964668 -20.67110092 9.67113349 -16.67578125 5.33984375 C-16.08796875 4.86160156 -15.50015625 4.38335937 -14.89453125 3.890625 C-14.30671875 3.39949219 -13.71890625 2.90835937 -13.11328125 2.40234375 C-9.09155571 -0.40372384 -4.69299337 0.02502787 0 0 Z M-12.76953125 10.515625 C-16.65360405 16.93928387 -15.57832408 24.81948198 -15.58203125 32.078125 C-15.59427734 33.33238281 -15.60652344 34.58664063 -15.61914062 35.87890625 C-15.68120849 44.74551792 -15.68120849 44.74551792 -13.39453125 53.203125 C-6.80581329 59.79184296 1.16031504 58.38634253 9.91796875 58.390625 C11.87766602 58.40899414 11.87766602 58.40899414 13.87695312 58.42773438 C15.77864258 58.43063477 15.77864258 58.43063477 17.71875 58.43359375 C18.87157471 58.43770264 20.02439941 58.44181152 21.2121582 58.44604492 C26.23387731 58.08655068 30.31378093 57.46082103 33.98046875 53.890625 C37.86454155 47.46696613 36.78926158 39.58676802 36.79296875 32.328125 C36.81133789 30.44673828 36.81133789 30.44673828 36.83007812 28.52734375 C37.20185895 17.81919233 37.20185895 17.81919233 32.29296875 8.828125 C25.86930988 4.9440522 17.98911177 6.01933217 10.73046875 6.015625 C9.47621094 6.00337891 8.22195312 5.99113281 6.9296875 5.97851562 C-3.77846392 5.6067348 -3.77846392 5.6067348 -12.76953125 10.515625 Z " fill="#FFFFFF" transform="translate(21.39453125,-0.203125)"/>
<path d="M0 0 C4.51846921 3.04505534 8.13526194 6.71828583 9.875 11.9375 C10.24323488 17.55308189 10.11391406 21.13136946 6.875 25.9375 C2.53725895 30.31625988 -0.59518385 32.77161042 -6.9375 33.1875 C-11.84139614 33.08888417 -15.24335924 31.80151415 -18.79296875 28.28515625 C-22.92159372 23.64658235 -24.46136818 20.41985412 -24.33203125 13.98828125 C-23.73197972 8.04437455 -20.17763866 4.75779677 -15.84375 1.13671875 C-11.07056221 -2.19366455 -5.26006631 -1.78842255 0 0 Z M-16.125 9.9375 C-17.72586627 13.13923254 -17.62417089 16.46327059 -17.125 19.9375 C-15.33136089 22.7475346 -14.10619065 24.44690468 -11.125 25.9375 C-5.31154053 26.47115513 -5.31154053 26.47115513 -0.1875 24.0625 C2.97195358 20.8073054 3.20921243 18.51336762 3.16796875 13.9765625 C2.71245033 10.80615433 1.12184343 9.1182598 -1.125 6.9375 C-6.84372108 4.07813946 -11.90270087 5.58725241 -16.125 9.9375 Z " fill="#FFFFFF" transform="translate(39.125,16.0625)"/>
<path d="M0 0 C3 0.125 3 0.125 4 1.125 C4.125 4.125 4.125 4.125 4 7.125 C3 8.125 3 8.125 0.5625 8.3125 C-2 8.125 -2 8.125 -4 6.125 C-4.1875 3.5625 -4.1875 3.5625 -4 1.125 C-3 0.125 -3 0.125 0 0 Z " fill="#FFFFFF" transform="translate(49,10.875)"/>
</svg>
