<?xml version="1.0" encoding="UTF-8"?>
<svg version="1.1" xmlns="http://www.w3.org/2000/svg" width="32" height="32">
<path d="M0 0 C10.56 0 21.12 0 32 0 C32 10.56 32 21.12 32 32 C21.44 32 10.88 32 0 32 C0 21.44 0 10.88 0 0 Z " fill="#030303" transform="translate(0,0)"/>
<path d="M0 0 C3.1875 -0.4375 3.1875 -0.4375 7 0 C9.11158381 2.08545034 10.56739143 4.41206193 12 7 C15.81915388 5.49961812 17.49946383 3.16734582 20 0 C20.66 0 21.32 0 22 0 C20.44499019 3.81684226 17.96404505 6.19195732 15 9 C16.32038384 12.6150315 17.93170407 15.59250151 20.125 18.75 C23 22.90430622 23 22.90430622 23 24 C19.8125 24.4375 19.8125 24.4375 16 24 C13.88841619 21.91454966 12.43260857 19.58793807 11 17 C7.18084612 18.50038188 5.50053617 20.83265418 3 24 C2.34 24 1.68 24 1 24 C2.66751148 20.05860922 5.22710649 17.2107188 8 14 C6.6744419 10.37723685 5.05653045 7.36494652 2.875 4.1875 C2.33617187 3.39730469 1.79734375 2.60710938 1.2421875 1.79296875 C0.83226562 1.20128906 0.42234375 0.60960937 0 0 Z " fill="#D9D9D9" transform="translate(4,4)"/>
<path d="M0 0 C0.99 0 1.98 0 3 0 C4.31860352 1.40527344 4.31860352 1.40527344 5.62890625 3.359375 C6.10650391 4.06320313 6.58410156 4.76703125 7.07617188 5.4921875 C7.56666016 6.23726562 8.05714844 6.98234375 8.5625 7.75 C9.05685547 8.47960938 9.55121094 9.20921875 10.06054688 9.9609375 C12.25903933 13.23338906 14.29052925 16.44161079 16 20 C13.44130634 19.62447205 12.24791099 19.26172272 10.44433594 17.35766602 C9.96254883 16.66342529 9.48076172 15.96918457 8.984375 15.25390625 C8.45585937 14.49916016 7.92734375 13.74441406 7.3828125 12.96679688 C6.84398437 12.17337891 6.30515625 11.37996094 5.75 10.5625 C5.19570312 9.77294922 4.64140625 8.98339844 4.0703125 8.16992188 C0 2.29002463 0 2.29002463 0 0 Z " fill="#151515" transform="translate(8,6)"/>
<path d="M0 0 C0.66 0 1.32 0 2 0 C0.43903239 3.83146596 -1.91411305 6.28148054 -5 9 C-7.3125 9.8125 -7.3125 9.8125 -9 10 C-13 4.25 -13 4.25 -13 2 C-14.32 2.33 -15.64 2.66 -17 3 C-17 2.34 -17 1.68 -17 1 C-14.75 0.625 -14.75 0.625 -12 1 C-9.6875 4 -9.6875 4 -8 7 C-4.18084612 5.49961812 -2.50053617 3.16734582 0 0 Z " fill="#C3C3C3" transform="translate(24,4)"/>
<path d="M0 0 C0.66 0 1.32 0 2 0 C0.4169423 4.2742558 -2.50568404 6.26531794 -6 9 C-4.4722133 5.56247993 -2.49818944 2.81046312 0 0 Z " fill="#D8D8D8" transform="translate(24,4)"/>
</svg>
