<svg width="32px" height="32px" viewBox="0 0 0.96 0.96" fill="none" xmlns="http://www.w3.org/2000/svg"><path fill-rule="evenodd" clip-rule="evenodd" d="M0.47 0.16c-0.04 0 -0.192 0.001 -0.298 0.009 -0.017 0.002 -0.055 0.002 -0.088 0.039 -0.026 0.028 -0.035 0.09 -0.035 0.09S0.041 0.366 0.04 0.436v0.088c0.001 0.07 0.009 0.138 0.009 0.138s0.009 0.063 0.035 0.09c0.033 0.036 0.077 0.035 0.097 0.039 0.064 0.006 0.261 0.009 0.294 0.009h0.016c0.042 0 0.192 -0.002 0.296 -0.009 0.017 -0.002 0.055 -0.002 0.088 -0.039 0.026 -0.028 0.035 -0.09 0.035 -0.09S0.92 0.588 0.92 0.514v-0.069c0 -0.074 -0.009 -0.147 -0.009 -0.147s-0.009 -0.063 -0.035 -0.09c-0.033 -0.036 -0.071 -0.036 -0.088 -0.039 -0.106 -0.008 -0.258 -0.009 -0.298 -0.009zM0.389 0.342l0.238 0.128 -0.238 0.127z" fill="#3F3F46"/></svg>