<svg width="32px" height="32px" viewBox="0 0 0.64 0.64" xmlns="http://www.w3.org/2000/svg" fill="none"><path fill="#000000" fill-rule="evenodd" d="M0.539 0.136c0.024 0.006 0.043 0.025 0.049 0.049C0.6 0.229 0.6 0.32 0.6 0.32s0 0.091 -0.012 0.135a0.07 0.07 0 0 1 -0.049 0.049C0.495 0.516 0.32 0.516 0.32 0.516s-0.175 0 -0.219 -0.012a0.07 0.07 0 0 1 -0.049 -0.049C0.04 0.411 0.04 0.32 0.04 0.32s0 -0.091 0.012 -0.135c0.006 -0.024 0.025 -0.043 0.049 -0.049C0.145 0.124 0.32 0.124 0.32 0.124s0.175 0 0.219 0.012m-0.13 0.184 -0.146 0.084V0.236z" clip-rule="evenodd"/></svg>