<svg width="32px" height="32px" viewBox="0 0 0.96 0.96" fill="none" xmlns="http://www.w3.org/2000/svg"><path fill-rule="evenodd" clip-rule="evenodd" d="M0.902 0.257a0.111 0.111 0 0 0 -0.078 -0.078C0.755 0.16 0.48 0.16 0.48 0.16s-0.275 0 -0.344 0.019A0.111 0.111 0 0 0 0.058 0.257C0.04 0.326 0.04 0.47 0.04 0.47s0 0.144 0.018 0.213a0.111 0.111 0 0 0 0.078 0.078C0.205 0.78 0.48 0.78 0.48 0.78s0.275 0 0.344 -0.018a0.111 0.111 0 0 0 0.078 -0.078c0.018 -0.069 0.018 -0.213 0.018 -0.213s0 -0.144 -0.018 -0.213M0.39 0.339v0.262l0.23 -0.131z" fill="#000000"/></svg>