<svg version="1.1" id="Icons" xmlns="http://www.w3.org/2000/svg" xmlns:xlink="http://www.w3.org/1999/xlink" viewBox="0 0 16 16" xml:space="preserve" width="16" height="16"><style type="text/css">.st0{fill:none;stroke:#000000;stroke-width:2;stroke-linecap:round;stroke-linejoin:round;stroke-miterlimit:10;}
	.st1{fill:none;stroke:#000000;stroke-width:2;}
	.st2{fill:none;stroke:#000000;stroke-width:2;stroke-miterlimit:10;}</style><path class="st0" d="M6.5 6v4c0 0.4 0.45 0.65 0.8 0.45l3 -2c0.3 -0.2 0.3 -0.65 0 -0.85l-3 -2a0.5 0.5 0 0 0 -0.8 0.4"/><g><path class="st0" d="M14.05 12.75c-4.85 0.35 -7.25 0.35 -12.1 0 -0.55 -0.05 -1.1 -0.55 -1.15 -1.1 -0.4 -2.9 -0.4 -4.35 0 -7.25 0.1 -0.55 0.6 -1.1 1.15 -1.1 4.85 -0.35 7.25 -0.35 12.1 0 0.55 0.05 1.1 0.55 1.15 1.1 0.4 2.9 0.4 4.35 0 7.25 -0.05 0.55 -0.6 1.05 -1.15 1.1"/></g></svg>