<svg fill="#000000" height="8px" width="8px" version="1.1" id="Icons" xmlns="http://www.w3.org/2000/svg" xmlns:xlink="http://www.w3.org/1999/xlink" viewBox="0 0 0.32 0.32" xml:space="preserve"><path d="M0.314 0.086c-0.002 -0.016 -0.016 -0.03 -0.033 -0.031 -0.098 -0.007 -0.146 -0.007 -0.243 0C0.022 0.056 0.008 0.07 0.006 0.086c-0.008 0.059 -0.008 0.089 0 0.148 0.002 0.016 0.017 0.03 0.033 0.031 0.048 0.003 0.085 0.005 0.121 0.005s0.073 -0.002 0.122 -0.005c0.016 -0.001 0.03 -0.015 0.033 -0.031 0.007 -0.059 0.007 -0.089 -0.001 -0.148m-0.103 0.091 -0.06 0.04c-0.003 0.002 -0.007 0.003 -0.011 0.003 -0.003 0 -0.007 -0.001 -0.009 -0.002 -0.007 -0.004 -0.011 -0.01 -0.011 -0.018v-0.08c0 -0.008 0.004 -0.014 0.011 -0.018s0.014 -0.003 0.021 0.001l0.06 0.04c0.006 0.004 0.009 0.01 0.009 0.017s-0.004 0.013 -0.01 0.017"/></svg>