<svg width="150" height="24" viewBox="0 0 150 24" fill="none" xmlns="http://www.w3.org/2000/svg">
<path d="M90.6426 4.90527C92.9632 4.90527 94.361 6.16376 94.7568 6.68848V5.24609H98.1865V17.2324C98.1865 22.3472 94.8362 24 90.7744 24C88.8757 24 86.9506 23.4231 85.7109 22.7412L86.8184 19.9609C87.2669 20.1971 88.8493 20.9052 90.748 20.9053C92.7262 20.9053 94.5459 20.3014 94.5459 18.1768V17.5479C94.2551 17.9419 92.9101 19.3047 90.5107 19.3047C86.5282 19.3046 83.917 16.341 83.917 12.1182C83.917 7.8953 86.7128 4.90539 90.6426 4.90527ZM106.87 4.90527C109.191 4.90534 110.589 6.16389 110.984 6.68848V5.24609H114.413V17.2324C114.413 22.3471 111.064 23.9999 107.002 24C105.103 24 103.177 23.4232 101.938 22.7412L103.046 19.9609C103.495 20.1972 105.077 20.9053 106.976 20.9053C108.954 20.9052 110.773 20.3013 110.773 18.1768V17.5479C110.483 17.9417 109.138 19.3046 106.738 19.3047C102.756 19.3047 100.145 16.341 100.145 12.1182C100.145 7.89522 102.94 4.90527 106.87 4.90527ZM3.71973 12.0654C3.71973 14.3999 5.06473 15.8691 7.43848 15.8691C9.81205 15.869 11.1572 14.3998 11.1572 12.0654V0.603516H14.876V12.0654C14.876 16.3932 12.2122 19.3046 7.43848 19.3047C2.6646 19.3047 0 16.3933 0 12.0654V0.603516H3.71973V12.0654ZM21.6377 6.68848C21.9806 6.21634 23.3528 4.90527 25.7266 4.90527C29.6825 4.90544 32.2676 7.86911 32.2676 12.1182C32.2675 16.341 29.4709 19.3047 25.5146 19.3047C23.1678 19.3045 21.7962 17.9939 21.4268 17.5479V18.9639H17.998V0H21.6377V6.68848ZM40.3672 4.90527C44.6398 4.90527 47.0663 7.73759 47.0664 12.2227C47.0664 12.4849 47.0664 12.7475 47.04 13.0098H37.334C37.4131 14.8458 38.8901 16.1571 40.9209 16.1572C42.7935 16.1572 43.8749 15.0554 44.2705 14.4785L46.6709 16.2881C46.1433 17.2586 44.297 19.3047 40.8682 19.3047C36.4375 19.3046 33.6154 16.2624 33.6152 12.1445C33.6152 8.00029 36.4374 4.9053 40.3672 4.90527ZM63.1543 4.90527C65.7652 4.90535 67.2156 6.26936 67.875 7.34473L65.4746 9.12793C65.0527 8.60339 64.2881 7.81654 62.9961 7.81641C62.152 7.81641 61.5713 8.23604 61.5713 8.91797C61.5713 11.095 68.1123 10.0462 68.1123 14.9512C68.1121 17.6262 65.7916 19.3045 62.8115 19.3047C60.095 19.3047 58.4066 17.9411 57.668 16.7607L59.8047 14.8721C60.4904 15.659 61.4136 16.3672 62.9697 16.3672C63.998 16.3671 64.657 15.9214 64.6572 15.1348C64.6572 13.0365 58.1428 13.8491 58.1426 8.9707C58.1426 6.42644 60.3321 4.90527 63.1543 4.90527ZM73.5869 13.5869C73.5869 15.1082 74.6422 16.0527 75.8818 16.0527C77.385 16.0527 78.3348 14.9511 78.335 13.4824V5.24609H81.9746V18.9639H78.4141V17.3643C77.8338 18.3084 76.5149 19.3046 74.7217 19.3047C70.7917 19.3047 69.9473 16.0785 69.9473 13.167V5.24609H73.5869V13.5869ZM123.176 4.90527C127.448 4.90531 129.875 7.73762 129.875 12.2227C129.875 12.4849 129.875 12.7475 129.849 13.0098H120.143C120.222 14.8458 121.699 16.1572 123.729 16.1572C125.602 16.1572 126.683 15.0554 127.079 14.4785L129.479 16.2881C128.952 17.2586 127.106 19.3047 123.677 19.3047C119.246 19.3047 116.424 16.2625 116.424 12.1445C116.424 8.00027 119.246 4.90527 123.176 4.90527ZM136.458 4.90527C139.069 4.9054 140.52 6.26938 141.179 7.34473L138.778 9.12793C138.356 8.60339 137.592 7.81654 136.3 7.81641C135.456 7.81641 134.875 8.23604 134.875 8.91797C134.875 11.095 141.416 10.0462 141.416 14.9512C141.416 17.6262 139.095 19.3045 136.115 19.3047C133.399 19.3047 131.71 17.9411 130.972 16.7607L133.108 14.8721C133.794 15.6589 134.718 16.3672 136.273 16.3672C137.302 16.3671 137.961 15.9214 137.961 15.1348C137.961 13.0365 131.446 13.8491 131.446 8.9707C131.446 6.42644 133.636 4.90527 136.458 4.90527ZM147.287 2.36035V5.24609H149.872V8.18359H147.287V13.4824C147.287 15.5278 147.92 15.9472 149.317 15.9473C149.556 15.9473 149.687 15.9471 149.977 15.9209V19.0166C149.968 19.0185 149.416 19.1474 148.422 19.1475C145.125 19.1475 143.674 17.3114 143.674 13.5869V8.18359H142.223V5.24609H143.7V2.36035H147.287ZM56.4453 8.57715C53.729 8.57724 52.7266 10.2557 52.7266 12.9834V18.9639H49.0869V5.24609H52.6475V7.23926C53.2541 5.87539 54.6256 4.90535 56.4453 4.90527V8.57715ZM25.0664 8.10449C23.0621 8.10469 21.5322 9.57421 21.5322 12.1445C21.5323 14.3213 22.8513 16.1043 25.0664 16.1045C27.1236 16.1045 28.6015 14.5837 28.6016 12.1445C28.6016 9.75764 27.1764 8.10449 25.0664 8.10449ZM91.0908 8.10449C89.0338 8.10464 87.583 9.67879 87.583 12.0918C87.583 14.5048 89.0601 16.1043 91.1172 16.1045C93.2272 16.1045 94.6514 14.5311 94.6514 12.0918C94.6514 9.75737 93.2273 8.10449 91.0908 8.10449ZM107.318 8.10449C105.261 8.10449 103.811 9.67868 103.811 12.0918C103.811 14.5049 105.288 16.1045 107.345 16.1045C109.455 16.1044 110.879 14.5311 110.879 12.0918C110.879 9.75742 109.455 8.10456 107.318 8.10449ZM40.4199 7.86914C38.7057 7.8692 37.5976 9.0757 37.4395 10.6494H43.374C43.2949 8.97074 42.0816 7.86914 40.4199 7.86914ZM123.229 7.86914C121.514 7.86914 120.406 9.07566 120.248 10.6494H126.183C126.104 8.97074 124.89 7.86914 123.229 7.86914Z" fill="#FF5E29"/>
</svg>
